<?xml version="1.0" encoding="utf-8"?>
<!-- Generator: Adobe Illustrator 15.0.2, SVG Export Plug-In . SVG Version: 6.00 Build 0)  -->
<!DOCTYPE svg PUBLIC "-//W3C//DTD SVG 1.1//EN" "http://www.w3.org/Graphics/SVG/1.1/DTD/svg11.dtd">
<svg version="1.1" xmlns="http://www.w3.org/2000/svg" xmlns:xlink="http://www.w3.org/1999/xlink" x="0px" y="0px"
	 width="337.755px" height="272.449px" viewBox="0 0 337.755 272.449" enable-background="new 0 0 337.755 272.449"
	 xml:space="preserve">
<g id="Layer_2">
	<g>
		<path fill="#fff" d="M151.57,167.809C149.238,167.85,152.518,168.435,151.57,167.809L151.57,167.809z"/>
		<path fill="#fff" d="M151.648,167.807c-0.032,0-0.051-0.001-0.082,0c0.002,0,0.003,0.001,0.004,0.002
			C151.599,167.809,151.618,167.807,151.648,167.807z"/>
		<path fill="#fff" d="M314.787,82.354c0.107-6.488-2.433-13.78-5.528-19.257c-2.308-4.083-6.317-8.353-9.842-11.52
			c-18.168-16.322-28.526-7.333-35.701-0.7c-2.237,2.068-2.27,3.293-3.641,5.093c-0.304,0.398-3.672,1.818-5.787,2.557
			c-0.195,0.091-3.67,2.723-3.842,2.855c-10.326,8.022-18.942,15.492-28.717,23.252c-9.475,7.523-19.389,14.409-28.879,21.903
			c-1.732,1.369-2.293-0.597-3.672-0.049c-2.898,1.151-6.391,0.794-9.128,2.294c-5.173,2.834-6.946,5.338-13.006,10.546
			c-0.708,0.289-37.779,29.6-40.088,31.758c-1.979,9.094-5.924,18.204-1.752,20.326c-0.073,0.445-2.689,2.451-2.759,2.882
			c-0.418,2.601-1.055,6.707-1.316,8.765c-2.155,1.023-10.241,1.751-9.13,17.466c0.222,3.131,3.232,9.443,7.729,13.267
			c3.988,3.39,9.358,4.499,11.815,4.499c14.407,0,11.146-8.399,12.132-12.81c0.074-0.331,21.029-16.662,21.233-16.722
			c7.479,2.715,13.671,6.328,20.959,9.354c6.684-5.737,10.271-8.253,14.919-11.987c4.355,1.596,0,0,4.355,1.596
			c3.082-2.177,10.626-6.771,12.742-9.937c0.916-0.297,8.185-6.45,8.91-7.103c2.81-2.526,3.88-11.688,6.761-15.744
			c1.807-2.543,20.072-16.784,36.725-29.935c8.473-6.69,15.86-12.775,21.766-17.558c2.651-2.147,3.149-4.476,3.857-5.791
			C302.579,101.655,314.663,89.869,314.787,82.354z"/>
	</g>
	<path fill="#fff" d="M234.197,155.702c-1.129,2.479-2.079,5.03-3.102,7.555c-0.242,0.598,0.726,0.855,0.965,0.266
		c0.989-2.443,1.907-4.916,3-7.316C235.326,155.624,234.463,155.115,234.197,155.702z"/>
	<path fill="#fff" d="M319.605,77.578c-0.898-0.17-1.81-0.243-2.723-0.274c-0.01-0.022-0.02-0.045-0.029-0.067
		c-0.098-0.225-0.28-0.284-0.457-0.247c-0.063-0.008-0.13-0.005-0.203,0.017c-1.646,0.48-1.164,3.929,0.291,4.382
		c0.98,0.306,1.409-0.607,1.316-1.413c0.072-0.008,0.144-0.023,0.208-0.053c0.771-0.346,1.509-0.832,1.896-1.609
		C320.038,78.046,319.942,77.643,319.605,77.578z"/>
	<path fill="#fff" d="M310.653,51.056c-0.578-3.358-6.012-0.117-6.864,1.487c-0.081,0.152-0.074,0.299-0.021,0.423
		c-0.923,1.901,1.052,2.71,2.608,3.362c0.194,0.081,0.473-0.05,0.564-0.23c0.103-0.202,0.136-0.377,0.125-0.534
		C308.944,55.431,311.003,53.091,310.653,51.056z"/>
</g>
<g id="Layer_1">
	<polyline fill-rule="evenodd" clip-rule="evenodd" fill="#fff" points="125.205,152.911 121.453,151.244 67.799,194.353 
		76.357,198.63 121.93,161.96 	"/>
	<polyline fill-rule="evenodd" clip-rule="evenodd" fill="#fff" points="125.205,152.911 121.453,151.244 67.799,194.353 
		76.357,198.63 121.93,161.96 	"/>
	
		<polyline fill="none" stroke="#000" stroke-width="0.878" stroke-linecap="round" stroke-linejoin="round" stroke-miterlimit="10" points="
		125.205,152.911 121.453,151.244 67.799,194.353 76.357,198.63 121.93,161.96 	"/>
	
		<polyline fill="none" stroke="#000" stroke-width="0.878" stroke-linecap="round" stroke-linejoin="round" stroke-miterlimit="10" points="
		125.205,152.911 121.453,151.244 67.799,194.353 76.357,198.63 121.93,161.96 	"/>
	<polyline fill-rule="evenodd" clip-rule="evenodd" fill="#fff" points="110.919,146.638 57.266,189.746 65.824,194.023 
		119.806,150.586 110.919,146.638 	"/>
	<polygon fill-rule="evenodd" clip-rule="evenodd" fill="#fff" points="110.919,146.638 57.266,189.746 65.824,194.023 
		119.806,150.586 	"/>
	
		<polygon fill="none" stroke="#000" stroke-width="0.878" stroke-linecap="round" stroke-linejoin="round" stroke-miterlimit="10" points="
		110.919,146.638 57.266,189.746 65.824,194.023 119.806,150.586 	"/>
	
		<polygon fill="none" stroke="#000" stroke-width="0.878" stroke-linecap="round" stroke-linejoin="round" stroke-miterlimit="10" points="
		110.919,146.638 57.266,189.746 65.824,194.023 119.806,150.586 	"/>
	<polyline fill-rule="evenodd" clip-rule="evenodd" fill="#fff" points="100.715,142.03 47.062,185.14 55.62,189.417 
		109.602,145.979 100.715,142.03 	"/>
	<polygon fill-rule="evenodd" clip-rule="evenodd" fill="#fff" points="100.715,142.03 47.062,185.14 55.62,189.417 
		109.602,145.979 	"/>
	
		<polygon fill="none" stroke="#000" stroke-width="0.878" stroke-linecap="round" stroke-linejoin="round" stroke-miterlimit="10" points="
		100.715,142.03 47.062,185.14 55.62,189.417 109.602,145.979 	"/>
	
		<polygon fill="none" stroke="#000" stroke-width="0.878" stroke-linecap="round" stroke-linejoin="round" stroke-miterlimit="10" points="
		100.715,142.03 47.062,185.14 55.62,189.417 109.602,145.979 	"/>
	<polyline fill-rule="evenodd" clip-rule="evenodd" fill="#fff" points="48.203,136.898 34.737,143.649 5.588,166.492 
		14.146,170.77 53.206,139.398 48.203,136.898 	"/>
	<polygon fill-rule="evenodd" clip-rule="evenodd" fill="#fff" points="48.203,136.898 34.737,143.649 5.588,166.492 
		14.146,170.77 53.206,139.398 	"/>
	
		<polygon fill="none" stroke="#000" stroke-width="0.878" stroke-linecap="round" stroke-linejoin="round" stroke-miterlimit="10" points="
		48.203,136.898 34.737,143.649 5.588,166.492 14.146,170.77 53.206,139.398 	"/>
	
		<polygon fill="none" stroke="#000" stroke-width="0.878" stroke-linecap="round" stroke-linejoin="round" stroke-miterlimit="10" points="
		48.203,136.898 34.737,143.649 5.588,166.492 14.146,170.77 53.206,139.398 	"/>
	<polyline fill-rule="evenodd" clip-rule="evenodd" fill="#fff" points="69.555,127.99 15.902,171.099 24.46,175.376 
		78.442,131.939 69.555,127.99 	"/>
	<polygon fill-rule="evenodd" clip-rule="evenodd" fill="#fff" points="69.555,127.99 15.902,171.099 24.46,175.376 
		78.442,131.939 	"/>
	
		<polygon fill="none" stroke="#000" stroke-width="0.878" stroke-linecap="round" stroke-linejoin="round" stroke-miterlimit="10" points="
		69.555,127.99 15.902,171.099 24.46,175.376 78.442,131.939 	"/>
	
		<polygon fill="none" stroke="#000" stroke-width="0.878" stroke-linecap="round" stroke-linejoin="round" stroke-miterlimit="10" points="
		69.555,127.99 15.902,171.099 24.46,175.376 78.442,131.939 	"/>
	<polyline fill-rule="evenodd" clip-rule="evenodd" fill="#fff" points="79.978,132.816 26.325,175.925 34.883,180.203 
		88.865,136.766 79.978,132.816 	"/>
	<polygon fill-rule="evenodd" clip-rule="evenodd" fill="#fff" points="79.978,132.816 26.325,175.925 34.883,180.203 
		88.865,136.766 	"/>
	
		<polygon fill="none" stroke="#000" stroke-width="0.878" stroke-linecap="round" stroke-linejoin="round" stroke-miterlimit="10" points="
		79.978,132.816 26.325,175.925 34.883,180.203 88.865,136.766 	"/>
	
		<polygon fill="none" stroke="#000" stroke-width="0.878" stroke-linecap="round" stroke-linejoin="round" stroke-miterlimit="10" points="
		79.978,132.816 26.325,175.925 34.883,180.203 88.865,136.766 	"/>
	<polyline fill-rule="evenodd" clip-rule="evenodd" fill="#fff" points="90.511,137.423 36.858,180.532 45.416,184.811 
		99.398,141.372 90.511,137.423 	"/>
	<polygon fill-rule="evenodd" clip-rule="evenodd" fill="#fff" points="90.511,137.423 36.858,180.532 45.416,184.811 
		99.398,141.372 	"/>
	
		<polygon fill="none" stroke="#000" stroke-width="0.878" stroke-linecap="round" stroke-linejoin="round" stroke-miterlimit="10" points="
		90.511,137.423 36.858,180.532 45.416,184.811 99.398,141.372 	"/>
	
		<polygon fill="none" stroke="#000" stroke-width="0.878" stroke-linecap="round" stroke-linejoin="round" stroke-miterlimit="10" points="
		90.511,137.423 36.858,180.532 45.416,184.811 99.398,141.372 	"/>
	
		<polyline fill="none" stroke="#000" stroke-width="0.878" stroke-linecap="round" stroke-linejoin="round" stroke-miterlimit="10" points="
		125.353,174.194 105.981,189.746 111.839,192.836 	"/>
	
		<polyline fill="#fff" stroke="#000" stroke-width="0.878" stroke-linecap="round" stroke-linejoin="round" stroke-miterlimit="10" points="
		125.353,174.194 105.981,189.746 111.839,192.836 	"/>
	
		<polygon fill="#fff" stroke="#000" stroke-width="0.878" stroke-linecap="round" stroke-linejoin="round" stroke-miterlimit="10" points="
		116.844,167.697 95.119,185.14 103.677,189.417 125.732,171.646 	"/>
	
		<path fill="none" stroke="#000" stroke-width="0.878" stroke-linecap="round" stroke-linejoin="round" stroke-miterlimit="10" d="
		M140.492,140.046c5.657-4.351,22.786-3.449,39.915,17.73c17.106,21.153,14.424,38.755,9.357,42.852"/>
	
		<path fill="none" stroke="#000" stroke-width="0.878" stroke-linecap="round" stroke-linejoin="round" stroke-miterlimit="10" d="
		M140.492,140.046c5.657-4.351,22.786-3.449,39.915,17.73c17.106,21.153,14.424,38.755,9.357,42.852"/>
	<polyline fill-rule="evenodd" clip-rule="evenodd" fill="#fff" points="149.716,126.204 149.034,129.027 150.631,140.698 
		146.723,150.732 145.531,151.585 145.971,153.858 143.681,152.57 143.24,150.756 144.749,149.602 149.249,140.099 148.12,129.361 
		147.462,126.235 	"/>
	<polyline fill-rule="evenodd" clip-rule="evenodd" fill="#fff" points="149.716,126.204 149.034,129.027 150.631,140.698 
		146.723,150.732 145.531,151.585 145.971,153.858 143.681,152.57 143.24,150.756 144.749,149.602 149.249,140.099 148.12,129.361 
		147.462,126.235 	"/>
	
		<polyline fill="none" stroke="#000" stroke-width="0.878" stroke-linecap="round" stroke-linejoin="round" stroke-miterlimit="10" points="
		149.716,126.204 149.034,129.027 150.631,140.698 146.723,150.732 145.531,151.585 145.971,153.858 143.681,152.57 143.24,150.756 
		144.749,149.602 149.249,140.099 148.12,129.361 147.462,126.235 	"/>
	
		<polyline fill="none" stroke="#000" stroke-width="0.878" stroke-linecap="round" stroke-linejoin="round" stroke-miterlimit="10" points="
		149.716,126.204 149.034,129.027 150.631,140.698 146.723,150.732 145.531,151.585 145.971,153.858 143.681,152.57 143.24,150.756 
		144.749,149.602 149.249,140.099 148.12,129.361 147.462,126.235 	"/>
	<path fill-rule="evenodd" clip-rule="evenodd" fill="#fff" d="M151.191,125.493c-0.057,0.651-1.212,1.09-2.558,0.973
		s-2.406-0.751-2.35-1.4c0.058-0.652,1.212-1.091,2.558-0.974C150.187,124.21,151.249,124.842,151.191,125.493"/>
	<path fill-rule="evenodd" clip-rule="evenodd" fill="#fff" d="M151.191,125.493c-0.057,0.651-1.212,1.09-2.558,0.973
		s-2.406-0.751-2.35-1.4c0.058-0.652,1.212-1.091,2.558-0.974C150.187,124.21,151.249,124.842,151.191,125.493z"/>
	
		<path fill="none" stroke="#000" stroke-width="0.878" stroke-linecap="round" stroke-linejoin="round" stroke-miterlimit="10" d="
		M151.191,125.493c-0.057,0.651-1.212,1.09-2.558,0.973s-2.406-0.751-2.35-1.4c0.058-0.652,1.212-1.091,2.558-0.974
		C150.187,124.21,151.249,124.842,151.191,125.493z"/>
	
		<path fill="none" stroke="#000" stroke-width="0.878" stroke-linecap="round" stroke-linejoin="round" stroke-miterlimit="10" d="
		M151.191,125.493c-0.057,0.651-1.212,1.09-2.558,0.973s-2.406-0.751-2.35-1.4c0.058-0.652,1.212-1.091,2.558-0.974
		C150.187,124.21,151.249,124.842,151.191,125.493z"/>
	<polyline fill-rule="evenodd" clip-rule="evenodd" fill="#fff" points="148.201,125.091 149.366,120.885 149.625,125.216 	"/>
	<polyline fill-rule="evenodd" clip-rule="evenodd" fill="#fff" points="148.201,125.091 149.366,120.885 149.625,125.216 	"/>
	
		<polyline fill="none" stroke="#000" stroke-width="0.878" stroke-linecap="round" stroke-linejoin="round" stroke-miterlimit="10" points="
		148.201,125.091 149.366,120.885 149.625,125.216 	"/>
	
		<polyline fill="none" stroke="#000" stroke-width="0.878" stroke-linecap="round" stroke-linejoin="round" stroke-miterlimit="10" points="
		148.201,125.091 149.366,120.885 149.625,125.216 	"/>
	<path fill-rule="evenodd" clip-rule="evenodd" fill="#fff" d="M146.854,127.913c1.767,1.061,2.416,1.433,2.58,3.703
		c0.164,2.27-1.759,3.722-3.011,4.187"/>
	<path fill-rule="evenodd" clip-rule="evenodd" fill="#fff" d="M146.854,127.913c1.767,1.061,2.416,1.433,2.58,3.703
		c0.164,2.27-1.759,3.722-3.011,4.187"/>
	
		<path fill="none" stroke="#000" stroke-width="0.878" stroke-linecap="round" stroke-linejoin="round" stroke-miterlimit="10" d="
		M146.854,127.913c1.767,1.061,2.416,1.433,2.58,3.703c0.164,2.27-1.759,3.722-3.011,4.187"/>
	
		<path fill="none" stroke="#000" stroke-width="0.878" stroke-linecap="round" stroke-linejoin="round" stroke-miterlimit="10" d="
		M146.854,127.913c1.767,1.061,2.416,1.433,2.58,3.703c0.164,2.27-1.759,3.722-3.011,4.187"/>
	<path fill-rule="evenodd" clip-rule="evenodd" fill="#fff" d="M148.333,131.759c-0.067,2.312-1.038,4.206-2.15,4.197
		s-1.972-1.918-1.905-4.229c0.067-2.312,1.038-4.206,2.15-4.197C147.539,127.538,148.399,129.447,148.333,131.759"/>
	<path fill-rule="evenodd" clip-rule="evenodd" fill="#fff" d="M148.333,131.759c-0.067,2.312-1.038,4.206-2.15,4.197
		s-1.972-1.918-1.905-4.229c0.067-2.312,1.038-4.206,2.15-4.197C147.539,127.538,148.399,129.447,148.333,131.759z"/>
	
		<path fill="none" stroke="#000" stroke-width="0.878" stroke-linecap="round" stroke-linejoin="round" stroke-miterlimit="10" d="
		M148.333,131.759c-0.067,2.312-1.038,4.206-2.15,4.197s-1.972-1.918-1.905-4.229c0.067-2.312,1.038-4.206,2.15-4.197
		C147.539,127.538,148.399,129.447,148.333,131.759z"/>
	
		<path fill="none" stroke="#000" stroke-width="0.878" stroke-linecap="round" stroke-linejoin="round" stroke-miterlimit="10" d="
		M148.333,131.759c-0.067,2.312-1.038,4.206-2.15,4.197s-1.972-1.918-1.905-4.229c0.067-2.312,1.038-4.206,2.15-4.197
		C147.539,127.538,148.399,129.447,148.333,131.759z"/>
	
		<line fill="none" stroke="#000" stroke-width="0.878" stroke-linecap="round" stroke-linejoin="round" stroke-miterlimit="10" x1="147.289" y1="131.622" x2="145.21" y2="131.658"/>
	
		<line fill="none" stroke="#000" stroke-width="0.878" stroke-linecap="round" stroke-linejoin="round" stroke-miterlimit="10" x1="147.289" y1="131.622" x2="145.21" y2="131.658"/>
	
		<line fill="none" stroke="#000" stroke-width="0.878" stroke-linecap="round" stroke-linejoin="round" stroke-miterlimit="10" x1="145.382" y1="130.859" x2="145.218" y2="132.515"/>
	
		<line fill="none" stroke="#000" stroke-width="0.878" stroke-linecap="round" stroke-linejoin="round" stroke-miterlimit="10" x1="145.382" y1="130.859" x2="145.218" y2="132.515"/>
	<polyline fill-rule="evenodd" clip-rule="evenodd" fill="#fff" points="149.448,137.561 147.067,139.252 149.449,141.801 	"/>
	<polyline fill-rule="evenodd" clip-rule="evenodd" fill="#fff" points="149.448,137.561 147.067,139.252 149.449,141.801 	"/>
	
		<polyline fill="none" stroke="#000" stroke-width="0.878" stroke-linecap="round" stroke-linejoin="round" stroke-miterlimit="10" points="
		149.448,137.561 147.067,139.252 149.449,141.801 	"/>
	
		<polyline fill="none" stroke="#000" stroke-width="0.878" stroke-linecap="round" stroke-linejoin="round" stroke-miterlimit="10" points="
		149.448,137.561 147.067,139.252 149.449,141.801 	"/>
	<path fill-rule="evenodd" clip-rule="evenodd" fill="#fff" d="M148.937,139.652c-0.112,1.042-0.691,1.865-1.282,1.824
		c-0.59-0.042-0.982-0.935-0.87-1.977s0.691-1.866,1.282-1.824C148.657,137.718,149.05,138.61,148.937,139.652"/>
	<path fill-rule="evenodd" clip-rule="evenodd" fill="#fff" d="M148.937,139.652c-0.112,1.042-0.691,1.865-1.282,1.824
		c-0.59-0.042-0.982-0.935-0.87-1.977s0.691-1.866,1.282-1.824C148.657,137.718,149.05,138.61,148.937,139.652z"/>
	
		<path fill="none" stroke="#000" stroke-width="0.878" stroke-linecap="round" stroke-linejoin="round" stroke-miterlimit="10" d="
		M148.937,139.652c-0.112,1.042-0.691,1.865-1.282,1.824c-0.59-0.042-0.982-0.935-0.87-1.977s0.691-1.866,1.282-1.824
		C148.657,137.718,149.05,138.61,148.937,139.652z"/>
	
		<path fill="none" stroke="#000" stroke-width="0.878" stroke-linecap="round" stroke-linejoin="round" stroke-miterlimit="10" d="
		M148.937,139.652c-0.112,1.042-0.691,1.865-1.282,1.824c-0.59-0.042-0.982-0.935-0.87-1.977s0.691-1.866,1.282-1.824
		C148.657,137.718,149.05,138.61,148.937,139.652z"/>
	
		<line fill="none" stroke="#000" stroke-width="0.878" stroke-linecap="round" stroke-linejoin="round" stroke-miterlimit="10" x1="141.017" y1="215.075" x2="141.015" y2="215.077"/>
	
		<line fill="none" stroke="#000" stroke-width="0.878" stroke-linecap="round" stroke-linejoin="round" stroke-miterlimit="10" x1="141.017" y1="215.075" x2="141.015" y2="215.077"/>
	
		<path fill="none" stroke="#000" stroke-width="0.878" stroke-linecap="round" stroke-linejoin="round" stroke-miterlimit="10" d="
		M141.58,214.567c2.534-2.048,3.875-10.85-4.678-21.425c-8.564-10.59-17.411-10.786-20.24-8.61
		c-0.158,0.128-0.313,0.283-0.462,0.464"/>
	
		<path fill="none" stroke="#000" stroke-width="0.878" stroke-linecap="round" stroke-linejoin="round" stroke-miterlimit="10" d="
		M141.58,214.567c2.534-2.048,3.875-10.85-4.678-21.425c-8.564-10.59-17.411-10.786-20.24-8.61
		c-0.158,0.128-0.313,0.283-0.462,0.464"/>
	
		<path fill="none" stroke="#000" stroke-width="0.878" stroke-linecap="round" stroke-linejoin="round" stroke-miterlimit="10" d="
		M131.544,218.29c3.918,1.485,6.971-1.229,8.483-2.39"/>
	
		<path fill="none" stroke="#000" stroke-width="0.878" stroke-linecap="round" stroke-linejoin="round" stroke-miterlimit="10" d="
		M140.592,215.391c2.534-2.049,3.875-10.85-4.679-21.426c-8.564-10.59-17.41-10.785-20.239-8.61
		c-1.52,1.229-4.97,7.004-3.835,12.089"/>
	
		<path fill="none" stroke="#000" stroke-width="0.878" stroke-linecap="round" stroke-linejoin="round" stroke-miterlimit="10" d="
		M140.592,215.391c2.534-2.049,3.875-10.85-4.679-21.426c-8.564-10.59-17.41-10.785-20.239-8.61
		c-1.52,1.229-4.97,7.004-3.835,12.089"/>
	
		<line fill="none" stroke="#000" stroke-width="0.878" stroke-linecap="round" stroke-linejoin="round" stroke-miterlimit="10" x1="166.225" y1="169.509" x2="132.484" y2="188.265"/>
	
		<line fill="none" stroke="#000" stroke-width="0.878" stroke-linecap="round" stroke-linejoin="round" stroke-miterlimit="10" x1="166.225" y1="169.509" x2="132.484" y2="188.265"/>
	
		<line fill="none" stroke="#000" stroke-width="0.878" stroke-linecap="round" stroke-linejoin="round" stroke-miterlimit="10" x1="166.39" y1="169.509" x2="140.878" y2="198.795"/>
	
		<line fill="none" stroke="#000" stroke-width="0.878" stroke-linecap="round" stroke-linejoin="round" stroke-miterlimit="10" x1="166.39" y1="169.509" x2="140.878" y2="198.795"/>
	
		<line fill="none" stroke="#000" stroke-width="0.878" stroke-linecap="round" stroke-linejoin="round" stroke-miterlimit="10" x1="158.819" y1="173.458" x2="160.958" y2="175.76"/>
	
		<line fill="none" stroke="#000" stroke-width="0.878" stroke-linecap="round" stroke-linejoin="round" stroke-miterlimit="10" x1="158.819" y1="173.458" x2="160.958" y2="175.76"/>
	
		<line fill="none" stroke="#000" stroke-width="0.878" stroke-linecap="round" stroke-linejoin="round" stroke-miterlimit="10" x1="136.436" y1="185.963" x2="144.005" y2="195.34"/>
	
		<line fill="none" stroke="#000" stroke-width="0.878" stroke-linecap="round" stroke-linejoin="round" stroke-miterlimit="10" x1="136.436" y1="185.963" x2="144.005" y2="195.34"/>
	
		<line fill="none" stroke="#000" stroke-width="0.878" stroke-linecap="round" stroke-linejoin="round" stroke-miterlimit="10" x1="147.627" y1="179.875" x2="152.399" y2="185.632"/>
	
		<line fill="none" stroke="#000" stroke-width="0.878" stroke-linecap="round" stroke-linejoin="round" stroke-miterlimit="10" x1="147.627" y1="179.875" x2="152.399" y2="185.632"/>
	
		<line fill="none" stroke="#000" stroke-width="0.878" stroke-linecap="round" stroke-linejoin="round" stroke-miterlimit="10" x1="123.075" y1="169.828" x2="120.799" y2="183.328"/>
	
		<line fill="none" stroke="#000" stroke-width="0.878" stroke-linecap="round" stroke-linejoin="round" stroke-miterlimit="10" x1="123.075" y1="169.828" x2="120.799" y2="183.328"/>
	
		<line fill="none" stroke="#000" stroke-width="0.878" stroke-linecap="round" stroke-linejoin="round" stroke-miterlimit="10" x1="126.067" y1="152.068" x2="123.074" y2="169.826"/>
	
		<line fill="none" stroke="#000" stroke-width="0.878" stroke-linecap="round" stroke-linejoin="round" stroke-miterlimit="10" x1="126.067" y1="152.068" x2="123.074" y2="169.826"/>
	
		<line fill="none" stroke="#000" stroke-width="0.878" stroke-linecap="round" stroke-linejoin="round" stroke-miterlimit="10" x1="125.573" y1="151.739" x2="113.886" y2="188.594"/>
	
		<line fill="none" stroke="#000" stroke-width="0.878" stroke-linecap="round" stroke-linejoin="round" stroke-miterlimit="10" x1="125.573" y1="151.739" x2="113.886" y2="188.594"/>
	
		<line fill="none" stroke="#000" stroke-width="0.878" stroke-linecap="round" stroke-linejoin="round" stroke-miterlimit="10" x1="121.129" y1="179.875" x2="116.026" y2="182.67"/>
	
		<line fill="none" stroke="#000" stroke-width="0.878" stroke-linecap="round" stroke-linejoin="round" stroke-miterlimit="10" x1="121.129" y1="179.875" x2="116.026" y2="182.67"/>
	
		<line fill="none" stroke="#000" stroke-width="0.878" stroke-linecap="round" stroke-linejoin="round" stroke-miterlimit="10" x1="121.894" y1="171.416" x2="119.318" y2="172.633"/>
	
		<line fill="none" stroke="#000" stroke-width="0.878" stroke-linecap="round" stroke-linejoin="round" stroke-miterlimit="10" x1="121.894" y1="171.416" x2="119.318" y2="172.633"/>
	
		<line fill="none" stroke="#000" stroke-width="0.878" stroke-linecap="round" stroke-linejoin="round" stroke-miterlimit="10" x1="122.446" y1="171.155" x2="121.893" y2="171.414"/>
	
		<line fill="none" stroke="#000" stroke-width="0.878" stroke-linecap="round" stroke-linejoin="round" stroke-miterlimit="10" x1="122.446" y1="171.155" x2="121.893" y2="171.414"/>
	
		<line fill="none" stroke="#000" stroke-width="0.878" stroke-linecap="round" stroke-linejoin="round" stroke-miterlimit="10" x1="124.75" y1="159.638" x2="122.938" y2="160.951"/>
	
		<line fill="none" stroke="#000" stroke-width="0.878" stroke-linecap="round" stroke-linejoin="round" stroke-miterlimit="10" x1="124.75" y1="159.638" x2="122.938" y2="160.951"/>
	
		<line fill="none" stroke="#000" stroke-width="0.878" stroke-linecap="round" stroke-linejoin="round" stroke-miterlimit="10" x1="175.112" y1="212.125" x2="143.676" y2="210.643"/>
	
		<line fill="none" stroke="#000" stroke-width="0.878" stroke-linecap="round" stroke-linejoin="round" stroke-miterlimit="10" x1="175.112" y1="212.125" x2="143.676" y2="210.643"/>
	
		<line fill="none" stroke="#000" stroke-width="0.878" stroke-linecap="round" stroke-linejoin="round" stroke-miterlimit="10" x1="174.619" y1="212.29" x2="139.287" y2="216.477"/>
	
		<path fill="none" stroke="#000" stroke-width="0.878" stroke-linecap="round" stroke-linejoin="round" stroke-miterlimit="10" d="
		M174.619,212.29"/>
	
		<line fill="none" stroke="#000" stroke-width="0.878" stroke-linecap="round" stroke-linejoin="round" stroke-miterlimit="10" x1="143.513" y1="215.745" x2="147.297" y2="210.807"/>
	
		<line fill="none" stroke="#000" stroke-width="0.878" stroke-linecap="round" stroke-linejoin="round" stroke-miterlimit="10" x1="143.513" y1="215.745" x2="147.297" y2="210.807"/>
	
		<line fill="none" stroke="#000" stroke-width="0.878" stroke-linecap="round" stroke-linejoin="round" stroke-miterlimit="10" x1="153.552" y1="214.758" x2="155.855" y2="211.136"/>
	
		<line fill="none" stroke="#000" stroke-width="0.878" stroke-linecap="round" stroke-linejoin="round" stroke-miterlimit="10" x1="153.552" y1="214.758" x2="155.855" y2="211.136"/>
	
		<line fill="none" stroke="#000" stroke-width="0.878" stroke-linecap="round" stroke-linejoin="round" stroke-miterlimit="10" x1="170.34" y1="211.631" x2="163.59" y2="173.127"/>
	
		<line fill="none" stroke="#000" stroke-width="0.878" stroke-linecap="round" stroke-linejoin="round" stroke-miterlimit="10" x1="170.34" y1="211.631" x2="163.59" y2="173.127"/>
	
		<line fill="none" stroke="#000" stroke-width="0.878" stroke-linecap="round" stroke-linejoin="round" stroke-miterlimit="10" x1="174.454" y1="181.192" x2="186.467" y2="197.809"/>
	
		<line fill="none" stroke="#000" stroke-width="0.878" stroke-linecap="round" stroke-linejoin="round" stroke-miterlimit="10" x1="174.454" y1="181.192" x2="186.467" y2="197.809"/>
	
		<line fill="none" stroke="#000" stroke-width="0.878" stroke-linecap="round" stroke-linejoin="round" stroke-miterlimit="10" x1="151.083" y1="210.81" x2="148.119" y2="190.239"/>
	
		<line fill="none" stroke="#000" stroke-width="0.878" stroke-linecap="round" stroke-linejoin="round" stroke-miterlimit="10" x1="151.083" y1="210.81" x2="148.119" y2="190.239"/>
	
		<line fill="none" stroke="#000" stroke-width="0.878" stroke-linecap="round" stroke-linejoin="round" stroke-miterlimit="10" x1="124.75" y1="177.901" x2="116.52" y2="184.81"/>
	
		<line fill="none" stroke="#000" stroke-width="0.878" stroke-linecap="round" stroke-linejoin="round" stroke-miterlimit="10" x1="124.75" y1="177.901" x2="116.52" y2="184.81"/>
	
		<path fill="none" stroke="#000" stroke-width="0.878" stroke-linecap="round" stroke-linejoin="round" stroke-miterlimit="10" d="
		M179.143,194.843c-1.204-7.242-4.887-16.188-12.725-25.879c-17.13-21.179-34.823-21.571-40.48-17.221
		c-2.85,2.304-5.124,9.04-3.526,18.256"/>
	
		<path fill="none" stroke="#000" stroke-width="0.878" stroke-linecap="round" stroke-linejoin="round" stroke-miterlimit="10" d="
		M179.143,194.843c-1.204-7.242-4.887-16.188-12.725-25.879c-17.13-21.179-34.823-21.571-40.48-17.221
		c-2.85,2.304-5.124,9.04-3.526,18.256"/>
	
		<path fill="none" stroke="#000" stroke-width="0.878" stroke-linecap="round" stroke-linejoin="round" stroke-miterlimit="10" d="
		M177.372,194.289c-1.296-6.876-4.877-15.25-12.19-24.294c-16.598-20.522-32.998-21.429-38.481-17.213
		c-2.747,2.221-4.708,8.526-3.002,17.239"/>
	
		<path fill="none" stroke="#000" stroke-width="0.878" stroke-linecap="round" stroke-linejoin="round" stroke-miterlimit="10" d="
		M177.372,194.289c-1.296-6.876-4.877-15.25-12.19-24.294c-16.598-20.522-32.998-21.429-38.481-17.213
		c-2.747,2.221-4.708,8.526-3.002,17.239"/>
	
		<path fill="none" stroke="#000" stroke-width="0.878" stroke-linecap="round" stroke-linejoin="round" stroke-miterlimit="10" d="
		M164.901,188.48c-0.682-3.531-2.53-7.821-6.274-12.45c-8.564-10.589-17.411-10.786-20.239-8.611
		c-0.221,0.18-0.435,0.41-0.635,0.691"/>
	
		<path fill="none" stroke="#000" stroke-width="0.878" stroke-linecap="round" stroke-linejoin="round" stroke-miterlimit="10" d="
		M164.901,188.48c-0.682-3.531-2.53-7.821-6.274-12.45c-8.564-10.589-17.411-10.786-20.239-8.611
		c-0.221,0.18-0.435,0.41-0.635,0.691"/>
	
		<line fill="none" stroke="#000" stroke-width="0.878" stroke-linecap="round" stroke-linejoin="round" stroke-miterlimit="10" x1="147.463" y1="167.37" x2="141.536" y2="171.646"/>
	
		<line fill="none" stroke="#000" stroke-width="0.878" stroke-linecap="round" stroke-linejoin="round" stroke-miterlimit="10" x1="147.463" y1="167.37" x2="141.536" y2="171.646"/>
	<path fill-rule="evenodd" clip-rule="evenodd" fill="#fff" d="M126.396,181.849c3.291,0.657,6.254,2.962,11.191-1.316
		c3.104-2.69,4.125-1.817,4.454-9.056c-1.727-2.001-4.429-3.118-7.253-3.118c-5.146,0-9.381,4.232-9.381,9.377
		C125.408,179.986,125.053,180.225,126.396,181.849"/>
	<path fill-rule="evenodd" clip-rule="evenodd" fill="#fff" d="M126.396,181.849c3.291,0.657,6.254,2.962,11.191-1.316
		c3.104-2.69,4.125-1.817,4.454-9.056c-1.727-2.001-4.429-3.118-7.253-3.118c-5.146,0-9.381,4.232-9.381,9.377
		C125.408,179.986,125.053,180.225,126.396,181.849z"/>
	
		<path fill="none" stroke="#000" stroke-width="0.878" stroke-linecap="round" stroke-linejoin="round" stroke-miterlimit="10" d="
		M126.396,181.849c3.291,0.657,6.254,2.962,11.191-1.316c3.104-2.69,4.125-1.817,4.454-9.056c-1.727-2.001-4.429-3.118-7.253-3.118
		c-5.146,0-9.381,4.232-9.381,9.377C125.408,179.986,125.053,180.225,126.396,181.849z"/>
	
		<path fill="none" stroke="#000" stroke-width="0.878" stroke-linecap="round" stroke-linejoin="round" stroke-miterlimit="10" d="
		M126.396,181.849c3.291,0.657,6.254,2.962,11.191-1.316c3.104-2.69,4.125-1.817,4.454-9.056c-1.727-2.001-4.429-3.118-7.253-3.118
		c-5.146,0-9.381,4.232-9.381,9.377C125.408,179.986,125.053,180.225,126.396,181.849z"/>
	<path fill-rule="evenodd" clip-rule="evenodd" fill="#fff" d="M112.921,177.78c4.233-1.379,6.612-1.73,7.466-0.486
		c0.853,1.244,1.576,3.188-2.766,7.077"/>
	<path fill-rule="evenodd" clip-rule="evenodd" fill="#fff" d="M112.921,177.78c4.233-1.379,6.612-1.73,7.466-0.486
		c0.853,1.244,1.576,3.188-2.766,7.077"/>
	
		<path fill="none" stroke="#000" stroke-width="0.878" stroke-linecap="round" stroke-linejoin="round" stroke-miterlimit="10" d="
		M112.921,177.78c4.233-1.379,6.612-1.73,7.466-0.486c0.853,1.244,1.576,3.188-2.766,7.077"/>
	
		<path fill="none" stroke="#000" stroke-width="0.878" stroke-linecap="round" stroke-linejoin="round" stroke-miterlimit="10" d="
		M112.921,177.78c4.233-1.379,6.612-1.73,7.466-0.486c0.853,1.244,1.576,3.188-2.766,7.077"/>
	<path fill-rule="evenodd" clip-rule="evenodd" fill="#fff" d="M116.211,180.322c1.25,1.786,1.751,3.626,1.107,4.076
		c-0.642,0.45-2.199-0.65-3.449-2.437s-1.751-3.626-1.107-4.076C113.404,177.437,114.961,178.536,116.211,180.322"/>
	<path fill-rule="evenodd" clip-rule="evenodd" fill="#fff" d="M116.211,180.322c1.25,1.786,1.751,3.626,1.107,4.076
		c-0.642,0.45-2.199-0.65-3.449-2.437s-1.751-3.626-1.107-4.076C113.404,177.437,114.961,178.536,116.211,180.322z"/>
	
		<path fill="none" stroke="#000" stroke-width="0.878" stroke-linecap="round" stroke-linejoin="round" stroke-miterlimit="10" d="
		M116.211,180.322c1.25,1.786,1.751,3.626,1.107,4.076c-0.642,0.45-2.199-0.65-3.449-2.437s-1.751-3.626-1.107-4.076
		C113.404,177.437,114.961,178.536,116.211,180.322z"/>
	
		<path fill="none" stroke="#000" stroke-width="0.878" stroke-linecap="round" stroke-linejoin="round" stroke-miterlimit="10" d="
		M116.211,180.322c1.25,1.786,1.751,3.626,1.107,4.076c-0.642,0.45-2.199-0.65-3.449-2.437s-1.751-3.626-1.107-4.076
		C113.404,177.437,114.961,178.536,116.211,180.322z"/>
	<path fill-rule="evenodd" clip-rule="evenodd" fill="#fff" d="M140.571,212.333c4.234-1.379,6.613-1.729,7.466-0.485
		c0.854,1.243,1.576,3.187-2.765,7.077"/>
	<path fill-rule="evenodd" clip-rule="evenodd" fill="#fff" d="M140.571,212.333c4.234-1.379,6.613-1.729,7.466-0.485
		c0.854,1.243,1.576,3.187-2.765,7.077"/>
	
		<path fill="none" stroke="#000" stroke-width="0.878" stroke-linecap="round" stroke-linejoin="round" stroke-miterlimit="10" d="
		M140.571,212.333c4.234-1.379,6.613-1.729,7.466-0.485c0.854,1.243,1.576,3.187-2.765,7.077"/>
	
		<path fill="none" stroke="#000" stroke-width="0.878" stroke-linecap="round" stroke-linejoin="round" stroke-miterlimit="10" d="
		M140.571,212.333c4.234-1.379,6.613-1.729,7.466-0.485c0.854,1.243,1.576,3.187-2.765,7.077"/>
	<path fill-rule="evenodd" clip-rule="evenodd" fill="#fff" d="M143.861,214.875c1.25,1.786,1.75,3.627,1.108,4.076
		c-0.643,0.45-2.199-0.65-3.449-2.436c-1.25-1.786-1.751-3.626-1.108-4.076S142.611,213.089,143.861,214.875"/>
	<path fill-rule="evenodd" clip-rule="evenodd" fill="#fff" d="M143.861,214.875c1.25,1.786,1.75,3.627,1.108,4.076
		c-0.643,0.45-2.199-0.65-3.449-2.436c-1.25-1.786-1.751-3.626-1.108-4.076S142.611,213.089,143.861,214.875z"/>
	
		<path fill="none" stroke="#000" stroke-width="0.878" stroke-linecap="round" stroke-linejoin="round" stroke-miterlimit="10" d="
		M143.861,214.875c1.25,1.786,1.75,3.627,1.108,4.076c-0.643,0.45-2.199-0.65-3.449-2.436c-1.25-1.786-1.751-3.626-1.108-4.076
		S142.611,213.089,143.861,214.875z"/>
	
		<path fill="none" stroke="#000" stroke-width="0.878" stroke-linecap="round" stroke-linejoin="round" stroke-miterlimit="10" d="
		M143.861,214.875c1.25,1.786,1.75,3.627,1.108,4.076c-0.643,0.45-2.199-0.65-3.449-2.436c-1.25-1.786-1.751-3.626-1.108-4.076
		S142.611,213.089,143.861,214.875z"/>
	<path fill-rule="evenodd" clip-rule="evenodd" fill="#fff" d="M159.641,143.019c3.621,1.645,3.621,1.645,5.595,3.29
		c1.976,1.645-3.291,2.961-3.291,2.961l-5.924-3.29L159.641,143.019"/>
	<path fill-rule="evenodd" clip-rule="evenodd" fill="#fff" d="M159.641,143.019c3.621,1.645,3.621,1.645,5.595,3.29
		c1.976,1.645-3.291,2.961-3.291,2.961l-5.924-3.29L159.641,143.019z"/>
	
		<path fill="none" stroke="#000" stroke-width="0.878" stroke-linecap="round" stroke-linejoin="round" stroke-miterlimit="10" d="
		M159.641,143.019c3.621,1.645,3.621,1.645,5.595,3.29c1.976,1.645-3.291,2.961-3.291,2.961l-5.924-3.29L159.641,143.019z"/>
	
		<path fill="none" stroke="#000" stroke-width="0.878" stroke-linecap="round" stroke-linejoin="round" stroke-miterlimit="10" d="
		M159.641,143.019c3.621,1.645,3.621,1.645,5.595,3.29c1.976,1.645-3.291,2.961-3.291,2.961l-5.924-3.29L159.641,143.019z"/>
	<path fill-rule="evenodd" clip-rule="evenodd" fill="#fff" d="M169.088,150.227c0.229,0.431-0.11,1.175-0.753,1.646
		c-0.644,0.472-1.361,0.505-1.591,0.074c-0.229-0.432,0.11-1.175,0.754-1.647C168.141,149.827,168.859,149.794,169.088,150.227"/>
	<path fill-rule="evenodd" clip-rule="evenodd" fill="#fff" d="M169.088,150.227c0.229,0.431-0.11,1.175-0.753,1.646
		c-0.644,0.472-1.361,0.505-1.591,0.074c-0.229-0.432,0.11-1.175,0.754-1.647C168.141,149.827,168.859,149.794,169.088,150.227z"/>
	
		<path fill="none" stroke="#000" stroke-width="0.878" stroke-linecap="round" stroke-linejoin="round" stroke-miterlimit="10" d="
		M169.088,150.227c0.229,0.431-0.11,1.175-0.753,1.646c-0.644,0.472-1.361,0.505-1.591,0.074c-0.229-0.432,0.11-1.175,0.754-1.647
		C168.141,149.827,168.859,149.794,169.088,150.227z"/>
	
		<path fill="none" stroke="#000" stroke-width="0.878" stroke-linecap="round" stroke-linejoin="round" stroke-miterlimit="10" d="
		M169.088,150.227c0.229,0.431-0.11,1.175-0.753,1.646c-0.644,0.472-1.361,0.505-1.591,0.074c-0.229-0.432,0.11-1.175,0.754-1.647
		C168.141,149.827,168.859,149.794,169.088,150.227z"/>
	<path fill-rule="evenodd" clip-rule="evenodd" fill="#fff" d="M173.677,154.328c0.253,0.404-0.121,1.1-0.828,1.541
		c-0.707,0.442-1.497,0.473-1.75,0.069c-0.252-0.404,0.122-1.1,0.829-1.541S173.425,153.925,173.677,154.328"/>
	<path fill-rule="evenodd" clip-rule="evenodd" fill="#fff" d="M173.677,154.328c0.253,0.404-0.121,1.1-0.828,1.541
		c-0.707,0.442-1.497,0.473-1.75,0.069c-0.252-0.404,0.122-1.1,0.829-1.541S173.425,153.925,173.677,154.328z"/>
	
		<path fill="none" stroke="#000" stroke-width="0.878" stroke-linecap="round" stroke-linejoin="round" stroke-miterlimit="10" d="
		M173.677,154.328c0.253,0.404-0.121,1.1-0.828,1.541c-0.707,0.442-1.497,0.473-1.75,0.069c-0.252-0.404,0.122-1.1,0.829-1.541
		S173.425,153.925,173.677,154.328z"/>
	
		<path fill="none" stroke="#000" stroke-width="0.878" stroke-linecap="round" stroke-linejoin="round" stroke-miterlimit="10" d="
		M173.677,154.328c0.253,0.404-0.121,1.1-0.828,1.541c-0.707,0.442-1.497,0.473-1.75,0.069c-0.252-0.404,0.122-1.1,0.829-1.541
		S173.425,153.925,173.677,154.328z"/>
	<path fill-rule="evenodd" clip-rule="evenodd" fill="#fff" d="M161.945,154.865c1.646,2.303,1.317,1.974,3.291,3.619
		c1.976,1.645-2.633,3.619-2.633,3.619l-4.278-4.277L161.945,154.865"/>
	<path fill-rule="evenodd" clip-rule="evenodd" fill="#fff" d="M161.945,154.865c1.646,2.303,1.317,1.974,3.291,3.619
		c1.976,1.645-2.633,3.619-2.633,3.619l-4.278-4.277L161.945,154.865z"/>
	
		<path fill="none" stroke="#000" stroke-width="0.878" stroke-linecap="round" stroke-linejoin="round" stroke-miterlimit="10" d="
		M161.945,154.865c1.646,2.303,1.317,1.974,3.291,3.619c1.976,1.645-2.633,3.619-2.633,3.619l-4.278-4.277L161.945,154.865z"/>
	
		<path fill="none" stroke="#000" stroke-width="0.878" stroke-linecap="round" stroke-linejoin="round" stroke-miterlimit="10" d="
		M161.945,154.865c1.646,2.303,1.317,1.974,3.291,3.619c1.976,1.645-2.633,3.619-2.633,3.619l-4.278-4.277L161.945,154.865z"/>
	<path fill-rule="evenodd" clip-rule="evenodd" fill="#fff" d="M156.58,141.999c0.23,0.432-0.109,1.175-0.753,1.646
		c-0.643,0.472-1.36,0.505-1.59,0.073c-0.229-0.431,0.11-1.175,0.753-1.646C155.633,141.601,156.351,141.567,156.58,141.999"/>
	<path fill-rule="evenodd" clip-rule="evenodd" fill="#fff" d="M156.58,141.999c0.23,0.432-0.109,1.175-0.753,1.646
		c-0.643,0.472-1.36,0.505-1.59,0.073c-0.229-0.431,0.11-1.175,0.753-1.646C155.633,141.601,156.351,141.567,156.58,141.999z"/>
	
		<path fill="none" stroke="#000" stroke-width="0.878" stroke-linecap="round" stroke-linejoin="round" stroke-miterlimit="10" d="
		M156.58,141.999c0.23,0.432-0.109,1.175-0.753,1.646c-0.643,0.472-1.36,0.505-1.59,0.073c-0.229-0.431,0.11-1.175,0.753-1.646
		C155.633,141.601,156.351,141.567,156.58,141.999z"/>
	
		<path fill="none" stroke="#000" stroke-width="0.878" stroke-linecap="round" stroke-linejoin="round" stroke-miterlimit="10" d="
		M156.58,141.999c0.23,0.432-0.109,1.175-0.753,1.646c-0.643,0.472-1.36,0.505-1.59,0.073c-0.229-0.431,0.11-1.175,0.753-1.646
		C155.633,141.601,156.351,141.567,156.58,141.999z"/>
	<path fill-rule="evenodd" clip-rule="evenodd" fill="#fff" d="M154.605,152.529c0.23,0.432-0.11,1.175-0.753,1.646
		c-0.643,0.473-1.361,0.506-1.59,0.074c-0.23-0.432,0.109-1.175,0.753-1.646C153.658,152.131,154.376,152.099,154.605,152.529"/>
	<path fill-rule="evenodd" clip-rule="evenodd" fill="#fff" d="M154.605,152.529c0.23,0.432-0.11,1.175-0.753,1.646
		c-0.643,0.473-1.361,0.506-1.59,0.074c-0.23-0.432,0.109-1.175,0.753-1.646C153.658,152.131,154.376,152.099,154.605,152.529z"/>
	
		<path fill="none" stroke="#000" stroke-width="0.878" stroke-linecap="round" stroke-linejoin="round" stroke-miterlimit="10" d="
		M154.605,152.529c0.23,0.432-0.11,1.175-0.753,1.646c-0.643,0.473-1.361,0.506-1.59,0.074c-0.23-0.432,0.109-1.175,0.753-1.646
		C153.658,152.131,154.376,152.099,154.605,152.529z"/>
	
		<path fill="none" stroke="#000" stroke-width="0.878" stroke-linecap="round" stroke-linejoin="round" stroke-miterlimit="10" d="
		M154.605,152.529c0.23,0.432-0.11,1.175-0.753,1.646c-0.643,0.473-1.361,0.506-1.59,0.074c-0.23-0.432,0.109-1.175,0.753-1.646
		C153.658,152.131,154.376,152.099,154.605,152.529z"/>
	
		<path fill="none" stroke="#000" stroke-width="0.878" stroke-linecap="round" stroke-linejoin="round" stroke-miterlimit="10" d="
		M132.546,217.288c1.945-1.574,2.976-8.333-3.594-16.456c-6.577-8.134-13.352-8.381-15.524-6.71
		c-1.946,1.573-3.173,8.433,3.396,16.555c6.578,8.135,13.156,8.48,15.328,6.81"/>
	
		<path fill="none" stroke="#000" stroke-width="0.878" stroke-linecap="round" stroke-linejoin="round" stroke-miterlimit="10" d="
		M132.546,217.288c1.945-1.574,2.976-8.333-3.594-16.456c-6.577-8.134-13.352-8.381-15.524-6.71
		c-1.946,1.573-3.173,8.433,3.396,16.555c6.578,8.135,13.156,8.48,15.328,6.81"/>
	
		<path fill="none" stroke="#000" stroke-width="0.878" stroke-linecap="round" stroke-linejoin="round" stroke-miterlimit="10" d="
		M130.603,214.676c1.557-1.259,2.381-6.667-2.875-13.165c-5.262-6.507-10.682-6.703-12.42-5.367
		c-1.557,1.259-2.539,6.746,2.717,13.244c5.262,6.507,10.525,6.783,12.263,5.446"/>
	
		<path fill="none" stroke="#000" stroke-width="0.878" stroke-linecap="round" stroke-linejoin="round" stroke-miterlimit="10" d="
		M130.603,214.676c1.557-1.259,2.381-6.667-2.875-13.165c-5.262-6.507-10.682-6.703-12.42-5.367
		c-1.557,1.259-2.539,6.746,2.717,13.244c5.262,6.507,10.525,6.783,12.263,5.446"/>
	
		<path fill="none" stroke="#000" stroke-width="0.878" stroke-linecap="round" stroke-linejoin="round" stroke-miterlimit="10" d="
		M127.673,205.922c0.467-0.377,0.714-2-0.862-3.948c-1.579-1.952-3.205-2.012-3.726-1.611c-0.468,0.378-0.763,2.023,0.814,3.974
		c1.579,1.952,3.157,2.035,3.679,1.635"/>
	
		<path fill="none" stroke="#000" stroke-width="0.878" stroke-linecap="round" stroke-linejoin="round" stroke-miterlimit="10" d="
		M127.673,205.922c0.467-0.377,0.714-2-0.862-3.948c-1.579-1.952-3.205-2.012-3.726-1.611c-0.468,0.378-0.763,2.023,0.814,3.974
		c1.579,1.952,3.157,2.035,3.679,1.635"/>
	
		<path fill="none" stroke="#000" stroke-width="0.878" stroke-linecap="round" stroke-linejoin="round" stroke-miterlimit="10" d="
		M124.05,200.065c-0.098,0.746,0.132,1.894,1.167,3.174c0.888,1.098,1.775,1.604,2.475,1.766"/>
	
		<path fill="none" stroke="#000" stroke-width="0.878" stroke-linecap="round" stroke-linejoin="round" stroke-miterlimit="10" d="
		M124.05,200.065c-0.098,0.746,0.132,1.894,1.167,3.174c0.888,1.098,1.775,1.604,2.475,1.766"/>
	
		<polygon fill="none" stroke="#000" stroke-width="0.878" stroke-linecap="round" stroke-linejoin="round" stroke-miterlimit="10" points="
		173.634,192.708 172.152,193.859 252.52,229.837 254.33,228.356 	"/>
	
		<polygon fill="none" stroke="#000" stroke-width="0.878" stroke-linecap="round" stroke-linejoin="round" stroke-miterlimit="10" points="
		173.634,192.708 172.152,193.859 252.52,229.837 254.33,228.356 	"/>
	
		<polygon fill="none" stroke="#000" stroke-width="0.878" stroke-linecap="round" stroke-linejoin="round" stroke-miterlimit="10" points="
		153.718,208.832 152.237,209.984 235.677,246.839 237.487,245.358 	"/>
	
		<polygon fill="none" stroke="#000" stroke-width="0.878" stroke-linecap="round" stroke-linejoin="round" stroke-miterlimit="10" points="
		153.718,208.832 152.237,209.984 235.677,246.839 237.487,245.358 	"/>
	
		<line fill="none" stroke="#000" stroke-width="0.878" stroke-linecap="round" stroke-linejoin="round" stroke-miterlimit="10" x1="273.09" y1="52.375" x2="272.715" y2="50.877"/>
	<polyline fill-rule="evenodd" clip-rule="evenodd" fill="#fff" points="306.283,81.637 309.953,78.685 310.938,78.863 
		311.654,83.606 311.296,84.681 307.089,87.634 306.462,87.098 305.925,83.159 306.283,81.637 	"/>
	<polygon fill-rule="evenodd" clip-rule="evenodd" fill="#fff" points="306.283,81.637 309.953,78.685 310.938,78.863 
		311.654,83.606 311.296,84.681 307.089,87.634 306.462,87.098 305.925,83.159 	"/>
	
		<polygon fill="none" stroke="#000" stroke-width="0.878" stroke-linecap="round" stroke-linejoin="round" stroke-miterlimit="10" points="
		306.283,81.637 309.953,78.685 310.938,78.863 311.654,83.606 311.296,84.681 307.089,87.634 306.462,87.098 305.925,83.159 	"/>
	
		<polygon fill="none" stroke="#000" stroke-width="0.878" stroke-linecap="round" stroke-linejoin="round" stroke-miterlimit="10" points="
		306.283,81.637 309.953,78.685 310.938,78.863 311.654,83.606 311.296,84.681 307.089,87.634 306.462,87.098 305.925,83.159 	"/>
	<path fill-rule="evenodd" clip-rule="evenodd" fill="#fff" d="M289.52,54.009c0.885,0.62,1.244,0.933,1.939,1.651
		c0.492,0.51,0.649,0.272,0.924,0.117c1.182-0.669,1.249-0.649,1.822-1.013c0.574-0.365,0.229-0.63-0.153-0.975
		c-0.664-0.599-1.696-1.307-2.261-1.511c-0.564-0.205-0.535-0.172-1.139,0.156c0.061-0.033-1.408,0.769-1.257,0.644
		c0,0-0.229,0.25-0.221,0.452C289.187,53.792,289.52,54.009,289.52,54.009"/>
	<path fill-rule="evenodd" clip-rule="evenodd" fill="#fff" d="M289.52,54.009c0.885,0.62,1.244,0.933,1.939,1.651
		c0.492,0.51,0.649,0.272,0.924,0.117c1.182-0.669,1.249-0.649,1.822-1.013c0.574-0.365,0.229-0.63-0.153-0.975
		c-0.664-0.599-1.696-1.307-2.261-1.511c-0.564-0.205-0.535-0.172-1.139,0.156c0.061-0.033-1.408,0.769-1.257,0.644
		c0,0-0.229,0.25-0.221,0.452C289.187,53.792,289.52,54.009,289.52,54.009z"/>
	
		<path fill="none" stroke="#000" stroke-width="0.878" stroke-linecap="round" stroke-linejoin="round" stroke-miterlimit="10" d="
		M289.52,54.009c0.885,0.62,1.244,0.933,1.939,1.651c0.492,0.51,0.649,0.272,0.924,0.117c1.182-0.669,1.249-0.649,1.822-1.013
		c0.574-0.365,0.229-0.63-0.153-0.975c-0.664-0.599-1.696-1.307-2.261-1.511c-0.564-0.205-0.535-0.172-1.139,0.156
		c0.061-0.033-1.408,0.769-1.257,0.644c0,0-0.229,0.25-0.221,0.452C289.187,53.792,289.52,54.009,289.52,54.009z"/>
	
		<path fill="none" stroke="#000" stroke-width="0.878" stroke-linecap="round" stroke-linejoin="round" stroke-miterlimit="10" d="
		M289.52,54.009c0.885,0.62,1.244,0.933,1.939,1.651c0.492,0.51,0.649,0.272,0.924,0.117c1.182-0.669,1.249-0.649,1.822-1.013
		c0.574-0.365,0.229-0.63-0.153-0.975c-0.664-0.599-1.696-1.307-2.261-1.511c-0.564-0.205-0.535-0.172-1.139,0.156
		c0.061-0.033-1.408,0.769-1.257,0.644c0,0-0.229,0.25-0.221,0.452C289.187,53.792,289.52,54.009,289.52,54.009z"/>
	<path fill-rule="evenodd" clip-rule="evenodd" fill="#fff" d="M296.364,59.711c0.818,0.805,0.734,1.164,1.488,1.82
		c0.536,0.465,0.672,0.214,0.931,0.036c1.119-0.77,1.6-1.14,1.6-1.14c0.366-0.263-0.238-0.956-0.238-0.956
		c-0.549-0.797-1.088-1.527-1.669-1.683c-0.58-0.154-0.548-0.125-1.12,0.255c0.057-0.038-1.336,0.889-1.197,0.751
		c0,0-0.207,0.27-0.18,0.471C296.013,59.523,296.364,59.711,296.364,59.711"/>
	<path fill-rule="evenodd" clip-rule="evenodd" fill="#fff" d="M296.364,59.711c0.818,0.805,0.734,1.164,1.488,1.82
		c0.536,0.465,0.672,0.214,0.931,0.036c1.119-0.77,1.6-1.14,1.6-1.14c0.366-0.263-0.238-0.956-0.238-0.956
		c-0.549-0.797-1.088-1.527-1.669-1.683c-0.58-0.154-0.548-0.125-1.12,0.255c0.057-0.038-1.336,0.889-1.197,0.751
		c0,0-0.207,0.27-0.18,0.471C296.013,59.523,296.364,59.711,296.364,59.711z"/>
	
		<path fill="none" stroke="#000" stroke-width="0.878" stroke-linecap="round" stroke-linejoin="round" stroke-miterlimit="10" d="
		M296.364,59.711c0.818,0.805,0.734,1.164,1.488,1.82c0.536,0.465,0.672,0.214,0.931,0.036c1.119-0.77,1.6-1.14,1.6-1.14
		c0.366-0.263-0.238-0.956-0.238-0.956c-0.549-0.797-1.088-1.527-1.669-1.683c-0.58-0.154-0.548-0.125-1.12,0.255
		c0.057-0.038-1.336,0.889-1.197,0.751c0,0-0.207,0.27-0.18,0.471C296.013,59.523,296.364,59.711,296.364,59.711z"/>
	
		<path fill="none" stroke="#000" stroke-width="0.878" stroke-linecap="round" stroke-linejoin="round" stroke-miterlimit="10" d="
		M296.364,59.711c0.818,0.805,0.734,1.164,1.488,1.82c0.536,0.465,0.672,0.214,0.931,0.036c1.119-0.77,1.6-1.14,1.6-1.14
		c0.366-0.263-0.238-0.956-0.238-0.956c-0.549-0.797-1.088-1.527-1.669-1.683c-0.58-0.154-0.548-0.125-1.12,0.255
		c0.057-0.038-1.336,0.889-1.197,0.751c0,0-0.207,0.27-0.18,0.471C296.013,59.523,296.364,59.711,296.364,59.711z"/>
	<path fill-rule="evenodd" clip-rule="evenodd" fill="#fff" d="M303.995,69.213c1.91-1.065,2.26-0.832,3.469,1.506
		c1.187,2.293,1.271,2.09-0.557,3.137c-2.768,1.585-2.281,0.786-3.356-1.19C302.474,70.689,301.888,70.389,303.995,69.213"/>
	<path fill-rule="evenodd" clip-rule="evenodd" fill="#fff" d="M303.995,69.213c1.91-1.065,2.26-0.832,3.469,1.506
		c1.187,2.293,1.271,2.09-0.557,3.137c-2.768,1.585-2.281,0.786-3.356-1.19C302.474,70.689,301.888,70.389,303.995,69.213z"/>
	
		<path fill="none" stroke="#000" stroke-width="0.878" stroke-linecap="round" stroke-linejoin="round" stroke-miterlimit="10" d="
		M303.995,69.213c1.91-1.065,2.26-0.832,3.469,1.506c1.187,2.293,1.271,2.09-0.557,3.137c-2.768,1.585-2.281,0.786-3.356-1.19
		C302.474,70.689,301.888,70.389,303.995,69.213z"/>
	
		<path fill="none" stroke="#000" stroke-width="0.878" stroke-linecap="round" stroke-linejoin="round" stroke-miterlimit="10" d="
		M303.995,69.213c1.91-1.065,2.26-0.832,3.469,1.506c1.187,2.293,1.271,2.09-0.557,3.137c-2.768,1.585-2.281,0.786-3.356-1.19
		C302.474,70.689,301.888,70.389,303.995,69.213z"/>
	<path fill-rule="evenodd" clip-rule="evenodd" fill="#fff" d="M310.392,81.083c0.053,0.384-0.218,0.744-0.603,0.798
		c-0.384,0.055-0.743-0.217-0.798-0.601c-0.054-0.384,0.219-0.744,0.602-0.798C309.977,80.428,310.337,80.699,310.392,81.083"/>
	<path fill-rule="evenodd" clip-rule="evenodd" fill="#fff" d="M310.392,81.083c0.053,0.384-0.218,0.744-0.603,0.798
		c-0.384,0.055-0.743-0.217-0.798-0.601c-0.054-0.384,0.219-0.744,0.602-0.798C309.977,80.428,310.337,80.699,310.392,81.083z"/>
	
		<path fill="none" stroke="#000" stroke-width="0.878" stroke-linecap="round" stroke-linejoin="round" stroke-miterlimit="10" d="
		M310.392,81.083c0.053,0.384-0.218,0.744-0.603,0.798c-0.384,0.055-0.743-0.217-0.798-0.601c-0.054-0.384,0.219-0.744,0.602-0.798
		C309.977,80.428,310.337,80.699,310.392,81.083z"/>
	
		<path fill="none" stroke="#000" stroke-width="0.878" stroke-linecap="round" stroke-linejoin="round" stroke-miterlimit="10" d="
		M310.392,81.083c0.053,0.384-0.218,0.744-0.603,0.798c-0.384,0.055-0.743-0.217-0.798-0.601c-0.054-0.384,0.219-0.744,0.602-0.798
		C309.977,80.428,310.337,80.699,310.392,81.083z"/>
	<path fill-rule="evenodd" clip-rule="evenodd" fill="#fff" d="M308.367,82.496c0.055,0.384-0.217,0.744-0.601,0.798
		c-0.384,0.055-0.744-0.218-0.798-0.601c-0.054-0.384,0.218-0.745,0.601-0.799C307.953,81.841,308.313,82.112,308.367,82.496"/>
	<circle fill-rule="evenodd" clip-rule="evenodd" fill="#fff" cx="307.667" cy="82.595" r="0.706"/>
	
		<circle fill="none" stroke="#000" stroke-width="0.878" stroke-linecap="round" stroke-linejoin="round" stroke-miterlimit="10" cx="307.667" cy="82.595" r="0.706"/>
	
		<circle fill="none" stroke="#000" stroke-width="0.878" stroke-linecap="round" stroke-linejoin="round" stroke-miterlimit="10" cx="307.667" cy="82.595" r="0.706"/>
	<path fill-rule="evenodd" clip-rule="evenodd" fill="#fff" d="M308.583,85.131c0.055,0.385-0.217,0.744-0.601,0.799
		c-0.384,0.054-0.744-0.218-0.798-0.602s0.217-0.744,0.601-0.798C308.169,84.477,308.529,84.747,308.583,85.131"/>
	<path fill-rule="evenodd" clip-rule="evenodd" fill="#fff" d="M308.583,85.131c0.055,0.385-0.217,0.744-0.601,0.799
		c-0.384,0.054-0.744-0.218-0.798-0.602s0.217-0.744,0.601-0.798C308.169,84.477,308.529,84.747,308.583,85.131z"/>
	
		<path fill="none" stroke="#000" stroke-width="0.878" stroke-linecap="round" stroke-linejoin="round" stroke-miterlimit="10" d="
		M308.583,85.131c0.055,0.385-0.217,0.744-0.601,0.799c-0.384,0.054-0.744-0.218-0.798-0.602s0.217-0.744,0.601-0.798
		C308.169,84.477,308.529,84.747,308.583,85.131z"/>
	
		<path fill="none" stroke="#000" stroke-width="0.878" stroke-linecap="round" stroke-linejoin="round" stroke-miterlimit="10" d="
		M308.583,85.131c0.055,0.385-0.217,0.744-0.601,0.799c-0.384,0.054-0.744-0.218-0.798-0.602s0.217-0.744,0.601-0.798
		C308.169,84.477,308.529,84.747,308.583,85.131z"/>
	<path fill-rule="evenodd" clip-rule="evenodd" fill="#fff" d="M310.653,83.635c0.055,0.385-0.217,0.744-0.601,0.799
		c-0.384,0.054-0.744-0.218-0.798-0.602c-0.055-0.384,0.217-0.744,0.601-0.798S310.599,83.251,310.653,83.635"/>
	<path fill-rule="evenodd" clip-rule="evenodd" fill="#fff" d="M310.653,83.635c0.055,0.385-0.217,0.744-0.601,0.799
		c-0.384,0.054-0.744-0.218-0.798-0.602c-0.055-0.384,0.217-0.744,0.601-0.798S310.599,83.251,310.653,83.635z"/>
	
		<path fill="none" stroke="#000" stroke-width="0.878" stroke-linecap="round" stroke-linejoin="round" stroke-miterlimit="10" d="
		M310.653,83.635c0.055,0.385-0.217,0.744-0.601,0.799c-0.384,0.054-0.744-0.218-0.798-0.602c-0.055-0.384,0.217-0.744,0.601-0.798
		S310.599,83.251,310.653,83.635z"/>
	
		<path fill="none" stroke="#000" stroke-width="0.878" stroke-linecap="round" stroke-linejoin="round" stroke-miterlimit="10" d="
		M310.653,83.635c0.055,0.385-0.217,0.744-0.601,0.799c-0.384,0.054-0.744-0.218-0.798-0.602c-0.055-0.384,0.217-0.744,0.601-0.798
		S310.599,83.251,310.653,83.635z"/>
	
		<path fill="none" stroke="#000" stroke-width="0.878" stroke-linecap="round" stroke-linejoin="round" stroke-miterlimit="10" d="
		M303.42,52.503c3.122-2.458,5.585-4.084,7.152-2.116c1.608,2.017,0.065,3.691-3.21,5.993"/>
	
		<path fill="none" stroke="#000" stroke-width="0.878" stroke-linecap="round" stroke-linejoin="round" stroke-miterlimit="10" d="
		M303.42,52.503c3.122-2.458,5.585-4.084,7.152-2.116c1.608,2.017,0.065,3.691-3.21,5.993"/>
	
		<path fill="none" stroke="#000" stroke-width="0.878" stroke-linecap="round" stroke-linejoin="round" stroke-miterlimit="10" d="
		M306.438,53.606c0.954,1.151,1.216,2.514,0.581,3.017c-0.635,0.504-1.943-0.03-2.896-1.182c-0.954-1.152-1.217-2.515-0.581-3.018
		C304.177,51.92,305.485,52.454,306.438,53.606z"/>
	
		<path fill="none" stroke="#000" stroke-width="0.878" stroke-linecap="round" stroke-linejoin="round" stroke-miterlimit="10" d="
		M306.438,53.606c0.954,1.151,1.216,2.514,0.581,3.017c-0.635,0.504-1.943-0.03-2.896-1.182c-0.954-1.152-1.217-2.515-0.581-3.018
		C304.177,51.92,305.485,52.454,306.438,53.606z"/>
	
		<path fill="none" stroke="#000" stroke-width="0.878" stroke-linecap="round" stroke-linejoin="round" stroke-miterlimit="10" d="
		M304.433,51.899c0.058-0.147,0.145-0.272,0.264-0.366c0.636-0.504,1.943,0.03,2.896,1.182c0.834,1.009,1.139,2.178,0.776,2.791"/>
	
		<path fill="none" stroke="#000" stroke-width="0.878" stroke-linecap="round" stroke-linejoin="round" stroke-miterlimit="10" d="
		M304.433,51.899c0.058-0.147,0.145-0.272,0.264-0.366c0.636-0.504,1.943,0.03,2.896,1.182c0.834,1.009,1.139,2.178,0.776,2.791"/>
	
		<path fill="none" stroke="#000" stroke-width="0.878" stroke-linecap="round" stroke-linejoin="round" stroke-miterlimit="10" d="
		M317.947,78.846c0.427,1.433,0.136,2.788-0.645,3.004c-0.782,0.216-1.777-0.786-2.204-2.22c-0.428-1.433-0.137-2.789,0.645-3.005
		C316.524,76.41,317.519,77.412,317.947,78.846z"/>
	
		<path fill="none" stroke="#000" stroke-width="0.878" stroke-linecap="round" stroke-linejoin="round" stroke-miterlimit="10" d="
		M317.947,78.846c0.427,1.433,0.136,2.788-0.645,3.004c-0.782,0.216-1.777-0.786-2.204-2.22c-0.428-1.433-0.137-2.789,0.645-3.005
		C316.524,76.41,317.519,77.412,317.947,78.846z"/>
	
		<polyline fill="none" stroke="#000" stroke-width="0.878" stroke-linecap="round" stroke-linejoin="round" stroke-miterlimit="10" points="
		315.71,76.726 320.592,77.624 317.322,81.85 	"/>
	
		<polyline fill="none" stroke="#000" stroke-width="0.878" stroke-linecap="round" stroke-linejoin="round" stroke-miterlimit="10" points="
		315.71,76.726 320.592,77.624 317.322,81.85 	"/>
	
		<path fill="none" stroke="#000" stroke-width="0.878" stroke-linecap="round" stroke-linejoin="round" stroke-miterlimit="10" d="
		M271.008,45.124c6.087-4.653,19.021-6.033,34.016,12.171c15.039,18.257,10.026,31.502,3.939,36.156"/>
	
		<path fill="none" stroke="#000" stroke-width="0.878" stroke-linecap="round" stroke-linejoin="round" stroke-miterlimit="10" d="
		M271.008,45.124c6.087-4.653,19.021-6.033,34.016,12.171c15.039,18.257,10.026,31.502,3.939,36.156"/>
	
		<line fill="none" stroke="#000" stroke-width="0.878" stroke-linecap="round" stroke-linejoin="round" stroke-miterlimit="10" x1="270.746" y1="45.213" x2="262.415" y2="51.925"/>
	
		<line fill="none" stroke="#000" stroke-width="0.878" stroke-linecap="round" stroke-linejoin="round" stroke-miterlimit="10" x1="270.746" y1="45.213" x2="262.415" y2="51.925"/>
	
		<line fill="none" stroke="#000" stroke-width="0.878" stroke-linecap="round" stroke-linejoin="round" stroke-miterlimit="10" x1="310.394" y1="92.735" x2="301.801" y2="99.895"/>
	
		<line fill="none" stroke="#000" stroke-width="0.878" stroke-linecap="round" stroke-linejoin="round" stroke-miterlimit="10" x1="310.394" y1="92.735" x2="301.801" y2="99.895"/>
	
		<path fill="none" stroke="#000" stroke-width="0.878" stroke-linecap="round" stroke-linejoin="round" stroke-miterlimit="10" d="
		M270.452,45.358c4.495-3.456,18.102-2.74,31.708,14.085c13.589,16.804,11.458,30.788,7.434,34.042"/>
	
		<path fill="none" stroke="#000" stroke-width="0.878" stroke-linecap="round" stroke-linejoin="round" stroke-miterlimit="10" d="
		M270.452,45.358c4.495-3.456,18.102-2.74,31.708,14.085c13.589,16.804,11.458,30.788,7.434,34.042"/>
	
		<line fill="none" stroke="#000" stroke-width="0.878" stroke-linecap="round" stroke-linejoin="round" stroke-miterlimit="10" x1="274.196" y1="53.839" x2="261.524" y2="57.788"/>
	
		<line fill="none" stroke="#000" stroke-width="0.878" stroke-linecap="round" stroke-linejoin="round" stroke-miterlimit="10" x1="274.196" y1="53.839" x2="261.524" y2="57.788"/>
	
		<line fill="none" stroke="#000" stroke-width="0.878" stroke-linecap="round" stroke-linejoin="round" stroke-miterlimit="10" x1="274.854" y1="53.839" x2="280.645" y2="68.742"/>
	
		<line fill="none" stroke="#000" stroke-width="0.878" stroke-linecap="round" stroke-linejoin="round" stroke-miterlimit="10" x1="274.854" y1="53.839" x2="280.645" y2="68.742"/>
	
		<line fill="none" stroke="#000" stroke-width="0.878" stroke-linecap="round" stroke-linejoin="round" stroke-miterlimit="10" x1="276.829" y1="51.865" x2="283.906" y2="72.104"/>
	
		<line fill="none" stroke="#000" stroke-width="0.878" stroke-linecap="round" stroke-linejoin="round" stroke-miterlimit="10" x1="276.829" y1="51.865" x2="283.906" y2="72.104"/>
	
		<line fill="none" stroke="#000" stroke-width="0.878" stroke-linecap="round" stroke-linejoin="round" stroke-miterlimit="10" x1="283.991" y1="72.939" x2="292.764" y2="65.869"/>
	
		<line fill="none" stroke="#000" stroke-width="0.878" stroke-linecap="round" stroke-linejoin="round" stroke-miterlimit="10" x1="283.991" y1="72.939" x2="292.764" y2="65.869"/>
	
		<line fill="none" stroke="#000" stroke-width="0.878" stroke-linecap="round" stroke-linejoin="round" stroke-miterlimit="10" x1="285.395" y1="74.564" x2="294.436" y2="67.494"/>
	
		<line fill="none" stroke="#000" stroke-width="0.878" stroke-linecap="round" stroke-linejoin="round" stroke-miterlimit="10" x1="285.395" y1="74.564" x2="294.436" y2="67.494"/>
	
		<line fill="none" stroke="#000" stroke-width="0.878" stroke-linecap="round" stroke-linejoin="round" stroke-miterlimit="10" x1="285.88" y1="75.064" x2="303.956" y2="85.217"/>
	
		<line fill="none" stroke="#000" stroke-width="0.878" stroke-linecap="round" stroke-linejoin="round" stroke-miterlimit="10" x1="285.88" y1="75.064" x2="303.956" y2="85.217"/>
	
		<line fill="none" stroke="#000" stroke-width="0.878" stroke-linecap="round" stroke-linejoin="round" stroke-miterlimit="10" x1="288.349" y1="78.685" x2="302.167" y2="86.649"/>
	
		<line fill="none" stroke="#000" stroke-width="0.878" stroke-linecap="round" stroke-linejoin="round" stroke-miterlimit="10" x1="288.349" y1="78.685" x2="302.167" y2="86.649"/>
	
		<line fill="none" stroke="#000" stroke-width="0.878" stroke-linecap="round" stroke-linejoin="round" stroke-miterlimit="10" x1="302.165" y1="86.649" x2="295.004" y2="99.536"/>
	
		<line fill="none" stroke="#000" stroke-width="0.878" stroke-linecap="round" stroke-linejoin="round" stroke-miterlimit="10" x1="302.165" y1="86.649" x2="295.004" y2="99.536"/>
	
		<line fill="none" stroke="#000" stroke-width="0.878" stroke-linecap="round" stroke-linejoin="round" stroke-miterlimit="10" x1="275.677" y1="51.536" x2="255.439" y2="58.101"/>
	
		<line fill="none" stroke="#000" stroke-width="0.878" stroke-linecap="round" stroke-linejoin="round" stroke-miterlimit="10" x1="275.677" y1="51.536" x2="255.439" y2="58.101"/>
	
		<line fill="none" stroke="#000" stroke-width="0.878" stroke-linecap="round" stroke-linejoin="round" stroke-miterlimit="10" x1="304.314" y1="86.649" x2="293.286" y2="106.326"/>
	
		<line fill="none" stroke="#000" stroke-width="0.878" stroke-linecap="round" stroke-linejoin="round" stroke-miterlimit="10" x1="304.314" y1="86.649" x2="293.286" y2="106.326"/>
	
		<path fill="none" stroke="#000" stroke-width="0.878" stroke-linecap="round" stroke-linejoin="round" stroke-miterlimit="10" d="
		M296.65,101.655c2.12-0.18,3.849-0.813,4.961-1.668c4.025-3.255,6.26-17.297-7.329-34.101
		c-13.605-16.825-27.316-17.482-31.812-14.026c-1.256,1.016-2.338,3.083-2.819,5.956"/>
	
		<path fill="none" stroke="#000" stroke-width="0.878" stroke-linecap="round" stroke-linejoin="round" stroke-miterlimit="10" d="
		M296.65,101.655c2.12-0.18,3.849-0.813,4.961-1.668c4.025-3.255,6.26-17.297-7.329-34.101
		c-13.605-16.825-27.316-17.482-31.812-14.026c-1.256,1.016-2.338,3.083-2.819,5.956"/>
	
		<line fill="none" stroke="#000" stroke-width="1.755" stroke-linecap="round" stroke-linejoin="round" stroke-miterlimit="10" x1="301.449" y1="56.579" x2="305.03" y2="54.073"/>
	
		<line fill="none" stroke="#000" stroke-width="1.755" stroke-linecap="round" stroke-linejoin="round" stroke-miterlimit="10" x1="301.449" y1="56.579" x2="305.03" y2="54.073"/>
	
		<line fill="none" stroke="#000" stroke-width="0.878" stroke-linecap="round" stroke-linejoin="round" stroke-miterlimit="10" x1="301.449" y1="53.357" x2="298.943" y2="55.147"/>
	
		<line fill="none" stroke="#000" stroke-width="0.878" stroke-linecap="round" stroke-linejoin="round" stroke-miterlimit="10" x1="301.449" y1="53.357" x2="298.943" y2="55.147"/>
	
		<line fill="none" stroke="#000" stroke-width="0.878" stroke-linecap="round" stroke-linejoin="round" stroke-miterlimit="10" x1="301.807" y1="59.085" x2="304.583" y2="57.026"/>
	
		<line fill="none" stroke="#000" stroke-width="0.878" stroke-linecap="round" stroke-linejoin="round" stroke-miterlimit="10" x1="301.807" y1="59.085" x2="304.583" y2="57.026"/>
	
		<line fill="none" stroke="#000" stroke-width="0.878" stroke-linecap="round" stroke-linejoin="round" stroke-miterlimit="10" x1="316.577" y1="78.596" x2="314.787" y2="78.416"/>
	
		<line fill="none" stroke="#000" stroke-width="0.878" stroke-linecap="round" stroke-linejoin="round" stroke-miterlimit="10" x1="316.577" y1="78.596" x2="314.787" y2="78.416"/>
	
		<line fill="none" stroke="#000" stroke-width="0.878" stroke-linecap="round" stroke-linejoin="round" stroke-miterlimit="10" x1="316.667" y1="79.489" x2="314.698" y2="83.159"/>
	
		<line fill="none" stroke="#000" stroke-width="0.878" stroke-linecap="round" stroke-linejoin="round" stroke-miterlimit="10" x1="316.667" y1="79.489" x2="314.698" y2="83.159"/>
	
		<path fill="none" stroke="#000" stroke-width="0.878" stroke-linecap="round" stroke-linejoin="round" stroke-miterlimit="10" d="
		M297.261,99.244c1.909-0.14,1.619-0.596,2.631-1.374c1.505-1.217,2.731-4.108,2.775-8.157"/>
	
		<path fill="none" stroke="#000" stroke-width="0.878" stroke-linecap="round" stroke-linejoin="round" stroke-miterlimit="10" d="
		M297.261,99.244c1.909-0.14,1.619-0.596,2.631-1.374c1.505-1.217,2.731-4.108,2.775-8.157"/>
	
		<line fill="none" stroke="#000" stroke-width="0.878" stroke-linecap="round" stroke-linejoin="round" stroke-miterlimit="10" x1="291.69" y1="65.183" x2="292.585" y2="64.198"/>
	
		<line fill="none" stroke="#000" stroke-width="0.878" stroke-linecap="round" stroke-linejoin="round" stroke-miterlimit="10" x1="291.69" y1="65.183" x2="292.585" y2="64.198"/>
	
		<line fill="none" stroke="#000" stroke-width="0.878" stroke-linecap="round" stroke-linejoin="round" stroke-miterlimit="10" x1="294.285" y1="68.658" x2="295.261" y2="67.66"/>
	
		<line fill="none" stroke="#000" stroke-width="0.878" stroke-linecap="round" stroke-linejoin="round" stroke-miterlimit="10" x1="294.285" y1="68.658" x2="295.261" y2="67.66"/>
	<path fill-rule="evenodd" clip-rule="evenodd" fill="#fff" d="M292.764,65.615c1.343-0.09,1.969,1.074,1.343,1.79"/>
	<path fill-rule="evenodd" clip-rule="evenodd" fill="#fff" d="M292.764,65.615c1.343-0.09,1.969,1.074,1.343,1.79"/>
	
		<path fill="none" stroke="#000" stroke-width="0.878" stroke-linecap="round" stroke-linejoin="round" stroke-miterlimit="10" d="
		M292.764,65.615c1.343-0.09,1.969,1.074,1.343,1.79"/>
	
		<path fill="none" stroke="#000" stroke-width="0.878" stroke-linecap="round" stroke-linejoin="round" stroke-miterlimit="10" d="
		M292.764,65.615c1.343-0.09,1.969,1.074,1.343,1.79"/>
	
		<path fill="none" stroke="#000" stroke-width="0.878" stroke-linecap="round" stroke-linejoin="round" stroke-miterlimit="10" d="
		M301.962,83.743c-1.027-4.351-3.268-9.416-7.329-14.846"/>
	
		<path fill="none" stroke="#000" stroke-width="0.878" stroke-linecap="round" stroke-linejoin="round" stroke-miterlimit="10" d="
		M301.962,83.743c-1.027-4.351-3.268-9.416-7.329-14.846"/>
	
		<path fill="none" stroke="#000" stroke-width="0.878" stroke-linecap="round" stroke-linejoin="round" stroke-miterlimit="10" d="
		M292.137,66.023C292.134,66.02,292.137,66.023,292.137,66.023c-4.199-5.192-9.384-9.387-13.992-11.197"/>
	
		<line fill="none" stroke="#000" stroke-width="0.878" stroke-linecap="round" stroke-linejoin="round" stroke-miterlimit="10" x1="279.133" y1="55.155" x2="278.968" y2="53.017"/>
	
		<line fill="none" stroke="#000" stroke-width="0.878" stroke-linecap="round" stroke-linejoin="round" stroke-miterlimit="10" x1="279.133" y1="55.155" x2="278.968" y2="53.017"/>
	
		<path fill="none" stroke="#000" stroke-width="0.878" stroke-linecap="round" stroke-linejoin="round" stroke-miterlimit="10" d="
		M271.461,53.104c-3.021-0.252-5.401,0.381-6.795,1.453c-0.117,0.094-0.232,0.197-0.346,0.312"/>
	
		<path fill="none" stroke="#000" stroke-width="0.878" stroke-linecap="round" stroke-linejoin="round" stroke-miterlimit="10" d="
		M271.461,53.104c-3.021-0.252-5.401,0.381-6.795,1.453c-0.117,0.094-0.232,0.197-0.346,0.312"/>
	
		<line fill="none" stroke="#000" stroke-width="0.878" stroke-linecap="round" stroke-linejoin="round" stroke-miterlimit="10" x1="302.008" y1="82.962" x2="303.819" y2="83.62"/>
	
		<line fill="none" stroke="#000" stroke-width="0.878" stroke-linecap="round" stroke-linejoin="round" stroke-miterlimit="10" x1="302.008" y1="82.962" x2="303.819" y2="83.62"/>
	
		<line fill="none" stroke="#000" stroke-width="0.878" stroke-linecap="round" stroke-linejoin="round" stroke-miterlimit="10" x1="302.831" y1="89.379" x2="304.477" y2="89.873"/>
	
		<line fill="none" stroke="#000" stroke-width="0.878" stroke-linecap="round" stroke-linejoin="round" stroke-miterlimit="10" x1="302.831" y1="89.379" x2="304.477" y2="89.873"/>
	
		<path fill="none" stroke="#000" stroke-width="0.878" stroke-linecap="round" stroke-linejoin="round" stroke-miterlimit="10" d="
		M252.905,59.319c4.494-3.456,18.102-2.74,31.708,14.085c13.589,16.804,11.458,30.787,7.434,34.042"/>
	
		<path fill="none" stroke="#000" stroke-width="0.878" stroke-linecap="round" stroke-linejoin="round" stroke-miterlimit="10" d="
		M252.905,59.319c4.494-3.456,18.102-2.74,31.708,14.085c13.589,16.804,11.458,30.787,7.434,34.042"/>
	
		<line fill="none" stroke="#000" stroke-width="0.878" stroke-linecap="round" stroke-linejoin="round" stroke-miterlimit="10" x1="195.788" y1="105.381" x2="253.225" y2="59.145"/>
	
		<line fill="none" stroke="#000" stroke-width="0.878" stroke-linecap="round" stroke-linejoin="round" stroke-miterlimit="10" x1="195.788" y1="105.381" x2="253.225" y2="59.145"/>
	
		<line fill="none" stroke="#000" stroke-width="0.878" stroke-linecap="round" stroke-linejoin="round" stroke-miterlimit="10" x1="234.794" y1="153.591" x2="292.396" y2="107.189"/>
	
		<line fill="none" stroke="#000" stroke-width="0.878" stroke-linecap="round" stroke-linejoin="round" stroke-miterlimit="10" x1="234.794" y1="153.591" x2="292.396" y2="107.189"/>
	<path fill-rule="evenodd" clip-rule="evenodd" fill="#fff" d="M218.169,101.103c0,0.726-1.253,1.315-2.798,1.315
		c-1.544,0-2.796-0.59-2.796-1.315c0-0.727,1.252-1.315,2.796-1.315C216.917,99.787,218.169,100.376,218.169,101.103"/>
	<path fill-rule="evenodd" clip-rule="evenodd" fill="#fff" d="M218.169,101.103L218.169,101.103
		c0,0.726-1.253,1.315-2.798,1.315c-1.544,0-2.796-0.59-2.796-1.315c0-0.727,1.252-1.315,2.796-1.315
		C216.917,99.787,218.169,100.376,218.169,101.103z"/>
	
		<path fill="none" stroke="#000" stroke-width="0.878" stroke-linecap="round" stroke-linejoin="round" stroke-miterlimit="10" d="
		M218.169,101.103L218.169,101.103c0,0.726-1.253,1.315-2.798,1.315c-1.544,0-2.796-0.59-2.796-1.315
		c0-0.727,1.252-1.315,2.796-1.315C216.917,99.787,218.169,100.376,218.169,101.103z"/>
	
		<path fill="none" stroke="#000" stroke-width="0.878" stroke-linecap="round" stroke-linejoin="round" stroke-miterlimit="10" d="
		M218.169,101.103L218.169,101.103c0,0.726-1.253,1.315-2.798,1.315c-1.544,0-2.796-0.59-2.796-1.315
		c0-0.727,1.252-1.315,2.796-1.315C216.917,99.787,218.169,100.376,218.169,101.103z"/>
	
		<path fill="none" stroke="#000" stroke-width="0.878" stroke-linecap="round" stroke-linejoin="round" stroke-miterlimit="10" d="
		M196.737,105.3c5.801-1.947,17.707,0.44,29.612,15.161c11.036,13.646,11.704,25.432,9.41,31.122"/>
	
		<path fill="none" stroke="#000" stroke-width="0.878" stroke-linecap="round" stroke-linejoin="round" stroke-miterlimit="10" d="
		M196.737,105.3c5.801-1.947,17.707,0.44,29.612,15.161c11.036,13.646,11.704,25.432,9.41,31.122"/>
	
		<path fill="none" stroke="#000" stroke-width="0.878" stroke-linecap="round" stroke-linejoin="round" stroke-miterlimit="10" d="
		M197.934,103.745c4.495-3.457,18.101-2.741,31.708,14.085c13.589,16.803,11.458,30.787,7.433,34.041"/>
	
		<path fill="none" stroke="#000" stroke-width="0.878" stroke-linecap="round" stroke-linejoin="round" stroke-miterlimit="10" d="
		M197.934,103.745c4.495-3.457,18.101-2.741,31.708,14.085c13.589,16.803,11.458,30.787,7.433,34.041"/>
	
		<line fill="none" stroke="#000" stroke-width="1.755" stroke-linecap="round" stroke-linejoin="round" stroke-miterlimit="10" x1="147.882" y1="92.817" x2="210.638" y2="105.44"/>
	
		<line fill="none" stroke="#000" stroke-width="1.755" stroke-linecap="round" stroke-linejoin="round" stroke-miterlimit="10" x1="147.882" y1="92.817" x2="210.638" y2="105.44"/>
	
		<line fill="none" stroke="#000" stroke-width="1.755" stroke-linecap="round" stroke-linejoin="round" stroke-miterlimit="10" x1="159.168" y1="82.441" x2="263.987" y2="129.197"/>
	
		<line fill="none" stroke="#000" stroke-width="1.755" stroke-linecap="round" stroke-linejoin="round" stroke-miterlimit="10" x1="159.168" y1="82.441" x2="263.987" y2="129.197"/>
	
		<line fill="none" stroke="#000" stroke-width="1.755" stroke-linecap="round" stroke-linejoin="round" stroke-miterlimit="10" x1="210.533" y1="7.44" x2="210.531" y2="105.741"/>
	
		<line fill="none" stroke="#000" stroke-width="1.755" stroke-linecap="round" stroke-linejoin="round" stroke-miterlimit="10" x1="210.533" y1="7.44" x2="210.531" y2="105.741"/>
	
		<path fill="none" stroke="#000" stroke-width="0.878" stroke-linecap="round" stroke-linejoin="round" stroke-miterlimit="10" d="
		M177.523,110.101c5.657-4.352,22.786-3.45,39.915,17.729c17.106,21.152,14.424,38.755,9.357,42.853"/>
	
		<path fill="none" stroke="#000" stroke-width="0.878" stroke-linecap="round" stroke-linejoin="round" stroke-miterlimit="10" d="
		M177.523,110.101c5.657-4.352,22.786-3.45,39.915,17.729c17.106,21.152,14.424,38.755,9.357,42.853"/>
	
		<line fill="none" stroke="#000" stroke-width="0.878" stroke-linecap="round" stroke-linejoin="round" stroke-miterlimit="10" x1="196.608" y1="105.216" x2="180.971" y2="108.504"/>
	
		<line fill="none" stroke="#000" stroke-width="0.878" stroke-linecap="round" stroke-linejoin="round" stroke-miterlimit="10" x1="196.608" y1="105.216" x2="180.971" y2="108.504"/>
	
		<line fill="none" stroke="#000" stroke-width="0.878" stroke-linecap="round" stroke-linejoin="round" stroke-miterlimit="10" x1="228.701" y1="168.564" x2="235.777" y2="151.614"/>
	
		<line fill="none" stroke="#000" stroke-width="0.878" stroke-linecap="round" stroke-linejoin="round" stroke-miterlimit="10" x1="228.701" y1="168.564" x2="235.777" y2="151.614"/>
	
		<line fill="none" stroke="#000" stroke-width="0.878" stroke-linecap="round" stroke-linejoin="round" stroke-miterlimit="10" x1="236.437" y1="148.654" x2="230.675" y2="160.499"/>
	
		<line fill="none" stroke="#000" stroke-width="0.878" stroke-linecap="round" stroke-linejoin="round" stroke-miterlimit="10" x1="236.437" y1="148.654" x2="230.675" y2="160.499"/>
	
		<line fill="none" stroke="#000" stroke-width="0.878" stroke-linecap="round" stroke-linejoin="round" stroke-miterlimit="10" x1="229.425" y1="124.755" x2="221.458" y2="133.021"/>
	
		<line fill="none" stroke="#000" stroke-width="0.878" stroke-linecap="round" stroke-linejoin="round" stroke-miterlimit="10" x1="229.425" y1="124.755" x2="221.458" y2="133.021"/>
	
		<polyline fill="none" stroke="#000" stroke-width="0.878" stroke-linecap="round" stroke-linejoin="round" stroke-miterlimit="10" points="
		234.296,155.236 235.448,155.729 231.663,164.448 230.512,163.79 	"/>
	
		<polyline fill="none" stroke="#000" stroke-width="0.878" stroke-linecap="round" stroke-linejoin="round" stroke-miterlimit="10" points="
		234.296,155.236 235.448,155.729 231.663,164.448 230.512,163.79 	"/>
	
		<line fill="none" stroke="#000" stroke-width="0.878" stroke-linecap="round" stroke-linejoin="round" stroke-miterlimit="10" x1="180.05" y1="157.004" x2="216.685" y2="127.755"/>
	
		<line fill="none" stroke="#000" stroke-width="0.878" stroke-linecap="round" stroke-linejoin="round" stroke-miterlimit="10" x1="180.05" y1="157.004" x2="216.685" y2="127.755"/>
	
		<line fill="none" stroke="#000" stroke-width="0.878" stroke-linecap="round" stroke-linejoin="round" stroke-miterlimit="10" x1="181.202" y1="158.979" x2="218.167" y2="129.072"/>
	
		<line fill="none" stroke="#000" stroke-width="0.878" stroke-linecap="round" stroke-linejoin="round" stroke-miterlimit="10" x1="181.202" y1="158.979" x2="218.167" y2="129.072"/>
	<polyline fill-rule="evenodd" clip-rule="evenodd" fill="#fff" points="221.294,130.719 210.63,139.308 212.852,142.12 
		223.663,133.533 221.294,130.719 	"/>
	<polygon fill-rule="evenodd" clip-rule="evenodd" fill="#fff" points="221.294,130.719 210.63,139.308 212.852,142.12 
		223.663,133.533 	"/>
	
		<polygon fill="none" stroke="#000" stroke-width="0.878" stroke-linecap="round" stroke-linejoin="round" stroke-miterlimit="10" points="
		221.294,130.719 210.63,139.308 212.852,142.12 223.663,133.533 	"/>
	
		<polygon fill="none" stroke="#000" stroke-width="0.878" stroke-linecap="round" stroke-linejoin="round" stroke-miterlimit="10" points="
		221.294,130.719 210.63,139.308 212.852,142.12 223.663,133.533 	"/>
	<polyline fill-rule="evenodd" clip-rule="evenodd" points="210.186,138.714 209.445,139.308 212.556,143.008 213.296,142.416 
		210.186,138.714 	"/>
	<polygon fill-rule="evenodd" clip-rule="evenodd" points="210.186,138.714 209.445,139.308 212.556,143.008 213.296,142.416 	"/>
	
		<polygon fill="none" stroke="#000" stroke-width="0.439" stroke-linecap="round" stroke-linejoin="round" stroke-miterlimit="10" points="
		210.186,138.714 209.445,139.308 212.556,143.008 213.296,142.416 	"/>
	
		<polygon fill="none" stroke="#000" stroke-width="0.439" stroke-linecap="round" stroke-linejoin="round" stroke-miterlimit="10" points="
		210.186,138.714 209.445,139.308 212.556,143.008 213.296,142.416 	"/>
	
		<line fill="none" stroke="#000" stroke-width="0.878" stroke-linecap="round" stroke-linejoin="round" stroke-miterlimit="10" x1="219.072" y1="132.496" x2="221.59" y2="135.605"/>
	
		<line fill="none" stroke="#000" stroke-width="0.878" stroke-linecap="round" stroke-linejoin="round" stroke-miterlimit="10" x1="219.072" y1="132.496" x2="221.59" y2="135.605"/>
	<polyline fill-rule="evenodd" clip-rule="evenodd" fill="#fff" points="230.79,151.089 227.452,153.788 219.682,159.085 
		220.867,162.935 229.176,157.329 232.124,154.939 230.79,151.089 	"/>
	<polygon fill-rule="evenodd" clip-rule="evenodd" fill="#fff" points="230.79,151.089 227.452,153.788 219.682,159.085 
		220.867,162.935 229.176,157.329 232.124,154.939 	"/>
	
		<polygon fill="none" stroke="#000" stroke-width="0.878" stroke-linecap="round" stroke-linejoin="round" stroke-miterlimit="10" points="
		230.79,151.089 227.452,153.788 219.682,159.085 220.867,162.935 229.176,157.329 232.124,154.939 	"/>
	
		<polygon fill="none" stroke="#000" stroke-width="0.878" stroke-linecap="round" stroke-linejoin="round" stroke-miterlimit="10" points="
		230.79,151.089 227.452,153.788 219.682,159.085 220.867,162.935 229.176,157.329 232.124,154.939 	"/>
	<polyline fill-rule="evenodd" clip-rule="evenodd" points="219.238,158.493 218.497,159.085 220.126,164.119 220.867,163.526 
		219.238,158.493 	"/>
	<polygon fill-rule="evenodd" clip-rule="evenodd" points="219.238,158.493 218.497,159.085 220.126,164.119 220.867,163.526 	"/>
	
		<polygon fill="none" stroke="#000" stroke-width="0.439" stroke-linecap="round" stroke-linejoin="round" stroke-miterlimit="10" points="
		219.238,158.493 218.497,159.085 220.126,164.119 220.867,163.526 	"/>
	
		<polygon fill="none" stroke="#000" stroke-width="0.439" stroke-linecap="round" stroke-linejoin="round" stroke-miterlimit="10" points="
		219.238,158.493 218.497,159.085 220.126,164.119 220.867,163.526 	"/>
	<polyline fill-rule="evenodd" clip-rule="evenodd" fill="#fff" points="230.642,151.089 229.309,150.793 219.534,158.788 	"/>
	<polyline fill-rule="evenodd" clip-rule="evenodd" fill="#fff" points="230.642,151.089 229.309,150.793 219.534,158.788 	"/>
	
		<polyline fill="none" stroke="#000" stroke-width="0.878" stroke-linecap="round" stroke-linejoin="round" stroke-miterlimit="10" points="
		230.642,151.089 229.309,150.793 219.534,158.788 	"/>
	
		<polyline fill="none" stroke="#000" stroke-width="0.878" stroke-linecap="round" stroke-linejoin="round" stroke-miterlimit="10" points="
		230.642,151.089 229.309,150.793 219.534,158.788 	"/>
	
		<line fill="none" stroke="#000" stroke-width="0.878" stroke-linecap="round" stroke-linejoin="round" stroke-miterlimit="10" x1="228.272" y1="153.162" x2="229.605" y2="156.715"/>
	
		<line fill="none" stroke="#000" stroke-width="0.878" stroke-linecap="round" stroke-linejoin="round" stroke-miterlimit="10" x1="228.272" y1="153.162" x2="229.605" y2="156.715"/>
	
		<line fill="none" stroke="#000" stroke-width="0.878" stroke-linecap="round" stroke-linejoin="round" stroke-miterlimit="10" x1="196.014" y1="110.44" x2="208.686" y2="106.488"/>
	
		<line fill="none" stroke="#000" stroke-width="0.878" stroke-linecap="round" stroke-linejoin="round" stroke-miterlimit="10" x1="196.014" y1="110.44" x2="208.686" y2="106.488"/>
	
		<line fill="none" stroke="#000" stroke-width="1.316" stroke-linecap="round" stroke-linejoin="round" stroke-miterlimit="10" x1="189.932" y1="124.257" x2="202.363" y2="114.02"/>
	
		<line fill="none" stroke="#000" stroke-width="1.316" stroke-linecap="round" stroke-linejoin="round" stroke-miterlimit="10" x1="189.932" y1="124.257" x2="202.363" y2="114.02"/>
	
		<line fill="none" stroke="#000" stroke-width="0.878" stroke-linecap="round" stroke-linejoin="round" stroke-miterlimit="10" x1="176.402" y1="118.774" x2="188.833" y2="108.536"/>
	
		<line fill="none" stroke="#000" stroke-width="0.878" stroke-linecap="round" stroke-linejoin="round" stroke-miterlimit="10" x1="176.402" y1="118.774" x2="188.833" y2="108.536"/>
	
		<path fill="none" stroke="#000" stroke-width="0.878" stroke-linecap="round" stroke-linejoin="round" stroke-miterlimit="10" d="
		M205.403,139.859c15.855,20.513,13.181,37.419,8.229,41.424"/>
	
		<path fill="none" stroke="#000" stroke-width="0.878" stroke-linecap="round" stroke-linejoin="round" stroke-miterlimit="10" d="
		M205.403,139.859c15.855,20.513,13.181,37.419,8.229,41.424"/>
	
		<path fill="none" stroke="#000" stroke-width="0.878" stroke-linecap="round" stroke-linejoin="round" stroke-miterlimit="10" d="
		M189.179,124.446c4.67,3.009,9.63,7.345,14.599,13.377"/>
	
		<path fill="none" stroke="#000" stroke-width="0.878" stroke-linecap="round" stroke-linejoin="round" stroke-miterlimit="10" d="
		M189.179,124.446c4.67,3.009,9.63,7.345,14.599,13.377"/>
	
		<path fill="none" stroke="#000" stroke-width="1.316" stroke-linecap="round" stroke-linejoin="round" stroke-miterlimit="10" d="
		M176.05,118.985c3.873,0.691,8.349,2.38,13.128,5.459"/>
	
		<path fill="none" stroke="#000" stroke-width="1.316" stroke-linecap="round" stroke-linejoin="round" stroke-miterlimit="10" d="
		M176.05,118.985c3.873,0.691,8.349,2.38,13.128,5.459"/>
	
		<path fill="none" stroke="#000" stroke-width="0.878" stroke-linecap="round" stroke-linejoin="round" stroke-miterlimit="10" d="
		M164.359,120.699c2.282-1.753,6.429-2.653,11.689-1.714"/>
	
		<path fill="none" stroke="#000" stroke-width="0.878" stroke-linecap="round" stroke-linejoin="round" stroke-miterlimit="10" d="
		M164.359,120.699c2.282-1.753,6.429-2.653,11.689-1.714"/>
	
		<line fill="none" stroke="#000" stroke-width="0.878" stroke-linecap="round" stroke-linejoin="round" stroke-miterlimit="10" x1="126.067" y1="151.739" x2="177.844" y2="109.985"/>
	
		<line fill="none" stroke="#000" stroke-width="0.878" stroke-linecap="round" stroke-linejoin="round" stroke-miterlimit="10" x1="126.067" y1="151.739" x2="177.844" y2="109.985"/>
	
		<line fill="none" stroke="#000" stroke-width="0.878" stroke-linecap="round" stroke-linejoin="round" stroke-miterlimit="10" x1="174.619" y1="212.619" x2="226.889" y2="170.536"/>
	
		<line fill="none" stroke="#000" stroke-width="0.878" stroke-linecap="round" stroke-linejoin="round" stroke-miterlimit="10" x1="174.619" y1="212.619" x2="226.889" y2="170.536"/>
	<polyline fill-rule="evenodd" clip-rule="evenodd" fill="#fff" points="252.466,209.161 198.812,252.27 207.371,256.547 
		261.354,213.11 252.466,209.161 	"/>
	<polygon fill-rule="evenodd" clip-rule="evenodd" fill="#fff" points="252.466,209.161 198.812,252.27 207.371,256.547 
		261.354,213.11 	"/>
	
		<polygon fill="none" stroke="#000" stroke-width="0.878" stroke-linecap="round" stroke-linejoin="round" stroke-miterlimit="10" points="
		252.466,209.161 198.812,252.27 207.371,256.547 261.354,213.11 	"/>
	
		<polygon fill="none" stroke="#000" stroke-width="0.878" stroke-linecap="round" stroke-linejoin="round" stroke-miterlimit="10" points="
		252.466,209.161 198.812,252.27 207.371,256.547 261.354,213.11 	"/>
	<polyline fill-rule="evenodd" clip-rule="evenodd" fill="#fff" points="249.656,224.432 209.345,256.877 217.904,261.155 
		249.13,236.174 254.923,227.064 249.656,224.432 	"/>
	<polygon fill-rule="evenodd" clip-rule="evenodd" fill="#fff" points="249.656,224.432 209.345,256.877 217.904,261.155 
		249.13,236.174 254.923,227.064 	"/>
	
		<polygon fill="none" stroke="#000" stroke-width="0.878" stroke-linecap="round" stroke-linejoin="round" stroke-miterlimit="10" points="
		249.656,224.432 209.345,256.877 217.904,261.155 249.13,236.174 254.923,227.064 	"/>
	
		<polygon fill="none" stroke="#000" stroke-width="0.878" stroke-linecap="round" stroke-linejoin="round" stroke-miterlimit="10" points="
		249.656,224.432 209.345,256.877 217.904,261.155 249.13,236.174 254.923,227.064 	"/>
	<polyline fill-rule="evenodd" clip-rule="evenodd" fill="#fff" points="242.262,204.555 188.609,247.662 197.167,251.94 
		251.15,208.503 242.262,204.555 	"/>
	<polygon fill-rule="evenodd" clip-rule="evenodd" fill="#fff" points="242.262,204.555 188.609,247.662 197.167,251.94 
		251.15,208.503 	"/>
	
		<polygon fill="none" stroke="#000" stroke-width="0.878" stroke-linecap="round" stroke-linejoin="round" stroke-miterlimit="10" points="
		242.262,204.555 188.609,247.662 197.167,251.94 251.15,208.503 	"/>
	
		<polygon fill="none" stroke="#000" stroke-width="0.878" stroke-linecap="round" stroke-linejoin="round" stroke-miterlimit="10" points="
		242.262,204.555 188.609,247.662 197.167,251.94 251.15,208.503 	"/>
	<polyline fill-rule="evenodd" clip-rule="evenodd" fill="#fff" points="164.91,188.759 143.185,206.2 151.743,210.479 
		173.798,192.708 164.91,188.759 	"/>
	<polygon fill-rule="evenodd" clip-rule="evenodd" fill="#fff" points="164.91,188.759 143.185,206.2 151.743,210.479 
		173.798,192.708 	"/>
	
		<polygon fill="none" stroke="#000" stroke-width="0.878" stroke-linecap="round" stroke-linejoin="round" stroke-miterlimit="10" points="
		164.91,188.759 143.185,206.2 151.743,210.479 173.798,192.708 	"/>
	
		<polygon fill="none" stroke="#000" stroke-width="0.878" stroke-linecap="round" stroke-linejoin="round" stroke-miterlimit="10" points="
		164.91,188.759 143.185,206.2 151.743,210.479 173.798,192.708 	"/>
	<polyline fill-rule="evenodd" clip-rule="evenodd" fill="#fff" points="175.772,193.366 154.047,210.808 162.605,215.085 
		184.66,197.315 175.772,193.366 	"/>
	<polygon fill-rule="evenodd" clip-rule="evenodd" fill="#fff" points="175.772,193.366 154.047,210.808 162.605,215.085 
		184.66,197.315 	"/>
	
		<polygon fill="none" stroke="#000" stroke-width="0.878" stroke-linecap="round" stroke-linejoin="round" stroke-miterlimit="10" points="
		175.772,193.366 154.047,210.808 162.605,215.085 184.66,197.315 	"/>
	
		<polygon fill="none" stroke="#000" stroke-width="0.878" stroke-linecap="round" stroke-linejoin="round" stroke-miterlimit="10" points="
		175.772,193.366 154.047,210.808 162.605,215.085 184.66,197.315 	"/>
	<polyline fill-rule="evenodd" clip-rule="evenodd" fill="#fff" points="200.788,186.126 147.135,229.235 155.693,233.514 
		209.676,190.075 200.788,186.126 	"/>
	<polygon fill-rule="evenodd" clip-rule="evenodd" fill="#fff" points="200.788,186.126 147.135,229.235 155.693,233.514 
		209.676,190.075 	"/>
	
		<polygon fill="none" stroke="#000" stroke-width="0.878" stroke-linecap="round" stroke-linejoin="round" stroke-miterlimit="10" points="
		200.788,186.126 147.135,229.235 155.693,233.514 209.676,190.075 	"/>
	
		<polygon fill="none" stroke="#000" stroke-width="0.878" stroke-linecap="round" stroke-linejoin="round" stroke-miterlimit="10" points="
		200.788,186.126 147.135,229.235 155.693,233.514 209.676,190.075 	"/>
	<polyline fill-rule="evenodd" clip-rule="evenodd" fill="#fff" points="211.321,190.733 157.668,233.841 166.226,238.119 
		220.209,194.683 211.321,190.733 	"/>
	<polygon fill-rule="evenodd" clip-rule="evenodd" fill="#fff" points="211.321,190.733 157.668,233.841 166.226,238.119 
		220.209,194.683 	"/>
	
		<polygon fill="none" stroke="#000" stroke-width="0.878" stroke-linecap="round" stroke-linejoin="round" stroke-miterlimit="10" points="
		211.321,190.733 157.668,233.841 166.226,238.119 220.209,194.683 	"/>
	
		<polygon fill="none" stroke="#000" stroke-width="0.878" stroke-linecap="round" stroke-linejoin="round" stroke-miterlimit="10" points="
		211.321,190.733 157.668,233.841 166.226,238.119 220.209,194.683 	"/>
	<polyline fill-rule="evenodd" clip-rule="evenodd" fill="#fff" points="221.525,195.34 167.872,238.449 176.43,242.727 
		230.413,199.289 221.525,195.34 	"/>
	<polygon fill-rule="evenodd" clip-rule="evenodd" fill="#fff" points="221.525,195.34 167.872,238.449 176.43,242.727 
		230.413,199.289 	"/>
	
		<polygon fill="none" stroke="#000" stroke-width="0.878" stroke-linecap="round" stroke-linejoin="round" stroke-miterlimit="10" points="
		221.525,195.34 167.872,238.449 176.43,242.727 230.413,199.289 	"/>
	
		<polygon fill="none" stroke="#000" stroke-width="0.878" stroke-linecap="round" stroke-linejoin="round" stroke-miterlimit="10" points="
		221.525,195.34 167.872,238.449 176.43,242.727 230.413,199.289 	"/>
	<polyline fill-rule="evenodd" clip-rule="evenodd" fill="#fff" points="232.058,199.947 178.405,243.057 186.963,247.333 
		240.946,203.896 232.058,199.947 	"/>
	<polygon fill-rule="evenodd" clip-rule="evenodd" fill="#fff" points="232.058,199.947 178.405,243.057 186.963,247.333 
		240.946,203.896 	"/>
	
		<polygon fill="none" stroke="#000" stroke-width="0.878" stroke-linecap="round" stroke-linejoin="round" stroke-miterlimit="10" points="
		232.058,199.947 178.405,243.057 186.963,247.333 240.946,203.896 	"/>
	
		<polygon fill="none" stroke="#000" stroke-width="0.878" stroke-linecap="round" stroke-linejoin="round" stroke-miterlimit="10" points="
		232.058,199.947 178.405,243.057 186.963,247.333 240.946,203.896 	"/>
	<path fill-rule="evenodd" clip-rule="evenodd" fill="#fff" d="M275.99,124.832c0,0.969-0.59,1.755-1.316,1.755
		c-0.728,0-1.317-0.786-1.317-1.755s0.59-1.755,1.317-1.755C275.4,123.077,275.99,123.863,275.99,124.832"/>
	<path fill-rule="evenodd" clip-rule="evenodd" fill="#fff" d="M275.99,124.832L275.99,124.832c0,0.969-0.59,1.755-1.316,1.755
		c-0.728,0-1.317-0.786-1.317-1.755s0.59-1.755,1.317-1.755C275.4,123.077,275.99,123.863,275.99,124.832z"/>
	
		<path fill="none" stroke="#000" stroke-width="0.878" stroke-linecap="round" stroke-linejoin="round" stroke-miterlimit="10" d="
		M275.99,124.832L275.99,124.832c0,0.969-0.59,1.755-1.316,1.755c-0.728,0-1.317-0.786-1.317-1.755s0.59-1.755,1.317-1.755
		C275.4,123.077,275.99,123.863,275.99,124.832z"/>
	
		<path fill="none" stroke="#000" stroke-width="0.878" stroke-linecap="round" stroke-linejoin="round" stroke-miterlimit="10" d="
		M275.99,124.832L275.99,124.832c0,0.969-0.59,1.755-1.316,1.755c-0.728,0-1.317-0.786-1.317-1.755s0.59-1.755,1.317-1.755
		C275.4,123.077,275.99,123.863,275.99,124.832z"/>
	<path fill-rule="evenodd" clip-rule="evenodd" fill="#fff" d="M278.404,122.639c0,0.969-0.59,1.755-1.316,1.755
		c-0.728,0-1.317-0.786-1.317-1.755c0-0.97,0.59-1.756,1.317-1.756C277.814,120.883,278.404,121.669,278.404,122.639"/>
	<path fill-rule="evenodd" clip-rule="evenodd" fill="#fff" d="M278.404,122.639L278.404,122.639c0,0.969-0.59,1.755-1.316,1.755
		c-0.728,0-1.317-0.786-1.317-1.755c0-0.97,0.59-1.756,1.317-1.756C277.814,120.883,278.404,121.669,278.404,122.639z"/>
	
		<path fill="none" stroke="#000" stroke-width="0.878" stroke-linecap="round" stroke-linejoin="round" stroke-miterlimit="10" d="
		M278.404,122.639L278.404,122.639c0,0.969-0.59,1.755-1.316,1.755c-0.728,0-1.317-0.786-1.317-1.755c0-0.97,0.59-1.756,1.317-1.756
		C277.814,120.883,278.404,121.669,278.404,122.639z"/>
	
		<path fill="none" stroke="#000" stroke-width="0.878" stroke-linecap="round" stroke-linejoin="round" stroke-miterlimit="10" d="
		M278.404,122.639L278.404,122.639c0,0.969-0.59,1.755-1.316,1.755c-0.728,0-1.317-0.786-1.317-1.755c0-0.97,0.59-1.756,1.317-1.756
		C277.814,120.883,278.404,121.669,278.404,122.639z"/>
	
		<line fill="none" stroke="#000" stroke-width="0.878" stroke-linecap="round" stroke-linejoin="round" stroke-miterlimit="10" x1="278.624" y1="122.639" x2="279.062" y2="117.931"/>
	
		<line fill="none" stroke="#000" stroke-width="0.878" stroke-linecap="round" stroke-linejoin="round" stroke-miterlimit="10" x1="273.137" y1="125.271" x2="272.698" y2="123.517"/>
	
		<line fill="none" stroke="#000" stroke-width="0.878" stroke-linecap="round" stroke-linejoin="round" stroke-miterlimit="10" x1="273.137" y1="125.271" x2="272.698" y2="123.517"/>
</g>
</svg>
