<?xml version="1.0" encoding="UTF-8" standalone="no"?>
<!-- Created with Inkscape (http://www.inkscape.org/) -->

<svg
   xmlns:dc="http://purl.org/dc/elements/1.1/"
   xmlns:cc="http://creativecommons.org/ns#"
   xmlns:rdf="http://www.w3.org/1999/02/22-rdf-syntax-ns#"
   xmlns:svg="http://www.w3.org/2000/svg"
   xmlns="http://www.w3.org/2000/svg"
   xmlns:sodipodi="http://sodipodi.sourceforge.net/DTD/sodipodi-0.dtd"
   xmlns:inkscape="http://www.inkscape.org/namespaces/inkscape"
   width="343pt"
   height="340pt"
   id="svg3052"
   version="1.1"
   inkscape:version="0.48.1 "
   sodipodi:docname="butterfly_68_black_white_line_art.svg">
  <defs
     id="defs3054">
    <linearGradient
       id="linearGradient3259">
      <stop
         id="stop3261"
         offset="0"
         style="stop-color:#d3ff01;stop-opacity:1;" />
      <stop
         id="stop3263"
         offset="1"
         style="stop-color:#009111;stop-opacity:1;" />
    </linearGradient>
    <linearGradient
       id="linearGradient3383">
      <stop
         style="stop-color:#d3ff01;stop-opacity:1;"
         offset="0"
         id="stop3385" />
      <stop
         style="stop-color:#d3ff01;stop-opacity:0;"
         offset="1"
         id="stop3387" />
    </linearGradient>
  </defs>
  <sodipodi:namedview
     pagecolor="#ffffff"
     bordercolor="#666666"
     borderopacity="1.0"
     inkscape:pageopacity="0.0"
     inkscape:pageshadow="2"
     inkscape:zoom="0.8"
     inkscape:cx="2.5"
     inkscape:cy="210"
     inkscape:document-units="pt"
     inkscape:current-layer="layer1"
     id="namedview3056"
     showgrid="false"
     inkscape:window-width="1232"
     inkscape:window-height="816"
     inkscape:window-x="25"
     inkscape:window-y="25"
     inkscape:window-maximized="0" />
  <metadata
     id="metadata3058">
    <rdf:RDF>
      <cc:Work
         rdf:about="">
        <dc:format>image/svg+xml</dc:format>
        <dc:type
           rdf:resource="http://purl.org/dc/dcmitype/StillImage" />
        <dc:title />
      </cc:Work>
    </rdf:RDF>
  </metadata>
  <g
     inkscape:label="Layer 1"
     inkscape:groupmode="layer"
     id="layer1">
    <g
       transform="matrix(0.69817303,0,0,0.69817303,-21.497049,-98.47331)"
       id="g3963"
       inkscape:label="Layer 1"
       style="stroke:#000000;fill:#ffffff">
      <path
         inkscape:connector-curvature="0"
         id="path3251"
         d="m 56.6875,239.96875 c 31.541747,36.7838 61.14621,78.04118 71.125,126.25 3.16457,17.3042 -0.52258,34.84815 -4.70594,51.48462 -3.1069,18.90828 -3.30743,39.21522 4.48719,56.92163 23.6499,-18.00835 56.05386,-16.37153 83.66246,-10.18389 17.07232,3.98054 35.08349,10.01859 47.05629,23.27764 1.44685,3.70944 -4.25602,4.72422 -6,2.15625 -33.61707,-19.05877 -75.65539,-14.19288 -109.98835,0.40915 -13.60299,5.68854 -26.61899,12.78174 -38.9179,20.90335 29.79171,16.40609 56.3075,43.57595 61.84375,78.34375 4.82508,22.97111 6.02161,49.53103 23.96875,66.875 3.66144,4.08736 8.84183,10.4716 14.99871,6.96572 49.06676,-12.97538 95.41439,-39.35538 128.95925,-77.72951 3.05617,-5.37791 6.18601,4.2616 9.41704,6.01379 34.21779,36.44118 80.30899,61.40417 128.84375,72.90625 4.99401,-1.51634 7.62359,-6.8142 11.625,-9.96875 14.85054,-16.74264 17.73537,-40.19663 21.09375,-61.625 4.61461,-24.75828 16.98193,-48.32767 37.04554,-63.92612 7.97639,-6.78231 16.71505,-12.53164 25.73571,-17.85513 -34.77486,-23.02412 -77.1611,-39.22383 -119.46875,-32.03125 -14.2098,2.44032 -27.21819,8.97272 -39.84375,15.75 8.78557,-18.4113 30.28313,-24.36028 48.37842,-29.73426 27.2118,-6.93433 58.64721,-8.39367 83.24658,6.82801 2.99848,3.2868 4.63575,2.38066 5.33035,-1.97511 8.87514,-25.29314 3.20617,-52.62181 -2.64285,-77.89989 -3.77876,-36.71213 14.32341,-70.8392 33.01256,-101.05796 11.71211,-18.36303 25.05056,-35.65153 39.39369,-52.03579 -91.50258,25.52505 -178.3135,74.92417 -239.09195,148.71956 -13.06034,15.93824 -24.42627,33.09084 -34.8143,50.78044 1.86475,-45.36371 3.2193,-91.9165 19.71875,-134.78125 4.28206,-2.83641 9.20706,3.3935 13.34375,-0.53125 6.03717,-3.03391 6.98441,-13.92249 -0.6875,-15.34375 -8.49936,-1.29493 -13.01884,7.94593 -14.68247,14.84714 -12.99347,36.56162 -16.07118,75.73417 -19.16704,114.21467 -0.73679,9.21389 0.14774,19.00537 -1.83799,27.87569 -3.14336,3.18302 -6.30966,-2.44706 -5.0625,-5.375 -1.51205,-47.98984 -5.44491,-96.89592 -21.78125,-142.25 -2.10885,-5.96259 -9.48128,-12.63227 -15.71875,-7.9375 -6.38619,5.34914 -0.32392,16.06485 7.40625,15.0625 2.72391,-0.0685 5.12886,-1.4299 7.03125,-3.28125 16.69417,40.98497 18.70853,85.87577 20.53125,129.59375 -3.50932,3.63259 -6.43149,-2.33522 -7.4375,-5 C 275.8951,350.79079 202.26251,296.16476 122.05774,262.12451 100.59815,252.93148 78.495321,244.97495 55.875,239.03125 l 0.654931,0.75569 0.157569,0.18181 z"
         style="fill:#ffffff;fill-opacity:1;fill-rule:evenodd;stroke:#000000" />
      <path
         inkscape:connector-curvature="0"
         style="fill:#ffffff;fill-opacity:1;fill-rule:evenodd;stroke:#000000"
         d="m 56.6875,239.96875 c 31.541747,36.7838 61.14621,78.04118 71.125,126.25 3.16457,17.3042 -0.52258,34.84815 -4.70594,51.48462 -3.1069,18.90828 -3.30743,39.21522 4.48719,56.92163 23.6499,-18.00835 56.05386,-16.37153 83.66246,-10.18389 17.07232,3.98054 35.08349,10.01859 47.05629,23.27764 1.44685,3.70944 -4.25602,4.72422 -6,2.15625 -33.61707,-19.05877 -75.65539,-14.19288 -109.98835,0.40915 -13.60299,5.68854 -26.61899,12.78174 -38.9179,20.90335 29.79171,16.40609 56.3075,43.57595 61.84375,78.34375 4.82508,22.97111 6.02161,49.53103 23.96875,66.875 3.66144,4.08736 8.84183,10.4716 14.99871,6.96572 49.06676,-12.97538 95.41439,-39.35538 128.95925,-77.72951 3.05617,-5.37791 6.18601,4.2616 9.41704,6.01379 34.21779,36.44118 80.30899,61.40417 128.84375,72.90625 4.99401,-1.51634 7.62359,-6.8142 11.625,-9.96875 14.85054,-16.74264 17.73537,-40.19663 21.09375,-61.625 4.61461,-24.75828 16.98193,-48.32767 37.04554,-63.92612 7.97639,-6.78231 16.71505,-12.53164 25.73571,-17.85513 -34.77486,-23.02412 -77.1611,-39.22383 -119.46875,-32.03125 -14.2098,2.44032 -27.21819,8.97272 -39.84375,15.75 8.78557,-18.4113 30.28313,-24.36028 48.37842,-29.73426 27.2118,-6.93433 58.64721,-8.39367 83.24658,6.82801 2.99848,3.2868 4.63575,2.38066 5.33035,-1.97511 8.87514,-25.29314 3.20617,-52.62181 -2.64285,-77.89989 -3.77876,-36.71213 14.32341,-70.8392 33.01256,-101.05796 11.71211,-18.36303 25.05056,-35.65153 39.39369,-52.03579 -91.50258,25.52505 -178.3135,74.92417 -239.09195,148.71956 -13.06034,15.93824 -24.42627,33.09084 -34.8143,50.78044 1.86475,-45.36371 3.2193,-91.9165 19.71875,-134.78125 4.28206,-2.83641 9.20706,3.3935 13.34375,-0.53125 6.03717,-3.03391 6.98441,-13.92249 -0.6875,-15.34375 -8.49936,-1.29493 -13.01884,7.94593 -14.68247,14.84714 -12.99347,36.56162 -16.07118,75.73417 -19.16704,114.21467 -0.73679,9.21389 0.14774,19.00537 -1.83799,27.87569 -3.14336,3.18302 -6.30966,-2.44706 -5.0625,-5.375 -1.51205,-47.98984 -5.44491,-96.89592 -21.78125,-142.25 -2.10885,-5.96259 -9.48128,-12.63227 -15.71875,-7.9375 -6.38619,5.34914 -0.32392,16.06485 7.40625,15.0625 2.72391,-0.0685 5.12886,-1.4299 7.03125,-3.28125 16.69417,40.98497 18.70853,85.87577 20.53125,129.59375 -3.50932,3.63259 -6.43149,-2.33522 -7.4375,-5 C 275.8951,350.79079 202.26251,296.16476 122.05774,262.12451 100.59815,252.93148 78.495321,244.97495 55.875,239.03125 l 0.654931,0.75569 0.157569,0.18181 z"
         id="path3379" />
      <path
         inkscape:connector-curvature="0"
         id="path3321"
         d="m 47.09375,233.6875 c 3e-6,1e-5 94.84573,99.08504 76.625,166.96875 -14.09422,52.50987 2.875,78.9375 2.875,78.9375 0,0 18.77818,-22.56608 71.09375,-14.71875 42.42641,6.36397 57.5,23.28125 57.5,23.28125 -1e-5,10e-6 -59.63236,-43.12529 -157.59375,23.25 99.73431,55.0613 41.83542,113.14578 100,156.46875 7.21744,-0.17017 87.04511,-20.61036 137.5625,-79.96875 50.51718,59.36193 130.34487,79.79858 137.5625,79.96875 58.16458,-43.32297 0.26566,-101.40745 100,-156.46875 -97.96139,-66.37529 -157.59374,-23.24999 -157.59375,-23.25 0,0 15.07359,-16.91728 57.5,-23.28125 52.31557,-7.84733 71.09372,14.71875 71.09375,14.71875 0,0 16.96919,-26.42763 2.875,-78.9375 -18.22073,-67.88371 76.62497,-166.96874 76.625,-166.96875 0,0 -187.15996,39.63113 -279.40625,193.59375 0.35149,-11.91632 1.4047,-34.53192 4.75,-62.25 4.58772,-38.01254 14.15626,-59.375 14.15625,-59.375 0,0 8.28847,5.46819 15.5625,-2.84375 9.87045,-11.27886 -4.61101,-24.40071 -15.5625,-14.84375 -12.55182,10.95351 -26.98626,85.96749 -27.5625,154.84375 -0.57624,-68.87626 -15.01068,-143.89024 -27.5625,-154.84375 -10.95149,-9.55696 -25.43295,3.56489 -15.5625,14.84375 7.27403,8.31194 15.5625,2.84375 15.5625,2.84375 -10e-6,0 9.56853,21.36246 14.15625,59.375 3.3453,27.71808 4.39851,50.33368 4.75,62.25 C 234.25371,273.31863 47.09375,233.6875 47.09375,233.6875 z m 69.59375,53.375 c 0,-10e-6 56.33897,13.54825 114.90625,57.125 73.53166,54.71093 103.5625,129.96875 103.5625,129.96875 0,0 30.03084,-75.25782 103.5625,-129.96875 58.56728,-43.57675 114.90622,-57.12501 114.90625,-57.125 0,0 -40.95314,68.81394 -23.53125,117.46875 14.00054,39.09994 -1.75002,49.25001 -1.75,49.25 0,0 -94.42041,-24.97722 -143.625,57.21875 71.38169,-39.10893 115.85632,-22.05804 156.1875,-1 0,0 -43.71792,28.23417 -49.59375,70.6875 -7.01859,50.70986 -28.375,58.8125 -28.375,58.8125 0,0 -39.40323,-12.83458 -67.6875,-25.5625 -24.82794,-11.17257 -52.8786,-35.39455 -59.375,-41.15625 l 0,-1.28125 c 0,0 -0.4736,0.43554 -0.71875,0.65625 C 334.91676,571.9406 334.4375,571.5 334.4375,571.5 l 0,1.3125 c -6.61281,5.86063 -34.62626,29.98807 -59.375,41.125 C 246.77823,626.66542 207.375,639.5 207.375,639.5 c 0,0 -21.35641,-8.10264 -28.375,-58.8125 C 173.12417,538.23417 129.40625,510 129.40625,510 c 40.33115,-21.05804 84.80581,-38.10893 156.1875,1 -49.20459,-82.19597 -143.625,-57.21875 -143.625,-57.21875 -1e-5,10e-6 -15.75054,-10.15006 -1.75,-49.25 C 157.64061,355.87644 116.6875,287.0625 116.6875,287.0625 z"
         style="fill:#ffffff;fill-opacity:1;fill-rule:evenodd;stroke:#000000" />
      <path
         inkscape:connector-curvature="0"
         id="path3201"
         d="m 318.9375,440.84375 c 24.70454,47.10511 -3.21876,85.00001 -3.21875,85 0,0 -4.25057,41.33288 19.4375,125.125 23.68807,-83.79212 19.46875,-125.125 19.46875,-125.125 10e-6,10e-6 -27.95454,-37.89489 -3.25,-85 L 335.15625,455.125 318.9375,440.84375 z"
         style="fill:#ffffff;fill-opacity:1;fill-rule:evenodd;stroke:#000000;stroke-width:1.84767938000000000px;stroke-linecap:butt;stroke-linejoin:miter;stroke-opacity:1" />
      <path
         inkscape:connector-curvature="0"
         sodipodi:nodetypes="ccscc"
         id="path3359"
         d="m 144.95689,312.72849 c 111.01577,41.7193 166.17009,140.00714 166.17009,140.00714 0,0 -14.84924,-31.8198 -82.73149,-60.10407 -65.2714,-27.19642 -67.17514,-7.77818 -67.17514,-7.77818 3.06412,-16.97056 -1.64992,-43.84062 -16.26346,-72.12489 z"
         style="fill:#ffffff;fill-opacity:1;fill-rule:evenodd;stroke:#000000" />
      <path
         inkscape:connector-curvature="0"
         style="fill:#ffffff;fill-opacity:1;fill-rule:evenodd;stroke:#000000"
         d="m 525.38033,312.72849 c -111.01577,41.7193 -166.17009,140.00714 -166.17009,140.00714 0,0 14.84924,-31.8198 82.73149,-60.10407 65.2714,-27.19642 67.17514,-7.77818 67.17514,-7.77818 -3.06412,-16.97056 1.64992,-43.84062 16.26346,-72.12489 z"
         id="path3377"
         sodipodi:nodetypes="ccscc" />
      <path
         inkscape:connector-curvature="0"
         sodipodi:nodetypes="ccscc"
         id="path3413"
         d="m 156.80613,514.04682 c 57.27565,-28.28428 114.36932,4.80329 114.36932,4.80329 0,0 -34.99837,-9.12997 -63.97235,-0.51471 -18.6624,5.54916 -24.96625,27.0165 -24.96625,27.0165 -5.06413,-12.58841 -13.19933,-24.38393 -25.43072,-31.30508 z"
         style="fill:#ffffff;fill-opacity:1;fill-rule:evenodd;stroke:#000000" />
      <path
         inkscape:connector-curvature="0"
         style="fill:#ffffff;fill-opacity:1;fill-rule:evenodd;stroke:#000000"
         d="m 514.17545,514.04682 c -57.27565,-28.28428 -114.36932,4.80329 -114.36932,4.80329 0,0 34.99837,-9.12997 63.97235,-0.51471 18.6624,5.54916 24.96625,27.0165 24.96625,27.0165 5.06413,-12.58841 13.19933,-24.38393 25.43072,-31.30508 z"
         id="path3417"
         sodipodi:nodetypes="ccscc" />
    </g>
  </g>
</svg>
