<?xml version="1.0" encoding="utf-8"?>
<!DOCTYPE svg PUBLIC "-//W3C//DTD SVG 1.1//EN" "http://www.w3.org/Graphics/SVG/1.1/DTD/svg11.dtd">
<svg version="1.1" id="Layer_1" xmlns="http://www.w3.org/2000/svg" xmlns:xlink="http://www.w3.org/1999/xlink" x="0px" y="0px"
	 viewBox="0 0 1958 1618.9304" enable-background="new 0 0 1958 1618.9304" xml:space="preserve">
<g>
	<path d="M1512.3307,1161.9716c4.6375,12.6083,8.3385,25.0599,13.6677,36.7708c34.1542,75.0546,33.9066,152.2966,16.1544,231.007
		c-7.4808,33.1686-16.3757,65.7048-33.0675,95.5826c-12.3855,22.1693-28.2935,41.0969-50.2542,54.6299
		c-20.3516,12.5411-41.2388,15.5522-64.1608,7.5409c-19.8429-6.9354-38.2684-16.3849-56.042-27.3478
		c-127.0356-78.358-214.8818-188.8519-270.2682-326.755c-30.7361-76.528-53.2752-154.5404-54.6347-237.6473
		c-0.0624-3.8184,1.5223-8.6011-5.1657-11.7132c-5.7488,19.6863-6.2653,39.8746-9.1441,59.5776
		c-6.4067,43.848-11.5312,87.8552-14.7245,132.0802c-0.3127,4.3325,1.9117,12.3311-5.9929,12.0104
		c-7.3517-0.2982-5.3741-8.0282-5.6766-12.5115c-4.0046-59.3555-12.9405-118.1227-20.7-177.0296
		c-0.6292-4.7768,0.6953-10.4097-5.605-14.2745c-4.7401,8.8491-2.449,17.8587-3.2701,26.3408
		c-18.4489,190.6046-92.3322,354.4005-235.5464,484.0708c-28.17,25.506-59.5031,47.4731-91.9106,67.5345
		c-11.9235,7.381-24.4003,14.1127-37.2472,19.7125c-42.1163,18.3582-72.296,11.9269-104.503-21.3252
		c-9.856-10.1755-18.6758-21.2872-24.9742-33.899c-36.7642-73.6165-49.9495-152.274-43.9167-233.4928
		c3.0123-40.5543,20.4811-78.3885,34.7658-116.4358c1.7849-4.7542,5.0687-9.1522,4.1194-15.2604
		c-20.7538-1.3539-41.6083-2.4224-61.6905-8.3657c-76.7339-22.7094-115.5797-81.0933-136.8081-152.2894
		c-18.8582-63.2471-2.7915-123.9404,26.8951-181.0178c6.4171-12.338,5.7436-19.9084-4.3512-29.1631
		c-42.6574-39.108-69.3513-89.3998-96.7593-139.2671c-15.0616-27.4036-20.8112-57.6348-29.0001-87.0936
		C116.9015,471.7807,79.158,384.3543,40.0319,297.425c-17.0273-37.8307-4.0707-75.1934,32.9486-94.7382
		c26.5501-14.0174,55.4813-17.1173,84.8634-17.8392c104.9851-2.5796,205.3438,18.9822,300.682,61.7751
		c132.485,59.4664,256.0647,133.3693,360.8988,235.3687c44.4384,43.2368,79.5558,93.5041,107.0163,150.8841
		c4.389-8.0844,8.2686-16.2455,13.0989-23.7989c3.7091-5.8004,1.7159-8.5241-2.8317-12.7339
		c-29.0775-26.9186-33.1556-57.2328-12.3108-91.0083c3.0229-4.8981,4.372-9.0279,2.5044-14.4397
		c-39.8103-115.3559-87.9064-226.3581-168.0485-320.5708c-28.5317-33.5412-61.0461-62.6219-96.5598-88.6679
		c-31.6478-23.2107-67.2491-35.0247-105.5425-39.5734c-57.1305-6.7863-106.3492,46.4063-96.0685,103.219
		c7.3348,40.5331,65.874,64.642,99.3729,40.9259c8.8049-6.2336,11.3784-13.6359,11.729-34.0686
		c-5.2455-2.7069-8.2331,2.5792-12.2114,3.889c-16.3021,5.367-33.6979-0.854-41.7184-15.5283
		c-8.0165-14.6668-3.8661-33.3937,9.6243-43.4254c13.7269-10.2076,31.8573-8.9241,44.2546,3.2975
		c24.8096,24.4578,24.5928,57.0612,12.0712,85.2958c-4.1647,9.3906-12.2144,15.4694-21.4858,19.6835
		c-40.1285,18.2394-90.4058,0.5405-109.9081-38.635c-20.1756-40.5281,1.1187-108.7902,40.8759-131.1105
		c7.8622-4.4139,16.3453-6.755,25.2465-7.5731c56.71-5.2117,107.9607,8.7375,155.4639,40.6027
		c53.5428,35.9166,93.4481,84.2454,130.0493,135.9183c47.683,67.3179,92.418,136.3983,120.501,214.7088
		c6.4918,18.1021,12.0206,36.5922,17.0294,55.1636c2.1604,8.0107,3.6222,11.6449,13.1089,7.6554
		c15.9392-6.7031,32.7847-6.563,48.789,0.0908c8.164,3.3944,10.2661,1.5584,12.3945-6.6021
		c33.9918-130.3322,108.5923-237.8159,192.4135-339.9535c34.0092-41.4407,76.7048-71.6193,125.4047-93.6644
		c35.5228-16.0802,72.9901-15.7054,110.568-13.1158c14.5048,0.9996,26.6633,8.7966,36.443,19.5401
		c19.9224,21.8858,31.5902,48.509,35.7407,76.9661c4.9474,33.9212-28.5929,75.9426-62.9758,83.4793
		c-6.5992,1.4466-13.3724,2.4787-20.1119,2.8445c-30.2791,1.6434-52.618-9.5145-61.7651-30.4659
		c-11.7832-26.9897-5.5029-61.7249,14.6652-81.1109c12.476-11.9921,30.876-13.1807,44.2805-2.8606
		c13.4675,10.3688,17.3574,28.819,9.1721,43.5061c-8.1812,14.6799-25.4984,20.9649-41.7465,14.9899
		c-3.7881-1.3931-7.3739-3.336-12.2162-5.5603c0.0858,14.3644-0.5219,28.4164,12.3291,35.8555
		c16.9076,9.7875,35.8263,17.0666,54.9006,6.834c43.1075-23.1252,51.3176-45.3923,39.6841-86.414
		c-12.6792-44.7085-45.1338-68.5087-88.7908-64.8223c-54.7725,4.6249-99.7892,30.0458-140.8477,64.9108
		c-72.5137,61.5751-125.1179,137.7704-166.1134,222.7329c-24.2345,50.2256-46.4124,101.2811-63.6736,154.4055
		c-3.0956,9.5273-3.3345,16.7133,2.6884,25.8794c17.1796,26.1458,13.6525,60.4904-9.5005,81.4244
		c-10.5829,9.5686-11.1034,16.2897-3.6403,26.5798c3.2994,4.5492,5.5345,9.8702,8.5971,15.4706
		c44.1038-93.7756,111.8094-166.3134,193.6736-225.8529c114.6807-83.4067,235.2295-156.3485,373.0179-195.988
		c76.3368-21.9609,154.1071-31.4115,233.4833-24.0212c20.3876,1.8982,39.9908,7.2716,57.7095,18.024
		c33.4785,20.3164,45.0223,55.9942,28.9229,91.2009c-41.6155,91.007-81.9546,182.7812-106.2971,279.9861
		c-17.7228,70.7706-54.229,130.1296-96.9241,186.9941c-8.3981,11.1854-18.7129,21.0433-28.8591,30.767
		c-7.1765,6.8776-7.5713,12.4992-2.7715,21.4273c24.0938,44.8163,37.3335,92.4205,35.7888,143.8672
		c-2.0692,68.916-60.0496,181.2108-157.9716,196.6396C1545.343,1158.5754,1529.3628,1159.9479,1512.3307,1161.9716z
		 M1089.0547,645.7309c9.9746,1.2653,14.3353-4.7524,21.1531-4.3042c35.3208,2.3218,70.9236,5.239,104.8879,14.1718
		c43.1155,11.3396,85.0858,27.2904,127.1051,42.4833c69.8909,25.2704,137.2413,57.3151,209.5499,76.2651
		c30.1846,7.9105,56.4104,3.2908,81.5514-13.6785c23.795-16.0607,41.7438-37.5999,57.3615-61.2377
		c32.7563-49.5776,53.4879-104.5826,71.6646-160.6733c1.9207-5.9266,5.9722-11.7574,3.3265-21.1735
		c-24.6929,22.2202-51.785,31.4428-84.0627,26.8729c-45.5242-6.4454-79.0536-23.9527-96.4631-71.2614
		c-20.2765-55.0996,25.8055-150.7206,96.8682-139.82c54.3448,8.3362,72.5076,52.5457,60.7004,97.7012
		c-6.3622,24.3309-29.1672,27.9792-52.6985,30.4877c-31.3649,3.3438-57.9178-39.8899-44.2423-70.6147
		c5.4937-12.3429,15.8896-17.9604,29.2026-16.2036c13.2671,1.7508,21.843,9.8203,24.1644,23.0955
		c2.4597,14.0667-4.0432,23.948-16.1857,30.7705c-3.5664,2.0039-10.8177,0.5923-9.5214,7.6283
		c0.933,5.0632,6.2979,6.5224,10.6721,8.1853c16.3378,6.2112,38.1835-5.0964,43.5631-23.0568
		c5.5171-18.4196,5.5593-36.2741-9.791-50.6303c-18.3538-17.165-40.3568-24.3245-64.7179-17.9792
		c-29.7417,7.7467-49.7377,36.0497-52.7222,68.5131c-4.702,51.1428,14.3949,72.3638,44.5647,89.7498
		c10.7621,6.2019,23.786,7.4486,35.4858,11.5217c34.972,12.1749,92.7445-16.7755,104.7358-54.2274
		c6.5171-20.3538,12.33-40.7356,16.7693-61.5786c13.3961-62.8954-21.697-111.0329-62.553-130.2011
		c-14.639-6.8681-29.4567-13.065-44.5463-18.8166c-15.5626-5.9319-30.5337-5.4781-45.4271,1.568
		c-13.1508,6.2216-25.7056,14.5569-39.5153,18.2823c-12.7172,3.4308-21.0879,10.2098-28.5334,19.944
		c-24.3936,31.8918-35.2102,69.1573-43.6165,107.5766c-9.2838,42.4307-6.7306,86.223-15.5195,128.6714
		c-5.6024,27.0579-12.6434,53.5999-25.2563,78.4578c-9.1976,18.1269-24.851,29.8536-44.4036,43.0363
		c82.3529,0.8506,147.6222-32.0527,208.7662-77.0803c2.7433,8.6676-2.8479,11.4607-6.1421,14.8838
		c-20.4194,21.2189-43.8538,38.3378-70.3751,51.2984c-52.3875,25.6008-108.2334,29.4912-164.8676,24.5875
		c-48.3983-4.1906-91.24-22.4877-121.6276-62.0365c-18.2942-23.8096-42.3933-33.4802-70.396-33.4846
		C1170.3403,573.4153,1129.1241,606.2685,1089.0547,645.7309z M296.4119,577.9837
		c61.1161,45.4119,126.4575,78.1349,205.2731,75.9183c-23.8571-14.3283-40.4265-34.353-49.345-60.1911
		c-5.0844-14.7303-9.4574-29.7322-13.5396-44.7776c-11.1395-41.0547-8.7854-83.8368-15.6881-125.4483
		c-7.3824-44.5036-18.3141-87.7191-45.8634-124.7818c-4.9485-6.6574-9.4741-14.9699-17.7277-17.0756
		c-19.4359-4.9585-35.3476-17.4673-54.0859-23.6693c-7.9211-2.6217-16.17-6.3174-24.3535-4.3247
		c-39.4037,9.5948-77.1006,22.9966-103.7899,56.0053c-27.765,34.3392-28.373,73.3529-18.1313,113.9168
		c6.2457,24.7372,10.1829,51.6454,28.9956,69.7893c40.9783,39.5216,78.2408,41.1268,131.5269,13.8271
		c34.6981-17.7766,47.935-65.3972,32.6278-108.7414c-8.6552-24.5082-26.1342-42.6375-52.1829-46.8779
		c-24.0376-3.913-46.6988,3.1626-63.4262,22.6494c-13.096,15.2562-11.8944,32.6489-5.4456,50.0836
		c5.3657,14.5064,17.7935,19.6633,31.873,21.6113c8.3029,1.1488,17.2117-1.2285,20.3481-8.4662
		c4.1698-9.6226-7.4572-7.0118-11.5874-10.2502c-10.8629-8.5176-16.786-18.4394-12.5162-32.4291
		c4.2844-14.0377,17.0299-22.4985,31.2606-19.9749c13.7766,2.4431,22.3311,10.8726,23.6604,25.189
		c0.6728,7.2458,0.6647,14.6143,0.258,21.8878c-0.6911,12.3606-21.4612,36.5512-32.7064,38.6588
		c-44.412,8.324-68.9719-12.6526-69.4189-57.2542c-0.3037-30.3084,13.0448-52.8905,39.6095-63.1559
		c27.3102-10.5536,57.2534-13.9951,81.9369,9.1924c16.4346,15.4386,30.0806,33.3344,38.2064,54.6553
		c14.676,38.5076-1.6092,96.2462-33.1718,119.0995c-38.2417,27.6894-98.9829,28.4971-137.65,2.01
		c-3.0128-2.0637-5.501-6.6408-11.2817-3.7291c14.4381,48.4627,31.7099,95.6838,54.9815,140.5872
		c15.6756,30.2468,33.8989,58.7646,58.8771,82.284c31.3385,29.5082,65.6988,41.0607,109.9154,28.1902
		c100.1073-29.1389,193.6664-75.7135,293.1988-106.3361c52.345-16.1047,104.8292-23.9655,159.2031-22.4677
		c-27.7468-29.0168-59.4272-54.1732-99.736-65.1285c-42.6843-11.601-80.6486-6.1363-110.4047,32.0749
		c-20.1896,25.9264-47.8107,42.3725-80.3099,51.0881c-32.7863,8.7925-65.8756,9.7228-99.2125,8.1629
		c-67.2615-3.1473-125.5491-27.4868-173.2014-75.6967C299.6981,590.3557,293.615,587.3337,296.4119,577.9837z M1331.4194,1305.7952
		c-13.8616,4.8716-27.5178,23.5831-26.9459,36.3444c1.0776,24.0419,18.0812,41.8745,47.1117,49.4095
		c21.3312,5.5364,49.8375-4.2762,59.8739-21.396c14.698-25.0717,18.8995-82.2113-17.7419-108.0393
		c-17.2128-12.1331-35.2677-22.0157-55.7214-27.3619c-4.6299-1.2101-9.0858-2.0441-13.8291-0.8369
		c-19.2321,4.8945-37.7323,11.4352-55.2881,20.9955c-46.5294,25.3381-55.6382,86.0188-40.2324,125.4772
		c21.8916,56.0708,63.5344,87.056,120.4445,97.0989c41.6824,7.3558,82.2916,1.0402,109.925-35.9366
		c26.7113-35.7424,38.5447-77.6383,36.4261-121.7837c-1.514-31.5499-8.3643-63.0804-18.7303-93.1079
		c-11.0616-32.042-23.4834-64.3414-59.8638-76.9331c-17.0365-5.8966-31.4158-16.0936-46.1703-25.8185
		c-32.8805-21.6716-61.5198-48.6039-88.3313-76.9001c-39.8475-42.0539-71.6594-90.5743-102.7744-139.3072
		c-22.9917-36.0103-43.9508-73.3711-71.9219-105.9731c-14.3333-16.7065-29.1512-32.9629-46.1045-47.3059
		c-6.7323,29.6482,1.7454,51.9621,20.7207,73.9794c33.3833,38.735,59.8419,82.5649,82.5355,128.5903
		c17.8232,36.1475,26.8551,75.4062,41.2681,112.7665c10.5332,27.3031,29.3383,44.6956,54.6597,56.8961
		c24.7252,11.9131,51.2347,12.6801,77.8801,13.432c5.637,0.1592,15.0302-4.1742,15.1172,7.5442
		c0.0824,11.0792-6.7454,13.5959-16.597,13.4736c-15.2001-0.1886-30.0836-2.2131-44.9338-5.1521
		c-26.9895-5.3411-50.337-18.5681-74.5532-36.4734c6.4161,47.2174,12.3822,91.1226,18.7927,138.2983
		c31.9542-37.187,71.9485-42.9622,115.3225-38.3041c14.9568,1.606,28.5826,6.1536,40.2067,15.5133
		c34.7848,28.0093,49.3188,63.9106,44.7577,108.825c-5.6049,55.1921-47.354,73.1604-92.1917,64.1926
		c-23.5653-4.7131-40.0087-20.2904-51.0867-42.2455c-11.457-22.7062-8.2369-42.2921,6.8982-61.7964
		c18.1334-23.3679,52.6306-26.1292,73.6765-5.0835c11.6637,11.6641,13.6029,29.2876,4.5492,41.3477
		c-8.3931,11.1797-22.6193,14.6687-34.8242,8.5406c-14.2474-7.1537-18.7867-20.5854-13.059-38.4656
		C1331.1146,1308.9565,1331.1539,1307.4885,1331.4194,1305.7952z M897.229,754.6089
		c-28.0292,21.1714-69.376,72.4751-95.241,114.4691c-47.8206,77.641-95.9609,155.1147-165.9331,215.8619
		c-27.6431,23.9988-55.68,47.5378-89.2598,62.5751c-23.0516,10.3226-41.9502,22.8376-52.6605,47.292
		c-9.2548,21.1312-15.9547,42.7421-22.0218,64.8445c-15.3437,55.897-13.186,110.0638,13.8355,162.1962
		c14.9422,28.8278,37.1479,48.2692,69.8381,54.8668c37.5728,7.5829,72.1714-1.1995,105.6044-17.6226
		c45.8836-22.5391,78.3687-79.6984,74.1894-130.4823c-4.0504-49.2163-61.5012-99.2084-109.5066-95.2894
		c-53.3123,4.3522-91.5233,48.1105-89.4758,102.4653c1.1896,31.5791,13.6828,49.6637,47.9867,57.391
		c20.6181,4.6444,41.1476-4.9213,56.2114-21.0013c20.0602-21.4138,14.6331-54.162-15.2831-67.0573
		c1.5193,4.2628,2.952,7.4468,3.7915,10.7802c4.0018,15.8889-6.3541,32.2269-22.3741,35.5261
		c-14.7792,3.0436-31.3372-8.1617-33.1094-23.8179c-1.572-13.8866,4.097-25.4358,16.1-33.2251
		c34.6513-22.4874,82.5559,0.0519,82.384,41.5712c-0.1055,25.483-14.0316,48.1345-37.446,63.3301
		c-41.5025,26.9343-101.5762,5.1221-111.5156-41.4883c-4.3997-20.6323-4.2485-41.512,0.2432-62.1017
		c8.9276-40.9224,50.2318-73.6107,91.6199-77.0327c39.3021-3.2494,73.1453,5.8964,101.6946,33.3657
		c1.4725,1.4169,3.0145,2.99,5.95,1.5502c2.9097-43.7037,12.1088-87.0339,16.9457-133.895
		c-17.4756,12.6305-32.1399,22.5046-48.8464,28.7058c-23.69,8.7932-48.1846,12.8041-73.4694,12.6669
		c-9.4301-0.0514-13.1733-4.8568-13.6407-13.3525c-0.5201-9.4525,6.7645-7.3589,12.0329-7.6564
		c11.9728-0.676,24.0197-0.4607,35.9369-1.6255c35.0898-3.4293,65.8522-16.2473,87.5685-45.1422
		c12.638-16.8156,18.902-37.29,24.3764-57.1199c21.4839-77.8204,60.8883-146.0808,111.7336-207.5067
		C894.112,806.151,901.7492,783.8577,897.229,754.6089z M1254.3032,818.3394c6.6974,6.3542,11.9865,11.2556,17.1475,16.2884
		c29.5504,28.8157,57.8899,58.5774,78.8435,94.6357c13.0248,22.4137,18.2202,46.2867,16.6169,71.9434
		c-0.3101,4.9622-0.1586,9.5059-7.1404,9.4438c-5.5934-0.0499-6.6836-3.119-7.1812-7.9098
		c-5.2245-50.3117-31.8516-89.608-65.5745-124.8315c-60.2161-62.8957-128.7433-115.4947-202.5247-161.4351
		c-4.6259-2.8802-8.8608-7.562-16.7113-3.4172c17.1348,7.5711,33.5149,15.9525,43.4507,30.402
		c36.3682,52.8895,79.0583,101.019,114.8472,154.2977c39.422,58.6873,84.1803,112.8516,137.5872,159.413
		c22.058,19.2306,47.8691,32.207,75.5393,42.2465c0.5657-2.3787,1.3145-3.6959,0.9406-4.236
		c-4.1298-5.9644-8.3177-11.8962-12.7091-17.6703c-32.0411-42.1307-38.6743-87.7471-18.4495-136.8237
		c16.6788-40.4714,54.882-58.0015,98.7771-45.7628c48.3584,13.4833,68.7235,43.2609,61.5394,89.9818
		c-5.0981,33.1545-31.6476,55.5865-62.4908,51.3597c-18.6091-2.5503-35.33-9.8033-43.5055-28.8005
		c-7.6328-17.7357,1.9866-31.5197,11.9221-44.2016c9.0746-11.5827,21.8462-13.6069,35.177-7.0819
		c12.3174,6.0289,18.3666,20.4271,13.9205,33.0372c-4.951,14.0426-15.2111,20.4912-30.1399,19.644
		c-3.1509-0.1789-6.3563-2.8613-9.9645-0.0734c3.9794,2.1638,7.6494,4.0365,11.2015,6.1113
		c21.1383,12.3467,35.9298,8.6599,48.4447-12.1323c17.5298-29.124,11.1355-66.8009-16.2922-82.9861
		c-37.1156-21.902-68.4659-18.5527-90.1753,12.4572c-32.8762,46.9607-22.4149,122.0253,21.3732,155.7599
		c35.202,27.1199,70.5994,18.8928,106.8237,8.051c35.5933-10.6532,63.2339-34.28,67.0609-71.182
		c8.4669-81.6456-22.2573-152.5886-109.1002-186.4957c-35.9384-14.0318-73.9091-16.1901-112.0338-18.1387
		c-45.0406-2.3019-90.0068,13.5076-135.0808-0.0712C1270.2363,818.2924,1263.525,815.5737,1254.3032,818.3394z M705.6601,816.2007
		c-8.509,1.2168-12.5398,1.9467-16.603,2.3486c-21.6373,2.1401-42.5372,10.9492-64.8236,7.2001
		c-48.301-8.1255-96.5615-6.6151-144.8356,0.3797c-74.3564,10.774-139.5768,62.0444-150.8927,133.5596
		c-3.8346,24.2346-9.3892,48.5478-1.996,72.5946c11.9192,38.7679,41.1204,59.3074,79.0303,67.7083
		c26.6841,5.9132,53.2047,12.4839,80.3336-3.2008c53.8047-31.1078,65.7907-100.0217,41.8152-152.5408
		c-12.3384-27.0273-36.292-40.271-65.5889-36.626c-47.4875,5.9081-71.6593,50.652-49.9279,92.4202
		c9.985,19.1913,27.8057,27.1574,43.3849,19.0907c6.2094-3.2151,12.0359-7.1696,20.7917-12.4484
		c-6.6517,1.1151-10.1685,2.0889-13.7186,2.2306c-12.6651,0.5056-22.1598-4.6996-27.7444-16.3235
		c-5.3705-11.1782-3.1528-21.4741,4.5959-30.4861c8.0182-9.3253,18.8393-11.2153,30.0298-7.9361
		c24.1996,7.0912,34.6413,45.8506,17.8207,64.814c-20.6244,23.2518-60.9489,23.6233-81.8349,0.9355
		c-19.3095-20.9752-20.4279-46.0509-15.445-71.8688c6.5762-34.073,37.0028-51.1605,77.8247-56.569
		c35.5326-4.7078,66.3911,14.6323,80.2039,47.3076c20.8592,49.3441,14.6771,95.5378-17.3155,138.5167
		c-4.7634,6.3992-11.6522,11.6637-13.7065,20.8301c2.3622,0,3.9269,0.3824,5.1944-0.0691c4.4024-1.5688,8.708-3.4116,13.0394-5.1774
		c45.2634-18.4513,78.9434-51.6733,111.1374-86.8858c68.8105-75.2625,121.5693-162.7958,184.9603-242.2434
		c16.5163-20.6996,32.7654-39.799,58.3676-50.6586c-8.345-4.3617-12.8785,1.2184-17.7118,4.2142
		c-74.3407,46.0786-143.0012,99.3884-203.4202,162.7711c-32.126,33.7021-57.0791,71.7548-63.3055,119.4433
		c-0.6387,4.8916,1.0172,11.0987-7.2809,11.0496c-9.5074-0.0563-6.9287-7.2606-7.3281-12.4082
		c-2.7964-36.0361,12.5446-65.7459,32.8559-93.7355C646.3099,873.0966,673.8938,846.1993,705.6601,816.2007z M381.3881,278.5322
		c23.9034,30.2057,43.7168,58.572,50.5371,93.0944c5.1364,25.9992,7.9214,52.5408,10.4111,78.9674
		c4.0457,42.942,4.955,86.1208,21.7671,127.0929c19.2131,46.8239,48.7853,65.8256,98.8754,62.9296
		c70.4473-4.0728,106.4485-75.1451,68.4434-139.007c-18.8684-31.7057-38.7012-39.7553-69.9797-32.5832
		c-21.1723,4.8547-42.1061,26.8274-43.8134,45.9875c-1.8289,20.524,11.0504,40.9217,32.1392,50.9004
		c16.903,7.9982,37.9825-1.634,44.0063-20.4402c-4.6711,0.7735-9.1956,2.213-13.6949,2.1382
		c-13.4592-0.2234-22.7246-7.2352-27.1766-19.6945c-4.6229-12.9375-0.0306-23.8135,10.4555-31.7024
		c10.775-8.1061,22.3973-7.7939,33.3158,0.1516c15.2278,11.0815,24.8767,35.9455,20.22,51.1308
		c-6.6196,21.5864-26.6556,37.2477-48.5485,37.9485c-41.4445,1.3266-71.051-33.0966-65.7355-76.0599
		c1.82-14.7108,8.3061-26.6561,19.1332-36.482c34.0726-30.9221,74.3864-31.2741,108.8301-1.0593
		c22.3192,19.5789,32.9388,45.0033,37.0936,73.6754c2.7081,18.6884,3.7135,19.5135,21.7981,15.176
		c41.2806-9.9009,80.4506-4.8498,117.7829,15.6332c21.8298,11.9772,42.214,26.1258,63.366,39.6895
		c-9.5925-13.334-21.8673-24.2892-31.3474-37.6121c-9.0335-12.6955-16.2836-27.0435-28.4781-37.1039
		c-111.637-92.1018-227.1442-178.2807-361.9594-234.6628C427.3962,297.6766,406.9079,286.4128,381.3881,278.5322z
		 M1363.7478,545.9493c-1.4478,3.7258,0.9172,6.0103,3.0026,8.252c15.2877,16.4335,29.8201,19.0159,47.2542,8.4797
		c19.4844-11.7755,30.9139-36.6261,25.0107-54.3794c-14.2915-42.9804-69.7463-54.9732-100.3881-22.2264
		c-12.2031,13.0415-19.1805,28.0807-23.9896,44.8668c-10.427,36.3951,4.3983,76.8053,36.0618,96.7473
		c33.0442,20.8114,87.0244,18.0477,112.6896-5.6058c21.5787-19.8876,31.4287-45.7972,39.6733-73.1024
		c12.2317-40.5104,9.3711-82.6521,14.8693-123.8817c6.2063-46.5395,13.9167-91.7275,44.923-129.3077
		c4.0315-4.8862,7.6497-10.1134,13.1971-17.4951c-7.949,2.8571-12.8783,4.3804-17.613,6.3672
		c-120.2405,50.4549-233.5188,112.7267-334.9962,195.4759c-41.5002,33.841-86.7804,63.4553-115.1731,110.921
		c-3.655,6.1102-9.8005,10.7511-14.8976,15.9699c-2.7552,2.8208-7.0509,4.6956-5.4877,10.3696
		c2.7538-2.035,5.2152-3.9031,7.726-5.7023c33.1033-23.7211,66.4047-47.2081,107.9105-53.9269
		c22.3397-3.6164,44.5532-2.3248,66.5883,3.4137c10.3358,2.6918,19.8597,5.1213,20.1974-12.6298
		c0.3881-20.4014,7.5819-39.7792,19.3529-56.9441c25.8456-37.6889,59.5482-50.0297,96.9991-35.8738
		c55.6378,21.0303,59.9034,66.3866,32.0309,109.7204c-15.7651,24.5104-56.4382,27.9567-79.598,8.6129
		c-24.905-20.8014-25.5266-50.9969-1.2137-74.8097c10.0802-9.8728,22.0442-11.9952,34.2618-4.4699
		c11.8121,7.2755,17.0354,18.2295,13.1025,32.1093c-3.717,13.1187-16.3899,21.4293-29.6279,20.8688
		C1371.502,547.5946,1368.0115,543.8374,1363.7478,545.9493z M1051.0314,1023.0558c3.8123-4.3118,6.1403-7.8298,9.2738-10.3438
		c18.6244-14.9415,50.1088-26.0206,69.4939-6.7355c19.2001,19.1011,22.9874,56.856,6.6914,75.1874
		c-10.9194,12.2833-25.2445,15.8297-37.511,8.5398c-11.8453-7.0396-17.8719-17.4672-14.2729-31.4867
		c3.9471-15.375,15.6534-22.6517,33.1661-21.3602c2.9368,0.2167,6.5348,2.3346,8.2463-1.2947
		c1.4984-3.1774-1.443-5.8625-3.2002-8.3102c-2.4275-3.3812-5.2982-5.8939-9.9453-6.7065
		c-21.7288-3.7997-37.2036,3.9332-47.2119,24.149c-11.5614,23.353-3.9817,63.3362,16.6754,83.7095
		c10.6538,10.5074,21.2418,22.9312,37.1641,24.2006c22.0194,1.7556,47.3076-17.141,52.8628-39.1465
		c6.0391-23.9226,8.2719-49.2468,2.1475-72.7468c-20.0139-76.7964-57.799-144.5621-110.8542-203.6888
		c-2.3121-2.5766-4.3297-6.889-8.5385-5.5215c-3.7833,1.2291-3.903,5.5342-4.7792,9.0939
		c-10.1757,41.3375-11.3843,83.4326-8.9954,125.5408C1042.4918,984.6043,1043.4775,1003.5578,1051.0314,1023.0558z
		 M906.8665,1023.8234c1.679-6.2337,3.1256-10.1686,3.7747-14.2308c8.5932-53.7708,10.4453-107.4747-2.3505-160.9224
		c-1.3996-5.8461,0.8923-14.9471-5.718-16.6478c-7.2026-1.853-10.3475,7.1927-14.545,11.9781
		c-43.083,49.1168-73.7289,105.2852-96.3926,166.4564c-12.0511,32.527-12.616,65.0887-7.5154,98.2701
		c4.3241,28.1301,41.4166,52.6392,62.7094,41.7789c31.2554-15.9414,47.8107-42.7345,51.2452-77.0127
		c1.9293-19.2555-6.1631-35.8127-21.5653-47.7888c-15.9965-12.4382-39.972-6.2299-44.4305,11.2529
		c1.5423,0.1667,3.0286,0.525,4.4857,0.431c1.5386-0.0992,3.0334-0.8022,4.5747-0.9449
		c14.8522-1.3762,26.7584,6.1544,31.3542,20.0215c4.6197,13.9395-0.9274,24.6123-12.0333,32.4369
		c-11.2263,7.9097-26.1076,4.8762-37.0485-5.0311c-11.6688-10.5664-14.3512-23.267-12.5131-38.088
		c3.7346-30.1118,19.8004-51.229,41.9207-50.3182C873.4231,996.3131,892.4323,1003.7074,906.8665,1023.8234z M536.2266,806.4067
		c26.5557,0,53.1136,0.2069,79.6661-0.0846c13.9088-0.1527,27.0524,4.4438,41.6619,2.1429
		c51.9374-8.1802,95.8962-31.1687,137.1803-63.0809c30.7982-23.8067,61.2753-51.0758,104.0727-52.1671
		c2.8271-0.0721,5.7155-1.1928,5.3275-4.2686c-0.5352-4.243-4.5732-3.2273-7.4926-3.4532
		c-32.9326-2.5483-65.2243,3.626-97.5021,8.1872c-49.2567,6.9604-95.2349,25.1807-140.8278,44.2772
		C615.1613,756.0334,574.0029,777.7393,536.2266,806.4067z M1421.6583,806.444c-45.8496-34.4382-96.4541-58.4511-148.6257-79.5447
		c-67.1793-27.1614-136.7491-41.8895-209.3457-41.3182c-3.5165,0.0276-9.6648-2.6255-9.8444,3.8173
		c-0.1396,5.0122,5.4028,3.3807,8.7233,4.022c17.2714,3.3359,34.6362,5.5365,49.8027,16.2721
		c28.0391,19.8477,56.2972,39.361,84.1061,59.5582c21.0369,15.2788,44.6898,26.1512,70.757,31.5101
		c23.335,4.7972,45.7175,9.8772,70.4895,6.5333C1365.2371,803.5798,1393.641,806.444,1421.6583,806.444z M870.028,1156.3031
		c-23.6565,11.9999-45.1476,13.4718-67.4996,2.1658c-23.0032-11.6355-32.509-31.6031-38.1768-55.2161
		c-23.0011,85.1733-24.8202,170.3657-6.3404,256.2612C795.1619,1325.5092,861.1584,1207.0082,870.028,1156.3031z
		 M1193.1907,1102.7916c-4.7507,24.3424-15.1544,43.8005-37.9357,55.7003c-22.4362,11.7196-44.426,9.4119-70.7178-3.0233
		c31.1609,76.4795,60.7242,147.3669,114.8309,205.0176C1218.6232,1273.3163,1216.0122,1188.0712,1193.1907,1102.7916z
		 M134.1012,378.5713c2.8498-65.3979,39.9642-104.8939,100.3269-131.5755c-12.155-2.1624-19.0281-3.7032-25.9853-4.5702
		c-39.0179-4.8628-76.7969-3.1493-109.9745,21.6747c-4.4943,3.3627-8.9883,5.8792-6.896,13.6694
		C101.0133,312.9216,116.7499,345.3208,134.1012,378.5713z M1728.0896,247.6013c56.4841,25.7053,92.2426,66.2588,96.1685,131.1602
		c12.1615-23.7038,22.4803-46.3725,31.5214-69.5399c15.9901-40.9744,9.818-52.1974-33.4983-63.7106
		c-1.5029-0.3994-3.0862-0.491-4.5969-0.8673C1788.2131,237.3028,1758.9137,240.6929,1728.0896,247.6013z M304.4587,978.187
		c3.3955-61.7816,40.8912-102.9294,85.7856-142.2291c-10.7314-0.53-17.9771-0.5291-25.1393-1.3019
		c-37.2477-4.0189-43.4981-0.1936-56.2115,35.5606c-2.0828,5.8577-3.8197,11.8909-5.0989,17.973
		C297.4833,918.1964,295.3596,948.2288,304.4587,978.187z M1651.4897,982.3958c8.4603-14.1761,7.3512-25.3017,7.7107-35.8972
		c1.2184-35.9159-3.2905-70.7701-23.3346-101.7725c-3.625-5.6066-6.2655-13.5844-15.9523-12.6188
		c-16.3116,1.626-32.6729,2.7531-51.9489,4.3303C1612.6626,875.5942,1650.0787,916.3295,1651.4897,982.3958z M488.251,1459.6699
		c0.7107,24.0042,25.9182,55.5049,48.7744,63.0996c24.412,8.1117,60.4582-3.5737,78.6253-26.1876
		c-22.7313-1.0048-45.0411,1.7853-66.7009-4.9135C527.1025,1484.9119,508.1237,1472.636,488.251,1459.6699z M1340.4891,1495.02
		c23.5559,26.6206,60.6665,36.6786,85.4967,26.0588c20.5199-8.7761,44.512-42.2139,42.6261-61.8875
		C1431.8984,1488.8658,1390.7852,1501.9161,1340.4891,1495.02z"/>
</g>
</svg>
