<?xml version="1.0"?>
<svg width="600" height="800" xmlns="http://www.w3.org/2000/svg">

 <metadata>Clipart by Nicu Buculei - birthday_cakehashdessertfoodNicu BuculeiNicu BuculeiNicu Buculeiimage/svg+xmlen</metadata>
 <g>
  <title>Birthday cake</title>
  <g id="svg_1">
   <path stroke-linecap="round" stroke-linejoin="round" fill="#ffffff" fill-rule="evenodd" stroke="#000000" stroke-width="5" id="path850" d="m577.582825,547.657593c0,53.469421 -125.32309,96.86499 -279.738953,96.86499c-154.416,0 -279.739037,-43.395569 -279.739037,-96.86499c0,-53.469513 125.323036,-96.865021 279.739037,-96.865021c154.415863,0 279.738953,43.395508 279.738953,96.865021z"/>
   <path stroke-linecap="round" stroke-linejoin="round" fill="#ffffff" fill-rule="evenodd" stroke="#000000" stroke-width="5" id="path829" d="m297.843719,266.0401c-133.947281,0 -242.658157,38.868011 -242.658157,86.759064c0,2.222015 0.922642,169.117523 0.922642,170.206818c0,47.890991 108.710873,86.759094 242.658184,86.759094c133.947327,0 242.658234,-38.868103 242.658234,-86.759094l-0.922729,-166.895416c0,0 0,-2.178619 0,-3.311401c0,-47.891052 -108.710846,-86.759064 -242.658173,-86.759064z"/>
   <path stroke-linecap="round" stroke-linejoin="round" fill="#ffffff" fill-rule="evenodd" stroke="#000000" stroke-width="5" id="path833" d="m47.804325,334.035034c-1.982224,17.809509 -18.955959,66.008362 15.283627,58.471924c34.174683,2.688477 -0.531792,58.712006 35.354439,60.911072c29.160454,2.213654 4.586433,-44.126617 31.053032,-30.075836c26.985687,5.413147 23.509979,32.033997 27.177078,50.038086c17.828552,14.262634 23.617523,-10.727295 18.153992,-22.26355c13.385849,-19.41687 50.654266,-11.154053 70.013031,-3.91217c10.785721,19.662659 18.422134,60.230255 52.475082,49.230164c22.696289,-6.888641 32.632904,-48.301208 55.73819,-51.992065c20.796936,0.2052 22.313721,50.382843 45.347809,27.65918c6.279755,-18.526794 39.880463,-51.909729 60.454346,-29.626129c20.72583,19.058319 52.411896,4.742889 44.707886,-27.983459c11.109955,-19.368103 43.519745,7.88089 43.587494,-45.40329c4.986389,-25.14621 0.903503,-48.450836 -33.699585,-68.713654c-20.938354,-10.021179 -51.988953,-14.807495 -82.432281,-27.275635c-33.008301,-11.597046 -63.989288,-17.839005 -98.794373,-22.716553c-60.730621,-1.034164 -111.254913,6.132996 -170.913956,17.480713c-28.166946,3.363037 -48.212418,20.934753 -73.899071,29.580902c-16.178787,7.437927 -32.818127,22.404999 -39.606739,36.590302z"/>
   <path fill="#ffffff" fill-rule="evenodd" stroke-width="5" stroke-linejoin="round" stroke-linecap="round" id="path844" d="m189.893158,297.029572c0,9.671753 44.287415,12.539337 44.287415,21.866852c13.656326,0 7.153107,-18.502686 -5.535965,-18.502686c-16.139023,0 -22.956879,-6.243652 -38.75145,-3.364166z"/>
   <path stroke-linecap="round" fill="#ffffff" fill-rule="evenodd" stroke="#000000" stroke-width="5" stroke-linejoin="round" id="path857" d="m257.34549,182.886749c6.208313,9.89296 16.705383,4.644104 28.096283,5.420105c11.559113,0.890411 16.615417,-5.971344 23.66214,-8.091888c20.524719,11.308182 2.34317,26.682693 6.374847,46.155853c0.278412,14.204651 2.810516,36.998627 5.191895,52.072845c0.968384,12.353638 -35.002502,13.304016 -41.845459,7.80545c-5.652588,-3.143463 -10.047119,-13.193512 -6.508636,-24.836884c0.954102,-14.342972 -4.008057,-21.815903 -6.908569,-35.944138c0.800995,-17.353378 -19.991791,-22.433197 -8.0625,-42.581345z"/>
   <path stroke-linecap="round" fill="#ffffff" fill-rule="evenodd" stroke="#000000" stroke-width="5" stroke-linejoin="round" id="path858" d="m257.322418,181.040253c4.586487,1.152237 14.205841,2.214767 18.827942,0.472992c5.171692,0 12.537842,1.429688 16.317505,-1.419006c2.957825,0 11.300598,-0.945984 15.062439,-0.945984c4.745178,0 -2.510406,-1.474365 -2.510406,2.36499c-3.481812,0 -6.324432,2.40152 -8.786377,4.257004c-2.143646,3.231247 -8.337616,3.311081 -12.551971,3.311081c-4.911163,0 -10.68399,-0.473022 -15.690002,-0.473022c-4.629852,0 -8.786377,-0.733246 -10.669128,-7.568054z"/>
   <path stroke-linecap="round" stroke-linejoin="round" fill="#ffffff" fill-rule="evenodd" stroke="#000000" stroke-width="5" id="path860" d="m268.619202,97.318718c8.786377,8.987068 57.111389,69.058418 8.786377,72.369484c-65.270294,7.095032 -3.13797,-51.55735 -8.786377,-72.369484z"/>
   <path stroke-linecap="round" stroke-linejoin="round" fill="#ffffff" fill-rule="evenodd" stroke="#000000" stroke-width="5" id="path859" d="m284.309113,186.243286c-9.538727,-5.232758 -13.416443,-14.354797 -10.236908,-19.282669c2.459656,-5.373032 3.51413,-17.506241 3.51413,-25.068176"/>
   <path stroke-linecap="round" fill="#ffffff" fill-rule="evenodd" stroke="#000000" stroke-width="5" stroke-linejoin="round" id="path869" d="m437.831329,242.449097c6.208313,9.89299 16.705383,4.644104 28.096283,5.420151c11.559113,0.890381 16.615387,-5.971375 23.66214,-8.091904c20.52475,11.308151 2.34314,26.682678 6.374878,46.155853c0.278381,14.20462 2.810486,36.998596 5.191833,52.072815c0.968384,12.353699 -35.002502,13.304047 -41.845428,7.80545c-5.652588,-3.143463 -10.047119,-13.193481 -6.508636,-24.836853c0.954102,-14.343018 -4.008057,-21.815918 -6.908569,-35.944122c0.800995,-17.353424 -19.991791,-22.433258 -8.0625,-42.58139z"/>
   <path stroke-linecap="round" fill="#ffffff" fill-rule="evenodd" stroke="#000000" stroke-width="5" stroke-linejoin="round" id="path870" d="m437.808228,240.6026c4.586517,1.152237 14.205872,2.214783 18.827972,0.473007c5.171692,0 12.537842,1.429688 16.317505,-1.419006c2.957825,0 11.300629,-0.945999 15.062439,-0.945999c4.745178,0 -2.510406,-1.47435 -2.510406,2.365005c-3.481812,0 -6.324432,2.40152 -8.786438,4.257004c-2.143646,3.231232 -8.337555,3.31105 -12.55191,3.31105c-4.911163,0 -10.68399,-0.473007 -15.690033,-0.473007c-4.629822,0 -8.786346,-0.7332 -10.669128,-7.568054z"/>
   <path stroke-linecap="round" stroke-linejoin="round" fill="#ffffff" fill-rule="evenodd" stroke="#000000" stroke-width="5" id="path871" d="m449.105042,156.881073c8.786377,8.987091 57.111359,69.058426 8.786377,72.369476c-65.270294,7.095047 -3.13797,-51.557343 -8.786377,-72.369476z"/>
   <path stroke-linecap="round" stroke-linejoin="round" fill="#ffffff" fill-rule="evenodd" stroke="#000000" stroke-width="5" id="path873" d="m464.794952,245.805649c-9.538727,-5.232773 -13.416443,-14.354782 -10.236908,-19.282669c2.459656,-5.373032 3.514099,-17.506241 3.514099,-25.068176"/>
   <path stroke-linecap="round" fill="#ffffff" fill-rule="evenodd" stroke="#000000" stroke-width="5" stroke-linejoin="round" id="path875" d="m119.084839,237.320999c-3.646751,10.901657 -15.159462,7.905533 -26.077934,10.964935c-11.054596,3.204926 -17.654442,-2.463791 -25.041618,-3.106995c-17.262394,15.175735 4.206985,26.491928 5.013458,46.295181c3.184456,13.907196 6.261078,36.645447 7.606506,51.825714c2.061325,12.241791 37.367722,5.89682 42.702454,-0.848145c4.747055,-4.207947 6.58699,-14.896088 0.303841,-25.534149c-4.419937,-13.792969 -1.399475,-22.082916 -2.008499,-36.445648c-5.003082,-16.759369 14.036018,-25.916031 -2.498207,-43.150894z"/>
   <path stroke-linecap="round" fill="#ffffff" fill-rule="evenodd" stroke="#000000" stroke-width="5" stroke-linejoin="round" id="path876" d="m118.658134,235.515808c-4.191971,2.050735 -13.313255,5.031418 -18.244034,4.26738c-5.042908,1.045486 -11.877769,3.928665 -16.256424,1.914978c-2.884148,0.597931 -11.249329,1.362045 -14.917488,2.122498c-4.627037,0.959274 2.08918,-1.945114 3.023285,1.79863c3.395088,-0.703857 6.751213,1.063187 9.603294,2.374786c2.876411,2.717438 8.935555,1.543121 13.044991,0.691193c4.788857,-0.992828 10.302826,-2.621078 15.184189,-3.633072c4.514572,-0.935928 8.38916,-2.49115 8.562187,-9.536392z"/>
   <path stroke-linecap="round" stroke-linejoin="round" fill="#ffffff" fill-rule="evenodd" stroke="#000000" stroke-width="5" id="path877" d="m87.273529,156.162811c-6.381073,10.53949 -38.887547,78.884048 9.039619,72.343536c65.371132,-6.276306 -9.483879,-50.907806 -9.039619,-72.343536z"/>
   <path stroke-linecap="round" stroke-linejoin="round" fill="#ffffff" fill-rule="evenodd" stroke="#000000" stroke-width="5" id="path879" d="m93.609337,246.044769c8.028061,-7.030746 9.589867,-16.709503 5.290604,-20.871948c-3.705666,-4.741974 -7.685844,-16.359879 -9.525635,-23.73349"/>
   <path stroke-linecap="round" fill="#ffffff" fill-rule="evenodd" stroke="#000000" stroke-width="5" stroke-linejoin="round" id="path881" d="m236.844131,286.100464c-3.705002,10.885315 -15.201569,7.838135 -26.136246,10.848999c-11.071609,3.155823 -17.641083,-2.542175 -25.024719,-3.21814c-17.343292,15.098877 4.065338,26.510254 4.765976,46.316864c3.110092,13.921204 6.06514,36.672821 7.329422,51.858856c1.99588,12.250824 37.335785,6.062714 42.706482,-0.658478c4.769485,-4.186768 6.666519,-14.866608 0.440323,-25.532471c-4.346207,-13.812439 -1.281464,-22.088898 -1.813721,-36.454193c-4.913452,-16.781372 14.174362,-25.853394 -2.267517,-43.161438z"/>
   <path stroke-linecap="round" fill="#ffffff" fill-rule="evenodd" stroke="#000000" stroke-width="5" stroke-linejoin="round" id="path882" d="m236.427063,284.293365c-4.202896,2.032104 -13.339996,4.97226 -18.266663,4.18634c-5.048416,1.023102 -11.89859,3.875854 -16.266418,1.842773c-2.887329,0.585144 -11.256485,1.312042 -14.92868,2.056244c-4.632095,0.93866 2.099548,-1.935852 3.013641,1.812012c3.398819,-0.688782 6.745438,1.09314 9.5905,2.417419c2.861862,2.730164 8.927185,1.582794 13.041138,0.749084c4.794098,-0.971527 10.316696,-2.575256 15.20343,-3.565582c4.519501,-0.915894 8.40239,-2.453888 8.613052,-9.498291z"/>
   <path stroke-linecap="round" stroke-linejoin="round" fill="#ffffff" fill-rule="evenodd" stroke="#000000" stroke-width="5" id="path883" d="m205.466934,204.801956c-6.437363,10.511017 -39.308701,78.710434 8.652847,72.382828c65.4039,-5.985931 -9.2117,-50.949326 -8.652847,-72.382828z"/>
   <path stroke-linecap="round" stroke-linejoin="round" fill="#ffffff" fill-rule="evenodd" stroke="#000000" stroke-width="5" id="path885" d="m211.322281,294.710999c8.065521,-6.995056 9.679047,-16.666748 5.402084,-20.848206c-3.680298,-4.758392 -7.598343,-16.39386 -9.398712,-23.775543"/>
   <path stroke-linecap="round" fill="#ffffff" fill-rule="evenodd" stroke="#000000" stroke-width="5" stroke-linejoin="round" id="path887" d="m394.588806,280.109833c-3.376251,10.973785 -14.960114,8.214996 -25.800171,11.497955c-10.972534,3.431274 -17.710876,-2.100403 -25.112061,-2.591675c-16.882782,15.526581 4.861023,26.398712 6.156982,46.180359c3.527557,13.838257 7.16568,36.507477 8.886139,51.656219c2.363556,12.19632 37.504059,5.127502 42.670685,-1.725372c4.641785,-4.304382 6.216919,-15.027557 -0.327667,-25.533875c-4.759918,-13.698578 -1.945221,-22.048523 -2.909271,-36.395081c-5.41626,-16.652252 13.391571,-26.197845 -3.564636,-43.088531z"/>
   <path stroke-linecap="round" fill="#ffffff" fill-rule="evenodd" stroke="#000000" stroke-width="5" stroke-linejoin="round" id="path888" d="m394.117584,278.313843c-4.140198,2.136353 -13.185455,5.303711 -18.133881,4.641174c-5.015778,1.148804 -11.777618,4.171722 -16.204926,2.248535c-2.868652,0.657013 -11.212799,1.592834 -14.861237,2.428467c-4.602142,1.054108 2.040527,-1.987549 3.066986,1.736023c3.376831,-0.773438 6.775787,0.924194 9.659607,2.17688c2.942871,2.657623 8.971436,1.359131 13.058746,0.422943c4.763092,-1.090912 10.235382,-2.832092 15.090515,-3.944092c4.490265,-1.028503 8.325409,-2.662903 8.324188,-9.70993z"/>
   <path stroke-linecap="round" stroke-linejoin="round" fill="#ffffff" fill-rule="evenodd" stroke="#000000" stroke-width="5" id="path889" d="m360.778625,199.625961c-6.118835,10.667923 -36.926941,79.662949 10.826294,72.139389c65.19931,-7.617981 -10.740356,-50.699997 -10.826294,-72.139389z"/>
   <path stroke-linecap="round" stroke-linejoin="round" fill="#ffffff" fill-rule="evenodd" stroke="#000000" stroke-width="5" id="path891" d="m369.33548,289.354797c7.852203,-7.193909 9.174255,-16.902252 4.773132,-20.975281c-3.82196,-4.664673 -8.08847,-16.197815 -10.110138,-23.531754"/>
   <path stroke-linecap="round" stroke-linejoin="round" fill="#ffffff" fill-rule="evenodd" stroke="#000000" stroke-width="5" id="path937" d="m54.108791,457.565277c30.739658,-1.365234 38.395214,20.724579 66.709103,29.093262c29.985298,3.62326 61.929161,15.967377 88.994682,21.4487c29.382919,5.583069 66.118912,9.161072 98.551895,7.567078c38.630493,-4.529358 105.23288,-14.536621 131.370636,-24.433319c30.09137,-9.950226 77.252075,-33.389099 98.330261,-49.532806c17.125732,-0.373352 7.104126,25.315063 1.007996,37.54657c0.699463,16.075592 -6.198914,29.595093 -27.213318,24.187714c-24.187714,-5.917999 -17.775665,36.522003 -43.838806,21.65799c-22.882782,-13.547577 -32.980438,9.817749 -33.313416,26.575684c-22.566772,9.179688 -52.734528,27.682617 -76.037262,10.325134c-12.092163,-20.360291 -55.279022,-31.544006 -60.536194,-1.181702c-15.531067,21.841248 -49.063782,15.597717 -58.163055,-6.60321c-19.520035,-10.094666 -43.249496,-5.477234 -63.781082,-12.63739c-11.380173,11.815002 -41.971344,22.255005 -42.482376,-2.106567c-7.62413,-24.3172 -57.585312,-48.103851 -67.824417,-19.151367c-29.731434,3.175598 -23.914303,-22.558502 -21.166019,-47.098969c-1.209045,-7.513397 0.331726,-13.771271 9.391373,-15.656799z"/>
  </g>
 </g>
</svg>