<?xml version="1.0" encoding="utf-8"?>
<!-- Generator: Adobe Illustrator 17.0.0, SVG Export Plug-In . SVG Version: 6.00 Build 0)  -->
<!DOCTYPE svg PUBLIC "-//W3C//DTD SVG 1.1//EN" "http://www.w3.org/Graphics/SVG/1.1/DTD/svg11.dtd">
<svg version="1.1" id="Layer_2" xmlns="http://www.w3.org/2000/svg" xmlns:xlink="http://www.w3.org/1999/xlink" x="0px" y="0px"
	 width="500px" height="500px" viewBox="0 0 500 500" enable-background="new 0 0 500 500" xml:space="preserve">
<g>
	<path fill="none" stroke="#000000" stroke-width="6" stroke-linecap="round" stroke-linejoin="round" stroke-miterlimit="10" d="
		M109.563,250.876l3.215-95.991l5.311-67.471c0,0,4.452-11.402,10.304-16.63c0,0,6.695-18.698,23.636-14.18
		s23.812,11.365,23.812,11.365l36.399,12.587l10.627-11.133l0.875-9.678l22.777-17.43l69.591,25.288l-0.204,17.262
		c0,0,19.19,29.824,24.211,33.752s37.091,19.585,37.091,19.585s26.847,2.31,37.881,22.25c10.27,8.081,12.866,11.78,15.03,19.275
		c2.164,7.495,3.793,17.249,3.793,17.249s7.158,4.142,7.677,9.524c0.519,5.382-4.035,13.65-4.035,13.65l-5.236,131.144
		c0,0,6.356,7.56,6.73,10.379s-5.658,18.343-21.697,19.857c-11.759,2.151-35.195-5.551-55.69-13.791s-38.052-17.018-38.052-17.018
		l-47.756,43.234l-27.768,25.139l-39.134,35.429l-50.774-28.157L96.12,391.951l-36.525-20.255l-0.403-16.241l20.019-10.269
		l0.486-21.772l0.523-23.433l3.776-4.131C83.996,295.85,83.567,268.011,109.563,250.876z"/>
	<path fill="none" stroke="#000000" stroke-width="5" stroke-linecap="round" stroke-linejoin="round" stroke-miterlimit="10" d="
		M118.089,87.414c0,0-5.391,13.538,17.696,32.701c20.989,13.751,47.294,24.252,77.015,38.589
		c27.891,11.405,57.726,23.649,84.808,34.78c51.057,20.986,92.328,38.017,92.328,38.017s19.732,6.893,30.857,0
		s16.76-11.351,16.76-11.351"/>
	<path fill="none" stroke="#000000" stroke-width="5" stroke-linecap="round" stroke-linejoin="round" stroke-miterlimit="10" d="
		M137.039,72.707c0,0-11.879,10.912-0.397,27.122s38.608,25.988,63.72,39.581c12.78,6.918,58.926,25.794,103.046,43.149
		c42.575,16.747,83.262,32.075,90.259,33.872c14.247,3.659,32.99,2.354,40.245-19.455"/>
	<path fill="none" stroke="#000000" stroke-width="4" stroke-linecap="round" stroke-linejoin="round" stroke-miterlimit="10" d="
		M133.167,89.833c0,0,20.14-6.15,40,0c19.86,6.15,27.604,6.017,27.604,6.017s16.379-22.601,25.009-20.853
		s64.799,22.137,65.686,25.474c0.887,3.337,22.008,40.917,33.635,46.471s69.664,28.83,78.077,34.544
		c8.413,5.714,19.322,32.347,19.322,32.347"/>
	<path fill="none" stroke="#000000" stroke-width="5" stroke-linecap="round" stroke-linejoin="round" stroke-miterlimit="10" d="
		M133.833,63.833c0,0-3.924,7.859,9.649,14.162c13.573,6.302,32.015,3.107,32.183-7.194"/>
	<path fill="none" stroke="#000000" stroke-width="3" stroke-linecap="round" stroke-linejoin="round" stroke-miterlimit="10" d="
		M142.091,65.385c0,0,10.964-4.527,18.353,1.294s-3.217,10.297-9.177,8.222C145.308,72.825,140.592,71.893,142.091,65.385z"/>
	<path fill="none" stroke="#000000" stroke-width="5" stroke-linecap="round" stroke-linejoin="round" stroke-miterlimit="10" d="
		M378.5,139.833c0,0-17.82,3.485-7.038,16.52c10.782,13.035,27.602,15.366,33.638,12.386c6.036-2.98,4.04-13.85,4.04-13.85
		S394.5,140.5,378.5,139.833z"/>
	<path fill="none" stroke="#000000" stroke-width="3" stroke-linecap="round" stroke-linejoin="round" stroke-miterlimit="10" d="
		M383.6,148.354c0,0-9.41,0.882,0,10.901c12.866,4.992,17.88,3.971,15.141-3.207C396.002,148.87,383.6,148.354,383.6,148.354z"/>
	
		<polyline fill="none" stroke="#000000" stroke-width="3" stroke-linecap="round" stroke-linejoin="round" stroke-miterlimit="10" points="
		289.167,98.5 289.586,83.636 316.11,67.603 	"/>
	
		<line fill="none" stroke="#000000" stroke-width="3" stroke-linecap="round" stroke-linejoin="round" stroke-miterlimit="10" x1="291.466" y1="100.471" x2="315.906" y2="84.865"/>
	
		<polyline fill="none" stroke="#000000" stroke-width="3" stroke-linecap="round" stroke-linejoin="round" stroke-miterlimit="10" points="
		225.78,74.997 244.01,60.479 245.861,44.903 	"/>
	
		<polyline fill="none" stroke="#000000" stroke-width="3" stroke-linecap="round" stroke-linejoin="round" stroke-miterlimit="10" points="
		244.01,60.479 268.24,68.757 297.605,78.789 	"/>
	
		<polyline fill="none" stroke="#000000" stroke-width="5" stroke-linecap="round" stroke-linejoin="round" stroke-miterlimit="10" points="
		245.178,50.648 276.094,62.126 305.833,73.167 	"/>
	
		<polyline fill="none" stroke="#000000" stroke-width="3" stroke-linecap="round" stroke-linejoin="round" stroke-miterlimit="10" points="
		197.703,95.62 177.305,87.626 190.871,73.167 	"/>
	<path fill="none" stroke="#000000" stroke-width="3" stroke-linecap="round" stroke-linejoin="round" stroke-miterlimit="10" d="
		M404.116,179.972c0,0,10.384-6.805,17.051-12.805"/>
	
		<polyline fill="none" stroke="#000000" stroke-width="3" stroke-linecap="round" stroke-linejoin="round" stroke-miterlimit="10" points="
		259.167,161.517 261.621,123.07 235.071,114.657 232.458,119.003 230.634,151.331 	"/>
	
		<polyline fill="none" stroke="#000000" stroke-width="5" stroke-linecap="round" stroke-linejoin="round" stroke-miterlimit="10" points="
		235.901,153.617 236.555,123.789 238.554,121.632 254.011,126.222 253.201,158.704 	"/>
	<path fill="none" stroke="#000000" stroke-width="3" stroke-linecap="round" stroke-linejoin="round" stroke-miterlimit="10" d="
		M432.318,351.294c0,0-5.214,13.798-16.133,14.171c-7.967,4.226-35.49-7.089-60.282-19.042c-23.29-11.229-44.172-23.02-44.172-23.02
		"/>
	
		<polyline fill="none" stroke="#000000" stroke-width="5" stroke-linecap="round" stroke-linejoin="round" stroke-miterlimit="10" points="
		323.609,350.721 311.283,345.3 311.418,301.546 311.544,260.504 311.731,199.674 	"/>
	<path fill="none" stroke="#000000" stroke-width="6" stroke-linecap="round" stroke-linejoin="round" stroke-miterlimit="10" d="
		M171.167,141.167l-50.592,107.321c0,0-13.381,1.429-14.882,5.167c-1.501,3.738-49.69,42.897,4.318,106.033
		c23.155,25.478,51.618,33.478,64.261,30.293c14.074-2.502,23.065-16.628,26.318-29.57s1.676-43.715-5.076-57.44
		c-6.752-13.725-35.112-49.307-74.939-54.483"/>
	<path fill="none" stroke="#000000" stroke-width="5" stroke-linecap="round" stroke-linejoin="round" stroke-miterlimit="10" d="
		M126.971,247.481l16.374-3.951c0,0,12.18,0.466,22.661,6.47c19.116,10.95,42.759,32.422,48.549,47.21
		c8.965,22.896,6.528,64.384,0,73.289s-31.434,16.088-31.434,16.088"/>
	
		<line fill="none" stroke="#000000" stroke-width="3" stroke-linecap="round" stroke-linejoin="round" stroke-miterlimit="10" x1="197.703" y1="307.423" x2="211.526" y2="295.67"/>
	<path fill="none" stroke="#000000" stroke-width="3" stroke-linecap="round" stroke-linejoin="round" stroke-miterlimit="10" d="
		M109.216,276.579c-11.386,17.503-12.895,39.622,3.321,64.372c28.629,39.752,55.485,31.606,65.724,20.911
		c10.239-10.695,12.403-31.933,0-55.452C160.703,281.056,130.025,256.68,109.216,276.579z"/>
	<path fill="none" stroke="#000000" stroke-width="3" stroke-linecap="round" stroke-linejoin="round" stroke-miterlimit="10" d="
		M119.489,295.846c-6.329,9.729-7.167,22.023,1.846,35.781c15.913,22.096,30.841,17.568,36.532,11.623
		c5.691-5.945,6.894-17.75,0-30.822C148.108,298.334,131.056,284.785,119.489,295.846z"/>
	<path fill="none" stroke="#000000" stroke-width="3" stroke-linecap="round" stroke-linejoin="round" stroke-miterlimit="10" d="
		M127.64,296.85c-4.779,7.347-5.413,16.632,1.394,27.021c12.017,16.686,23.29,13.267,27.588,8.778
		c4.298-4.489,5.206-13.404,0-23.276C149.252,298.73,136.375,288.498,127.64,296.85z"/>
	<path fill="none" stroke="#000000" stroke-width="3" stroke-linecap="round" stroke-linejoin="round" stroke-miterlimit="10" d="
		M138.601,301.097c-2.579,3.965-2.921,8.975,0.752,14.581c6.485,9.005,12.568,7.159,14.888,4.737c2.319-2.423,2.809-7.233,0-12.561
		C150.264,302.111,143.315,296.589,138.601,301.097z"/>
	<path fill="none" stroke="#000000" stroke-width="5" stroke-linecap="round" stroke-linejoin="round" stroke-miterlimit="10" d="
		M311.695,211.501l-32.12,58.769c0,0-8.978,2.226-14.312,12.207c-0.489,13.04-1.82,24.946-1.82,24.946L225.78,414.065
		c0,0-5.134,22.872,7.907,16.088c13.041-6.784,6.736-18.877,6.736-18.877s27.006-92.514,35.458-100.353
		c8.452-7.84,9.47-11.91,12.509-18.349s2.368-21.685,2.368-21.685l20.524-38.139"/>
	<path fill="none" stroke="#000000" stroke-width="3" stroke-linecap="round" stroke-linejoin="round" stroke-miterlimit="10" d="
		M279.575,270.27c0,0,5.371-2.745,11.231,6.081"/>
	<path fill="none" stroke="#000000" stroke-width="3" stroke-linecap="round" stroke-linejoin="round" stroke-miterlimit="10" d="
		M276.349,284.094c0,0-5.29,0.845-4.909,6.167c2.411,5.027,6.108,4.32,9.041,1.525C281.999,290.079,280.601,284.094,276.349,284.094
		z"/>
	<path fill="none" stroke="#000000" stroke-width="3" stroke-linecap="round" stroke-linejoin="round" stroke-miterlimit="10" d="
		M231.948,417.247c0,0-4.257,0.68-3.95,4.962c1.94,4.045,4.915,3.476,7.275,1.227C236.494,422.063,235.369,417.247,231.948,417.247z
		"/>
	
		<polyline fill="none" stroke="#000000" stroke-width="3" stroke-linecap="round" stroke-linejoin="round" stroke-miterlimit="10" points="
		311.283,208 254.014,183.547 208.037,163.916 184.887,154.031 	"/>
	
		<polyline fill="none" stroke="#000000" stroke-width="5" stroke-linecap="round" stroke-linejoin="round" stroke-miterlimit="10" points="
		288.289,250.002 287.09,231.438 286.199,217.649 240.421,198.381 220.4,189.954 175.075,173.567 174.472,186.467 174.11,194.196 	
		"/>
	
		<polyline fill="none" stroke="#000000" stroke-width="3" stroke-linecap="round" stroke-linejoin="round" stroke-miterlimit="10" points="
		273.12,271.343 272.632,254.497 272.129,237.115 244.951,225.629 211.525,211.502 161.418,190.326 160.648,208 160.285,216.344 	
		"/>
	
		<polyline fill="none" stroke="#000000" stroke-width="5" stroke-linecap="round" stroke-linejoin="round" stroke-miterlimit="10" points="
		249.646,339.125 249.209,306.444 248.57,258.686 202.222,237.989 169.703,223.467 147.739,213.659 146.188,230.921 	"/>
	
		<polyline fill="none" stroke="#000000" stroke-width="3" stroke-linecap="round" stroke-linejoin="round" stroke-miterlimit="10" points="
		225.78,414.065 225.729,378.289 225.656,327.169 225.573,268.433 197.703,256.312 171.538,244.933 137.348,230.063 
		137.896,243.234 	"/>
	
		<line fill="none" stroke="#000000" stroke-width="3" stroke-linecap="round" stroke-linejoin="round" stroke-miterlimit="10" x1="298.98" y1="231.36" x2="289.11" y2="227.467"/>
	
		<line fill="none" stroke="#000000" stroke-width="3" stroke-linecap="round" stroke-linejoin="round" stroke-miterlimit="10" x1="185.265" y1="148.028" x2="131.085" y2="244.935"/>
	
		<line fill="none" stroke="#000000" stroke-width="3" stroke-linecap="round" stroke-linejoin="round" stroke-miterlimit="10" x1="288.289" y1="250.002" x2="273.12" y2="243.53"/>
	
		<polyline fill="none" stroke="#000000" stroke-width="5" stroke-linecap="round" stroke-linejoin="round" stroke-miterlimit="10" points="
		294.045,267.504 295.014,310.901 295.784,345.351 278.275,341.126 	"/>
	
		<polyline fill="none" stroke="#000000" stroke-width="3" stroke-linecap="round" stroke-linejoin="round" stroke-miterlimit="10" points="
		275.882,310.923 275.938,337.979 275.994,365.034 259.143,358.556 	"/>
	
		<line fill="none" stroke="#000000" stroke-width="3" stroke-linecap="round" stroke-linejoin="round" stroke-miterlimit="10" x1="273.12" y1="271.343" x2="248.594" y2="260.505"/>
	
		<line fill="none" stroke="#000000" stroke-width="3" stroke-linecap="round" stroke-linejoin="round" stroke-miterlimit="10" x1="247.695" y1="282.417" x2="226.737" y2="273.109"/>
	
		<line fill="none" stroke="#000000" stroke-width="3" stroke-linecap="round" stroke-linejoin="round" stroke-miterlimit="10" x1="224.201" y1="293.457" x2="208.043" y2="284.207"/>
	
		<line fill="none" stroke="#000000" stroke-width="3" stroke-linecap="round" stroke-linejoin="round" stroke-miterlimit="10" x1="310.139" y1="332.247" x2="247.695" y2="391.951"/>
	
		<line fill="none" stroke="#000000" stroke-width="3" stroke-linecap="round" stroke-linejoin="round" stroke-miterlimit="10" x1="311.283" y1="345.3" x2="240.423" y2="411.276"/>
	
		<polyline fill="none" stroke="#000000" stroke-width="5" stroke-linecap="round" stroke-linejoin="round" stroke-miterlimit="10" points="
		224.233,427.261 205.15,439.945 58.383,356.5 	"/>
	
		<polyline fill="none" stroke="#000000" stroke-width="3" stroke-linecap="round" stroke-linejoin="round" stroke-miterlimit="10" points="
		224.388,414.423 203.008,429.174 79.562,359.034 99.504,347.572 	"/>
	
		<line fill="none" stroke="#000000" stroke-width="3" stroke-linecap="round" stroke-linejoin="round" stroke-miterlimit="10" x1="80.225" y1="356.5" x2="79.211" y2="345.186"/>
	
		<polyline fill="none" stroke="#000000" stroke-width="5" stroke-linecap="round" stroke-linejoin="round" stroke-miterlimit="10" points="
		203.008,429.174 202.22,407.05 201.308,381.43 224.301,367.284 	"/>
	
		<line fill="none" stroke="#000000" stroke-width="3" stroke-linecap="round" stroke-linejoin="round" stroke-miterlimit="10" x1="208.043" y1="452.952" x2="205.15" y2="439.945"/>
</g>
</svg>
