<?xml version="1.0" encoding="iso-8859-1"?>
<!-- Generator: Adobe Illustrator 17.1.0, SVG Export Plug-In . SVG Version: 6.00 Build 0)  -->
<!DOCTYPE svg PUBLIC "-//W3C//DTD SVG 1.1//EN" "http://www.w3.org/Graphics/SVG/1.1/DTD/svg11.dtd">
<svg version="1.1" id="Capa_1" xmlns="http://www.w3.org/2000/svg" xmlns:xlink="http://www.w3.org/1999/xlink" x="0px" y="0px"
	 viewBox="0 0 507.544 507.544" style="enable-background:new 0 0 507.544 507.544;" xml:space="preserve">
<path d="M485.772,136h-5.208c-22.653-25.97-54.648-47.747-92.796-63.113c-32.643-13.15-69.15-21.286-106.876-23.932
	c3.087-4.92,4.88-10.73,4.88-16.955c0-17.645-14.355-32-32-32s-32,14.355-32,32c0,6.225,1.793,12.035,4.88,16.955
	c-37.726,2.646-74.233,10.782-106.876,23.932C81.628,88.253,49.633,110.03,26.98,136h-5.208c-4.418,0-8,3.582-8,8s3.582,8,8,8v16
	c0,22.056,17.944,40,40,40c13.071,0,24.696-6.303,32-16.028c7.304,9.725,18.929,16.028,32,16.028s24.696-6.303,32-16.028
	c7.304,9.725,18.929,16.028,32,16.028s24.696-6.303,32-16.028c5.781,7.697,14.27,13.25,24.04,15.23
	c-0.026,0.263-0.04,0.528-0.04,0.798v148.889c-11.031,12.525-18.766,29.953-22.123,49.263
	c-15.26-14.499-33.083-24.051-50.699-26.873c-2.141-0.343-4.329,0.198-6.064,1.498c-1.735,1.301-2.868,3.249-3.139,5.4
	c-1.578,12.511,0.146,26.284,4.743,39.943c-14.198-1.811-27.905-0.784-39.667,3.093c-2.059,0.679-3.754,2.164-4.698,4.116
	c-0.943,1.951-1.055,4.203-0.308,6.238c8.147,22.195,28.636,42.998,54.806,55.647c16.816,8.13,34.809,12.329,51.483,12.328
	c8.322,0,16.313-1.057,23.666-3.183c7.354,2.127,15.343,3.183,23.666,3.183c16.673,0,34.668-4.199,51.483-12.327
	c26.17-12.65,46.659-33.453,54.806-55.648c0.747-2.035,0.636-4.287-0.308-6.238c-0.944-1.952-2.639-3.438-4.698-4.116
	c-11.922-3.931-25.818-4.933-40.207-3.024c4.614-13.681,6.347-27.479,4.766-40.012c-0.271-2.151-1.404-4.1-3.139-5.4
	c-1.735-1.3-3.924-1.844-6.063-1.498c-17.347,2.779-35.071,12.213-50.255,26.474c-3.394-19.15-11.097-36.426-22.051-48.864V208
	c0-0.27-0.014-0.535-0.04-0.798c9.77-1.98,18.259-7.533,24.04-15.23c7.304,9.725,18.929,16.028,32,16.028s24.696-6.303,32-16.028
	c7.304,9.725,18.929,16.028,32,16.028s24.696-6.303,32-16.028c7.304,9.725,18.929,16.028,32,16.028c22.056,0,40-17.944,40-40v-16
	c4.418,0,8-3.582,8-8S490.19,136,485.772,136z M237.772,32c0-8.822,7.178-16,16-16s16,7.178,16,16s-7.178,16-16,16
	S237.772,40.822,237.772,32z M61.772,192c-13.233,0-24-10.767-24-24v-16h48v16C85.772,181.233,75.005,192,61.772,192z M125.772,192
	c-13.233,0-24-10.767-24-24v-16h48v16C149.772,181.233,139.005,192,125.772,192z M189.772,192c-13.233,0-24-10.767-24-24v-16h48v16
	C213.772,181.233,203.005,192,189.772,192z M221.776,427.577c0,0.141-0.004,0.282-0.004,0.423c0,19.164,4.267,37.644,11.884,52.884
	c-12.422-6.538-24.343-16.83-33.988-29.697c-12.75-17.01-20.077-36.576-20.486-53.997
	C194.268,402.007,209.582,412.874,221.776,427.577z M142.583,442.256c10.195-1.739,21.721-1.252,33.474,1.447
	c3.093,5.871,6.703,11.604,10.808,17.08c9.206,12.28,20.339,22.568,32.233,30.096c-11.037-1.371-22.515-4.753-33.512-10.068
	C166.444,471.559,150.948,457.545,142.583,442.256z M364.961,442.255c-8.365,15.289-23.862,29.304-43.004,38.557
	c-11.214,5.42-22.931,8.842-34.167,10.158c11.947-7.536,23.131-17.857,32.372-30.186c4.073-5.433,7.659-11.121,10.736-16.944
	C342.862,441.02,354.593,440.485,364.961,442.255z M327.847,397.17c-0.268,11.59-3.615,24.126-9.569,36.231
	c-0.057,0.115-0.116,0.229-0.168,0.347c-2.966,5.977-6.558,11.847-10.75,17.438c-9.464,12.625-21.117,22.773-33.287,29.327
	c7.501-15.168,11.699-33.505,11.699-52.513c0-0.347-0.008-0.692-0.011-1.039C298.003,412.386,312.93,401.879,327.847,397.17z
	 M253.772,483.501c-10.126-14.186-16-34.238-16-55.501s5.874-41.315,16-55.501c10.126,14.186,16,34.238,16,55.501
	S263.898,469.315,253.772,483.501z M253.772,192c-13.233,0-24-10.767-24-24v-16h48v16C277.772,181.233,267.005,192,253.772,192z
	 M317.772,192c-13.233,0-24-10.767-24-24v-16h48v16C341.772,181.233,331.005,192,317.772,192z M381.772,192
	c-13.233,0-24-10.767-24-24v-16h16c4.418,0,8-3.582,8-8s-3.582-8-8-8H49.02c46.077-44.76,122.574-72,204.752-72
	s158.675,27.24,204.752,72h-44.752c-4.418,0-8,3.582-8,8v24C405.772,181.233,395.005,192,381.772,192z M445.772,192
	c-13.233,0-24-10.767-24-24v-16h48v16C469.772,181.233,459.005,192,445.772,192z"/>
<g>
</g>
<g>
</g>
<g>
</g>
<g>
</g>
<g>
</g>
<g>
</g>
<g>
</g>
<g>
</g>
<g>
</g>
<g>
</g>
<g>
</g>
<g>
</g>
<g>
</g>
<g>
</g>
<g>
</g>
</svg>
