<?xml version="1.0" encoding="utf-8"?>

<!DOCTYPE svg PUBLIC "-//W3C//DTD SVG 1.1//EN" "http://www.w3.org/Graphics/SVG/1.1/DTD/svg11.dtd">
<svg version="1.1" id="Layer_1" xmlns="http://www.w3.org/2000/svg" xmlns:xlink="http://www.w3.org/1999/xlink" x="0px" y="0px"
	 viewBox="0 0 1061.744 1716.634" enable-background="new 0 0 1061.744 1716.634" xml:space="preserve">
<g>
	<path fill="#020202" d="M960.727,704.238c1.874-18.433,68.534-284.619-70.584-480.787
		C802.461,100.958,662.114,58.824,510.88,61.277c-7.895-0.068-15.781,0.532-23.672,0.518
		C871.19,21.554,1062.405,333.152,960.727,704.238z"/>
	<path fill="#020202" d="M363.491,89.843c1.615-0.405,3.211-0.96,4.894-1.051C95.228,178.365,39.595,437.595,117.444,710.519
		c1.776-20.019,6.53-43.562,26.473-46.875c-2.647-10.538-5.662-20.998-7.527-31.713c-17.178-98.565,2.858-256.623,15.163-299.084
		c-0.036,1-5.363,62.672-5.767,87.147c15.77-82.932,107.199-253.08,213.02-282.161c-4.14,2.178-52.548,17.287-110.128,93.978
		c-71.854,92.59-104.687,226.059-104.72,254.924c0,103.484,5.158,166.369,6.172,176.463c5.039,0.109,9.992,1.173,14.826,2.529
		c-4.884-0.177-9.778-0.687-14.653-0.064c0.314,7.259,1.273,14.503,1.146,21.771c-0.364-1.469-0.819-2.911-1.232-4.357
		c0.114-0.427,0.473-0.891,0.25-1.323c-0.418-0.164-1.028-0.273-1.028-0.85c-1.487-4.698-3.038-9.373-4.58-14.048
		c-26.27,8.24-21.501,58.917-8.068,141.367c11.271,68.16,24.919,137.445,57.886,107.353c-7.915-38.78-9.99-75.202-9.66-77.887
		c14.354,214.567,197.27,482.319,359.517,483.811c168.762-0.027,368.296-273.317,349.643-563.672
		c-0.136-2.77-0.514-5.548-0.182-8.318c0.894,14.774,12.795,99.295-13.721,210.177c-8.896,37.116-20.993,73.485-36.379,108.422
		c-60.488,138.002-53.458,45.408-62.097,180.411c-8.585,136.304-4.066,333.559,112.433,403.922c3.243,2.197,6.917,3.67,10.151,5.876
		c-150.805-57.393-152.703-334.308-116.981-488.473c-132.608,193.422-301.43,226.741-463.477,24.722
		c32.017,159.748,30.635,434.654-128.124,420.245c152.066-7.356,142.551-269.3,126.541-421.964
		c-4.502-7.479-94.657-111.074-127.569-276.599c-25.597,29.821-46-12.074-56.872-49.768
		c-23.56-83.663-16.844-137.325-24.618-161.828C26.052,448.315,85.945,159.995,363.491,89.843 M138.601,611.252
		c0.056,10.953,6.901,51.193,7.904,52.383C146.37,662.634,138.322,616.248,138.601,611.252z"/>
	<path fill="#020202" d="M634.71,152.563c5.197,0.069,21.079-1.034,33.523-0.346c151.815,5.739,262.313,109.257,292.067,237.187
		c0.132,0.609,0.291,1.237,0.214,1.874C872.058,149.292,644.768,156.471,634.71,152.563z"/>
	<path fill="#020202" d="M735.896,264.142c83.765-12.954,202.086,135.355,175.718,303.632c-1.36-9.927,5.395-112.991-54.548-212.087
		C815.384,288.578,769.49,266.41,735.896,264.142z"/>
	<path fill="#020202" d="M781.426,343.53c115.112,29.82,68.645,277.65,129.897,408.798c-1.002-0.967-30.199-38.583-45.375-150.126
		c-13.37-95.532-12.514-196.651-58.077-241.026C795.118,348.642,783.052,344.757,781.426,343.53z"/>
	<path fill="#020202" d="M561.721,351.125c0.155-0.127,0.459-0.382,0.614-0.509c-57.364,98.056-390.879,217.803-385.758,422.628
		c12.283-16.322,59.559-135.517,246.369-216.635c159.696-69.761,311.092-71.526,338.383-205.024
		c-0.036,3.866-0.855,7.7-1.555,11.497c-37.278,198.006-401.546,113.983-583.538,411.577c0,0-1.309-35.256-0.368-49.631
		c8.257-197.281,138.48-329.945,208.622-356.106c-122.77,72.705-195.185,250.085-202.346,343.499
		C227.137,526.245,499.241,435.241,561.721,351.125z"/>
	<path fill="#020202" d="M917.763,621.271c2.633,11.524,3.747,23.344,4.707,35.114c29.923-6.814,33.911,20.523,35.751,68.637
		c3.885,170.347-36.209,207.417-61.97,171.643c10.927,8.589,25.217,18.531,36.838-14.135c15.793-44.797,16.19-158.082,15.14-189.27
		c-1.69-32.392-8.755-35.96-25.696-35.637c2.754,41.983-0.744,77.897-4.748,95.288C911.058,725.446,909.298,661.03,917.763,621.271z
		"/>
	<path fill="#020202" d="M800.117,680.011c4.496,0.048,20.012,6.257,32.427,9.264c-33.027,6.809-58.047-3.734-96.593-4.825
		c-21.639-0.816-62.081,18.574-81.835,28.379c-15.269,7.668-14.749,8.545-44.415,16.996c17.297-16.544,27.292-21.913,48.967-32.054
		C726.165,665.973,729.705,670.864,800.117,680.011z"/>
	<path fill="#020202" d="M425.72,719.196c5.225,2.832,13.137,4.903,34.218,24.85c-9.728-2.852-19.406-5.899-29.025-9.096
		c-82.453-45.225-97.48-38.831-162.956-28.825c-6.894-0.234-23.904-0.818-30.571-2.715
		C331.819,678.14,350.286,681.439,425.72,719.196z"/>
	<path fill="#020202" d="M699.259,746.42c-15.186,15.148-41.083,30.783-48.435,37.184
		C650.73,766.784,677.778,744.352,699.259,746.42z"/>
	<path fill="#020202" d="M391.738,748.385c22.39-1.538,48.247,20.876,48.262,37.243c-9.541-7.77-30.3-20.035-48.099-36.706
		C391.861,748.785,391.779,748.517,391.738,748.385z"/>
	<path fill="#020202" d="M836.242,781.73c1.723,4.658-7.156,14.943-14.012,20.502c-24.836,20.35-79.969,34.724-93.2,36.029
		c15.517-6.677,78.458-28.396,94.797-52.788c-33.273-20.16-70.775-26.354-77.474-25.268c6.408,2.515,11.984,7.245,15.24,13.339
		c15.782,28.675-22.286,60.39-45.711,44.792c35.973-4.228,50.989-34.255,26.733-58.213c-2.58-0.983-17.001,0.702-18.533,0.578
		c16.712,3.482,21.41,17.641,19.165,27.588c-3.578,17.496-25.99,24.032-38.457,11.142c-10.93-10.792-7.232-29.64,4.598-35.415
		c-0.532,0-0.973-0.273-1.433-0.446l0.855,0.505c-34.953,10.122-54.39,35.835-57.722,38.011
		C709.703,705.475,832.896,770.916,836.242,781.73z"/>
	<path fill="#020202" d="M438.031,801.486c0.637,1.037,1.56,1.942,1.883,3.152c-19.942-21.922-38.098-32.457-58.218-38.598
		c7.263,4.311,11.634,12.948,10.81,21.352c-1.269,18.114-22.967,27.184-36.815,15.94c-15.913-12.233-8.417-37.991,10.601-40.267
		c-4.652-0.891-16.035-1.568-18.032-0.932c-24.732,24.689-8.371,54.272,26.683,58.213c-2.961,1.919-6.54,2.742-9.996,3.297
		c-36.555,5.044-56.23-47.139-20.047-61.592c-29.475,2.363-57.697,12.973-77.938,25.487c15.109,22.353,70.099,43.091,95.315,52.924
		c-80.194-13.228-118.413-52.244-105.289-59.591C317.584,739.888,396.335,737.839,438.031,801.486z"/>
	<path fill="#020202" d="M492.67,987.878c6.287,1.617,16.969,1.259,27.242,10.06c3.612,3.009,3.495,10.156-11.074,12.889
		c-16.768,2.499-27.167-13.283-26.455-19.683C483.282,984.831,488.902,987.22,492.67,987.878z"/>
	<path fill="#020202" d="M599.309,987.746c3.634,3.174,0.93,9.249-2.415,13.439c-14.308,17.364-32.764,7.501-34.732,3.534
		C555.7,992.731,596.18,985.101,599.309,987.746z"/>
	<path fill="#020202" d="M658.741,1115.628c2.269,1.855,4.757,3.502,6.795,5.626c-38.346-22.102-53.447-29.363-73.299-29.684
		c-30.053-0.74-34.344,25.901-70.929,8.696c-48.002-23.44-80.303,23.274-106.053,21.139c14.437-2.681,28.555-18.331,44.847-28.283
		c10.104-6.236,35.425-14.235,58.486-6.317c9.716,3.197,16.723,9.109,25.641,7.622
		C571.759,1091.089,583.369,1057.876,658.741,1115.628z"/>
	<path fill="#020202" d="M459.702,1126.88c59.971-9.006,146.403-5.878,179.533,0.077
		C598.702,1134.1,483.58,1135.138,459.702,1126.88z"/>
	<path fill="#020202" d="M632.677,1145.244c-24.098,47.263-155.034,44.291-167.69,6.358
		C485.289,1176.497,600.463,1175.784,632.677,1145.244z"/>
</g>
</svg>
