<?xml version="1.0" encoding="utf-8"?>

<!DOCTYPE svg PUBLIC "-//W3C//DTD SVG 1.1//EN" "http://www.w3.org/Graphics/SVG/1.1/DTD/svg11.dtd">
<svg version="1.1" id="Layer_1" xmlns="http://www.w3.org/2000/svg" xmlns:xlink="http://www.w3.org/1999/xlink" x="0px" y="0px"
	 viewBox="0 0 1830 3041" enable-background="new 0 0 1830 3041" xml:space="preserve">
<g>
	<path fill="none" stroke="#000000" stroke-width="5" stroke-linecap="round" stroke-linejoin="round" stroke-miterlimit="10" d="
		M604,700c5.2688,8.6513-2.3064,14.9265-5.3844,20.7985c-21.0192,40.0996-46.989,76.8005-76.2896,111.4769
		c-21.3778,25.2998-43.6264,49.7504-66.5996,73.4594C436.39,925.6905,414.57,943.2276,394.022,962.024
		c-33.1499,30.324-66.1599,60.8572-102.1473,87.8086c-20.1625,15.0999-40.8099,29.791-58.5537,47.4891
		c-19.3733,19.3235-32.7664,43.1483-43.55,68.5812c-12.6492,29.8329-19.704,61.2493-28.6455,92.1334
		c-4.7135,16.2804-6.2793,33.2747-8.9959,49.9847c-1.354,8.328-4.4243,16.385-4.1295,24.9789"/>
	<path fill="none" stroke="#000000" stroke-width="5" stroke-linecap="round" stroke-linejoin="round" stroke-miterlimit="10" d="
		M1761,2606c5.1475-0.2949,8.666,3.0608,11.9138,6.0923c7.2098,6.7297,16.1138,10.0354,25.1334,12.7507
		c8.8062,2.6514,14.6257-3.7661,12.4464-12.8416c-3.9036-16.2556-13.2589-29.9585-21.6893-43.8831
		c-14.1693-23.4033-28.4001-46.8679-45.8813-68.0549c-4.0507-4.9094-2.6483-10.259-1.7413-15.0291
		c9.4011-49.4426,8.9655-98.291-4.8898-147.1172c-6.6351-23.3828-13.3958-46.2388-28.1931-65.9912
		c-3.0331-4.0486-6.296-7.9812-10.1973-10.7893c-27.7983-20.0093-55.4396-40.6289-90.9139-45.0369
		c-10.5103-1.3064-20.9757,1.5269-30.926,4.135c-52.9421,13.8782-101.3416,37.4678-143.8959,71.9695
		c-17.4065,14.1125-28.5054,33.9199-40.0842,52.8455c-21.2124,34.6714-36.1405,72.2842-51.3824,109.8281
		c-8.6249,21.2449-19.299,41.4863-25.0729,64.0264c-4.5011,17.5723-8.9408,34.8225-9.8816,53.0825
		C1305.037,2585.7202,1302,2599.3333,1300,2613"/>
	<path fill="none" stroke="#000000" stroke-width="5" stroke-linecap="round" stroke-linejoin="round" stroke-miterlimit="10" d="
		M1265,2874c1.7805-1.325,3.8851-2.093,5.9962-1.946c16.7507,1.168,33.3302-1.6572,49.9902-2.3704
		c25.5829-1.0947,51.1635-4.1902,75.9169-11.0332c7.234-2.0002,13.9376-7.3892,18.1191-14.6375
		c4.536-7.8625,1.7828-14.7156-3.0704-20.9758c-13.657-17.6157-32.995-27.4717-51.887-38.1523
		c-35.0541-19.8179-73.679-31.843-109.1028-50.8145c-11.2081-6.0032-22.5723-11.6174-33.0386-18.9617
		c-5.8289-4.0906-11.3969-8.5847-18.8578-10.3823c-5.7183-1.3774-7.4481-7.5288-10.574-12.4004
		c-6.6729-10.3987-16.0325-19.1091-24.5215-28.2986c-12.7988-13.8552-26.5421-26.7825-39.3669-40.6609
		c-10.5714-11.4402-25.6418-18.3213-39.7269-25.1104c-29.839-14.3835-61.7803-21.3455-94.8719-23.3342
		c-18.3446-1.1028-36.4968-4.0798-55.0042-4.1243c-35.0073-0.0845-69.2554,5.2537-100.7584,19.7292
		c-29.1747,13.4055-58.1231,27.8787-85.2594,45.4465c-23.6671,15.3215-48.0667,29.4978-68.0494,49.9614
		c-39.761,40.7185-75.0378,85.0195-106.9044,132.0847c-21.4067,31.6169-44.1612,62.3633-63.8867,95.0662
		c-20.9674,34.7625-40.7754,70.2205-60.2174,105.8733c-4.1519,7.6143-9.8853,14.4041-13.6489,22.1746
		c-1.7697,3.6543-3.7849,0.761-5.276,1.8665"/>
	<path fill="none" stroke="#000000" stroke-width="5" stroke-linecap="round" stroke-linejoin="round" stroke-miterlimit="10" d="
		M1068,1297c10.9669,28.1876,28.0293,48.9613,59.9319,55.3408c21.5974,4.3187,42.8727,9.7976,65.0676,9.5991
		c1.9054-0.017,2.7094,1.2639,4.0338,2c23.9674,13.3188,44.6805,30.8693,63.8563,50.1697
		c14.4003,14.4938,29.3333,28.2191,46.113,39.8866c7.8081,5.4291,16.14,8.8298,26.0038,8.0897
		c9.7161-0.7289,18.3489-11.0797,14.7651-19.9941c-4.2593-10.5956-7.1145-21.6223-11.5826-32.1719
		c-13.7126-32.3766-19.6492-67.037-28.0048-100.9653c-0.8193-3.3271-1.3871-6.9978-0.5057-11.0249
		c1.2152-5.5522-0.9196-10.6403-4.1266-16.2455c-4.7823-8.3585-6.5599-18.5745-10.5223-27.697
		c-10.348-23.8243-21.5316-46.7286-39.6416-66.3453c-14.4863-15.6914-32.2065-22.6021-51.3483-28.7649
		c-23.6038-7.5992-47.7864-7.5101-72.0371-6.7896c-19.4785,0.5787-37.1244,7.8604-53.9716,16.97
		c-26.2343,14.1853-51.1089,30.9447-71.6471,52.3116c-21.9378,22.8231-35.5789,51.4515-45.3725,81.6346
		c-3.5477,10.9336-8.6464,21.29-10.3994,32.938c-0.6189,4.1123-2.5917,9.6274-7.6121,12.0583"/>
	<path fill="none" stroke="#000000" stroke-width="5" stroke-linecap="round" stroke-linejoin="round" stroke-miterlimit="10" d="
		M110,1446c-1.287-7.4991,2.8775-13.9569,4.1924-20.9639c4.1601-22.1703,6.4947-44.7222,14.5631-66.1283
		c2.7929-7.4099,7.1333-13.8195,10.581-20.7402c1.7001-3.413,7.4331-6.2136,11.5571-3.0297
		c14.5649,11.2451,32.4767,13.7458,49.2405,18.3767c14.0559,3.8827,27.6423,9.2549,41.8625,12.5005
		c22.2485,5.0779,44.1866,11.249,66.9662,14.2664c24.924,3.3014,49.733,8.1917,73.9626,14.9851
		c13.5796,3.8075,27.4532,5.7463,41.1495,8.3381c17.7701,3.3629,35.5485,7.7985,53.927,7.5088
		c4.2163-0.0664,8.3397,0.2919,11.9673-2.1593c1.6403-1.1085,2.9898-2.6514,5.0264-0.9489
		c7.211,6.0284,15.6733,2.8296,22.9544,1.6779c39.2657-6.2117,78.0599-14.5474,116.1223-26.4524
		c26.1506-8.1794,50.446-20.6091,75.9321-30.2194c46.1577-17.405,89.5633-41.2388,135.9675-58.0889
		c11.6946-4.2466,23.5867-7.8998,35.0991-12.7543c12.1211-5.1111,24.6818,2.9845,27.9401,16.8291
		c3.6174,15.3706,9.2018,29.3031,22.8012,39.2589c5.7747,4.2277,8.6385,11.3593,11.7386,18.5046
		c7.6259,17.5769,14.5462,35.5106,20.9014,53.4332c6.2607,17.656,8.5247,36.9221,9.2401,55.8174
		c0.4286,11.3234-7.331,17.604-17.4605,23.394c-24.7643,14.1545-49.7034,27.9242-75.2752,40.5062
		c-23.249,11.439-47.6293,20.201-71.9224,29.1807c-38.6108,14.2717-76.7945,29.6643-115.0829,44.7842
		c-33.4457,13.2076-68.047,22.1105-103.9311,26.2963c-29.6337,3.4569-59.0952,8.406-89.021,8.7632
		c-1.8954,0.0226-2.9327,0.8635-3.9992,2.0638"/>
	<path fill="none" stroke="#000000" stroke-width="5" stroke-linecap="round" stroke-linejoin="round" stroke-miterlimit="10" d="
		M404,1780c1.1545,21.1597-3.9095,41.5511-8.1073,61.9779c-5.909,28.7539-11.8262,57.5431-19.0989,85.9694
		c-7.277,28.4431-12.6032,57.3153-17.2362,86.1423c-4.856,30.2142-9.398,60.5525-13.7457,90.8835
		c-2.7885,19.4534-6.222,38.8447-10.6602,58.062c-5.1172,22.157-8.1629,44.7471-12.9718,67.0037
		c-3.4503,15.9685-7.1931,31.8843-10.4574,47.9045c-3.6015,17.6758-6.3001,35.5247-10.5446,53.0996
		c-4.4618,18.4749-7.524,37.2878-11.1751,55.9575c-5.3449,27.3311-9.9813,54.825-16.2363,81.9456
		c-4.4315,19.2144-4.9184,38.9048-9.2274,58.1746c-2.7722,12.397-1.3018,25.9106-2.5476,38.8787
		c-3.7318,38.8442-1.1495,77.354,3.5259,116.0591c2.8457,23.5581,5.3293,47.2573,7.4825,70.9417"/>
	<path fill="none" stroke="#000000" stroke-width="5" stroke-linecap="round" stroke-linejoin="round" stroke-miterlimit="10" d="
		M602,306c1.7708-18.1177,10.1064-34.1726,15.9531-51.0163c2.3616-6.8035,6.7689-13.1899,5.0291-20.9797
		c-0.4921-2.2033,0.9706-3.8065,2.1004-4.9203c8.2462-8.1304,11.4146-18.8836,16.262-28.9172
		c3.924-8.1223,7.947-16.415,12.7494-24.1078c22.0491-35.3195,48.7637-66.648,81.9711-91.9733
		c22.4245-17.1019,48.6647-26.6286,74.8965-36.1906c35.003-12.7592,71.0295-20.5405,108.0433-23.8399
		c30.6038-2.728,61.3156-4.6749,91.9779-1.867c19.3298,1.7701,38.715,2.9928,57.9929,5.0412
		c23.4429,2.491,45.877,9.8666,68.0115,17.8069c38.4978,13.8102,68.7217,39.5423,97.0035,67.9734
		c17.1572,17.2479,34.9738,33.8879,49.0305,53.9758c18.2233,26.0419,33.6244,53.7284,47.9147,82.0472
		c5.4398,10.7803,11.5562,21.1702,15.5319,32.8079c1.8489,5.4126,1.6868,10.0503,1.5322,15.1598"/>
	<path fill="none" stroke="#000000" stroke-width="5" stroke-linecap="round" stroke-linejoin="round" stroke-miterlimit="10" d="
		M713,1518.9999c-15.3333,1-30.6541,2.4663-46.0032,2.8804c-18.6531,0.5034-37.3331,0.3326-55.9961,0.0706
		c-29.0576-0.408-58.1244,0.0988-86.9731,3.2976c-20.7686,2.3027-41.516,5.0796-62.0923,9.4465
		c-25.173,5.3423-50.5297,10.3835-75.9915,13.8975C361.893,1551.9115,337.486,1555.9042,313,1551"/>
	<path fill="none" stroke="#000000" stroke-width="5" stroke-linecap="round" stroke-linejoin="round" stroke-miterlimit="10" d="
		M1372,401c6.0332,7.6308,7.489,17.0817,7.7045,26.0071c0.4816,19.9425-2.9154,39.5374-7.5305,59.0341
		c-7.2648,30.6909-20.7845,58.7784-34.2384,86.928c-9.134,19.1111-20.9894,36.7473-30.1655,55.9207
		c-11.6913,24.4282-19.374,49.9822-25.821,76.0975c-6.8372,27.6945-6.4895,55.8299-5.9805,84.0132
		c0.0348,1.925,0.0862,4.2071-2.9685,3.9995"/>
	<path fill="none" stroke="#000000" stroke-width="5" stroke-linecap="round" stroke-linejoin="round" stroke-miterlimit="10" d="
		M1522,2434c-30.5177,22.5195-48.0107,54.5886-62.7517,88.1091c-12.6348,28.731-19.4857,59.394-17.9161,90.8743
		c1.3285,26.6428,5.5273,53.1194,12.598,79.0356c6.6333,24.3127,12.6956,48.6426,15.4683,73.9373
		c3.1117,28.3877,5.0044,56.6973,2.4098,85.0261c-4.1993,45.8479-15.5055,89.6663-40.6968,129.0889
		C1425.0277,2989.5918,1420.3334,3000,1415,3010"/>
	<path fill="none" stroke="#000000" stroke-width="5" stroke-linecap="round" stroke-linejoin="round" stroke-miterlimit="10" d="
		M745,1422c-15.2546-1.3627-29.5708,3.5175-43.9722,7.1115c-46.2105,11.5327-92.4958,22.7456-139.0444,32.812
		c-33.8991,7.3306-68.439,9.2035-102.9756,11.2119c-24.7829,1.4412-49.395,0.5155-74.0076-2.1378
		c-2.1409-0.2308-4.2197-0.6725-6.0003-1.9976"/>
	<path fill="none" stroke="#000000" stroke-width="5" stroke-linecap="round" stroke-linejoin="round" stroke-miterlimit="10" d="
		M1122,965c-9.5044,13.1311-9.7595,29.414-14.7759,44.0767c-12.2473,35.7988-41.9623,48.7392-78.2036,39.84
		c-18.4135-4.5215-36.4475-10.7585-52.8834-20.1565c-14.194-8.1159-25.4175-20.516-38.2504-30.6163
		c-25.8901-20.3768-47.9479-44.7568-71.6523-67.3895C857.7735,922.6762,848.9689,919.5034,838,920"/>
	<path fill="none" stroke="#000000" stroke-width="5" stroke-linecap="round" stroke-linejoin="round" stroke-miterlimit="10" d="
		M969,1484c5.2671,12.3334,1.5461,24.9377-0.378,36.9395c-3.2671,20.3778-5.9908,40.8861-10.5328,61.0806
		c-5.1245,22.7847-7.4572,46.0793-11.6403,69.0616c-2.8682,15.7578-5.075,31.813-6.8079,47.8796
		c-2.8036,25.993-5.0963,52.0441-7.3632,78.0629c-3.2421,37.2118-4.1115,74.7216-1.8682,111.9512
		c2.677,44.4282,9.6292,88.3187,23.1738,131.1564c6.7775,21.4349,13.0412,42.9943,21.4551,63.8527
		c5.4269,13.4536-2.7968,29.4929-17.0266,33.0632c-7.9858,2.0039-16.0042,0.8047-24.012,0.9524"/>
	<path fill="none" stroke="#000000" stroke-width="5" stroke-linecap="round" stroke-linejoin="round" stroke-miterlimit="10" d="
		M251,1427c-26.3161,6.1158-52.9313,8.8048-79.9938,9.3242c-18.1907,0.349-36.4037,2.7157-54.0896,8.4171
		c-8.9024,2.8699-14.4129,8.3864-16.7219,16.3154c-7.6924,26.416-14.3777,53.1836-14.0413,80.9414
		c0.2143,17.6888,8.6123,30.7797,24.7941,39.1038c23.3908,12.0325,49.154,15.9979,74.0684,22.84
		c18.7398,5.1462,37.4657,10.1953,56.9615,12.2697c15.1126,1.608,30.086,4.8109,45.008,7.8596
		c23.8048,4.8639,48.0155,6.7598,72.0576,9.5585c16.1368,1.8787,32.6281,1.6719,48.9615,2.2369
		c19.7782,0.684,39.3556,3.1123,59.0114,4.9628c7.5682,0.7125,15.315-0.6079,22.9852-0.7672
		c2.6093-0.0542,6.0981-1.4052,6.9987,2.9379"/>
	<path fill="none" stroke="#000000" stroke-width="5" stroke-linecap="round" stroke-linejoin="round" stroke-miterlimit="10" d="
		M1208,480c-2.1271,8.6438-8.1799,15.2349-12.0914,22.9537c-3.3705,6.651-10.2947,11.5364-9.8822,20.045
		c0.079,1.6284-1.1663,2.247-2.0557,2.965c-40.7477,32.8927-75.421,72.1019-110.4611,110.5014
		c-44.4323,48.6923-89.3507,97.4147-123.7626,154.3821C947.0408,795.327,943.8607,801.3202,937,802"/>
	<path fill="none" stroke="#000000" stroke-width="5" stroke-linecap="round" stroke-linejoin="round" stroke-miterlimit="10" d="
		M875,2231c14.0273,39.0457,23.7163,79.1602,31.2154,119.9604c6.2847,34.1926,15.0749,67.9221,21.5159,102.0901
		c3.1198,16.5498,6.8826,33.0669,8.3651,49.9409c0.4339,4.9385,0.6419,10.2686,4.9036,14.0085"/>
	<path fill="none" stroke="#000000" stroke-width="5" stroke-linecap="round" stroke-linejoin="round" stroke-miterlimit="10" d="
		M109,1749c-5.8723,8.0825-4.6091,18.0229-6.8564,27.0358c-8.7527,35.1022-11.6754,71.1366-14.7815,106.9956
		c-1.9879,22.9493-3.2219,46.0835-5.8462,68.913c-3.2172,27.9877-3.2286,56.176-7.2676,84.0916
		c-2.5775,17.8145-3.5521,36.0171-3.859,53.9707c-0.5358,31.3418-1.141,62.679-2.4799,93.9895
		c-1.2409,29.0183-3.295,58.001-4.8949,87.0046c-1.6907,30.6492-0.8932,61.3306-0.999,91.9993
		c-0.0782,22.6665,0.2073,45.3359-0.072,67.9993c-0.3455,28.0388-2.4001,56.054-4.4479,83.9636
		c-1.814,24.7234-6.5346,49.3948-8.9381,74.0913c-2.3906,24.5635-6.7474,48.7542-11.1003,72.8477
		c-3.6139,20.0027-5.8855,40.2874-10.7075,60.0369c-1.3108,5.3689,1.7648,11.387-2.7495,16.0613"/>
	<path fill="none" stroke="#000000" stroke-width="5" stroke-linecap="round" stroke-linejoin="round" stroke-miterlimit="10" d="
		M494,2204c-13.2382,35.7251-19.5222,73.2856-28.9142,110.022c-6.4474,25.2188-12.8611,50.4922-17.8871,76.0171
		c-6.1116,31.0386-11.0746,62.2871-13.418,93.9448c-1.2592,17.0103-3.6984,33.9395-5.0664,50.9932
		c-1.5775,19.6655-1.4191,39.5337-4.0708,58.9744c-4.8092,35.2581-5.3457,70.6423-6.6912,106.0469
		c-1.2667,33.3301-1.7458,66.6975-0.5774,99.9885c0.5963,16.9885,2.5916,34.0999,5.3327,51.0605
		c1.7071,10.5623-2.21,21.9321,4.2924,31.9526"/>
	<path fill="none" stroke="#000000" stroke-width="5" stroke-linecap="round" stroke-linejoin="round" stroke-miterlimit="10" d="
		M1189,2700c-28.4996,10.9768-52.7943,28.4807-74.941,49.0635c-20.3757,18.9365-41.5398,37.1792-58.9257,59.0425
		c-7.2371,9.1011-14.4938,18.7773-17.9094,29.9624c-6.0361,19.7671,2.6527,36.2329,14.9138,50.8159
		c7.6735,9.1262,17.9932,15.3845,27.7273,22.3057c15.939,11.3328,31.5327,23.0674,49.1263,31.8276
		c31.5292,15.6992,62.9867,31.5566,96.0173,43.9592c19.5842,7.3542,39.4362,13.939,60.0052,17.9517
		c11.652,2.2729,23.5295,2.0901,34.9454-1.0752c12.0524-3.3425,18.6501-20.1274,13.0029-31.835
		c-8.0334-16.6548-19.3457-31.3298-28.819-47.1045c-11.2552-18.7415-27.9753-32.9966-40.17-50.8955
		c-2.3508-3.4504-6.7365-3.8914-9.9678-3.8074c-31.1165,0.8076-61.9177-4.6887-93.0067-4.3059
		c-11.1929,0.1375-20.1565,4.418-24.7479,14.2126c-4.9923,10.6499-0.6245,20.4614,6.759,28.8735
		c13.8811,15.8147,30.4028,28.3235,49.0216,37.9478c19.95,10.3127,40.2241,20.196,62.0292,25.8259
		c12.3031,3.1765,24.578,8.3252,37.9567,5.3123c7.2869-1.6411,12.4196-4.6482,11.9827-13.0771"/>
	<path fill="none" stroke="#000000" stroke-width="5" stroke-linecap="round" stroke-linejoin="round" stroke-miterlimit="10" d="
		M1024,2475c-9.0131-36.7305-22.2609-72.1321-34.0846-107.9722c-11.0807-33.5874-22.581-67.019-37.7549-99.1038
		c-7.219-15.2644-17.4076-28.9419-23.3086-44.8691C928.691,2222.6204,926.3333,2223,925,2223"/>
	<path fill="none" stroke="#000000" stroke-width="5" stroke-linecap="round" stroke-linejoin="round" stroke-miterlimit="10" d="
		M1091,303c-6.6757,0.5225-11.6793,3.9946-17.1862,7.7252c-13.015,8.8168-28.2856,12.7045-43.8186,13.0758
		c-28.9835,0.6927-57.9962,0.3392-86.9949,0.1496c-19.2529-0.1259-38.1121,3.2815-56.9777,6.1957
		c-28.7529,4.4415-57.4348,9.4455-86.0015,14.9627c-31.7587,6.1337-63.4225,4.8281-95.0001-0.2399
		c-26.4529-4.2455-50.8549-14.53-74.0447-27.8279c-8.3434-4.7845-17.6821-6.9495-26.9836-9.0083
		c-4.4959-0.9952-18.9789,8.4152-22.0052,13.9602c-3.7264,6.828-9.1985,12.5889-12.0214,19.9939
		c-2.4666,6.4702-9.541,5.2194-14.0963,6.5756C536.0599,354.4603,522.3397,368.8119,507,381"/>
	<path fill="none" stroke="#000000" stroke-width="5" stroke-linecap="round" stroke-linejoin="round" stroke-miterlimit="10" d="
		M629,2219c-7.7898,28.5498-16.1259,56.9092-22.4193,85.9089c-4.907,22.6111-8.6038,45.3611-12.5185,68.1018
		c-5.0109,29.1096-6.7405,58.5898-9.0212,87.9924c-1.9365,24.9658,0.0485,50.0342-1.2054,74.9885
		c-2.1633,43.0537,1.2155,86.0042,1.4827,129.0063c0.1202,19.345,3.7083,38.666,5.6215,58.0078
		c0.1274,1.2878-0.6065,2.6609-0.9399,3.9941"/>
	<path fill="none" stroke="#000000" stroke-width="5" stroke-linecap="round" stroke-linejoin="round" stroke-miterlimit="10" d="
		M758,2825c1.2891,3.5222,2.3956,6.989,4.9244,10.0623c13.775,16.7405,26.193,34.5154,39.1584,51.876
		c15.5106,20.769,36.5586,32.24,61.8193,38.4592c23.2384,5.7219,46.5967,10.8101,70.1536,14.217
		c21.3844,3.0928,43.2307,3.0774,64.9451,2.4128c16.4083-0.5017,32.6123-3.1873,48.9814-4.29
		c16.1837-1.0903,32.6833-2.5188,47.0177-11.7373"/>
	<path fill="none" stroke="#000000" stroke-width="5" stroke-linecap="round" stroke-linejoin="round" stroke-miterlimit="10" d="
		M830,773c-6.506,19.6873-11.7296,39.7232-15.9692,60.0064c-4.7509,22.7292,0.1079,44.0153,11.1425,63.8974
		c3.6946,6.6568,5.7804,14.1403,10.7408,20.1669c2.0113,2.4435,1.4192,5.9651,1.012,8.9191
		c-2.1512,15.6066-4.0316,31.1907-12.807,45.0854c-7.8566,12.4401-11.6558,26.6433-14.5471,40.9393
		c-4.3456,21.4863-6.3135,43.1636-2.5479,64.9813c5.1077,29.593,13.6116,58.3354,25.2097,85.9059
		c13.6994,32.5662,26.9337,65.4672,46.6432,95.1799c4.1178,6.2079,7.641,13.0861,8.1231,20.9183"/>
	<path fill="none" stroke="#000000" stroke-width="5" stroke-linecap="round" stroke-linejoin="round" stroke-miterlimit="10" d="
		M1085,1329c-20.4431,16.0536-28.7881,38.1891-33.1921,62.9658c-5.1685,29.077,2.2383,55.1299,16.2262,80.015
		c10.9221,19.4313,27.9906,32.6644,45.9189,45.087c11.7233,8.1229,25.9155,12.8131,34.4374,25.6735
		c1.4822,2.2366,6.5825,5.387,10.595,5.072c7.2324-0.568,13.9926,2.8596,21.0026,2.078
		c13.5912-1.5155,26.6068,2.7539,39.9948,3.4452c9.6904,0.5005,19.2341-1.37,29.066,0.3916
		c16.4645,2.9504,29.1036,10.1647,37.061,25.2137c1.7751,3.3574,3.1046,7.3079,1.6633,9.9335
		c-5.5552,10.1195-1.2814,17.8364,4.078,26.2198c5.6447,8.83,8.5717,18.6318,3.1063,28.8821
		c-2.3441,4.3965-1.6912,7.1584,1.8318,11.2062c9.5946,11.0236,9.4619,26.8224,0.0756,38.7097
		c-3.673,4.6517-2.5612,7.9877,0.0911,12.1351c3.8845,6.0741,8.4824,11.1952,7.3989,20.0153
		c-2.1216,17.271-5.5247,22.7281-22.3177,28.0726c-0.9923,0.3159-1.91,0.9313-3.037,0.8838"/>
	<path fill="none" stroke="#000000" stroke-width="5" stroke-linecap="round" stroke-linejoin="round" stroke-miterlimit="10" d="
		M929,45c-38.5924,16.3519-73.1111,39.0343-106.269,64.6517c-31.3065,24.187-57.6157,53.0526-84.845,81.2381
		C728.4235,200.6847,722.5583,212.4833,716,224"/>
	<path fill="none" stroke="#000000" stroke-width="5" stroke-linecap="round" stroke-linejoin="round" stroke-miterlimit="10" d="
		M1249,203c-18.4886-28.5974-43.2463-51.401-69.1553-72.8121c-21.1974-17.5174-44.5098-32.2385-68.8484-45.181
		c-16.7754-8.9208-33.9585-17.294-52.1063-22.6331c-12.3887-3.6447-25.7045-4.3694-38.8878-4.544
		C1008.9891,57.6839,997.8892,57.219,987,55"/>
	<path fill="none" stroke="#000000" stroke-width="5" stroke-linecap="round" stroke-linejoin="round" stroke-miterlimit="10" d="
		M751,1262c-7.4749-2.7805-14.662,0.745-21.9979,1.05c-24.195,1.006-46.3922-6.2231-68.0023-16.0494
		c-21.9987-10.0028-43.9887-20.025-66.0076-29.9834c-5.4417-2.4608-10.4125-5.7397-15.8859-8.249
		c-16.9573-7.7745-33.4396-7.5138-50.1063,0.2318"/>
	<path fill="none" stroke="#000000" stroke-width="5" stroke-linecap="round" stroke-linejoin="round" stroke-miterlimit="10" d="
		M859,1680c-19.3049,11.954-41.6326,13.8743-62.9971,19.0122c-32.9316,7.92-63.2931,22.1328-93.022,37.9519
		C683.3723,1747.3981,666.9638,1761.8864,651,1777"/>
	<path fill="none" stroke="#000000" stroke-width="5" stroke-linecap="round" stroke-linejoin="round" stroke-miterlimit="10" d="
		M768,2258c11.3321,19.3069,15.5524,41.2493,23.1169,61.9573c11.524,31.5474,18.6647,64.3977,29.5991,96.1406
		c7.1703,20.8152,11.6298,42.5654,17.2801,63.9031c4.491,16.9597,9.7487,33.7183,13.0466,50.991
		c1.5065,7.8896,3.0573,15.8181,6.9573,23.0081"/>
	<path fill="none" stroke="#000000" stroke-width="5" stroke-linecap="round" stroke-linejoin="round" stroke-miterlimit="10" d="
		M1060,2072c3.8333,13.3313,6.5531,27.0315,13.0045,39.4976c4.6407,8.9675,10.8895,14.5728,21.9497,15.8875
		c10.6639,1.2678,21.3739,2.8713,32.0583,3.3032c6.1563,0.2485,3.7025,2.9866,2.9235,5.29
		c-5.1855,15.333-12.5579,29.5972-23.005,41.9634c-17.0781,20.2156-34.0287,40.5955-52.1804,59.823
		c-8.5846,9.0933-7.7732,18.2427-5.1547,28.2102c4.3807,16.6753,12.6465,31.7732,20.4471,47.0032
		c7.5913,14.8203,12.1919,30.5232,9.6259,46.9702c-1.756,11.2556-4.0001,23.2312-15.5699,30.2158
		c-3.9147,2.3633-2.4056,6.9453-1.1288,10.8457c6.8868,21.0383,14.1637,41.9514,21.2744,62.9072
		c8.9983,26.5178,14.3568,53.7808,19.6765,81.0984c3.0994,15.9158,4.5867,32.1877,8.4518,47.8928
		c1.7473,7.0999,0.6332,12.8464-1.3729,19.0918"/>
	<path fill="none" stroke="#000000" stroke-width="5" stroke-linecap="round" stroke-linejoin="round" stroke-miterlimit="10" d="
		M969,361c-25.5989-5.5521-51.4639-3.2808-76.95-0.5357c-17.9255,1.9307-35.4733,7.8699-53.0261,12.624
		c-19.7264,5.3427-39.4213,10.5243-60.0237,10.9238c-2.2686,0.044-4.5682,0.3585-6.0002-2.0121"/>
	<path fill="none" stroke="#000000" stroke-width="5" stroke-linecap="round" stroke-linejoin="round" stroke-miterlimit="10" d="
		M1023,420c0.939,4.493-1.6965,8.1547-4.1346,10.8795c-28.0669,31.3658-48.9864,67.8155-72.659,102.2623
		c-22.1078,32.1699-40.1827,66.856-54.93,102.971c-9.7859,23.965-18.8007,48.3995-24.2943,73.8833
		C865.876,715.127,864.7418,720.195,868,725"/>
	<path fill="none" stroke="#000000" stroke-width="5" stroke-linecap="round" stroke-linejoin="round" stroke-miterlimit="10" d="
		M997,537c-2.2668-0.1338-4.0944,0.1609-6.0701,1.9214c-37.5457,33.4561-68.1246,71.9831-86.881,119.0981
		c-4.9911,12.5375-9.4132,25.3026-14.0334,37.9861c-1.8014,4.9455-3.6845,9.6866-6.8355,14.1222
		c-3.4104,4.8007-5.0583,10.311-4.4277,16.8959c1.1263,11.7629-2.4038,23.3168-3.6178,34.9902
		c-1.5538,14.9424-2.1243,29.9867-3.1412,44.9855c-0.2709,3.996,1.0503,7.3164,4.0068,10.0005"/>
	<path fill="none" stroke="#000000" stroke-width="5" stroke-linecap="round" stroke-linejoin="round" stroke-miterlimit="10" d="
		M959.9999,502c-2-7-2.8154-14.6503-6.2314-20.873c-8.7937-16.019-27.9871-23.9991-49.7797-20.1909
		c-28.2018,4.9282-44.4297,24.2229-58.0162,47.0477c-8.7986,14.7812-14.8835,30.8902-22.7705,46.1209
		c-1.4373,2.7757-1.9557,5.6735-5.2007,6.899c-19.8943,7.5137-34.1305,23.0228-49.8359,36.1937
		c-20.8259,17.4651-39.6527,37.8688-62.6584,52.0003C692.7311,657.0455,678.2364,663.1599,665,671"/>
	<path fill="none" stroke="#000000" stroke-width="5" stroke-linecap="round" stroke-linejoin="round" stroke-miterlimit="10" d="
		M469,1643c0,5.3334,0.9052,10.8563-0.1659,15.9652c-3.5357,16.8658-3.0875,34.0941-4.2437,51.075
		c-0.8028,11.7911-0.6909,23.9614-0.5418,35.9592c0.0872,7.0156-2.2299,11.5192-8.9279,15.2191
		c-19.464,10.7524-40.5657,15.2662-62.1103,18.8441c-14.0552,2.3341-28.0084,5.2816-42.0149,7.9136
		c-0.9659,0.1815-2.0005-0.0415-2.9948,0.0333c-29.0009,2.1825-58.1772,4.2473-86.9565-0.2898
		c-36.9204-5.8203-74.3381-9.7535-109.9948-21.8651c-10.9844-3.7312-21.6082-8.7404-31.9908-13.9709
		c-12.2497-6.1709-23.8974-13.5304-36.0982-19.8068c-16.3402-8.4059-20.0274-16.8746-19.2006-35.0878
		c1.8824-41.468,14.9357-80.3965,25.1026-120.0244c0.7664-2.9872,1.8662-5.1675,4.1376-6.9647"/>
	<path fill="none" stroke="#000000" stroke-width="5" stroke-linecap="round" stroke-linejoin="round" stroke-miterlimit="10" d="
		M1237,259c-15.3655-1.1456-30.7299-0.0044-45.9836,1.2058c-20.8082,1.6508-41.4259,5.2511-62.0211,8.7664
		c-23.9045,4.0802-47.7772,9.9319-68.6116,21.7066c-15.4165,8.7127-33.1731,11.679-47.3837,22.3212"/>
	<path fill="none" stroke="#000000" stroke-width="5" stroke-linecap="round" stroke-linejoin="round" stroke-miterlimit="10" d="
		M1308,2536c-12.097,3.457-22.0594,11.239-31.7679,18.3181c-36.6301,26.709-78.7568,41.4866-120.35,57.3733
		c-9.5017,3.6292-20.9231,1.7383-29.8821,8.3086"/>
	<path fill="none" stroke="#000000" stroke-width="5" stroke-linecap="round" stroke-linejoin="round" stroke-miterlimit="10" d="
		M973,2111c10.5333,10.0847,11.1809,24.4448,15.9979,37.0007c6.6033,17.2122,9.1309,35.5249,14.6238,53.1174
		c12.2863,39.3496,26.9857,77.9478,37.3218,117.8965c5.5541,21.4658,11.7999,42.7236,17.9017,64.0295
		c0.8403,2.9348,1.8832,5.1584,4.1547,6.9558"/>
	<path fill="none" stroke="#000000" stroke-width="5" stroke-linecap="round" stroke-linejoin="round" stroke-miterlimit="10" d="
		M1067,383c-3.0619-0.6999-5.0271,0.8774-7.0388,2.9625c-5.8909,6.1053-11.9561,12.0427-17.9624,18.0363
		c-7.8259,7.8093-16.2676,12.6732-27.8139,15.7053c-27.825,7.3067-56.1782,11.4336-84.2579,16.922
		c-23.5699,4.6069-47.8594,3.8453-71.9286,3.4849c-3.9058-0.0585-6.4565-1.7468-8.9984-4.1109"/>
	<path fill="none" stroke="#000000" stroke-width="5" stroke-linecap="round" stroke-linejoin="round" stroke-miterlimit="10" d="
		M966,1424c-29.8347-0.5461-54.9506,14.9968-82.0233,23.9293C855.3128,1457.3865,828.6558,1472.2926,799,1479"/>
	<path fill="none" stroke="#000000" stroke-width="5" stroke-linecap="round" stroke-linejoin="round" stroke-miterlimit="10" d="
		M1108,1688c-4.3931-3.6094-9.4901-4.1694-15.0013-4.0762c-13.6626,0.2313-27.3512,0.5138-40.9917-0.0833
		c-8.5889-0.3759-17.2953-2.3271-21.9165-10.8894c-3.376-6.2549-3.5372-13.1458,1.0009-18.8789
		c8.3782-10.5841,17.8198-19.0985,32.9637-12.193c1.9316,0.8809,4.6116,0.1207,6.9449,0.1207c47.6666,0,95.3334,0.0219,143-0.0432
		c3.667-0.005,7.3334-0.6234,11-0.9568"/>
	<path fill="none" stroke="#000000" stroke-width="5" stroke-linecap="round" stroke-linejoin="round" stroke-miterlimit="10" d="
		M1321,283c6.9186,5.657,15.7771,7.9015,22.9592,13.0568c1.6161,1.1601,3.8851,0.8366,5.078,2.9219
		c8.7784,15.3455,18.4326,29.9999,22.2983,47.949c3.5696,16.5745-1.041,32.7625,0.5953,49.0792
		c0.2076,2.0724-0.7417,4.1179-1.9043,6.0094c-14.3304,23.3142-33.4359,42.2492-53.9398,60.0835
		c-15.3857,13.3826-30.5476,27.0485-49.1514,35.7623c-12.9622,6.0713-24.9277,14.1353-38.8507,18.4136
		c-5.5114,1.6936-10.4821,3.2126-16.0847,1.7242"/>
	<path fill="none" stroke="#000000" stroke-width="5" stroke-linecap="round" stroke-linejoin="round" stroke-miterlimit="10" d="
		M707,2203c-1.967,0.155-3.4031-0.7053-4.2562,2.9399c-5.2591,22.4741-8.1332,45.3281-11.6913,68.0684
		c-3.1651,20.2275-4.8461,40.6589-7.3678,60.9526c-6.2808,50.5449-8.753,101.2583-7.3207,152.0288
		c0.9313,33.0168,1.5803,66.1885,6.4903,99.032c1.0262,6.8647-0.0717,14.0203,1.1457,20.9783"/>
	<path fill="none" stroke="#000000" stroke-width="5" stroke-linecap="round" stroke-linejoin="round" stroke-miterlimit="10" d="
		M1246,319c-1.9521,5.0276-7.0242,5.0136-10.8615,7.2389c-44.5513,25.8349-88.1886,52.9949-123.1572,91.7442
		c-8.2168,9.105-18.1823,16.5963-24.9813,27.0169"/>
	<path fill="none" stroke="#000000" stroke-width="5" stroke-linecap="round" stroke-linejoin="round" stroke-miterlimit="10" d="
		M343,2135c22.0272,9.4966,45.3973,12.3455,69.003,12.8635c30.1276,0.6611,60.3136,1.1113,90.0154-5.7842
		c5.6824-1.3191,10.5015,1.6943,14.9816,4.9207"/>
	<path fill="none" stroke="#000000" stroke-width="5" stroke-linecap="round" stroke-linejoin="round" stroke-miterlimit="10" d="
		M1003,91c-1.7904,3.5292,1.8268,4.9107,3.1238,6.9201c10.3862,16.091,15.5668,34.265,22.0854,52.0031
		c9.2211,25.0921,14.5695,51.0953,19.3088,77.1645c1.3876,7.6315,4.4961,15.689,2.4819,23.9124"/>
	<path fill="none" stroke="#000000" stroke-width="5" stroke-linecap="round" stroke-linejoin="round" stroke-miterlimit="10" d="
		M567,1882c-12.0105,8.8884-27.7863,13.5256-33.1094,29.9646c-1.1813,3.6478-5.4069,5.2551-8.1017,7.813
		c-16.7321,15.8805-23.5319,37.2683-32.6555,57.2832c-8.1315,17.8386-16.6525,35.2068-31.1171,48.9564
		c-13.1554,12.5051-24.3372,27.027-38.9464,38.0753c-1.3386,1.0122-2.7809,1.1521-4.0699,1.9075"/>
	<path fill="none" stroke="#000000" stroke-width="5" stroke-linecap="round" stroke-linejoin="round" stroke-miterlimit="10" d="
		M1147,1732c9.0936-4.0222,18.6735-2.4447,27.9905-1.8501c13.7827,0.8794,27.6538,1.0129,41.0514,5.7313
		c20.1045,7.0804,31.1554,22.0448,37.9464,41.1229c9.13,25.6498,8.9866,51.311,0.1421,77.0406
		c-0.535,1.5562-2.1169,3.1289-1.9567,3.92c3.9413,19.4688-8.1,34.6029-14.5709,50.8772
		c-7.0735,17.7897-17.0873,34.4114-26.2822,51.3322c-14.2756,26.2709-34.9338,46.8199-55.3206,67.8258
		c-10.7931,1.49-15.3121,12.7831-25,16"/>
	<path fill="none" stroke="#000000" stroke-width="5" stroke-linecap="round" stroke-linejoin="round" stroke-miterlimit="10" d="
		M761,2167c-0.101-7.4209,3.144-14.1187,5.2294-20.9297c4.0987-13.3879-0.0059-21.0195-14.2037-19.7776
		c-24.3218,2.1282-48.7413,1.3013-73.0864,4.1968c-15.1335,1.8-30.5803,2.9509-45.9415,3.4424
		c-3.5216,0.113-6.9211,0.1809-9.994,2.0745c-7.0065,4.3174-8.6916,9.229-3.8478,15.8801
		c5.1818,7.115,8.8173,14.6626,10.844,23.1135"/>
	<path fill="none" stroke="#000000" stroke-width="5" stroke-linecap="round" stroke-linejoin="round" stroke-miterlimit="10" d="
		M1117,1731c-20.3071,11.6722-40.3475,23.5806-59.2083,37.7223c-22.9303,17.193-41.0767,38.0878-55.6973,62.3347
		c-4.3015,7.1335-10.4673,13.3154-12.0944,21.943"/>
	<path fill="none" stroke="#000000" stroke-width="5" stroke-linecap="round" stroke-linejoin="round" stroke-miterlimit="10" d="
		M1649,2521c20.9286,27.9917,34.0793,60.2478,50.1587,90.9167c7.4745,14.2566,13.6813,29.2207,23.5662,42.2913
		c3.6241,4.792,7.4124,8.6548,12.2751,11.792"/>
	<path fill="none" stroke="#000000" stroke-width="5" stroke-linecap="round" stroke-linejoin="round" stroke-miterlimit="10" d="
		M567,417c3.5838,13.7622-0.6876,27.4232-1.6509,40.9536c-0.6887,9.6727-0.4995,19.3917-1.3421,29.047
		c-2.0992,24.0535,5.3948,46.1193,13.9619,68.0116c10.6832,27.2999,19.0865,55.1528,15.9083,84.9747
		c-1.3636,12.7947-4.0834,25.3126-8.5881,37.6189c-4.6028,12.5745-11.2336,24.5193-12.7307,38.3464
		c-0.3597,3.3219-6.2251,6.0477-9.5585,9.0477"/>
	<path fill="none" stroke="#000000" stroke-width="5" stroke-linecap="round" stroke-linejoin="round" stroke-miterlimit="10" d="
		M567,347c2.6092,5.0905,3.1183,10.4884,1.9742,15.9946c-3.1975,15.3884,2.3978,25.4926,14.8033,36.2617
		c19.4247,16.8623,42.9426,24.7818,66.3447,32.3668c24.0913,7.8083,49.3119,11.2202,74.876,11.5331
		c13.3262,0.1631,26.5048,2.0172,40.0221,1.1644c22.8054-1.4388,45.2985-5.1679,67.95-7.5982
		c19.3562-2.0768,34.8846-14.6338,52.0109-22.7623c3.2672-1.5506,5.7857-4.8765,10.0189-3.9602"/>
	<path fill="none" stroke="#000000" stroke-width="5" stroke-linecap="round" stroke-linejoin="round" stroke-miterlimit="10" d="
		M1027,595c0.1338,2.2668,0.1631,4.312-1.968,6.0394c-22.5521,18.2814-34.5186,43.7516-47.175,68.8885
		c-6.4567,12.8235-12.3412,25.8368-18.2336,38.9022c-4.2003,9.3135-8.6958,18.4355-19.1298,24.9592
		c-9.5542,5.9736-16.8849,16.9816-23.5331,27.1849c-8.4152,12.9153-16.6962,25.9366-22.7678,40.1083
		c-2.043,4.7684-6.0233,6.8239-9.282,9.8203C875.9841,819.1105,874.9373,830.1749,873,841"/>
	<path fill="none" stroke="#000000" stroke-width="5" stroke-linecap="round" stroke-linejoin="round" stroke-miterlimit="10" d="
		M819,562c2.9818,10.2432-1.6023,19.9979-1.9086,30.0028c-0.6394,20.8884,1.7658,41.3054,16.0319,57.8911
		c10.0167,11.6454,22.9039,17.743,38.8905,15.1926C873.9123,664.7837,876,665.6667,878,666"/>
	<path fill="none" stroke="#000000" stroke-width="5" stroke-linecap="round" stroke-linejoin="round" stroke-miterlimit="10" d="
		M1514,2387c2.7701,9.823,1.5444,20.0383,2.5966,30.0425c1.0277,9.771,5.1545,16.5837,12.4476,21.8967
		c18.9838,13.8301,39.0608,26.0601,58.1202,39.8333c13.1479,9.5012,26.2401,19.0247,38.801,29.27
		c4.7035,3.8364,9.4575,7.6104,15.0787,9.8464c3.427,1.3633,6.4939,2.4133,11.089,0.418
		c23.8325-10.3489,48.3599-18.9414,73.8915-24.187c4.1578-0.8542,8.642-0.1199,12.9753-0.1199"/>
	<path fill="none" stroke="#000000" stroke-width="5" stroke-linecap="round" stroke-linejoin="round" stroke-miterlimit="10" d="
		M847,2923c-28.2352,23.8784-47.46,55.0615-67.571,85.2854c-6.1663,9.2673-10.387,20.4016-15.4409,30.7087
		c-1.0002,2.04-1.4843,4.9636-4.988,3.5059"/>
	<path fill="none" stroke="#000000" stroke-width="5" stroke-linecap="round" stroke-linejoin="round" stroke-miterlimit="10" d="
		M909,118c-38.7242,33.5036-65.4438,75.7379-88,121"/>
	<path fill="none" stroke="#000000" stroke-width="5" stroke-linecap="round" stroke-linejoin="round" stroke-miterlimit="10" d="
		M693,398c-16.8157,2.2279-32.5107-2.4109-47.9901-8.0275C619.976,380.8893,595.3113,370.8765,571,360"/>
	<path fill="none" stroke="#000000" stroke-width="5" stroke-linecap="round" stroke-linejoin="round" stroke-miterlimit="10" d="
		M1107,919c2.323,14.9411-1.1744,32.0216,13.1389,42.8158c8.6072,6.491,19.2839,7.9176,29.8312,5.0733
		c8.7856-2.3691,12.5205-9.5172,13.9796-17.8979c0.9187-5.2771-0.097-10.6361-5.9896-11.7868
		c-7.1316-1.3926-10.5436-6.8602-14.8921-11.2714c-7.9772-8.092-10.3683-19.7877-6.068-26.933
		c3.7262-6.1913,17.3075-11.6778,25.9259-8.7797c11.3087,3.8029,22.7766,1.2637,34.0872,2.675
		c6.3334,0.7902,10.3577-3.2047,11.8599-8.9286c1.4174-5.401,3.4156-11.5343-4.8389-14.077
		c-1.8973-0.5845-3.3922-2.5267-5.0299-3.8945c-9.041-7.5517-16.0627-7.9047-26.0308-2.0403
		C1156.1362,873.8604,1138.7975,882.6221,1119,885"/>
	<path fill="none" stroke="#000000" stroke-width="5" stroke-linecap="round" stroke-linejoin="round" stroke-miterlimit="10" d="
		M445,500c-12.7276,23.5753-2.0318,43.4179,11.2861,61.7927c8.16,11.2585,18.9731,20.6393,31.7012,27.2318
		c8.1718,4.2327,15.5604,1.0388,23.007-2.0382c1.7449-0.7209,2.0492-2.8099,1.8856-3.9693
		C510.5071,566.197,512.0161,549.574,515,533"/>
	<path fill="none" stroke="#000000" stroke-width="5" stroke-linecap="round" stroke-linejoin="round" stroke-miterlimit="10" d="
		M557,183c-22.6635-10.6143-36.4368-7.4618-55.8609,10.1534c-17.1019,15.5092-26.5645,35.0906-26.449,58.8482
		c0.0106,2.1855-0.1874,3.379,1.2645,5.0383c8.2354,9.4118,8.9294,21.7084,11.8682,33.0063
		C491.1851,302.9721,495.8712,306.8921,509,305c9.7634-1.407,32.2877-17.8437,37-27"/>
	<path fill="none" stroke="#000000" stroke-width="5" stroke-linecap="round" stroke-linejoin="round" stroke-miterlimit="10" d="
		M721,445c-3.7333,23.1933-8.0179,46.3227-7.0262,70.0011c0.5002,11.9432,1.9259,23.9135,6.4244,34.8349
		c2.1649,5.2562-0.2782,10.54,2.6019,15.164"/>
	<path fill="none" stroke="#000000" stroke-width="5" stroke-linecap="round" stroke-linejoin="round" stroke-miterlimit="10" d="
		M1231,1683c-33.9603,2.6908-67.9886,1.9601-102,1.9752c-13.0417,0.0059-24.0276,4.2139-33.077,13.9531
		c-7.9183,8.5222-5.9712,19.172,5.1002,23.0045c11.0284,3.8174,21.3519,9.9915,34.0157,8.3715
		c4.6525-0.5951,9.3174,1.8427,13.2297,6.4685c6.9922,8.2677,17.0332,13.3854,24.8228,21.1353
		c19.1477,19.0504,36.1573,39.446,45.9932,65.0594c1.715,4.4658,6.5424,7.17,7.9154,12.0325"/>
	<path fill="none" stroke="#000000" stroke-width="5" stroke-linecap="round" stroke-linejoin="round" stroke-miterlimit="10" d="
		M1042,1641c-5.0635-3.7981-11.4956-4.1532-17.0715-6.8521c-10.2037-4.9386-11.2343-13.0466-8.9125-21.1434
		c2.4908-8.6866,14.8394-18.1512,23.983-17.953c23.6699,0.5132,47.3771,2.4528,70.9882,1.5935
		c20.4412-0.7438,40.6812,0.9248,61.0129,1.3534c19.6967,0.4152,39.3867,0.9526,59,3.0016"/>
	<path fill="none" stroke="#000000" stroke-width="5" stroke-linecap="round" stroke-linejoin="round" stroke-miterlimit="10" d="
		M1252,638c1.6666-10.6667,3.3186-21.3356,5.0052-31.9991c1.1354-7.1785-0.7297-14.1718-2.3395-20.9211
		c-0.7987-3.3491-3.906-5.45-9.6493-5.6244c-19.6801-0.5975-39.5479-0.1932-59.0624-4.2339
		c-2.5028-0.5182-4.3003-2.6762-6.9541-2.2214"/>
	<path fill="none" stroke="#000000" stroke-width="5" stroke-linecap="round" stroke-linejoin="round" stroke-miterlimit="10" d="
		M1088,2128c-0.9324,14.8506-7.9063,26.2295-18.8655,36.1487c-11.5282,10.4341-22.4515,21.5408-34.0199,31.9783
		c-7.8851,7.1143-16.179,13.1472-26.1146,16.873"/>
	<path fill="none" stroke="#000000" stroke-width="5" stroke-linecap="round" stroke-linejoin="round" stroke-miterlimit="10" d="
		M1300,1281c-17.3926,3.7603-29.1716,15.7789-36.5609,30.2246c-10.7329,20.9824-29.7197,27.4738-49.5435,32.3513
		c-10.6877,2.6296-15.9375,8.5708-19.8956,17.4241"/>
	<path fill="none" stroke="#000000" stroke-width="5" stroke-linecap="round" stroke-linejoin="round" stroke-miterlimit="10" d="
		M477,1189c2.8472,14.1157,7.9163,27.646,10.1431,41.9778c4.5371,29.2014,8.3495,58.5603,8.4895,88.0239
		c0.1377,28.9823-0.3907,58.0861-3.6326,86.9983"/>
	<path fill="none" stroke="#000000" stroke-width="5" stroke-linecap="round" stroke-linejoin="round" stroke-miterlimit="10" d="
		M1209,526c5.5347,7.9863,14.6407,5.1336,22.0515,6.7659c22.5443,4.9656,46.1597,6.2831,65.088,22.0668
		c1.3386,1.1163,4.3685,1.944,6.8605,1.1672"/>
	<path fill="none" stroke="#000000" stroke-width="5" stroke-linecap="round" stroke-linejoin="round" stroke-miterlimit="10" d="
		M453,321c-16.6024,19.3631-19.2309,41.8603-15.09,66.0154c0.8116,4.7338,1.4611,9.388,2.8011,14.0673
		c1.0393,3.6292,1.1563,7.7319-1.5061,12.0438c-14.0348,22.7299-11.399,45.9555-0.0367,68.7897
		c1.8164,3.6503,3.9481,7.2074,4.6796,11.1122c0.7479,3.9925,2.6637,6.2842,6.1309,8.0142
		c8.9147,4.4482,15.3224,12.2789,21.6889,19.2604C484.5726,534.4551,498.4426,538.8963,516,531"/>
	<path fill="none" stroke="#000000" stroke-width="5" stroke-linecap="round" stroke-linejoin="round" stroke-miterlimit="10" d="
		M96,1488c13.0589,6.7532,21.3756,18.6254,30.9237,29.0697C140.9526,1532.4153,157.2015,1537.7124,177,1530"/>
	<path fill="none" stroke="#000000" stroke-width="5" stroke-linecap="round" stroke-linejoin="round" stroke-miterlimit="10" d="
		M769,2131c26-7.9841,52.2448-7.5476,77.8632,0.439c8.6122,2.6851,11.5403,13.5461,14.7637,21.7085
		c1.8287,4.6301,3.8051,10.2568,2.3732,15.8525"/>
	<path fill="none" stroke="#000000" stroke-width="5" stroke-linecap="round" stroke-linejoin="round" stroke-miterlimit="10" d="
		M1276,794c2.2836,8.5917,1.2134,17.3867,0.7878,25.9895c-0.5439,10.9974-9.8071,19.8628-20.7943,20.9454
		c-15.3752,1.515-30.2258-0.0038-42.9646-9.9719c-3.5234-2.7571-6.6957-5.963-10.0289-8.963"/>
	<path fill="none" stroke="#000000" stroke-width="5" stroke-linecap="round" stroke-linejoin="round" stroke-miterlimit="10" d="
		M931,2120c-2.5848,4.3083-6.7033,4.0901-11.0004,4.0537c-15.9989-0.1348-31.9996-0.0276-47.9996-0.0659
		c-6.993-0.0166-13.4434,1.5525-19,6.0122"/>
	<path fill="none" stroke="#000000" stroke-width="5" stroke-linecap="round" stroke-linejoin="round" stroke-miterlimit="10" d="
		M1147,1544c-9,4.2061-18.0022,0.1381-26.9996,0.1613c-26.1147,0.0674-52.3633-1.9683-78.0599,5.6375
		c-9.3503,2.7675-14.8022,9.2939-19.7642,16.3257c-4.8317,6.8473-1.6919,13.7537,2.8362,19.8663
		c2.2617,3.0531,4.6542,6.0093,6.9875,9.0093"/>
	<path fill="none" stroke="#000000" stroke-width="5" stroke-linecap="round" stroke-linejoin="round" stroke-miterlimit="10" d="
		M622,233c-5.0369-0.1625-9.1675,2.1198-12.988,5.0158c-16.3145,12.3667-33.5626,23.3361-51.0614,33.9023
		c-4.4542,2.6896-8.8661,5.769-14.9807,4.1992c-10.8426-2.7838-11.3055-12.0317-12.8384-20.1421
		c-4.2185-22.3185,1.9003-41.5082,18.8487-56.9968c2.1305-1.947,4.0692-3.9518,5.1063-6.9484
		c4.2229-12.2019,14.2495-16.892,25.9292-18.9407c2.8145-0.4937,3.3535-1.7291,2.9844-4.0892"/>
	<path fill="none" stroke="#000000" stroke-width="5" stroke-linecap="round" stroke-linejoin="round" stroke-miterlimit="10" d="
		M442,411c9.4859,6.7815,12.585,18.059,19.0339,26.9755c3.3256,4.5982,6.6734,9.1576,10.9174,13.0772
		c14.4957,13.3874,25.7445,8.7895,38.7542-0.4665c17.8158-12.6753,34.8804-26.1252,55.2152-34.7725
		c3.4637-1.4729,4.9964-6.2626,5.8317-9.871c0.8788-3.7959,2.4742-6.5575,5.2475-8.9427"/>
	<path fill="none" stroke="#000000" stroke-width="5" stroke-linecap="round" stroke-linejoin="round" stroke-miterlimit="10" d="
		M953,83c3.044,3.1092,2.6501,7.094,3.0563,10.9941c4.6216,44.3805,2.4935,88.6789-0.9478,133.0143
		c-1.6887,21.7549-4.733,43.3296-7.0208,65.0008c-0.1934,1.8314-0.8873,2.9243-2.0876,3.9908"/>
	<path fill="none" stroke="#000000" stroke-width="5" stroke-linecap="round" stroke-linejoin="round" stroke-miterlimit="10" d="
		M506,456c2.8123,5,0.47,10.2006-0.2348,14.9653c-3.0484,20.6093-3.4969,40.4902,10.1941,58.0664
		C516.2825,529.4466,516,530.3333,516,531"/>
	<path fill="none" stroke="#000000" stroke-width="5" stroke-linecap="round" stroke-linejoin="round" stroke-miterlimit="10" d="
		M943,509c-3.4631-19.7903-36.5868-25.6301-53.1063-11.121C885.287,501.925,882.9522,509.3591,875,509"/>
	<path fill="none" stroke="#000000" stroke-width="5" stroke-linecap="round" stroke-linejoin="round" stroke-miterlimit="10" d="
		M898,735c-0.204,9.7182-4.5352,18.5314-6.4338,27.9122c-2.4321,12.0167-5.1743,24.0291-7.8884,36.0148
		c-0.8669,3.8284,1.0379,6.0675,1.3222,9.0729"/>
	<path fill="none" stroke="#000000" stroke-width="5" stroke-linecap="round" stroke-linejoin="round" stroke-miterlimit="10" d="
		M575,2102c-19.3633,7.1663-39.1165,13.5352-55.9664,26.0452c-4.7629,3.5361-11.0496,5.8376-12.0336,12.9548"/>
	<path fill="none" stroke="#000000" stroke-width="5" stroke-linecap="round" stroke-linejoin="round" stroke-miterlimit="10" d="
		M1156,2029c4.6219,11.7803,2.3164,24.1079,1.6482,35.9802c-0.9286,16.4968-7.0579,32.1968-11.8898,47.9456
		c-2.0673,6.7383-6.9144,12.5627-12.7584,17.0742"/>
	<path fill="none" stroke="#000000" stroke-width="5" stroke-linecap="round" stroke-linejoin="round" stroke-miterlimit="10" d="
		M948,731c3.3387,8.5424-1.6905,16.1873-3.3513,23.9246c-3.2787,15.2754-10.2674,29.3808-8.3193,46.1533
		c0.9151,7.8787-5.3294,16.5888-8.3294,24.9221"/>
	<path fill="none" stroke="#000000" stroke-width="5" stroke-linecap="round" stroke-linejoin="round" stroke-miterlimit="10" d="
		M1290.5,1754c4.1171,11.2098-0.7697,22.0165-1.5587,32.9957c-0.9653,13.4304-5.8271,26.0531-9.1527,38.9497
		c-4.0901,15.8613-12.9011,29.8179-20.9181,43.9813c-0.6902,1.2192-3.2039,1.4066-4.8705,2.0732"/>
	<path fill="none" stroke="#000000" stroke-width="5" stroke-linecap="round" stroke-linejoin="round" stroke-miterlimit="10" d="
		M695,637c-14.5681-3.795-27.1132,2.0328-38.8799,9.1973c-6.9894,4.2557-12.0933,11.8116-19.2672,15.5181
		c-14.1249,7.2978-20.8793,20.4987-30.2668,31.9451c-7.8188,9.5336-18.0625,17.6727-29.6275,23.2537
		c-0.6806,0.3285-1.9586-0.5809-2.9586-0.9143"/>
	<path fill="none" stroke="#000000" stroke-width="5" stroke-linecap="round" stroke-linejoin="round" stroke-miterlimit="10" d="
		M474,256c-20.3275,11.8358-22.9181,31.3739-21.8497,51.9922c0.6848,13.214,10.3574,23.1082,15.0149,34.9427
		c2.7636,7.0221,6.9008,13.5639,10.9008,20.0241c5.2856,8.5365,11.6161,15.6107,22.9197,16.2809
		c3.2112,0.1904,6.5203,1.8406,5.3336,7.8233c-2.5098,12.653,0.7,25.3482,2.6845,37.936
		c1.173,7.4409,6.4204,11.8491,11.9961,16.0006"/>
	<path fill="none" stroke="#000000" stroke-width="5" stroke-linecap="round" stroke-linejoin="round" stroke-miterlimit="10" d="
		M632,443c2.0296,12.1947-3.8909,23.2242-5.1763,34.9807c-3.0027,27.4644-4.6831,54.6167,9.2672,79.9692
		c2.4614,4.473-2.1094,8.9233,0.9091,13.05"/>
	<path fill="none" stroke="#000000" stroke-width="5" stroke-linecap="round" stroke-linejoin="round" stroke-miterlimit="10" d="
		M581,570c-10.8306,1.1083-18.3245,9.4834-28.0353,12.8997c-8.3586,2.9406-15.8802,7.8078-24.9223,9.3492
		C521.8372,593.3068,517.1742,592.43,513,588"/>
	<path fill="none" stroke="#000000" stroke-width="5" stroke-linecap="round" stroke-linejoin="round" stroke-miterlimit="10" d="
		M908,524c9.9543,14.6477,8.9194,18.4055-1.7076,32.2248c-6.164,8.0156-14.6694,13.4927-20.2927,21.775
		c-8.9454,13.1753-6.732,23.3795,7.0159,31.9754C894.903,611.1553,897,612,899,613"/>
	<path fill="none" stroke="#000000" stroke-width="5" stroke-linecap="round" stroke-linejoin="round" stroke-miterlimit="10" d="
		M1703,2539c8.3259,11.9199,18.101,22.7124,26.4867,34.6584c4.7004,6.696,13.4045,10.9995,19.5399,17.3157
		c6.0308,6.2085,11.0966,12.1594,11.3982,22.0129c0.2468,8.0637,3.6494,16.2583,6.8197,23.9116
		c1.6364,3.9502-1.5349,6.032-1.2445,9.1013c-2.6257-0.8218-5.1021-1.6863-7.0459-3.9609
		c-5.6696-6.6343-11.3558-13.1877-17.7271-19.2766c-7.2136-6.8938-6.8613-17.5681-9.1543-26.7805
		c-1.459-5.8623-4.6726-11.7634-1.0728-17.9819"/>
	<path fill="none" stroke="#000000" stroke-width="5" stroke-linecap="round" stroke-linejoin="round" stroke-miterlimit="10" d="
		M616,2142c-21.5622-7.1243-43.3298-2.3362-64.9821-0.7551c-3.6417,0.2661-7.3671,0.7439-11.0167,0.6841
		c-18.4517-0.3018-28.1313,12.4866-38.0012,25.071"/>
	<path fill="none" stroke="#000000" stroke-width="5" stroke-linecap="round" stroke-linejoin="round" stroke-miterlimit="10" d="
		M1221,1286c1.0554-6.975,2.6335-13.51-2.5929-20.3127c-2.1315-2.7744,1.2389-8.8741-0.2941-13.723
		c-2.0836-6.5902-3.5765-13.3712-11.1238-15.9326c-6.4542-2.1903-12.2959-5.0143-18.2905,2.7354
		c-5.094,6.5853-5.0745,12.6757-2.5559,19.1777c3.1809,8.2117,10.4994,12.4169,17.8577,11.5594
		c4.6692-0.5442,8.8827-2.3787,12.9995-4.5042"/>
	<path fill="none" stroke="#000000" stroke-width="5" stroke-linecap="round" stroke-linejoin="round" stroke-miterlimit="10" d="
		M925,1336c-0.5677,9.6935-5.437,15.149-14.9315,18.2123c-13.7932,4.4502-26.7269,10.96-36.0685,22.7877"/>
	<path fill="none" stroke="#000000" stroke-width="5" stroke-linecap="round" stroke-linejoin="round" stroke-miterlimit="10" d="
		M990,2693c-7.7895,15.4639-23.1274,21.342-37.0519,28.9043c-3.791,2.0591-18.1858-3.8191-19.67-8.9841
		c-3.2788-11.4099-9.8007-22.9216-0.4328-35.0398c5.9986-7.7595,26.299-13.7175,35.0444-7.7195
		c17.7857,12.198,32.3642,28.3193,49.0709,41.8877c1.3906,1.1294,2.2909,2.9175,2.0394,4.9514"/>
	<path fill="none" stroke="#000000" stroke-width="5" stroke-linecap="round" stroke-linejoin="round" stroke-miterlimit="10" d="
		M1083,2057c-23.0673,15.6055-50.1998,20.7283-76.1335,28.5576C997.7017,2088.3245,987,2086,977,2086"/>
	<path fill="none" stroke="#000000" stroke-width="5" stroke-linecap="round" stroke-linejoin="round" stroke-miterlimit="10" d="
		M839,2063c8.525,8.9431,18.4552,16.2336,27.9282,24.0867c17.2589,14.3076,37.2881,21.5823,59.0739,24.9004
		c2.4911,0.3792,3.2198,2.8188,4.998,4.0129"/>
	<path fill="none" stroke="#000000" stroke-width="5" stroke-linecap="round" stroke-linejoin="round" stroke-miterlimit="10" d="
		M872,2095c-6.1844,2.9861-12.1427-0.0662-17.9723-1.1494C831.7406,2089.7107,809.329,2092.811,787,2092"/>
	<path fill="none" stroke="#000000" stroke-width="5" stroke-linecap="round" stroke-linejoin="round" stroke-miterlimit="10" d="
		M584,172.5c20.622,3.6973,37.7972,15.273,56,24.5"/>
	<path fill="none" stroke="#000000" stroke-width="5" stroke-linecap="round" stroke-linejoin="round" stroke-miterlimit="10" d="
		M516,306c0,7.6667-0.793,15.4364,0.1863,22.9758C517.6482,340.2297,516.3066,353.2125,530,359"/>
	<path fill="none" stroke="#000000" stroke-width="5" stroke-linecap="round" stroke-linejoin="round" stroke-miterlimit="10" d="
		M1254,467c-8.9775,15.9623-22.1442,28.3809-35.1528,40.8404c-2.4077,2.3061-5.075,4.3191-6.8226,7.1747
		c-6.9338,11.3292-13.6888,13.9622-26.0245,9.985"/>
	<path fill="none" stroke="#000000" stroke-width="5" stroke-linecap="round" stroke-linejoin="round" stroke-miterlimit="10" d="
		M847,573c-4.6352,13.4677,1.2621,29.6816,14.0262,37.9595c4.5025,2.9199,9.3071,5.3738,13.9738,8.0405"/>
	<path fill="none" stroke="#000000" stroke-width="5" stroke-linecap="round" stroke-linejoin="round" stroke-miterlimit="10" d="
		M562,508c-7.4666,2.7758-14.2834,7.1505-20.7545,11.376C533.5555,524.3975,525.8281,528.14,517,530"/>
	<path fill="none" stroke="#000000" stroke-width="5" stroke-linecap="round" stroke-linejoin="round" stroke-miterlimit="10" d="
		M930,2666c-10.0153-9.457-21.9858-4.6716-32.9362-3.4353c-3.517,0.3972-8.9866-0.6667-12.0638,3.4353"/>
	<path fill="none" stroke="#000000" stroke-width="5" stroke-linecap="round" stroke-linejoin="round" stroke-miterlimit="10" d="
		M635,623c-2.275,14.9072-10.054,28.5635-10,44"/>
	<path fill="none" stroke="#000000" stroke-width="5" stroke-linecap="round" stroke-linejoin="round" stroke-miterlimit="10" d="
		M101,1467c3.8316,1.6772,7.8643,2.2323,11.9992,1.9871c8.7819-0.521,17.0544,1.1339,25.0411,4.928
		c4.0186,1.9092,8.4354,3.2334,12.9597,1.085"/>
	<path fill="none" stroke="#000000" stroke-width="5" stroke-linecap="round" stroke-linejoin="round" stroke-miterlimit="10" d="
		M954,2726c10.7012,8.425,22.94,6.0864,35,5"/>
	<path fill="none" stroke="#000000" stroke-width="5" stroke-linecap="round" stroke-linejoin="round" stroke-miterlimit="10" d="
		M1145,622c10.5653,3.6141,14.6869,13.9929,21.8645,21.1362c3.6876,3.67,7.7501,6.2999,11.8607,9.2471
		c7.6143,5.4592,15.5044,11.8459,18.0802,21.6678c0.9344,3.5635,3.0952,5.5528,5.1946,7.949"/>
	<path fill="none" stroke="#000000" stroke-width="5" stroke-linecap="round" stroke-linejoin="round" stroke-miterlimit="10" d="
		M1651,2327c8.2327,3.6809,14.7131,9.95,21.9124,15.1218c4.4409,3.1907,7.2825,7.9475,7.0876,13.8782"/>
	<path fill="none" stroke="#000000" stroke-width="5" stroke-linecap="round" stroke-linejoin="round" stroke-miterlimit="10" d="
		M1240,648c-7.7242,10.1159-18.4587,16.331-28.8118,23.2804c-5.4012,3.6256-8.8549-1.8458-13.1882-0.2804"/>
	<path fill="none" stroke="#000000" stroke-width="5" stroke-linecap="round" stroke-linejoin="round" stroke-miterlimit="10" d="
		M1693,2389c4.9686,12.313,0.1188,24.0806-2,36"/>
	<path fill="none" stroke="#000000" stroke-width="5" stroke-linecap="round" stroke-linejoin="round" stroke-miterlimit="10" d="
		M1227.9999,840.9999c-6,10-12,20-18,30"/>
	<path fill="none" stroke="#000000" stroke-width="5" stroke-linecap="round" stroke-linejoin="round" stroke-miterlimit="10" d="
		M362,1070c-25-9.5891-50-8.4296-75,0"/>
	<path fill="none" stroke="#000000" stroke-width="5" stroke-linecap="round" stroke-linejoin="round" stroke-miterlimit="10" d="
		M1175,1207c-1.0452,6.3029,5.0505,7.4811,8.2065,9.7073c5.8228,4.1073,10.8308,8.2382,12.7935,15.2927"/>
	<path fill="none" stroke="#000000" stroke-width="5" stroke-linecap="round" stroke-linejoin="round" stroke-miterlimit="10" d="
		M1667,2395c7.5461-1.22,15.1267-1.8552,22.0692-5.8806c6.4097-3.7166,9.3063-14.3208,5.4308-23.1194
		c-2.667-6.0549-11.2815-9.9438-17.5046-8.0151c-6.9454,2.1526-12.8042,6.2271-17.91,11.1045
		c-6.6093,6.314-2.0885,13.0625,1.1293,18.79c2.5652,4.5662,7.183,7.9978,5.7854,14.1206"/>
	<path fill="none" stroke="#000000" stroke-width="5" stroke-linecap="round" stroke-linejoin="round" stroke-miterlimit="10" d="
		M1219,603c10.777,6.5592,22.3628,9.5792,35,8"/>
	<path fill="none" stroke="#000000" stroke-width="5" stroke-linecap="round" stroke-linejoin="round" stroke-miterlimit="10" d="
		M1210,632c-7.7509,8.2998-19.5961,12.1492-25,23"/>
	<path fill="none" stroke="#000000" stroke-width="5" stroke-linecap="round" stroke-linejoin="round" stroke-miterlimit="10" d="
		M1244,643c-5.8663-8.2725-14.8381-11.9018-24.0325-12.5088c-5.0664-0.3345-8.4165-0.6723-12.1132-4.3447
		c-4.5446-4.5147-10.5177-5.9434-16.8544-3.1465"/>
	<path fill="none" stroke="#000000" stroke-width="5" stroke-linecap="round" stroke-linejoin="round" stroke-miterlimit="10" d="
		M1166,782c0.7742,1.9265,1.345,3.8833,1.0018,6.0003c-2.9341,18.1,2.7338,25.0164,20.9877,26.1666
		c1.5411,0.0971,3.6918-1.24,5.0105,0.8331"/>
	<path fill="none" stroke="#000000" stroke-width="5" stroke-linecap="round" stroke-linejoin="round" stroke-miterlimit="10" d="
		M907,2712c8.0784,3.854,16.2006,7.1589,25,2"/>
	<path fill="none" stroke="#000000" stroke-width="5" stroke-linecap="round" stroke-linejoin="round" stroke-miterlimit="10" d="
		M1050,299c4.3215,4.3926,9.871,2.8945,15.0005,2.9255c4.8392,0.0293,9.5256-0.0522,12.9995,4.0745"/>
	<path fill="none" stroke="#000000" stroke-width="5" stroke-linecap="round" stroke-linejoin="round" stroke-miterlimit="10" d="
		M1740,2625c-2.618,4.0332-3.1249,8.9734-1.7731,12.9224c3.6138,10.5576,2.0881,20.3208-2.2269,30.0776"/>
	<path fill="none" stroke="#000000" stroke-width="5" stroke-linecap="round" stroke-linejoin="round" stroke-miterlimit="10" d="
		M582,325c7.2755,3.5826,15.42,2.1679,23,4"/>
	<path fill="none" stroke="#000000" stroke-width="5" stroke-linecap="round" stroke-linejoin="round" stroke-miterlimit="10" d="
		M1193.5,630c-7.0392-9.592-14.8531-18.0515-27.484-20.0984c-1.782-0.2888-3.3494-1.9016-5.016-2.9016"/>
	<path fill="none" stroke="#000000" stroke-width="5" stroke-linecap="round" stroke-linejoin="round" stroke-miterlimit="10" d="
		M877,723c-8.0268-0.0013-11.366,4.4612-13.1847,11.9552C861.5317,744.365,857.6498,753.3761,856,763"/>
	<path fill="none" stroke="#000000" stroke-width="5" stroke-linecap="round" stroke-linejoin="round" stroke-miterlimit="10" d="
		M553,1901c-6.3361,3.1167-8.7458,12.6583-18,11"/>
	<path fill="none" stroke="#000000" stroke-width="5" stroke-linecap="round" stroke-linejoin="round" stroke-miterlimit="10" d="
		M1639,2361c3.4998,6.2742,5.593,14.0552,15,14"/>
	<path fill="none" stroke="#000000" stroke-width="5" stroke-linecap="round" stroke-linejoin="round" stroke-miterlimit="10" d="
		M708,628.5c-12.9126,9.0345-14.5094,11.3358-17,24.5"/>
	<path fill="none" stroke="#000000" stroke-width="5" stroke-linecap="round" stroke-linejoin="round" stroke-miterlimit="10" d="
		M1135,901c-5-0.8478-10-4.061-15,0"/>
	<path fill="none" stroke="#000000" stroke-width="5" stroke-linecap="round" stroke-linejoin="round" stroke-miterlimit="10" d="
		M1257,641c2.292,4.5268,0.618,9.3368,1,14"/>
	<path fill="none" stroke="#000000" stroke-width="5" stroke-linecap="round" stroke-linejoin="round" stroke-miterlimit="10" d="
		M1182,877c1.0471,5.075,6.3285,8.3354,6,14"/>
	<path fill="none" stroke="#000000" stroke-width="5" stroke-linecap="round" stroke-linejoin="round" stroke-miterlimit="10" d="
		M1174,652c1.6403,3.2106-3.8167,9.26,4,10"/>
	<path fill="none" stroke="#000000" stroke-width="5" stroke-linecap="round" stroke-linejoin="round" stroke-miterlimit="10" d="
		M1151,936c-4.9761,4.0001-11.8104,5.999-14,13"/>
	<path fill="none" stroke="#000000" stroke-width="5" stroke-linecap="round" stroke-linejoin="round" stroke-miterlimit="10" d="
		M1169.5,607c2.0695,4.942-1.7778,9.25-1.5,14"/>
</g>
</svg>
