<?xml version="1.0" encoding="UTF-8" standalone="no"?>
<svg id="svg2" xmlns:rdf="http://www.w3.org/1999/02/22-rdf-syntax-ns#" xmlns="http://www.w3.org/2000/svg" height="1827pt" width="1027pt" version="1.1" xmlns:cc="http://creativecommons.org/ns#" xmlns:dc="http://purl.org/dc/elements/1.1/" viewBox="0 0 1027 1827">
 <metadata id="metadata14">
  <rdf:RDF>
   <cc:Work rdf:about="">
    <dc:format>image/svg+xml</dc:format>
    <dc:type rdf:resource="http://purl.org/dc/dcmitype/StillImage"/>
    <dc:title/>
   </cc:Work>
  </rdf:RDF>
 </metadata>
 <path id="path4" d="m1274.3 0c-19.6 13.9-33.1 36-55.9 44.562-21.6 22.626-36.1 52.364-40.6 83.368-2.4 62.26-19.4 123.17-41 181.38-4.3 20.23-19.4 35.55-26.6 54.59-21.5 47.86-47.2 102.1-100.1 121.26-43.9-2.67-87.82 8.42-130.61 17.02-33.54-1.05-65.2 17.71-98.96 9.94-20.37-7.38-43.11-9.76-64.12-3.83-17.59-20.62-17.11-49.26-21.01-74.61 20.99 7.22 36.34-5.26 51.2-17.24 46.15-8.09 99.79-45.22 84.97-98.9 19.78-16.54 27.08-51.14 8.75-71.74-10.06-26.92-47.55-22.27-61.5-45.9-33.13-34.11-78.03-60.56-126.62-62.01-51.4-1.3-104.88 24.79-128.76 71.73-19.54 23.59-16.39 56.64-15.33 84.97-45.27-1-90.62 16.6-124.06 46.96-44.02 44.94-69.17 108.53-61.46 171.83 9.36 58.57 47.99 114.24 104.1 136.47-5.93 47.64-11.5 98.09-38.99 139.1-36.89 26.45-76.71 51.09-105.25 87.14-12.99 15.51-6.16 36.37-1.27 53.57-60.84 67.73-139.84 116.74-198.34 186.94-19.327 24.5-30.253 54.2-42.428 82.6-9.162 31.6-5.9 65.4-10.838 97.8-1.975 6.4 1.663 18.9 10.776 15.1 14.125-12.3 30.787-21 45.25-32.7 29.71-31.5 30.46-77.8 50.85-114.2 55.52-69 137.24-110.1 201.09-169.77 19.86 26.57 45.45 56.47 80.52 62.87 44.82-10.9 48.68-63.09 64.43-98.34 25.39-96.78-2.32-203.8 42.48-296.15 1.3-2.82 5.17-10 8.62-6.01 25.3 32.64 12.73 79.59 37.05 112.81 12.28 14.9 31.79 19.18 48.82 26.17 38.27 20.35 67.36 54.13 92.54 88.73 33.31 51.99 82.65 95.3 138.93 119.59-114.07 77.7-248.55 123.1-369.87 189.7-82.97 44.6-158.16 104.7-215.02 180-23.24 26-42.2 55.4-62.49 83.7-41.65 50.3-62.81 113.4-99.14 167.2-47.885 69.7-75.385 150.2-104.41 228.8v10c8.475 4.5 18.325 8.9 21.812 18.7 1.913 7.4 13.988 1.7 14.338 10.9 8.125 33.6 15.413 68.7 36.313 97.2 55.337 118.6 151.82 219.8 273.97 269.7 26.68 15.1 58.16 15.4 87.31 22.8h26.4c0.71-2.3 1.41-2.3 2.14 0h70.43c30.74-6 62.03-8.5 92.74-14.6 73.79-20.2 144.8-49.6 218.98-68.5 23.77-7.1 45.16 10 67.67 9.8 47.24 17.2 89.3 46.1 137.4 61.3 26.6 4 54.4 5.4 80.5-1.8 9.3-4-1.2-15-3.8-20.2-17.4-47.4-34.4-94.9-50.9-142.6-57.5-126.6-89.12-262.9-138.59-392.6-20.33-61.8-47.25-121.2-64.92-183.9-3.37-12.3-12.4-28 0.83-38.1 37.97-39.7 81.79-73.1 121.27-111.2 83.81-89.2 102.91-223.9 71.21-339-32.7-80.86-110.26-128.66-160.54-196.95-18.45-21.76-28.28-48.87-43.63-72.65-14.04-28.59-33.33-60.17-23.92-93.19 15.1 10.3 19.97 30.09 34.77 41.13 45.93 47.71 107.22 77.4 169.92 96.17 14.2 6.6 31.6 10.02 46.3 5.08-1.3-76.96-48.5-144.95-52.8-221.88 0-4.36-0.2-11.09 5.3-12.29 29.3-10.23 54.1-29.24 81-43.76 14.9-13.87 25.6-31.42 37.6-47.59 32.8-83.63 51.4-172.01 67.1-260.25 16.3-60.58 46.1-116.86 57.6-178.74v-50.83c-1.8-1.7496-3.2-4.2875-1.7-6.65h-7.8zm0.4 8.998c4.8-0.072 1.1 10.267 2 12.701-0.1 37.213-7.1 74.276-21.3 108.68-27.6 58.16-44.3 121.4-52.8 184.81-21.5 71.96-28.1 152.11-76.9 213.02-43.2 28.79-89.2 55.3-139.46 69.09-4.75-24.95-3.41-54.8 5.91-80.15 12.05-27.06 43.15-35.04 65.65-50.55 15.4-10.45 21.5-28.48 32.4-42.66 39.8-71.48 72-148.28 85.5-229.35 10.1-43.55 3.7-93.89 36.3-129.46 1.9 11.582-5.2 21.757-8.2 32.47-0.2 6.24 9.1 3.83 8.6-1.612 6-37.375 35.6-62.626 61.8-86.951 0.2-0.0245 0.3-0.0366 0.5-0.039zm-638.95 140.18c2.44 0 4.88 0.09 7.34 0.26 26.61-0.66 54.3 6.09 77.03 19.55-25.01-0.86-42.46 18.43-64.12 26.95-30.25 19.98-57.96 47.56-69.96 82.47-17.68 56.76 13.79 119.09-12.36 173.98-15.8 30.55-50.88 39.29-78.65 55.1-23.87 13.44-29.33 42.23-43.67 63.39-12.68 3.06-21.83-8.43-31.46-14.54-43.56-31.5-84.95-80.93-72.26-138.65 20.8-41.78 49.25-87.16 96.95-100.54 21.7-15.35 50.16-9.5 74.23-14.76-20.41-73.11 41.56-153.27 116.93-153.21zm95.06 28.09c10.92-0.11 18.2 11.98 26.53 17.91 5.65 6.47 16.45 10.12 18.75 18.66-38.84-3.18-81.28-12.65-117.2 7.54-22.85 13.56-40.53 33.83-59.03 52.26 21.99-51.64 74.46-81.29 126.03-95.52 1.72-0.56 3.36-0.83 4.92-0.85zm-26.34 42.24c5.36-0.14 9.89 1.27 10.03 8.64 6.45 36.68-20.7 68.51-45.96 91.69-22.69 12.8-49.93 17.49-75.05 18.12-10.05-27.9 12.87-55.6 30.04-75.68 20.51-16.92 40.41-39.12 68.58-41.66 3.51 0.07 8.19-0.99 12.36-1.11zm20.81 0.84c33.17 4.99 73.88-3.51 99.5 23.68 8.85 12.27 20.16 26.93 15.17 43.12-5.65 10.91-14.34 25.38-29.11 21.65-7.36-8.35-20.49-10.39-27.27-20.29-5.51-11.82 1.44-23.8 1.22-35.71-13.49-6.37-27.45 10.84-41.4 4.21-17.03-2.69-18.26-25.46-18.11-36.66zm-2.38 35.24c12.05 11.94 32.71 18.02 50.07 9.75-3.8 17.95 1.94 38.93 19.34 47.36-17.45 18.6-22.05 44.68-26.84 68.79-4.81 4.32-12.93 4.28-15.81 10.9-9.26 3.88-16.7-10.98-26.4-7.78-3.4 11.53 15.65 21.84 8.27 32.98-21.94 20.49-54.23-3.74-62.34-26.79-4.74-17.35-17.41-32.15-21.45-48.95 35.25-15.38 67.91-46.51 75.16-86.26zm-9.93 47.27c-4.37 5.53-16.76 2.93-13.07 13.18-1.47 15.66 23.63 10.9 29.59 19.67-13.99 17.19 30.69 17.25 16.95-0.21-10.96-11.85-28.64-16.92-33.47-32.64zm88.5 14.93c7.58 2.9 21.69-2.04 21.27 9.97 6.72 39.8-33.29 69.54-68.7 74.73 0.02-8.33 11.55-8.38 16.32-13.25 9.59-10.38 3.35-26.96 13.08-37.28 5.48-2.51 15.56-1.57 16.59-9.39-2.68-7.57-9.94-0.87-14.77 0.17 3.86-9.03 9.73-17.83 16.21-24.95zm-172.3 24.93c2.49 0.11 4.98 1 7.3 1.83 6 16.04 19.14 28.53 21.62 46.14 1.74 14.26 11.41 25.44 21.87 34.46-13 34.98-3.54 75.34 16.85 105.67-6.1 26.05-17.71 51.77-17.82 79.25-17.88-12.58-43.49-11.41-58.33-28.33-26.4-53.31-27.88-115.22-26.35-173.29 17.99-12.25 34.94-32.8 30.9-56.2-0.26-3.17-3.7-8.89 1.48-9.35 0.82-0.17 1.65-0.21 2.48-0.18zm-25.56 4.95c21.13-0.27 11.63 33.09-2.61 41.23-7.86 8.13-5.21-10.92-6.66-14.54 3.07-7.51-6.38-20.62 1.7-25.46 2.87-0.81 5.38-1.2 7.57-1.23zm-266.81 89.22c-4.54 68.28 52.84 120.4 110.55 145.89-4.88 18.83-11.95 37.2-17.69 55.81-48.36-8.26-74.62-56.7-88.94-99.34-8.26-33.1-16.38-69.19-3.92-102.36zm348.48 8.35c5.41 20.69 11.14 47 23.51 67.33 5.3 6.34-7.25 14.97-9.95 6.15-11.46-21.97-18.76-48.79-13.56-73.48zm-98.57 1.06c5.12 29.14-1.53 65.48 7.94 96.7-14.11-18.16-19.81-41.68-28.43-62.8 6.97-11.13 13.91-22.5 20.49-33.9zm-30.77 41.51c13.02 34.57 28.51 68.5 50.1 98.64 22.11 18.66 51.96 23.16 75.3 39.73 2.89 3.27 6.35 0.28 7.94-2.43 1.02-35.95 10.23-73.42 30.73-103.57 15.6-12.84 37.09 0.34 53.71 6.04-41.97 59.4-57.48 134.3-61.22 204.67-51.58-64.08-133.64-102.53-177.1-175.03-8.39-13.9-9.25-30.84-15.25-45.57 11.2-6.45 22.99-14.48 33.95-22.38 0.46-0.02 1.39-0.07 1.84-0.1zm425.02 7.85c3.24 0 6.04 0.68 7.66 2.95-19.41 38.18-18.69 83.15-13.28 124.7 12.67 40.57 25.46 81.58 46.16 118.91 12.9 22.74 20.1 49.95 39.6 67.94-42.8-12.51-85.51-27-124.34-49.38-31.36-41.99-37.77-97.04-36.71-148.08 4.1-38.24 11.16-78.65 33.38-110.63 10.18-1.68 21.13-1.05 31.23-5.26 4.32 0.67 10.91-1.16 16.3-1.15zm-68.85 9.53c1.8-0.01 3.73 0.89 2.07 2.72-10.9 16.71-18.3 35.41-22.74 54.81-6.76 60.32-2.18 121.69 19.82 178.49-32.97-24.31-54.46-60.12-81.48-89.97-9.27 4.16-1.17 19.17-4.97 27.31-8.2 35.2 11.25 67.9 25.35 98.8 7.94 21.9 21.9 40.76 35.96 59.05 15.34 27.6 35.08 52.69 57.18 75.14-6.05 30.61-32.26 50.41-53.96 70.49-9.51 1.28-13.08-10.39-16.89-17.03-9.21-21.54-20.61-42.32-37.21-59.04-36.46-78.97-71.46-166.18-52.65-254.6 8.09-34.36 16.32-69.24 14.98-104.8 2.08-10.47 9.27-21.76 20.75-23.24 30.72-5.93 62.07-8.99 92.17-17.83 0.43-0.2 1.02-0.3 1.62-0.3zm-404.17 9.99c5.56-0.06 3.58 10.16 5.74 13.63 5.82 32.08 27.26 57.98 48.97 81.03 49.84 51.6 115.96 87.27 155.21 148.9 3.53 0.75 6.15-2.65 6.73-5.77-7.94-74.46 16.32-148.83 52.76-213.07 2.92-4.4 8.64-13.88 14.81-9.99-9.44 30.29-4.58 63.09-15.3 93.23-12.22 59.58-16.26 124.51 6.73 182.06 9.6 36.72 24.05 72.2 41.55 105.84 13.27 15.51 28.16 31.26 33.32 51.66-44.95-33.33-78.3-79.22-117.3-118.86-40.77-43.18-66.61-98.07-109.05-139.7-29.26-24.22-58.46-52.78-96.33-61.94-19.97-37.49-26.88-80.61-39.27-121.01 3.24-2.18 6.44-4.66 10.21-5.85 0.45-0.1 0.85-0.15 1.22-0.16zm-26.25 23.17c11.49 37.77 26.62 74.41 39.42 111.64-4.21 15.96-15.93 28.91-19.71 45.1-22.15 74.4-7.78 153.56-23.83 228.95-18.57-34.52-47.5-61.84-76.97-87.1-10.91-8.89-27.01-10.99-38.91-14.26 19.49-14.33 42.3-30.12 51.74-54.29 22.73-76.22 21.78-162.59 68.26-230.04zm542.81 55.48c2.4 0.11-0.4 8.57 1.6 8.85 1.9 61.95 31.6 117.73 49.2 175.88-1.6 9.5 6.6 25.49-0.1 32.66-41.4-57.18-71.5-122.54-87.79-191.28-6.34-20.4 25.49-17.1 35.69-25.59 0.6-0.38 1.1-0.53 1.4-0.52zm-480.3 61.97c75.8 31.39 118.82 103.86 166.24 166.26 39.91 47.83 83.09 92.78 124.59 139.19 12.77 8.84 25.93 17.35 37.81 27.47-5.05 2.25-10.13 5.57-15.95 4.48-42.43-17.26-81.98-43.21-110.48-79.63-31.55-39.96-59.23-85.02-102.1-114.13-24.49-12.63-53-20.49-70.43-43.37-17.36-31.25-7.51-71.04-29.68-100.27zm-188.58 177.38c15.96 0.06 31.52 7.37 43.18 18.03 31.41 26.04 62.59 56.3 74.77 96.36-3.81 24.98-15.88 47.58-23.6 71.33-35.58-59.64-90.48-118.46-161.26-132.6 13.97-25.01 39.91-44.06 66.91-53.12zm-66.46 64.63c7.45 1.07 15.84 1.76 21.99 6.39-0.71 8.56-13.17 12.4-19.59 15.83-2.75-6.03-13.21-18.22-2.4-22.22zm31.4 11.16c19.15 6.78 41.21 19.23 53.16 35.99-65.55 72.14-155.32 117.94-223.86 187.44-17.07 21.2-35.05 44.9-36.64 73.3-5.53 43.2-38.37 76.6-74.87 97-7.2-27.7 11.176-59.4 5.451-82.5 3.362-35 22.536-65.6 39.861-95.3 26.288-37.6 66.088-62.2 98.058-94.4 47.18-39.54 92.12-81.58 138.84-121.53zm632.12 13.52c57.02 46.62 111.32 109.91 115.62 187.11-16.4 41.6-44.1 79.7-80.39 105.8-84.94 68.5-190.52 102.9-295.62 125.6-30.9 12.5-65.93 13.7-95.13 30.2-30.52 7.5-55.46 28.7-85.44 38-69.98 29.3-123.51 84-179.94 132.6-67.6 67-126.14 143.3-191.79 211.8-21.64-27.2-23.44-65.1-38.17-96.4 12.15-40.3 40.73-73.2 60.48-109.9 58.04-116.3 143.5-221.3 255.16-289.8 82.02-53.2 165.85-104 254.33-145.8 69.82-33.8 138.56-75.8 207.3-110.2 31.25-18.68 58.67-45.34 73.59-79.01zm-572.15 29.3c27.03 17.33 43.53 49.51 61.82 76.01-2.61 12.3-19.9 23.1-32.03 17-26.62-10-47.73-31.5-63.6-54.29 2.55-17.01 22.89-26.06 33.81-38.72zm686.27 186.01c7.1 92-38 186.8-101.73 254.8-33.8 32.4-71.92 60.8-107.17 91.6-6.14 18-24.65 23.1-41.34 26-101.07 46-204.31 100.6-270.52 192.6-3.5-37.6 5.3-75 6.56-112.6 12.11-62.3 21.59-125.7 44.91-185 9.75-7.6 12.9-20.4 20.79-29.5 39.63-22.1 86.73-24.5 129.16-39.5 82.49-18.9 164.87-48.3 231.28-102.4 37.76-22.3 67.96-57 88.06-96zm-767.87 223.2c-0.26 0-0.61 0.1-1.08 0.4 0.16 3.6 2.89-0.6 1.08-0.4zm298.8 21.4c1.51 0.3-2.53 4.8-2.99 6.2-21.09 29.3-19.65 67-32.74 99.4-17.15 17.2-25.62 41.1-39.16 61.1-23.28 43.2-49.15 85.2-69.7 129.8-1.85-34.4-7.93-69-19.32-101.7-4.56-11.9 1.32-24.4 11.98-30.2 32.3-51 74.28-94.7 112.7-141 8.09-13.2 23.45-18.1 37.19-23 1.05-0.5 1.69-0.6 2.04-0.6zm-57.19 23.1c5.16-0.3-3.95 7.1-6.11 9-51.38 54.2-91.29 118.7-148.98 167.2-20.23 21.2-43.61 39.4-65.84 58.1 6.25-29.3 16.67-57.9 19.95-87.7 51.15-66.9 127.41-108.6 200.98-146.6zm308.28 104.3c4.2 0.2 4.37 7.6 5.88 10.6 17.27 63.4 46.19 122.7 68.79 184.3-0.34 24.4-3.64 49.7-8.33 73-13.85-45.6-35.34-88.7-60.96-128.9 3.56-45.9-8.46-94.8-7.44-138.5 0.78-0.3 1.46-0.5 2.06-0.5zm-293.47 1.5c-3.89 43.5-14.71 90-17.28 135 3.23 13.6-8.58 23.2-11.03 35.7-39.07 64.1-77.15 130-116.99 193-11.6-63.8-13.29-129.6-31.61-192.1-5.95-12.6-3.38-27.8 4.06-39.2 13.14-22.8 24.38-48.5 42.62-67.3 12.07 40.1 23.56 84.7 18.18 128.3 0.18 4.3-4.04 17.8 3.48 16 25.92-74.2 67.71-142.4 108.57-209.4zm274.7 6.4c0.99 0 1.63 0.5 1 2.1-8.12 33.5-28.54 62.7-35.64 96.6-3.56 7.5-12.51 10.2-16.84 17.2-48 33.5-81.24 83.2-123.67 122.9-2.87-41.8-13.39-82.7-25.54-122.4 39.62-43.9 96.61-66.5 147.3-94.9 17.21-6.9 34.1-14.7 51.43-21.2 0.64-0.1 1.36-0.3 1.96-0.3zm5.57 21.5c6.98 36.1 12.51 82.6 3.09 121.7-14.53 23.7-32.22 47.8-48.61 68.8-1.3-26.2 6.21-54.6 11.21-81.1 2.59-38.6 21.07-73.7 34.31-109.4zm-508.9 23.9c0.57 27.2-14.18 58.6-18.65 87.6-2.23 3.5-0.38 9.1 4.09 8.1 32.9-26.6 64.27-55.6 97.58-81.6-15.43 29.3-36.78 55.5-48.21 86.8-34.05 21.5-60.23 52.4-89.67 79.1-20.32 23.9-45.71 43.1-62.66 69.7-0.26 1.7-6.4 5.4-4.75 1.4 12.31-40.1 22.31-80.8 30.37-121.9 6.78-22.9 7.5-50.1 26.19-67.6 20.51-21.7 41.61-44 65.71-61.6zm458.94 75.1c-21.22 47.5-32.91 114.3-82.02 146.7-30.02 31.3-68.27 55-99.67 83.5-8.33-62.7-14.82-125.4-26.11-187.6 11.17-15.8 26.88-31.3 42.98-40.6 14.15 30.7 16.49 65.3 23.4 98 4.29 10.2-3.36 25.8 5.79 33.4 15.91-14.2 30.67-29.6 46.27-44.1 34.9-24.5 57.24-61.9 89.36-89.3zm3.64 23.4c2.51 17.2-9.99 45-8.19 65.9 1.8 7.1-5.65 25 8.54 21.3 19.48-21 28.85-52.5 49.73-72.1 0.46 14.2-0.89 35.6-1.28 52.2-17.9 27.4-31.26 57.3-44.45 87.1-16.74 16.5-18.95 44.6-33.61 61.3-5.2-35.2-8.8-70.6-15.7-105.5-1.38-5.6 2.07-10.7 4.45-15.5 17.43-29.8 25.72-63.7 40.51-94.7zm63.06 0.6c25.85 29.5 35.63 69.5 51.92 104.8 3.55 7.2 4.52 24.7 16.03 22.3 7.14-16.5 4.98-40.9 11.89-55.3 10.06 31.9 23.15 62.7 32.6 94.8-10.5 42-35.2 79.1-43.5 121.7-9.51-68.7-41.91-131.9-57.41-199.3-16.43-26.5-17.25-59.2-11.53-89zm-620.62 2c-6.81 55.2-22.48 116.7-42.69 171.1-14.22-17-23.54-37.6-35.79-56-3.41-5.8-9.38-12-5.82-19.1 23.54-35.6 54.91-65.4 84.3-96zm-139.7 4c13.813 23.9 17.013 61.4 34.703 87.7 8.19 10.7-6.41 19.8-13.34 26.3-27.087 28.7-50.1 61.3-79.625 87.8-7.487-8.1-28.201-10.8-21.388-25.9 26.737-58.3 43.413-122.4 79.65-175.9zm274.81 7.5c16.97 68.5 27.81 145 34.3 217.7-39.42 11.5-82.8 15.2-123.35 4.9-0.37-8.5 5.85-15.7 8.21-23.5 28.54-65.8 49.24-134.9 80.84-199.1zm-15.19 6.9c1.63-0.4-1.89 4.9-1.78 5.9-30.72 67-55.63 136.3-81.45 205.2-31.6-4.7-53.88-29.1-74.61-51 56.17-49.4 96.02-115.4 156.8-159.6 0.47-0.3 0.81-0.5 1.04-0.5zm181.55 4.9c-4.2 54.2-6.71 108.8-5.61 163.4 0.35 5.4-6.79 6-10.24 7.9-33.95 12-68.02 24.1-103.32 31.4 25.6-38 40.18-83.3 70.84-118 12.43-30.2 33.48-55.7 48.33-84.7zm34.58 6.4c12.41 22.2 9.45 53.6 15.12 79.3 8.6 35.8 7.9 72.7 11.83 109-20.2-8.4-38.63-21.4-57.13-33 0.44-35.6-1.55-71.3 1.03-106.7 3.2-19.4 18.63-33.1 29.15-48.6zm281.27 50.3c18.9 38.7 24.98 88.4 42.9 130.1 14.4 26.9 15.58 57.9 21.47 87.3-26.12-21.4-55.82-38.1-87.12-50.6 12.48-54.9 12.71-111.7 22.75-166.8zm-11.72 3.6c-4.86 53.7-12.23 107-18.83 160.5-20.09-1.2-38.84-9.8-58.56-13.1 34.22-44.2 43.79-101.6 75.44-147.3 0.48 0 1.46 0 1.95-0.1zm-700.84 28.8c30.04 50.1 67.35 106.1 124.53 129.7-19.04 55.1-36.28 110.9-58.57 164.8-41.11-19.4-76.7-48.4-115.28-72-17.067-33-36.068-67-38.618-104.9-1-6.3-14.312-12.2-5-18 33.1-31.2 59.528-69.1 92.938-99.6zm597.61 1.1c13.99 34.6 8.41 79.7 19.68 117.7-29.95 1.9-60.3-0.7-90.28-1.4 24.99-37.9 46-78.2 70.6-116.3zm-22.26 13c-14.43 33.6-40.57 69.3-61.99 102.3-14.13 1-33.37 2-44.57-6.5 25.88-41 73.56-61.1 106.56-95.8zm257 55.4c21.34 50.1 35.35 102.9 55.15 153.7 13.2 30.8 24.5 62.4 36 93.9-58.9-16-90.71-71.7-130.93-112.7-9.06-6.5-2.81-18.4-1.32-26.8 11.86-36.7 28.84-71.5 41.1-108.1zm-431.23 19.2c33.06 15.3 65.13 37.3 102.43 40.7-28.35 45.4-60.54 88.7-95.25 129.2-6.09-56.1-10.75-114.7-7.18-169.9zm-15.05 3.4c1.07-0.1 1.92 0.3 1.96 2 3.82 60 5.36 120 9.87 180-0.07 2-0.76 4-2.11 5.5-102.35 24.6-212.66 57-315.99 19.6 13.36-55.8 39.34-107.9 55.25-163 37.03-1.7 76.09 6.1 112.96-3.3 45.18-14.3 91.97-22 136.02-40.3 0.67-0.2 1.39-0.4 2.04-0.5zm174.8 36.4c39.01 0 78.53 2.6 115.56 14.5-6.77 51.3-22.87 105.6-47.9 151.3-66.92-34-144.17-24.5-216.27-18.7 31.01-47.7 68.93-91.9 101.59-139.1 3.84-7.6 12.9-7.2 20.12-7.6 8.92-0.2 17.89-0.4 26.9-0.4zm126.87 20.1c34.56 7.9 65.46 29.1 90.91 53.4 46.53 46.7 82.36 111 149.45 130.6 19.1 50.3 37.7 102.1 55.5 153.4-40.3 6.9-83.9-1-119-22.5-30.86-16.4-62.18-32.2-94.65-45.3-22.28-11.5-36.15-33.2-52.26-51.5-19.61-26.5-45.7-47.4-74.26-63.5-4.27-1.1-1.93-5.6-0.96-8.2 20.47-47 37.78-95.7 45.27-146.4zm-725.88 95.3c36.437 19.6 66.357 50.4 106.03 63.8 16.13 7.7 34.08 9.2 51.15 13.9 39.41 10.7 84.24-1 119.96 22.7 122.71 17.2 250.79 13.7 368.96-26.4 10.39-3.3 22.38-11.7 32.82-4.3 27.82 17.8 57.39 37.8 72.88 67.8 9.44 11.2 21.12 20.4 29.95 32.1-53.23-9.2-101.56 19.1-148.91 38.6-90.49 27.3-183.92 52.2-279.46 47.1-77.96-7.1-153.66-38.4-213.18-89.4-53.62-48.5-108.78-99.4-140.2-165.9zm538.07 35.4c39.03-0.1 78.39 6.2 113.75 23-56.57 25.3-119.59 28.4-179.88 39-70.97 4.8-144.36 5.8-213.08-14.3 84.55-10.2 166.74-39.4 252.29-46.6 8.92-0.7 17.91-1.1 26.92-1.1z" transform="scale(.8)"/>
</svg>
