<?xml version="1.0"?>
<svg xmlns:rdf="http://www.w3.org/1999/02/22-rdf-syntax-ns#" xmlns="http://www.w3.org/2000/svg" xmlns:cc="http://creativecommons.org/ns#" xmlns:dc="http://purl.org/dc/elements/1.1/" xmlns:svg="http://www.w3.org/2000/svg" id="svg2" viewBox="0 0 404.56 656.51" version="1.1">
  <g id="layer1" stroke="#000" transform="translate(-185.55 -122.6)" fill="none">
    <path id="path2816" stroke-width="2.5" d="m186.05 747.51c7.4521 3.5661 53.183-124.46 45.943-134.11-30.421-42.998-38.696-114.86-35.553-121.43 4.3191-10.644 37.746-80.261 54.802-99.723 3.3201-2.8886 81.885-15.759 99.512-18.502 24.286 6.4249 33.82 22.745 22.084 51.683-27.733 32.748-53.863 37.58-70.359 40.902 0 0 2.1914 47.368-5.3676 59.246"/>
    <path id="path2818" stroke-width="2" d="m303.94 485.99c40.844 42.056 67.854 61.419 43.648 160.08"/>
    <path id="path2820" stroke-width="2.5" d="m346.94 778.62c4.2827-20.961 10.657-49.243 23.888-101.52 29.655-15.936 63.388-23.717 84.801-56.136 17.168-48.984 40.269-87.585 40.609-166.02 12.874-26.331 22.545-43.051 38.757-79.395 12.205-26.548 22.852-48.811 30.228-62.077 7.5566-14.961 14.359-24.639 22.995-47.157 5.3929-21.674-4.7113-57.471-31.066-25.28l-20.782 39.655c-17.151 27.665-24.354 38.749-34.86 55.339-3.1788 7.2659-41.038 72.213-41.038 72.213s17.878-35.354 14.268-52.43c-2.5539-12.082-30.964-26.403-41.687-18.378l-14.449 17.19c-0.95854-10.014-1.0804-20.238-8.3607-28.672-17.063-13.762-42.851-11.876-56.023-5.9342-5.0824 2.3102-38.333 36.988-38.333 36.988-0.2793-26.035-0.51542-52.069-6.9743-78.104-0.46235-31.642-3.4486-58.236-7.0509-83.599-1.323-21.706-6.1696-42.468-8.2388-46.773-20.837-42.68-48.277-24.128-51.016 1.1944-0.15708 17.097 1.9718 20.177 2.0354 41.006 0.0636 20.828 3.8474 80.323 4.1626 98.384 0.63042 36.121-6.6743 47.864-5.7753 81.03-17.062 39.795-29.461 78.033-44.192 117.05"/>
    <path id="path2822" stroke-width="2.1" d="m460.2 408.39c-20.367 34.017-40.74 60.581-57.578 72.656-12.299 11.641-27.595 21.035-27.162 20.891-11.442 1.555-35.46-13.136-31.716-20.634 6.4019-0.31964 9.2488-8.0024 31.308-42.45 16.403-20.688 44.522-83.12 43.376-83.938"/>
    <path id="path2824" stroke-width="2.2" d="m343.59 481.3c-16.982-1.4408-24.919-6.9148-28.492-17.295"/>
    <path id="path2826" stroke-width="2.2" d="m350.39 334.12c-8.1668 12.993-13.237 27.535-17.262 42.599"/>
    <path id="path2828" stroke-width=".5" d="m484.67 515.43c-21.49-11.4-35.03-21.05-80.88-35.5"/>
    <path id="path2830" stroke-width=".4" d="m376.57 501.17c14.315 23.479 16.32 49.036 28.59 74.174"/>
    <path id="path2853" stroke-width=".45" d="m260.15 358.62c13.087-0.43618 25.524 0.42829 40.389-3.5637"/>
    <path id="path2855" stroke-width=".45" d="m254.21 276.65c17.483 1.6437 34.593 2.9152 42.765-4.7517"/>
    <path id="path2857" stroke-width=".45" d="m250.65 192.31c16.031 3.5515 30.648 4.2767 40.389-4.7516"/>
    <path id="path2859" stroke-width=".45" d="m468.37 408.01c0.35493 12.671 12.68 24.832 26.822 33.765"/>
    <path id="path2861" stroke-width=".45" d="m508.43 338.43c3.9597 15.047 11.087 23.758 21.382 26.134"/>
    <path id="path2863" stroke-width=".45" d="m539.31 284.97c5.5656 14.959 13.881 18.92 22.57 21.382"/>
    <path id="path3637" stroke-width="1.625" d="m302.58 466.1c-6.2537-1.0301-8.3853 0.14029-14.377-9.3155"/>
    <path id="path3639" stroke-width=".8" d="m250.22 632.27c7.3591 8.3056 24.902 21.815 52.376 26.782 21.021 18.082 48.127 19.705 60.45 18.538"/>
    <path id="path3641" stroke-width=".45" d="m366.69 323.83c22.427-2.2962 32.731 10.563 42.765 23.758"/>
    <path id="path3643" stroke-width=".45" d="m435.96 346.74c13.275-1.5697 23.709 5.0696 33.262 14.255"/>
    <path id="path3645" stroke-width=".45" d="m441.78 355.4c6.8637-0.59426 12.378 2.475 16.848 5.9396"/>
    <path id="path3641-9" stroke-width=".45" d="m366.17 327.91c18.906-1.7888 27.592 8.2289 36.051 18.508"/>
    <path id="path3641-9-4" stroke-width=".6" d="m365.9 460.88c18.906-1.7888 21.538 13.646 26.81 19.464"/>
    <path id="path3641-9-4-8" stroke-width=".6" d="m363.97 463.7c14.232-1.6281 20.77 7.4895 27.137 16.845"/>
    <path id="path2828-7" stroke-width=".3" d="m484.37 516.69c-20.97-12.33-33.01-22.13-78.19-38.57"/>
    <path id="path2857-0" stroke-width=".45" d="m249.79 194.57c15.143 2.5648 29.927 1.7273 46.826-7.2548"/>
    <path id="path2855-0" stroke-width=".45" d="m258.61 277.42c17.483 1.6437 34.593 2.9152 42.765-4.7517"/>
    <path id="path2853-3" stroke-width=".45" d="m251.82 362.4c17.969-1.9554 35.152-2.5391 55.268-8.2443"/>
    <path id="path2863-3" stroke-width=".45" d="m540.58 284.52c3.8805 10.877 12.594 19.8 21.101 22.834"/>
    <path id="path2861-4" stroke-width=".45" d="m508.83 341.16c2.94 15.387 7.0085 22.739 21.382 26.134"/>
    <path id="path2859-1" stroke-width=".45" d="m467.03 410.56c1.8206 12.545 15.472 23.196 30.554 30.43"/>
    <path id="path3639-4" stroke-width=".8" d="m245.8 631.27c7.7588 7.9335 19.596 22.583 55.073 27.635 21.885 17.026 47.307 17.025 62.443 17.273"/>
    <path id="path3913" stroke-width=".525" d="m246.21 408.77c-0.48621 12.958 14.046 25.917 23.757 38.875"/>
    <path id="path3915" stroke-width=".525" d="m241.89 416.33c-1.4775 7.615 11.075 17.67 19.437 26.996"/>
    <path id="path3917" stroke-width="1.125" d="m354.59 376.04c-14.63 1.6827-35.194 6.1475-40.979 10.926 8.3664 13.819 11.747 24.477 16.013 39.207 11.463 2.7954 29.972-0.12912 42.82-4.257 9.1811-23.618-0.61889-41.479-17.854-45.876z"/>
    <path id="path3919" stroke-width=".625" d="m316.79 391.19c12.782 3.874 21.048 19.189 11.993 30.756"/>
    <path id="path3921" stroke-width=".6" d="m266.72 755.4 20.517-72.35"/>
    <path id="path3923" stroke-width=".6" d="m278.6 751.08 21.597-72.35"/>
    <path id="path2871" stroke-width=".45" d="m406.19 541.27c4.1268 8.4318 12.782 21.392 22.601 35.516"/>
  </g>
  <metadata>
    <rdf:RDF>
      <cc:Work>
        <dc:format>image/svg+xml</dc:format>
        <dc:type rdf:resource="http://purl.org/dc/dcmitype/StillImage"/>
        <cc:license rdf:resource="http://creativecommons.org/licenses/publicdomain/"/>
        <dc:publisher>
          <cc:Agent rdf:about="http://openclipart.org/">
            <dc:title>Openclipart</dc:title>
          </cc:Agent>
        </dc:publisher>
        <dc:title>Heavy Metal 2</dc:title>
        <dc:date>2011-06-13T03:04:38</dc:date>
        <dc:description>A heavier version (thicker lines) of the metal hand sign. Drawn in Inkscape.</dc:description>
        <dc:source>http://openclipart.org/detail/144871/heavy-metal-2-by-j_alves</dc:source>
        <dc:creator>
          <cc:Agent>
            <dc:title>J_Alves</dc:title>
          </cc:Agent>
        </dc:creator>
        <dc:subject>
          <rdf:Bag>
            <rdf:li>clip art</rdf:li>
            <rdf:li>clipart</rdf:li>
            <rdf:li>gesture</rdf:li>
            <rdf:li>hand</rdf:li>
            <rdf:li>hand sign</rdf:li>
            <rdf:li>heavy</rdf:li>
            <rdf:li>metal</rdf:li>
            <rdf:li>music</rdf:li>
            <rdf:li>sign</rdf:li>
          </rdf:Bag>
        </dc:subject>
      </cc:Work>
      <cc:License rdf:about="http://creativecommons.org/licenses/publicdomain/">
        <cc:permits rdf:resource="http://creativecommons.org/ns#Reproduction"/>
        <cc:permits rdf:resource="http://creativecommons.org/ns#Distribution"/>
        <cc:permits rdf:resource="http://creativecommons.org/ns#DerivativeWorks"/>
      </cc:License>
    </rdf:RDF>
  </metadata>
</svg>
