<?xml version="1.0" encoding="UTF-8" standalone="no"?>
<!-- Created with Inkscape (http://www.inkscape.org/) -->

<svg
   xmlns:dc="http://purl.org/dc/elements/1.1/"
   xmlns:cc="http://creativecommons.org/ns#"
   xmlns:rdf="http://www.w3.org/1999/02/22-rdf-syntax-ns#"
   xmlns:svg="http://www.w3.org/2000/svg"
   xmlns="http://www.w3.org/2000/svg"
   xmlns:sodipodi="http://sodipodi.sourceforge.net/DTD/sodipodi-0.dtd"
   xmlns:inkscape="http://www.inkscape.org/namespaces/inkscape"
   width="827.12262"
   height="799.10187"
   id="svg4523"
   version="1.1"
   inkscape:version="0.48.4 r9939"
   sodipodi:docname="Holding hand.svg">
  <defs
     id="defs4525" />
  <sodipodi:namedview
     id="base"
     pagecolor="#ffffff"
     bordercolor="#666666"
     borderopacity="1.0"
     inkscape:pageopacity="0.0"
     inkscape:pageshadow="2"
     inkscape:zoom="0.49497475"
     inkscape:cx="-169.23689"
     inkscape:cy="373.23429"
     inkscape:document-units="px"
     inkscape:current-layer="layer1"
     showgrid="false"
     inkscape:window-width="1920"
     inkscape:window-height="1018"
     inkscape:window-x="-8"
     inkscape:window-y="-8"
     inkscape:window-maximized="1"
     fit-margin-top="0"
     fit-margin-left="0"
     fit-margin-right="0"
     fit-margin-bottom="0" />
  <metadata
     id="metadata4528">
    <rdf:RDF>
      <cc:Work
         rdf:about="">
        <dc:format>image/svg+xml</dc:format>
        <dc:type
           rdf:resource="http://purl.org/dc/dcmitype/StillImage" />
        <dc:title />
      </cc:Work>
    </rdf:RDF>
  </metadata>
  <g
     inkscape:label="Layer 1"
     inkscape:groupmode="layer"
     id="layer1"
     transform="translate(41.716382,-105.3981)">
    <g
       id="g3025">
      <path
         style="fill:#ffffff;stroke:none"
         d="M 718.67327,903.27537 567.69023,690.82067 c -76.71893,62.34025 -168.4922,36.86353 -256.67117,32.35351 -53.3133,12.70814 -85.01636,39.16826 -116.4726,65.78546 -41.18326,-26.48479 -26.47189,-52.02276 -8.62761,-75.49152 32.83669,-43.18671 82.35853,-58.12232 132.64938,-70.09925 16.65192,-8.34524 32.50782,-16.15981 43.13801,-20.49055 -11.75306,-19.61514 -14.39516,-36.19329 -14.01985,-51.76561 -38.21513,-26.35813 -54.70485,-44.02611 -62.55013,-58.23632 -19.05261,-14.60701 -38.10525,-27.28645 -57.15786,-39.90265 -26.64399,9.7695 -60.28339,18.13993 -97.06051,25.8828 -3.36613,25.16384 -2.65826,50.32767 -19.41212,75.4915 -1.15494,20.49056 -3.88854,43.90022 -31.275049,61.47167 -22.793799,14.62471 -43.463649,13.83007 -51.765608,-1.07844 11.639482,-26.3653 20.343781,-44.90349 25.882804,-55.00096 7.779662,-24.67538 8.313233,-42.69126 8.627602,-59.31477 1.097952,-58.05747 1.249745,-82.55014 56.079421,-95.98208 24.94619,-6.11122 44.41006,-12.22242 57.15785,-18.33364 -29.63169,-13.77848 -29.64002,-18.66996 -40.98111,-26.96126 -39.728054,6.60219 -57.512792,-10.9333 -77.648409,-25.8828 -36.719977,-8.70648 -103.37289,-21.20575 -96.720562,-86.23946 1.437539,-14.05348 3.624519,-11.99175 13.251447,-6.70793 22.9270371,12.58374 49.843246,28.37828 82.460926,39.39746 39.143433,3.05055 75.498368,6.37996 94.559848,11.43871 C 120.38843,266.76723 118.30074,253.427 110.71822,234.13401 91.209651,205.99205 84.169545,192.09978 78.689881,179.99087 54.285654,152.46768 68.168145,118.31315 84.027937,107.5458 c 9.405143,14.65677 18.810303,24.16662 28.215453,48.04251 l 32.02833,52.61799 c 14.58385,18.46126 28.61892,37.4713 41.17929,57.95604 6.86322,6.98978 13.72642,14.45352 20.58965,22.87738 -2.23368,-8.70928 -1.29414,-16.36081 0.76257,-23.63995 -3.46277,-11.28044 -8.87294,-20.61348 -8.38837,-35.84125 -16.90451,-26.4834 -10.44331,-54.01888 11.43869,-56.43087 8.2926,21.66907 15.23077,40.62924 22.11482,59.48119 7.00961,14.41822 8.73064,20.37472 22.11479,44.99219 5.73999,15.74806 10.62455,29.35752 19.06449,51.85542 15.25159,9.62707 30.50317,19.80613 45.75476,26.69028 69.49154,52.3567 128.1953,101.95743 215.04742,160.90426 14.08613,9.56031 56.28536,26.20172 88.64425,49.17515 56.0048,39.76101 106.38375,81.98851 161.48182,126.21813"
         id="path4226"
         inkscape:connector-curvature="0"
         sodipodi:nodetypes="ccccscccccccsccsscccssccccccccccccccccssc" />
      <path
         style="fill:#808080;stroke:none"
         d="m -38.976124,285.30186 c 6.486784,49.23686 63.576228,60.17475 96.552092,67.99349 20.135618,14.9495 37.940662,32.42504 77.668722,25.82285 11.31548,8.27258 11.3379,13.2498 40.7694,26.95718 l 20.68497,-5.33805 C 177.64645,384.16601 158.56774,382.57655 139.51513,373.78014 117.31868,362.8736 92.6922,355.18278 66.183584,350.02579 27.457886,322.94269 -5.8205816,303.92963 -38.909399,285.30186 l -0.06662,0 z"
         id="path4224"
         inkscape:connector-curvature="0" />
      <path
         style="fill:none;stroke:#000000;stroke-width:4.27044487;stroke-linecap:round;stroke-linejoin:round;stroke-miterlimit:4;stroke-opacity:1;stroke-dasharray:none;stroke-dashoffset:0"
         d="m 402.02359,591.78378 c -8.31067,11.65758 -18.22419,22.99461 -41.56059,31.64705 9.9899,-8.36297 19.15226,-16.65698 17.15803,-24.02126"
         id="path4228"
         inkscape:connector-curvature="0"
         sodipodi:nodetypes="ccc" />
      <path
         style="fill:#808080;stroke:none"
         d="m 572.03114,669.24156 c -58.82579,30.43939 -120.70635,50.21827 -202.77941,42.03719 -24.7653,-2.46862 -58.45644,-1.17751 -88.41156,-2.13522 -39.13707,14.46508 -71.27368,39.44635 -100.75581,68.39384 3.77507,3.78221 8.53156,7.58502 14.47948,11.4101 31.45624,-26.6172 63.12305,-53.08341 116.43635,-65.79155 88.17897,4.51002 179.97485,29.97829 256.69378,-32.36196 l 150.86681,212.25446 0.20007,-0.0666 7.40656,-23.75435 C 666.12516,802.31983 622.31377,738.34169 572.03103,669.24166 z"
         id="path4230"
         inkscape:connector-curvature="0" />
      <path
         style="fill:none;stroke:#000000;stroke-width:4.27044487;stroke-linecap:round;stroke-linejoin:round;stroke-miterlimit:4;stroke-opacity:1;stroke-dasharray:none;stroke-dashoffset:0"
         d="m 567.88462,692.44427 6.48192,-26.30899"
         id="path4232"
         inkscape:connector-curvature="0" />
      <path
         style="fill:#808080;stroke:none"
         d="m 240.40439,456.25311 c -35.07145,10.94788 -72.94419,19.78924 -113.76732,26.42338 -8.79016,29.10097 -10.89817,51.50793 -28.625326,89.54589 0.162064,18.04652 -8.317973,40.34616 -15.747266,62.18836 25.468512,-17.40713 28.100512,-40.08763 29.225862,-60.05313 16.75385,-25.16384 16.05104,-50.36967 19.41718,-75.5335 36.77711,-7.74287 70.4419,-16.05335 97.08589,-25.82285 19.05262,12.6162 38.06459,25.29496 57.11721,39.90197 7.75064,14.03879 24.01595,31.41683 61.25419,57.25066 l 0.2669,-0.40036 -3.00265,-22.08621 c -22.50196,-20.67702 -34.40691,-35.32977 -47.17507,-50.44463 -28.48434,-15.8362 -39.44181,-27.77262 -56.0496,-40.96958 z"
         id="path4234"
         inkscape:connector-curvature="0" />
      <path
         style="fill:none;stroke:#000000;stroke-width:4.27044487;stroke-linecap:round;stroke-linejoin:round;stroke-miterlimit:4;stroke-opacity:1;stroke-dasharray:none;stroke-dashoffset:0"
         d="m 99.279532,572.33801 c 3.336418,1.2788 5.432458,3.4879 12.582568,1.90643"
         id="path4236"
         inkscape:connector-curvature="0"
         sodipodi:nodetypes="cc" />
      <path
         style="fill:none;stroke:#000000;stroke-width:4.27044487;stroke-linecap:round;stroke-linejoin:round;stroke-miterlimit:4;stroke-opacity:1;stroke-dasharray:none;stroke-dashoffset:0"
         d="m 122.29029,492.38584 c 1.90575,2.15689 2.79928,4.31381 8.08837,6.4707"
         id="path4238"
         inkscape:connector-curvature="0"
         sodipodi:nodetypes="cc" />
      <path
         style="fill:none;stroke:#000000;stroke-width:4.27044487;stroke-linecap:round;stroke-linejoin:round;stroke-miterlimit:4;stroke-opacity:1;stroke-dasharray:none;stroke-dashoffset:0"
         d="m 346.57863,570.06942 -1.74851,-25.56558"
         id="path4240"
         inkscape:connector-curvature="0"
         sodipodi:nodetypes="cc" />
      <path
         style="fill:#808080;fill-opacity:1;stroke:none"
         d="m 201.70349,250.80467 c 1.62033,4.93514 3.53144,9.59716 5.07115,14.61293 -2.05671,7.27914 -2.96766,14.91163 -0.73398,23.6209 -0.74161,-0.91025 -1.46035,-1.78058 -2.20195,-2.66903 l 0.93416,2.73575 29.69294,21.0186 c -5.70152,-10.60475 -12.53419,-21.22341 -11.34337,-31.82816 -7.77324,-9.82055 -14.64417,-18.66889 -21.41895,-27.49099 z"
         id="path4242"
         inkscape:connector-curvature="0" />
      <path
         style="fill:#808080;stroke:none"
         d="m 110.42272,233.58944 -0.0666,0.0666 c 0.11615,0.16783 0.21657,0.29822 0.33362,0.46708 7.58252,19.29299 9.68928,32.61416 40.43578,77.00146 4.29321,2.37334 75.8004,45.37348 75.8004,45.37348 -52.43229,-46.42435 -85.26428,-84.96181 -116.50308,-122.90875 z"
         id="path4244"
         inkscape:connector-curvature="0" />
      <path
         style="fill:none;stroke:#000000;stroke-width:4.27044487;stroke-linecap:round;stroke-linejoin:round;stroke-miterlimit:4;stroke-opacity:1;stroke-dasharray:none;stroke-dashoffset:0"
         d="m 174.77489,406.47695 20.58965,-5.33805"
         id="path4246"
         inkscape:connector-curvature="0" />
      <path
         style="fill:none;stroke:#000000;stroke-width:4.27044487;stroke-linecap:round;stroke-linejoin:round;stroke-miterlimit:4;stroke-opacity:1;stroke-dasharray:none;stroke-dashoffset:0"
         d="m 133.9769,378.64281 6.86322,-4.19419"
         id="path4248"
         inkscape:connector-curvature="0" />
      <path
         style="fill:none;stroke:#000000;stroke-width:4.27044487;stroke-linecap:round;stroke-linejoin:round;stroke-miterlimit:4;stroke-opacity:1;stroke-dasharray:none;stroke-dashoffset:0"
         d="m 58.862824,353.09639 8.007084,-2.28772"
         id="path4250"
         inkscape:connector-curvature="0" />
      <path
         style="fill:none;stroke:#000000;stroke-width:4.27044487;stroke-linecap:round;stroke-linejoin:round;stroke-miterlimit:4;stroke-opacity:1;stroke-dasharray:none;stroke-dashoffset:0"
         d="m 205.65937,289.42102 c 16.26837,13.21803 31.92758,22.81782 48.80508,39.65412 10.91144,10.88479 23.35474,20.11751 35.07865,30.1219 7.34073,6.2641 14.74322,12.45546 22.11482,18.6832"
         id="path4252"
         inkscape:connector-curvature="0"
         sodipodi:nodetypes="cssc" />
      <path
         style="fill:none;stroke:#000000;stroke-width:4.27044487;stroke-linecap:round;stroke-linejoin:round;stroke-miterlimit:4;stroke-opacity:1;stroke-dasharray:none;stroke-dashoffset:0"
         d="m 273.52893,329.07514 c -4.6803,-4.17193 -10.83552,-9.81876 -17.53931,-16.01417"
         id="path4254"
         inkscape:connector-curvature="0"
         sodipodi:nodetypes="cc" />
      <path
         style="fill:none;stroke:#000000;stroke-width:4.27044487;stroke-linecap:round;stroke-linejoin:round;stroke-miterlimit:4;stroke-opacity:1;stroke-dasharray:none;stroke-dashoffset:0"
         d="m 78.073826,180.1745 11.862955,7.54914"
         id="path4256"
         inkscape:connector-curvature="0" />
      <path
         style="fill:none;stroke:#000000;stroke-width:4.27044487;stroke-linecap:round;stroke-linejoin:round;stroke-miterlimit:4;stroke-opacity:1;stroke-dasharray:none;stroke-dashoffset:0"
         d="m 197.78181,229.78321 7.54914,3.23533"
         id="path4258"
         inkscape:connector-curvature="0" />
      <path
         style="fill:none;stroke:#000000;stroke-width:4.27044487;stroke-linecap:round;stroke-linejoin:round;stroke-miterlimit:4;stroke-opacity:1;stroke-dasharray:none;stroke-dashoffset:0"
         d="m 206.40941,265.37206 8.08837,6.4707"
         id="path4260"
         inkscape:connector-curvature="0" />
      <path
         style="fill:none;stroke:#000000;stroke-width:4.27044487;stroke-linecap:round;stroke-linejoin:round;stroke-miterlimit:4;stroke-opacity:1;stroke-dasharray:none;stroke-dashoffset:0"
         d="m 150.75364,310.39194 c 23.02144,12.59952 48.28951,27.44568 77.40182,46.13607"
         id="path4262"
         inkscape:connector-curvature="0"
         sodipodi:nodetypes="cc" />
      <path
         sodipodi:nodetypes="ccccscccccccsccsscccssccccccccccccccccssc"
         inkscape:connector-curvature="0"
         id="path3023"
         d="M 718.67327,903.27537 567.69023,690.82067 c -76.71893,62.34025 -168.4922,36.86353 -256.67117,32.35351 -53.3133,12.70814 -85.01636,39.16826 -116.4726,65.78546 -41.18326,-26.48479 -26.47189,-52.02276 -8.62761,-75.49152 32.83669,-43.18671 82.35853,-58.12232 132.64938,-70.09925 16.65192,-8.34524 32.50782,-16.15981 43.13801,-20.49055 -11.75306,-19.61514 -14.39516,-36.19329 -14.01985,-51.76561 -38.21513,-26.35813 -54.70485,-44.02611 -62.55013,-58.23632 -19.05261,-14.60701 -38.10525,-27.28645 -57.15786,-39.90265 -26.64399,9.7695 -60.28339,18.13993 -97.06051,25.8828 -3.36613,25.16384 -2.65826,50.32767 -19.41212,75.4915 -1.15494,20.49056 -3.88854,43.90022 -31.275049,61.47167 -22.793799,14.62471 -43.463649,13.83007 -51.765608,-1.07844 11.639482,-26.3653 20.343781,-44.90349 25.882804,-55.00096 7.779662,-24.67538 8.313233,-42.69126 8.627602,-59.31477 1.097952,-58.05747 1.249745,-82.55014 56.079421,-95.98208 24.94619,-6.11122 44.41006,-12.22242 57.15785,-18.33364 -29.63169,-13.77848 -29.64002,-18.66996 -40.98111,-26.96126 -39.728054,6.60219 -57.512792,-10.9333 -77.648409,-25.8828 -36.719977,-8.70648 -103.37289,-21.20575 -96.720562,-86.23946 1.437539,-14.05348 3.624519,-11.99175 13.251447,-6.70793 22.9270371,12.58374 49.843246,28.37828 82.460926,39.39746 39.143433,3.05055 75.498368,6.37996 94.559848,11.43871 C 120.38843,266.76723 118.30074,253.427 110.71822,234.13401 91.209651,205.99205 84.169545,192.09978 78.689881,179.99087 54.285654,152.46768 68.168145,118.31315 84.027937,107.5458 c 9.405143,14.65677 18.810303,24.16662 28.215453,48.04251 l 32.02833,52.61799 c 14.58385,18.46126 28.61892,37.4713 41.17929,57.95604 6.86322,6.98978 13.72642,14.45352 20.58965,22.87738 -2.23368,-8.70928 -1.29414,-16.36081 0.76257,-23.63995 -3.46277,-11.28044 -8.87294,-20.61348 -8.38837,-35.84125 -16.90451,-26.4834 -10.44331,-54.01888 11.43869,-56.43087 8.2926,21.66907 15.23077,40.62924 22.11482,59.48119 7.00961,14.41822 8.73064,20.37472 22.11479,44.99219 5.73999,15.74806 10.62455,29.35752 19.06449,51.85542 15.25159,9.62707 30.50317,19.80613 45.75476,26.69028 69.49154,52.3567 128.1953,101.95743 215.04742,160.90426 14.08613,9.56031 56.28536,26.20172 88.64425,49.17515 56.0048,39.76101 106.38375,81.98851 161.48182,126.21813"
         style="fill:none;stroke:#000000;stroke-width:4.27044487;stroke-linejoin:round;stroke-miterlimit:4;stroke-dasharray:none" />
    </g>
  </g>
</svg>
