<?xml version="1.0" encoding="utf-8"?>
<!-- Generator: Adobe Illustrator 18.0.0, SVG Export Plug-In . SVG Version: 6.00 Build 0)  -->
<!DOCTYPE svg PUBLIC "-//W3C//DTD SVG 1.1//EN" "http://www.w3.org/Graphics/SVG/1.1/DTD/svg11.dtd">
<svg version="1.1" id="Layer_1" xmlns="http://www.w3.org/2000/svg" xmlns:xlink="http://www.w3.org/1999/xlink" x="0px" y="0px"
	 viewBox="252.4023 18.1751 1480.5977 1837.7736" enable-background="new 252.4023 18.1751 1480.5977 1837.7736"
	 xml:space="preserve">
<g id="_x23_000000ff">
</g>
<g id="_x23_ffffffff">
	<path d="M1023.42,38.38c0.98-1.23,2.34,0.79,2.36,1.8c0.46,3.04,1.5599,6.45-0.27,9.25c-5.62,11.63-7.55,25.11-15.59,35.51
		c-4.09,5.59-12.26,7.77-18.44,4.67c-2.44-7.35-1.73-15.88,2.81-22.28C1002.09,55.85,1015.18,49.48,1023.42,38.38z"/>
	<path d="M918.04,67.05c10.78-18.95,35.7-28.65,56.37-21.48c7.55,2.5,13.32,8.16,19.66,12.69c-0.96,6.45-7.43,9.71-10.13,15.29
		c-4.97-0.73-7.67-5.6-12.28-7.22C953.22,58,929.84,70.37,924.52,89.45c-0.91,2.65-0.87,5.96-3.25,7.83
		c-1.66,1.49-3.97,1.53-6.05,1.66C911.79,88.51,912.53,76.64,918.04,67.05z"/>
	<path d="M1081.28,65.27c2.48-2.66,4.78-5.51,7.63-7.81c1.4399,2.47,0.9099,5.29,0.4,7.92c-0.6901,6.98-3.67,13.57-7.65,19.28
		c-7.15,12.77-5.5601,27.99-9.0601,41.8c-1.7,6.8-5,13.8-11.1799,17.59c-6.15-8.82-17.1001-13.23-21.9701-23.1
		C1048.33,99.08,1065.27,82.07,1081.28,65.27z"/>
	<path d="M942.12,81.06c6.96-10.21,21.95-13.6,32.82-7.96c4.68,2.34,7.46,7.74,6.54,12.92c-1.14,6.38-4.74,12.46-9.96,16.33
		c-10.78,1.85-21.64-0.79-31.86-4.09C938.28,92.49,938.68,86.06,942.12,81.06z"/>
	<path d="M1018.45,84.44c3.92-0.86,7.53,1.69,10.98,3.19c3.5,3.57,7.84,6.09,11.6499,9.28c3.0701,2.47,4.7001,7.12,2.7101,10.71
		c-3.86,3.79-9.48,5.25-14.77,5c-8.25-0.06-16.36-3.35-24.61-2.05c-14.39,5.85-29.92,8.62-45.42,8.81
		c-38.02,0.58-75-10.99-112.99-10.95c-6.11-0.14-12.66,0.08-17.82,3.77c-9.5,6.57-13.95,18.16-15.54,29.21
		c-1.25,10.63-0.65,22.3,5.48,31.47c3.4,5.18,9.69,8.39,15.92,7.36c7.51-0.68,13.14-6.35,20.34-8.03
		c12.95-4.12,27.13-0.97,38.54,5.92c23.59,14.02,40.14,36.82,62.52,52.42c11.5,6.65,25.63,8.1,38.49,5.24
		c10.47-2.32,20.61-8.53,25.5-18.36c3.61-6.88,3.91-14.91,3.02-22.48c-0.33-3.95,5.84-7.49,8.35-3.73
		c5.24,7.1,12.0299,13.44,14.8899,21.98c-1.7,14.14-7.2799,28.71-18.5499,37.97c-9.14,7.63-21.43,10.44-33.12,9.98
		c-16.23-0.72-31.85-6.44-45.94-14.26c-15.52-8.76-29.62-20.33-40.4-34.58c-2.21-2.78-3.69-6.21-6.66-8.3
		c-7.96-5.94-16.05-11.96-25.29-15.77c-5.18-2.11-11.03-1.8-16.2,0.12c-9.7401,3.44-17.72,10.83-27.94,13.02
		c-3.51,0.54-7.69,1.14-10.54-1.46c-11.8-8.98-24.67-17.77-31.81-31.19c-2.57-4.88-4.42-10.24-4.79-15.76
		c3.67-13.98,11.83-26.44,21.58-36.97c8.04-8.38,16.96-16.19,27.0699-21.95c16.16,0.18,32.14,3.22,48.03,5.99
		c25.72,4.56,51.65,10.21,77.93,8.71c18.89-0.98,37.87-6.97,52.67-19C1014.06,88.1,1015.86,85.7,1018.45,84.44z"/>
	<path d="M1085.25,126.76c12.73-1.42,25.75-0.74,38.05,3.03c14.0199,4.06,27.21,10.62,39.5299,18.37c5.17,3,9.38,7.31,14.1801,10.83
		c12.8,9.71,26.55,18.6,36.8099,31.17c2.15,2.55,3.79,5.5,6.1801,7.85c26.89,25.72,45.49,59.26,56.1801,94.7
		c13.5199,45.48,14.85,95.01,1.12,140.6c-9.79,32.72-28.4601,63.24-55.3501,84.65c-8.01,9.35-17.38,17.44-27.3899,24.59
		c-8.3,4.98-14.63,13.11-17.52,22.34c-2.01,6.48-1.7001,14.04,2.37,19.69c6.5499,9.71,20.77,11.47,30.7999,6.58
		c3.8-1.98,7.1001-5.66,7.2201-10.1299c0.25-5.46-3.0701-10.16-6.39-14.16c1.8199-2.57,5.3999-2.08,7.75-0.58
		c3.8999,2.31,8.08,4.32,11.38,7.4901c3.48,9.83,2.9199,21.5-3.0801,30.27c-14.89,21.39-50.88,22.34-66.88,1.72
		c-5.83-7.31-8.2-16.67-9.4399-25.77c-1.6801-16.09,5.3199-31.8,14.88-44.35c13.59-11.79,28.11-22.48,41.58-34.42
		c15.59-13.77,30.8201-28.61,41.14-46.88c7.6801-13.44,11.6901-29.6,8.08-44.93c-2.9299-13.58-11.1599-25.2-20.3099-35.35
		c2.34-4.91,7.41-7.17,11.33-10.51c9.14-22.1,10.88-46.96,6.16-70.33c-6.41-31.49-23.63-60.08-46.02-82.83
		c-13.01-13.32-27.95-24.77-44.25-33.77c-16.22-8.83-33.86-15.47-52.28-17.63c-8.39-1.36-15.24-7.3-20.34-13.77
		C1086.91,140.03,1083.51,133.36,1085.25,126.76z"/>
	<path d="M828.15,142.02c3.86-10.28,15.92-17.91,26.77-13.78c8.12,2.39,13.89,12.68,9.05,20.38c-3.33-1.98-6.8799-4.54-10.98-3.89
		c-4.92,0.67-8.39,4.96-10.11,9.33c-1.37,2.98-1.41,6.33-2.42,9.41c-2.34,1.38-5.36,2.26-7.93,1.05
		C826.86,158.7,824.95,149.54,828.15,142.02z"/>
	<path d="M995.3,136.22c3.57-1.19,7.67-0.55,10.62,1.82c6.83,5.18,11.53,13.82,10.59,22.52c-5.72,6.91-15.5,9.26-24.09,7.75
		c-13.5-2.38-25.65-11.82-31.04-24.46c6.09-4.16,13.62,0.31,20.1-2.35C986.27,140.25,990.59,137.71,995.3,136.22z"/>
	<path d="M1070.6,150.49c4-1.68,8.5601-0.5,12.63-2.08c26.8301,32.31,46.1901,70.42,59.02,110.3
		c13.75,42.99,19.9301,88.21,20.02,133.29c-0.02,61.82-11.27,123.76-34.15,181.24c-4.25,21.38-10.5599,42.28-16.5,63.24
		c-3.59,10.21-1.8,21.3,0.33,31.64c1.9301,6.82,3.13,14.39,8.2101,19.72c9.8099,11.52,22.52,20.06,35.64,27.37
		c13.75,7.77,28.13,14.65,40.72,24.3c3.5499,2.76,7.9299,4.06,11.9199,6.03c36.52,16.82,71.39,37.32,103.55,61.47
		c30.1901,22.74,58.08,48.91,80.7,79.3c21.26,28.62,37.5901,61.46,44.0901,96.7c4.64,24.53,4.34,49.9299-0.5901,74.39
		c-0.83,4.5599-2.2899,9.02-2.5699,13.6799c-1.23,17.24-5.78,34.14-12.55,50.01c-7.0299,28.65-18.99,56.41-37.2,79.77
		c-2.23,2.6901-3.41,6.01-4.88,9.13c-6.0699,13.33-12.22,26.85-14.74,41.38c-1.13,4.49,0.55,9.05,0,13.61
		c-0.61,8.27-2.1899,17.59,2.87,24.88c4.77,6.63,7.47,14.8101,13.71,20.33c7.05,6.15,18.8501,2.29,24.75,10.16
		c4.1901,44.87,6.16,90.13,2.5601,135.12c-1.86,19.3301-4.29,38.77-9.39,57.53c-3.54-56.64-6.14-113.38-12.41-169.8101
		c-0.22-2.47-1.7999-4.49-3.0399-6.5099c-6.5801-10.1901-15.37-19.2101-26.24-24.78c-4.2401-1.97-6.17-6.55-8.9501-10.02
		c-4.0499-6.37-9.64-11.87-12.02-19.17c-2.23-6.72-3.5299-13.73-4.59-20.7c0.42-19.59,6.6801-38.67,15.6899-55.9301
		c1.5901-2.97,2.9901-6.1,5.2001-8.6899c27.35-30.75,49.17-66.7001,62.23-105.8101c12.17-36.0299,16.4401-74.84,11.38-112.58
		c-0.49-3.39-0.76-6.85-1.87-10.1c-12.95-36.17-33.54-69.37-58.92-98.11c-25.47-28.84-55.5-53.42-87.77-74.28
		c-24.36-15.84-50.1899-29.3-76.5599-41.45c-20.14-13.95-41.66-25.8-63.89-36.06c-14.02-9.07-24.42-22.56-33.99-36.01
		c-1.74-2.72-4.24-5.19-4.6-8.53c-2.12-12.25-4.74-24.43-6.15-36.79c-0.47-6.34-1.84-12.93,0.17-19.14
		c12.21-45.91,22.3099-92.45,28.62-139.55c6.5299-49.69,8.88-100.13,3.6899-150.05c-5.9-59.5-23.24-118.3-53.89-169.83
		C1069.34,156.66,1067.6,152.46,1070.6,150.49z"/>
	<path d="M1115.23,166.16c7.4401,2.65,14.36,6.68,21.48,10.1c19.65,10.05,38.63,21.49,56.28,34.77c12.01,8.52,21.85,19.78,29.96,32
		c10.5,16.02,18.2201,33.95,22.0901,52.73c3.52,17.3,3.75,35.8-2.65,52.47c-4.4301,11.77-12.61,22.07-23.04,29.1
		c-6.52,4.07-9.66,12.04-16.99,15.01c-3.97,3.58-7.98,7.74-9.74,12.91c-1.04,6.55-0.77,14.71,5.03,19.09
		c7.39,5.41,19.11,4.42,25.28-2.41c3.7599-4.44,1.21-10.75-2.63-14.19c-3.4701-2.59-2.9801-7.61-1.8401-11.26
		c4.17-3.08,9.9701-2.83,14.42-0.47c7.17,3.73,12.3199,10.85,14.3,18.62c1.8199,7.15-0.29,14.63-3.3201,21.13
		c-3.78,7.96-11.91,13.69-20.76,14.1c-13.02,1.05-25.59-5.32-34.63-14.32c-8.75-8.73-14.37-21.04-13.6-33.53
		c1.39-5.12,3.9-9.96,6.76-14.42c2.14-3.52,6.13-5.15,8.7-8.27c2.1801-2.48,3.8201-5.58,6.8401-7.18
		c12.61-7.58,21.62-20.27,25.96-34.2c7.04-22.17,4.46-46.58-4.12-67.94c-7.99-19.81-22.29-37.96-42.04-46.96
		c-4.9299-2.46-10.49-3.18-15.4099-5.61c-5.75-2.65-11.88-4.3-17.9801-5.9c-4.22-1.16-8.7799-1.91-12.1599-4.92
		c-10.26-8.28-15-21.21-18.86-33.39C1111.41,170.58,1113.13,167.74,1115.23,166.16z"/>
	<path d="M1138.16,223.26c3.3099-1.68,7.1799-2.42,10.77-1.13c7.0099,2.25,12.8899,7.02,20.0199,8.99
		c15.75,8.62,26.67,24.07,33.6101,40.3c7.98,19.43,10.97,41.86,3.99,62.04c-3.6001,10.6-10.7101,19.85-19.92,26.2
		c-3.67,4.39-5.75,10.31-10.76,13.51c-2.54,0.42-6.13-0.22-6.83-3.11c-2.17-8.1-3.41-16.67-2.0601-25.01c0.04-1.38,1.13-2.21,2.1-3
		c16.66-13.5,24.42-36.87,19.5801-57.69c-7.1801-16.26-23.55-28.5-41.5-29.43C1145.34,244.02,1137.95,234.57,1138.16,223.26z"/>
	<path d="M1041.25,250.14c4.41,0.2,6.9301,7.21,5.12,11.24c-23.02,43.21-40,89.25-60.22,133.77
		c-10.57,23.53-21.85,46.81-35.02,69.02c-10.88,18.24-23.09,35.81-37.69,51.28c-13.38,14.09-28.96,26.38-46.81,34.28
		c-24.16,10.93-51.88,12.33-77.54,6.41c-8.4-2.29-17.17-1.3-25.69-0.49c-7.23,0.87-13.16,5.66-18.02,10.74
		c-8.65,8.67-14.43,20.37-25.17,26.81c-8.25,4.79-18.2,0.06-24.15-6.21c-8.78-12.58-13-27.79-14.69-42.89
		c-1.79-14.49-1.01-29.17-1.79-43.68c-9.72-8.33-22.84-12.5-35.58-11.49c-1.4-0.06-2.56,0.7-3.62,1.5
		c-30.47,22.28-56.11,50.75-76.62,82.35c-23.55,36.4399-40.45,77.24-48.95,119.81c-8.35,41.83-8.32,85.62,2.41,127.02
		c7.41,28.94,20.03,56.53,37.1201,81.03c1.95,2.67,3.5699,5.75,6.43,7.6c5.95,4.29,12.64,8.49,20.23,8.58
		c2.38,0.32,4.18-1.57,5.91-2.9c9.21-7.93,14.05-19.69,16.44-31.35c1.64-8.7,2.47-17.67,1.26-26.48c-0.26-6.03-1.35-12.56,1.34-18.2
		c1.51-3.27,5.67-3.78,8.72-2.55c1.36,0.64,3.76,0.89,3.84,2.8199c1.66,17.48,11.27,33.94,8.56,51.85
		c-2.7,22.32-10.63,45.83-28.71,60.35c-9.35,3.02-19.69,1.54-28.81-1.72c-2.41-0.75-4.5-2.18-6.39-3.8
		c-12.28-10.01-23.61-21.33-32.6299-34.4c-2.35-3.44-4.8-6.87-6.3-10.78c-30.45-74.12-36.06-157.8799-17.4-235.7
		c9.28-38.73,24.77-76.11,46.73-109.39c21.28-32.3,49.02-60.62,82.02-80.97c4.16-2.46,8.22-5.17,12.65-7.12
		c19.51-1.59,38.16,8.41,51.88,21.57c4.17,12.65,1.21,26.14-0.69,38.94c-2.13,13.31-4.37,27.93,2.18,40.41
		c1.05,1.55,1.63,3.94,3.5,4.63c3.97-1.2,7.19-4.02,10.32-6.6201c10.94-10.05,19.15-22.95,31.39-31.6
		c8.43-6.16,19.35-9.04,29.68-7.37c10.77,2.55,16.62,14.14,27.55,16.4c12.7401,1.9,25.58-0.8,37.96-3.69
		c2.57-0.6801,5.34-1.02,7.61-2.55c26.41-16.86,48.84-39.35,67.78-64.2c31.12-40.98,53.67-87.7,72.94-135.2
		c8.15-20.15,15.63-40.57,22.89-61.06c0.38-1.82,2.38-2.27,3.73-3.21C1026.72,267.28,1032.96,257.51,1041.25,250.14z"/>
	<path d="M1034.3199,316.3c2.8201-0.67,5.79-0.69,8.67-0.29c3.84,0.18,5.26,5.61,3.6901,8.61
		c-22.4801,46.17-33.79,96.55-49.91,145.05c-10.82,32.67-23.96,64.99-43.68,93.39c-4.57,7.27-11.3701,12.72-18,18.02
		c-23.02,17.75-51.65,26.54-80.16,30.22c-14.24,1.86-28.6,2.6-42.95,2.51c-5.8-0.36-11.2,2.11-16.71,3.48
		c-10.29,2.9-21.05,7.67-26.88,17.1c-8.33,16.69-9.31,36.86-3,54.39c4.48,12.5,13.77,23.55,26.17,28.71
		c5.09,2.25,11.3,1.11,15.59-2.32c10.16-8.07,11.93-24.81,3.31-34.61c-4.59-4.49-11.75,2.7-16.11-2.05
		c-2.71-4.58,2.09-8.31,4.96-11.23c1.79-2.33,5.04-1.9,7.65-2.17c7.59-0.53,15.21,3.09,19.71,9.21c6.52,8.7,8.34,20.12,7.37,30.74
		c-1.0099,9.8-4.59,20.07-12.54,26.39c-6.95,5.55-16.86,5.33-24.66,1.77c-4.71-2.4-10.04-3.0699-14.83-5.27
		c-12.64-5.39-22.96-15.36-29.85-27.14c-10.23-17.44-14.06-38.48-10.98-58.43c2.41-15.38,9.55-30.45,21.75-40.43
		c7.08-6.16,16.16-9.17,24.94-11.97c35.39-10.48,73.27-6.16,108.69-16.53c3.09-0.83,5.54-3,8.13-4.79
		c19.89-14.48,35.23-34.27,47.8-55.21c12.52-20.97,22.6-43.26,32.42-65.59c11.15-25.77,15.4301-53.79,24.92-80.12
		c3.72-12.52,4.76-25.83,10.01-37.89C1022.5,323.63,1027.4,317.72,1034.3199,316.3z"/>
	<path d="M1156.67,512.04c4.4199-20.78,2.34-42.8,10.34-62.82c10.6799,1.89,17.88,11.03,27.6899,14.92
		c4.4601,1.88,9.7101,1.94,14.02-0.41c2.3101-1.68,5.0701-0.59,7.5801,0.05c4.5599,2.64,5.26,10.2,0.84,13.34
		c-3.34,2.44-7.3101,3.87-10.61,6.39c-6.8401-0.31-13.91,0.54-19.8301,4.23c-11.4199,6.91-18.7,18.54-26.08,29.29
		C1158.35,516.56,1155.6801,514.66,1156.67,512.04z"/>
	<path d="M1093.8,458.79c2.9299-1.19,6.09,0.21,9.0699,0.53c6.14,18.76,5.87,39.02,2.59,58.31
		c-3.89,22.79-11.5399,44.67-17.86,66.84c-1.5,7.09-5.47,13.25-8.28,19.86c-11.0499,24.34-19.98,49.75-25.1,76.03
		c-4.33,22.48-5.6699,45.84-1.22,68.41c4.5601,23.77,16.87,46.12,35.29,61.94c5.7,4.75,11.4299,9.78,18.4399,12.5
		c18.37,7.92,38.41,11.17,58.3,11.92c36.2899,1.42,72.64-4.58,108.87-0.53c10.6899,1.23,21.34,3.27,31.5399,6.75
		c9.78,4.46,19.5801,8.94,28.8301,14.45c16.14,7.92,29.38,20.94,38.74,36.19c10.09,9.67,18.27,21.25,24.13,33.94
		c8.9299,19.07,13.5,40.02,14.47,61.01c0.92,22.98-2.22,46.57-12.11,67.52c-6.34,13.37-15.99,25.6901-29.16,32.87
		c-11.7899,6.5901-25.88,8.28-39.11,6.16c-7.98-1.36-16.23-3.04-22.99-7.75c-8.1899-5.52-13.59-14.55-15.63-24.11
		c-2.51-11.67-1.11-24.2,4.05-34.97c2.96-6.01,7.2799-11.71,13.4399-14.67c5.2101-2.59,11.54-2.3,16.75,0.17
		c6.5701,3.05,11.8301,8.29,16.26,13.92c-7.27,4.88-16.98,2.05-24.33,6.6901c-3.4,2.16-3.86,6.65-3.12,10.27
		c0.45,3.89,3.2799,6.7999,5.52,9.7999c5.59,6.88,12.48,13.4701,21.34,15.6801c6.62,1.77,13.77,0.13,19.5-3.46
		c7.9399-4.9301,13.79-12.55,18.5-20.5c9.01-15.7101,14.01-33.5701,15.6-51.5601c0.77-11.03,0.35-22.32-2.99-32.93
		c-2.24-6.34-3.4401-12.99-5.75-19.3c-6.65-19.46-17.61-37.45-31.99-52.15c-9.04-8.92-19.16-17.1-30.9501-22.05
		c-20.8099-9.31-43.71-13.38-66.4399-13.27c-34.86-0.24-68.9,8.23-102.95,14.51c-32.9401-2.68-65.7201-15.1-90.3201-37.55
		c-7.7-7.02-14.47-15.04-20.27-23.69c-3.35-4.62-4.6699-10.25-6.47-15.56c-8.22-26.08-10.16-53.89-6.96-80.98
		c4.8199-41.69,19.9-81.14,33.6-120.51c13.95-39.87,27.25-80.88,28.02-123.51C1092.91,463.62,1092.02,460.75,1093.8,458.79z"/>
	<path d="M1227.78,542.04c0.6599-3.71,5.1599-4.13,8.21-4.17c6.96,0.21,13.95,1.86,20.1901,4.97
		c14.23,8.56,25.72,21.69,32.0199,37.08c6.87,16.58,8.02,35.19,4.64,52.73c-4.09,21.36-14.61,41.72-30.7,56.5
		c-11.29,10.44-25.78,17.69-41.17,19.21c-17.73,1.54-35.6599-2.71-51.39-10.84c-16.6-8.48-31.1-21.15-41.48-36.66
		c-4.66-6.22-5.37-14.33-5.83-21.82c-0.78-19.33,6.97-37.49,14.1699-54.99c4.8,0.05,5.1201,6.28,5.52,9.87
		c0.3501,21.04,8.0901,42.12,22.42,57.67c10.83,11.91,26.23,20.5099,42.63,20.31c13.73,0.49,26.6-7.55,34.39-18.4901
		c8.38-11.5699,11.78-26.8799,7.98-40.77c-1.8-7.34-6.1-13.66-10.6801-19.54c2.42-1.73,5.65-3.28,8.41-1.25
		c7.37,4.98,10.24,14.39,17.63,19.37c1.71,1,4.16,1.89,5.99,0.72c4.97-16.86-2.86-34.87-15.2-46.46
		c-6.86-6.81-15.0801-12.17-23.87-16.12C1228.74,548.33,1227.8199,544.81,1227.78,542.04z"/>
	<path d="M580.61,594.6c8.5-8.59,19.2-15.69,31.36-17.47c8.26-1.38,16.78,0.11,24.48,3.25c1.73,21.47,5.49,43.09,14.31,62.88
		c5.97,13.28,14.68,25.81,27.02,33.88c2.08,1.81,4.9,0.67,7.04-0.42c5.31-3.04,7.96-8.8199,11.61-13.46
		c2.91-0.58,5.3,2.17,6.96,4.21c0.69,3.57,1.68,7.0601,2.81,10.51c-0.17,1.85-1.53,3.34-2.18,5.05
		c-5.99,12.85-5.25,27.86-1.24,41.18c4.58,14.95,13.09,28.78,24.77,39.22c7.63,6.68,17.05,11.99,27.37,12.57
		c8.32,0.5,16.6-2.8,22.72-8.38c3.61-3.96,10.81,1.34,9.83,5.89c-19.78,36.86-40.85,73.06-63.96,107.94
		c-22.9,34.47-47.93,67.62-76.21,97.87c-25.22,26.98-53.08,51.65-83.94,72.03c-33.61,22.35-70.93,39.2101-110.13,49
		c-35.47,14.0801-75.17,13.5801-109.85,30.03c-11.35,5.5699-21.79,13.67-28.39,24.62c-6.3,10.17-8.98,22.1899-9.5,34.04
		c-1.06,7.14,5.02,12.34,9.43,17.0399c16.6,18.4801,39.7,29.3401,57.04,47.01c-2.42,3.0701-5.91,5.55-9.94,5.6801
		c-7.65,0.51-14.68-3.2001-21.3-6.54c-6.76-3.5699-13.33-7.58-20.43-10.47c-2.29-1.0601-5.12-1.21-6.9-3.15
		c-13.72-14.26-30-26.67-39.64-44.33c-2.59-5.3101-5.3-11.02-5.38-16.99c7.42-13.89,16.46-27.12,27.99-37.9301
		c5.31-4.83,10.89-9.66,17.63-12.34c17.86-7.7001,34.34-18.3101,52.45-25.42c43.91-7.2,86.94-20.01,127.3-38.7999
		C561.07,1031.74,620.66,985.04,669.18,929.16c29.86-34.3199,55.74-72.05,77.53-111.96c-20.95-16.9-41.01-35.7-54.88-59.01
		c-10.34-17.16-16.46-36.85-17.07-56.9c-1.97-1.36-4.63-1.29-6.83-2.22c-11.28-3.64-19.36-13.4-24.1-23.91
		c-9.3-20.3199-11.27-43-19.15-63.8c-2.04-5.44-4.74-10.61-7.93-15.45c-13.27,1.35-24.86,9.6201-33.06,19.78
		c-12.58,15.61-19.68,34.59-28.82,52.23c-3.44,6.36-6.85,12.84-11.67,18.29c0.05-15.63,3.93-31.02,9.33-45.6
		C558.98,623.77,567.89,607.53,580.61,594.6z"/>
	<path d="M1307.1,615.02c-0.5599-4.37,4.86-4.16,7.8-4.44c9.0499,15.45,12.6799,33.64,11.4399,51.42
		c-1.39,21.92-8.5,43.2-18.88,62.46c-2.22,4.54-6.2999,7.73-10.11,10.88c-16.08,12.35-37.59,17.95-57.53,13.69
		c-13.5499-2.84-25.9199-11.2401-33.08-23.13c-0.03-3.82,4.86-5.76,7.88-3.61c15.8199,7.05,34.77,5.67,49.67-3.04
		c15.87-9.07,27.85-23.92,35.5399-40.33C1309.05,659.16,1312.23,636.35,1307.1,615.02z"/>
	<path d="M857.57,772.55c7.65-5.37,17.29-6.94,26.47-6.87c4.61-0.18,8.29,2.99,11.91,5.39c2.76,1.96,6.11,3.02,8.59,5.41
		c9.05,7.93,13.77,19.47,17.08,30.77c0.83,3.23,2.12,6.41,2.25,9.78c-0.66,21.34-7.86,42.29-19.99,59.8199
		c-18.35,26.86-45.22,46.08-71.42,64.64c-5.36,3.6-10.37,7.74-15.91,11.05c-35.41,14.73-73.27,23.93-106.62,43.35
		c-13.44,7.72-25.68,17.4-36.43,28.53c-11.31,6.45-21.58,14.5199-32.55,21.5c-5.01,2.3099-9.83,5.11-15.03,6.99
		c-3.81,1.47-8.64,0.8099-11.19-2.61c-1.03-1.9601-1.19-4.27-1.36-6.4301c1.2-1.61,3.53-1.52,5.23-2.37
		c10.41-4.0699,17.14-13.58,26.28-19.59c4.43-2.48,7.04-6.97,10.61-10.43c8.05-8.26,15.98-16.7,24.36-24.62
		c45-24.23,93.59-41.08,138.48-65.53c25.85-23.56,51.41-48.53,68.62-79.35c5.7-10.25,10.41-21.07,13.9-32.28
		c0.85-2.11,0.01-4.35-0.25-6.48c-0.96-5.2-1.63-10.6899-4.56-15.23c-2.71-4.16-8.14-6.47-12.99-5.25c-3.94,1.1-6.78,4.46-8.39,8.09
		c3.78,3.38,6.77,7.97,7.05,13.17c0.63,5.91-2.11,12.42-7.62,15.13c-3.19,1.81-6.76-0.2-9.67-1.62
		c-10.87-6.22-17.58-18.91-17.18-31.34C848.97,780.64,852.91,775.93,857.57,772.55z"/>
	<path d="M544.3,807.1c1.55-0.64,3.92-1.33,5.06,0.41c8.03,9.82,9.33,23.24,16.57,33.53c2.57,3.75,7.13,6.64,11.82,5.47
		c3.45-1.01,7.14-1.88,10.73-1c2.61,3.67,2.52,8.58,1.61,12.83c-1.9301,7.58-6.41,14.31-11.81,19.8799
		c-1.07,0.78-1.8101,2.42-3.3101,2.33c-6.64-1.57-11.96-6.65-14.6899-12.79c-6.4901-14.27-5.3-31.34-14.6801-44.41
		c-1.48-3.96-1.74-8.29-2.89-12.36C542.03,809.46,542.59,807.6,544.3,807.1z"/>
	<path d="M883.55,908.58c6.37-5.54,12.73-11.11,19.5-16.17c2.85,3.33,4.3,8.03,2.77,12.29c-2.83,8.49-10.34,14.52-12.87,23.17
		c-1.59,5.04-0.16,10.88,3.55,14.64c9.28,9.34,19.72,17.76,31.77,23.23c21.21,10.24,44.26,16.25,67.54,19.36
		c50.8701,6.9901,102.6201,1.9301,153.39,9.97c16.0901,2.59,32.0601,6.43,47.1901,12.54c13.6899,10.47,26.14,24.85,28.54,42.53
		c5.6499,44.4,4.6,89.34,9.88,133.78c2.7799,23.61,7.09,47.26,15.83,69.47c6.5699,16.71,15.91,32.5499,28.6799,45.29
		c11.8101,12,26.5,20.97,42.25,26.8199c6.6001,2.05,10.4801,8.11,15.4701,12.45c1.95,1.6101,2.63,4.14,3.64,6.38
		c9.8199,23.2101,15.5299,48,18.5499,72.9701c5.86,51.11,1.24,102.6399-4.02,153.59c-1.4199,19.4399-5.7799,38.71-13.7,56.5499
		c-13.34,30.6801-36.1901,56.14-61.48,77.5801c-17.2101,14.66-35.61,27.8199-53.9301,41.04c-2.08,1.5499-4.48,2.85-5.84,5.1599
		c-5.39,8.12-9.92,17.14-11.13,26.9301c-1.03,7.45,0.86,15.3199,5.38,21.37c5.95,7.99,15.03,13.3199,24.7,15.47
		c7.64,1.6,15.74,2.4301,23.37,0.3c6.1001-1.3401,12.55-2.3401,18.7101-0.73c4.22,1.08,7.9099,3.75,10.4199,7.2999
		c-15.62,11.46-35.71,15.76-54.8099,13.8201c-26.67-2.4701-52.13-17.37-66.36-40.2201c-3.3401-4.02-1.23-9.45-0.13-13.9299
		c4.7999-15.0601,18.2799-24.63,30.13-34c4.99-3.61,9.2799-8.0901,14.13-11.8201c30.3999-16.48,56.46-40.4399,76.5399-68.5
		c22.65-31.52,38.11-67.85,47.3301-105.45c16.39-67.6801,13.74-139.84-7.2201-206.21c-9.58-12.78-24.24-20.3401-37.87-28.05
		c-10.6799-5.98-21.48-12.05-30.5-20.42c-17.9299-17.75-30.84-39.72-43.97-61.0499c-8.73-17.3401-12.83-36.7001-14-55.98
		c-1.71-26.4301,1.61-52.8,3.04-79.15c1.45-24.4501,1.34-49.47-5.65-73.15c-1-3-1.65-6.16-3.17-8.9399
		c-18.46-8.85-38.86-13.03-59.1699-14.73c-49.01-3.86-97.9301,6.79-146.9301,2.41c-26.49-2.26-52.8-9.91-75.2599-24.38
		c-6.72-4.73-14.53-7.48-21.8701-11.05c-19.84-8.99-39.99-18.98-54.85-35.36C855.55,933.66,869.52,921.08,883.55,908.58z"/>
	<path d="M1600.33,911.21c9.1801-3.71,19.8301-3.8,28.87,0.4c6.99,2.92,12.4801,8.24,18.5,12.68
		c16.2301,12.96,27.4601,30.91,36.99,49.09c3.3101,8.27,5.77,16.85,8.4701,25.34c27.5599,92.8301,30.8199,192.37,12.0399,287.22
		c-15.2899,76.01-45.1,149.9901-92.48,211.78c-21.76,28.3-47.2899,53.8201-76.33,74.64c-32.63,23.52-69.77,40.85-108.9,50.24
		c-3.16,0.62-6.42,0.3-9.6,0.7101c-9.05,0.95-18.17,3.6399-27.3,1.8999c-2.83-0.73-5.9299-1.49-8.0499-3.6
		c-2.98-19.9399,6.12-38.75,13.46-56.6899c0.6801-1.26,0.88-3.74,2.91-3.2201c40.87,3.3301,82.48-5.7699,118.5499-25.1899
		c35.39-18.8201,65.55-46.5701,89.5701-78.49c31.59-42.14,53-91.61,63.6799-143.11c1.8201-8.2001,2.8101-16.5601,4.4701-24.79
		c13.99-47.64,20.3099-97.48,19.08-147.1c-1.35-48.21-9.99-96.47-27.91-141.35c-2.24-5.92-6.2-10.98-10.3099-15.71
		c-9.89-11-22.86-19.14-36.91-23.66c-3.5,1.81-6.14,5.11-9.26,7.54c-16.9,14.66-33.79,29.71-53.51,40.53
		c-14.46,8-30.71,13.4-47.35,13.49c-14.26-0.35-27.78,5.36-41.96,5.86c-5.3201,0.1801-10.77-0.1599-15.78-2.0499l-0.41-0.7101
		c2.75-25.0099-8.25-48.47-12.28-72.67c17.2301,3.2401,28.36,19.76,45.63,23.06c5.28,1.17,10.55-0.55,15.8401-0.65
		c16.25-0.88,32.7699-5.69,45.49-16.15c7.99-6.4,13.58-15.11,20.51-22.53C1575.8101,927.26,1586.6,916.64,1600.33,911.21z"/>
	<path d="M1055.15,1028.96c21.89-2.8999,43.73-6.71,65.86-7.23c18.34-0.32,37.27,1.53,54.14,9.16
		c8.4399,6.92,19.98,11.92,23.4399,23.17c-2.6899,2.12-5.96,4.3199-9.5599,3.6799c-15.12-1.53-30.3101,3.87-42.16,13.13
		c-15.61,12.14-26.36,29.6801-32.5599,48.29c-8.6801,26.4-8.3301,56.7,5.12,81.46c3.3099,5.22,3.7899,11.54,5.7,17.3101
		c1,4.36,3.8,8.38,3.16,13.0299c-0.4701,7.15-1.3501,14.53-4.2201,21.14c-22.6699,30.24-51.6499,55.65-84.2699,74.7001
		c-57.17,33.3899-125.04,47.11-190.79,41.0699c-8.68-0.74-17.3-2.27-26.02-2.24c-13.07-0.15-26.74,1.4399-38.18,8.21
		c-11.84,6.75-18.56,20.74-17.76,34.14c5.03,17.38,16.79,31.97,30.17,43.79c7.4,6.64,15.48,12.45,23.55,18.24
		c-0.87,4.27-5.94,3.5699-9,2.3099c-35.63-13.5399-68.85-37.35-87.36-71.33c15.97-18.97,35.31-36.61,59.46-44.0699
		c13.11-3.1901,26.78-2.3101,40.06-4.3101c34.21,3.8,69.07,2.9301,102.84-4.01c35.5-7.22,69.95-21.0499,99.27-42.52
		c23.08-16.7899,42.6799-38.34,57.0299-63.0199c3.54-6.63,8.14-13.02,9.0901-20.66c1.7799-9.64,3.8099-19.52,2.9-29.34
		c-8.8601-23.5701-24.3501-44.1101-32.1201-68.15c-2.5-6.73-2.74-13.9701-4.11-20.9501
		C1054.83,1079.27,1049.71,1053.85,1055.15,1028.96z"/>
	<path d="M1527.26,1040.36c20.7-5.99,40.9399-15.01,62.76-15.9299c9.52-0.3,19.29,1.2799,27.83,5.6499
		c9.22,5.99,16,14.9301,22.0701,23.9501c3.36,4.61,4.73,10.23,6.6799,15.5c15.24,45.1799,16.4601,94.39,6.9401,140.9
		c-4.98,24.6399-12.9501,48.6699-23.54,71.46c-2.88,6.37-6.39,12.4399-9.27,18.8099c-13.4399,39.17-33.1699,76.4301-59.7999,108.25
		c-22.79,27.13-51.01,50.2201-83.7101,64.29c-13.64,5.8101-27.9399,10.21-42.6,12.49c-2.64,0.55-4.52-1.9299-5.42-4.0499
		c-1.62-3.9701-2.5-8.2301-4.76-11.91c21.3601-4.9501,41.4901-14.0801,60.5-24.85c14.92-8.54,29.53-17.64,43.9-27.05
		c9.9301-13.1899,19.05-27.02,28.26-40.73c24.16-36.6,46.35-74.79,62.3201-115.73c14.6799-37.5701,23.85-77.87,21.95-118.38
		c-1.0699-23.52-5.95-46.87-14.5699-68.79c-1.0901-2.53-1.79-5.3199-3.53-7.47c-11.99-11.8101-28.4401-18.98-45.3-19.36
		c-25.39-0.85-49.5,8.5499-74.39,11.9099c-17.6899,2.6901-36.62,1.4401-52.5199-7.3899c-1.7001-1.14-4.28-1.8201-4.6201-4.12
		c-0.6399-3.4901-1.5199-7.5801,0.63-10.7201c2.51-2.5,6.13-0.51,9.13-0.35c5.7001-0.16,10.01,4.09,15.3,5.58
		C1489.54,1049.02,1509.3199,1045.72,1527.26,1040.36z"/>
	<path d="M1444.49,1056.0601c5.09,2.1299,9.42,5.7599,14.54,7.9099c11.1,5.37,23.0699,8.7101,35.14,11.0601
		c3.5199,0.72,7.08-0.24,10.61-0.53c18.58-2.1,37.6599-4.95,56.1699-0.6801c8.3101,2.0901,16.8201,5.04,23.2001,11
		c12.61,10.7301,21.77,25.4501,25.64,41.5601c5.1799,21.0699,1.98,43.48-5.9601,63.45
		c-7.4399,18.6001-19.0199,35.66-34.0699,48.9301c-13.78,12.1-31.16,21.15-49.78,21.66c-14.63,0.5-29.02-4.9701-40.4399-13.9301
		c-12.86-9.89-22.99-23.4399-28.04-38.91c-10.91-32.95-0.83-71.96,24.77-95.39c14.95-6.98,32.65-6.74,48.1699-1.6899
		c9.89,3.3,19.2301,9.17,25.2201,17.86c5.1899,7.38,7.2799,16.67,6.63,25.62c-0.6901,7.72-1.9701,15.98-7.38,21.9501
		c-9.3401,10.4399-25.0801,13.8899-38.3401,10.47c-7.8199-6.9301-17.1399-15.0801-17.08-26.4301c-0.45-3.22,3.76-4.48,6.23-3.5399
		c6.53,2.73,10.22,10.08,17.3301,11.72c6.08,0.9399,10.23-5.26,11.72-10.35c-0.1-5.13-1.46-10.17-2.13-15.26
		c-0.1801-3.75-3.8101-5.6901-6.41-7.78c-7.62-5.63-17.9299-7.83-26.98-4.5701c-12.5699,4.3301-21.58,15.52-26.45,27.54
		c-4.88,12.0801-5.77,26.0801-0.8201,38.29c2.37,6.14,6.51,11.34,10.54,16.46c7.49,9.1901,17.79,16.41,29.5499,18.77
		c17.0701,3.5601,34.67-2.8101,48.4701-12.73c22.5299-16.36,38.49-42.49,40.46-70.48c0.87-8.4501-1.8199-16.74-4.64-24.5701
		c-5.01-13.37-15.46-24.6599-28.76-30c-17.88-7.3199-37.62-6.95-56.59-6.7899c-12.87,0.0199-25.87,0.83-38.62-1.2301
		c-7.66-3.2699-15.65-7.2999-20.55-14.2999C1442.67,1066.75,1442.8199,1061,1444.49,1056.0601z"/>
	<path d="M412.47,1154.83c3.79-0.5399,7.62-1.2699,11.47-1.0499c2.73,1.23,5,4.75,3.59,7.6599
		c-9.1,6.3401-19.86,10.3301-27.91,18.16c-6.89,6.37-9.51,16.4-7.41,25.4501c1.23,3.59-1.55,6.7999-3.64,9.45
		c-2.64,2.89-6.84,1.12-9.76-0.3101c-11.4-6.21-15.98-21.4099-12.17-33.3999C378.07,1167,394.89,1157.92,412.47,1154.83z"/>
	<path d="M1435.41,1225.9399c0.34-2.58,2.14-6.8999,5.23-6.61c8.5699,8.51,14.97,18.8501,21.84,28.7101
		c-2.9,14.8999-12.16,28.0599-23.5599,37.85c-11.4301,9.58-26.5901,16.16-41.7101,13.53c-9-1.62-17.2799-6.66-23.1-13.65
		c-0.64-2.5601-0.3199-5.25-0.4399-7.84c3.59-1.91,7.84-1.77,11.5499-0.2401c14.54,4.9901,30.9-1.58,40.4301-13.0399
		C1434.79,1254.22,1438.4,1239.45,1435.41,1225.9399z"/>
	<path d="M1600.42,1232.0699c2.0499,1.16,5.35,2.77,4.26,5.7101c-4.8501,15.6599-12.5901,30.21-18.77,45.33
		c-4.76,36.24-19.66,71.38-43.87,98.9301c-11.79,13.4399-25.8501,24.98-41.74,33.24c-21.3101,11.09-46.24,15.78-69.9801,11.5599
		c-1.47-2.21-1.7999-5.21-1.7999-7.83c0.5699-3.46,4.4299-3.1801,7.09-3.55c3.28-0.2799,6.03-2.77,9.4301-2.2999
		c15.61,0.15,31.09-5.2001,43.5599-14.53c16.03-11.99,27.48-29.4,34.03-48.1801c8.6899-24.3899,9.26-51.59,1.37-76.2699
		c16.24-4.78,32.66-9.5601,47.6801-17.54C1582.87,1250.64,1593.09,1242.52,1600.42,1232.0699z"/>
	<path d="M1463.73,1258.95c3-1.4099,6.4501-1.5,9.4401,0.03c7.23,3.37,12.8199,9.6901,20.5399,12.14
		c2.65,0.91,5.4601,0.33,8.2001,0.24c2.4,1.7001,5.6,3.21,6.97,5.8101c0.22,16.9099-2.74,33.8199-7.88,49.9199
		c-5.79,17.8-14.63,34.78-27.01,48.92c-11.39,13.04-26.14,23.47-42.92,28.2c-2.86,0.7001-5.75,1.78-8.73,1.6001
		c-2.74-2.3401-4.48-5.6201-6-8.8101c12.86-7.99,24.05-18.65,32.3301-31.35C1469.23,1334.7,1475.01,1294.38,1463.73,1258.95z"/>
	<path d="M820.49,1408.4399c6.41-7.12,15.98-10.7999,25.43-11.2599c13.03-0.6801,25.77,2.9299,38.07,6.83
		c6.19,2.1,12.5,3.96,18.59,6.34c3.54,3.3101,9.36,5.77,9.53,11.29c-17.23,2.61-33.93-5.64-51.16-3.62c-3.3,0.23-5.73,2.84-7.95,5
		c-2.1,3.76-4.65,7.9399-9.26,8.77c-7.9,1.5-15.29-3.5601-20.25-9.25C819.87,1418.9301,818.85,1413.1801,820.49,1408.4399z"/>
	<path d="M1301.3101,1428.2c9.8199-0.72,19.6899-0.5499,29.5099,0.26c2.3401,0.03,3.76,2.3401,4.5901,4.28
		c1.5699,4.34,1.1,9.47-1.2101,13.47c-2.73,1.9501-6.2999,2.63-9.6,2.4301c-34.34-4.52-70.11-1.5-102.38,11.52
		c-2.28,0.96-4.8199,0.63-7.2,0.49c-3.41-0.1-5.85-4.0801-4.52-7.1901c0.63-2.2799,2.79-3.46,4.84-4.24
		C1242.5699,1437.55,1271.6801,1429.87,1301.3101,1428.2z"/>
	<path d="M1226.92,1477.14c35.23-3.9,70.86-3.7001,106.11-0.2001c4.2-0.0399,6.6,4.38,7.0399,8.0801
		c0.64,5.88-1.09,11.6799-1.6,17.53c-3.1899,1.7699-6.83,2.37-10.4399,2.1899c-3.7001-0.24-7.38,0.48-11.0601,0.28
		c-51.11-5.85-103.3199-8.02-154.1,1.6799c-17.79,3.3501-35.26,8.3301-52.16,14.8c-3.7799,1.5699-6.5699-2.25-8.37-4.95
		c-0.9-3.29,1.9-6.25,4.7101-7.4601C1144.84,1491.78,1185.6899,1481.73,1226.92,1477.14z"/>
	<path d="M1050.38,1542.29c20.38-8.7001,42.91-10.9,64.87-9.87c47.8199,2.4099,93.78,17.47,141.15,23.33
		c23.1,2.88,46.87,3.34,69.62-2.28c4.58,7.8101,4.11,17.4,2.23,25.9601c-1.6899,7.0199-4.42,14.0699-9.37,19.47
		c-2.53,2.6699-6.45,5.14-10.16,3.33c-40.38-14.48-79.83-31.86-121.48-42.54c-21.96-5.58-44.6-9.2999-67.3099-8.4299
		c-19.4801,0.74-39.01,5.1899-56.3,14.37c-11.85,6.2-22.74,14.34-32,24c-9.1,13.9-12.39,31.52-8.89,47.79
		c3.8,18.4299,14.86,34.7,28.73,47.13c11.98,10.7,26.35,18.97,42,22.85c10.26,2.5399,21.3301,2.9299,31.4401-0.49
		c8.73-2.92,16.2899-9,21.1899-16.77c6.51-10.14,9.04-22.25,9.9301-34.11c0.9399-8.11,0.77-16.66-2.91-24.11
		c-7.16-15.6001-26.74-23.5-42.9301-18.5c-6.22,1.89-11.83,6.58-13.6599,12.98c-2.3101,7.84,0.25,16.15,3.75,23.24
		c1.4,3.5,7.25,4.17,6.4,8.74c-3.92,1.83-8.6901,0.66-11.6001-2.4401c-6.5299-6.8799-11.7999-15.3999-13.22-24.9099
		c-1.33-8.42,1.0701-17.23,6.15-24.02c10.45-14.17,30.1799-20.33,46.92-15.13c7.71,2.42,14.6599,7.1801,19.74,13.48
		c3.0199,3.98,7.5299,6.41,10.96,10c10.38,9.62,17.74,22.46,20.47,36.37c4.59,22.9401-2.36,47.41-16.7899,65.6
		c-9.0601,11.05-21.14,20.9501-35.6901,23.05c-22.1801,4.1801-45.5699,2.74-66.76-5.2c-17.23-6.42-32.77-17.4-44.33-31.7101
		c-1.6801-2.01-3.11-4.21-4.97-6.03c-22.1-19.6499-33.26-50.83-28.88-80.0399c2.23-10.89,5.43-21.61,9.93-31.79
		c1.38-3.36,3.85-6.08,6.14-8.84C1017.07,1562.02,1032.54,1549.66,1050.38,1542.29z"/>
	<path d="M1315.5601,1704.6c1.33-1.0599,2.49,0.53,3.47,1.3201c1.98,1.6,0.3099,4.1599-0.1,6.13c-0.92,4.45-5.4,6.7-7.15,10.73
		c-5.37,10.63-2.7001,22.86-3.77,34.25c-0.37,6.25-2.65,12.51-7.34,16.8199c-9.25-3.4299-16.67-11.5399-19.27-21.0399
		c-1.13-4.6901-1.34-10.4601,2.2999-14.13C1293.86,1726.97,1301.67,1712.46,1315.5601,1704.6z"/>
</g>
</svg>
