<?xml version="1.0" encoding="utf-8"?>

<!DOCTYPE svg PUBLIC "-//W3C//DTD SVG 1.1//EN" "http://www.w3.org/Graphics/SVG/1.1/DTD/svg11.dtd">
<svg version="1.1" id="Layer_1" xmlns="http://www.w3.org/2000/svg" xmlns:xlink="http://www.w3.org/1999/xlink" x="0px" y="0px"
	 viewBox="0 0 1071.026 1702.465" enable-background="new 0 0 1071.026 1702.465" xml:space="preserve">
<g>
	<path d="M506.112,55.597c3.7-1.1,6.893-3.464,10.671-4.364c-3.204,2.462-14.479,6.209-26.693,35.943
		c30.275-23.304,68.791-26.093,67.978-21.021c-1.929,2-4.821,2.529-7.293,3.579c-14.143,4.893-27.771,12.314-37.8,23.621
		c6.862-15.516,28.466-23.017,43.514-27.6c-23.664,2.385-45.994,9.072-64.514,23.814c-0.7,0.543-1.45,1.179-2.4,0.929
		c-3.091-2.473,4.871-21.663,9.486-25.378c0.107-0.257,0.329-0.757,0.443-1.014c-9.457,8.1-15.186,19.921-17.2,32.107
		c-1.021-0.043-2.293,0.371-2.807-0.807C482.893,68.636,502.96,58.431,506.112,55.597z"/>
	<path d="M516.548,93.854c29.651-3.256,33.278,2.935,38.7,3.421c25.203-1.859,51.125,0.998,70.421,17.164
		c18.883,15.395,29.266,38.247,30.493,48.657c0.443,0.043,1.329,0.136,1.779,0.179c12.578,16.364,15.964,37.364,19.5,57.15
		c0.321,0.221,0.971,0.657,1.293,0.879c0.464,5.093,0.45,10.307,1.936,15.243l-1.043-0.036c0.043,0.707,0.129,2.121,0.172,2.829
		c0.443,0.136,1.321,0.4,1.764,0.536c1.053,8.919,1.547,30.816,0.079,38.243c0.336-0.814,0.743-1.593,1.114-2.393
		c0.393-4.12,16.56-55.415,9.521,13.85c-3.63,27.629-0.116,34.251-17.814,71.807c-3.014,0.371-1.979-2.593-0.921-4.086
		c-0.614-0.557-1.264-1.093-1.779-1.721c0.193-1.157,1.1-2.007,1.693-2.979c0.414,0.671,0.871,1.357,1.321,2.036
		c6.171-13.721,11.128-28.05,13.679-42.907c-0.093-0.65-0.321-1.271-0.679-1.843c1.418-20.059,1.337-5.625,4.286-52.764
		c-1.183,2.353-9.278,24.528-9.593,25.528c-0.686,14.164-3.679,28.057-5.571,42.071c0,0,3.099-26.045,3.186-64.943
		c-0.65-0.221-0.986-0.65-1.029-1.286c-0.724-6.678-1.415-61.044-22.228-92.764c2.089,8.677,11.964,39.557,11.171,58.571
		c-0.879-2.393-1.029-4.971-1.7-7.414c-9.997-10.562-1.669-20.158-34.243-47.578c-13.467-11.48-19.582-11.994-17.186-14.107
		c0.707-1.207,2.179-0.357,3.064,0.143c36.798,21.623,44.192,43.85,47.843,59.635c-3.281-22.708-11.547-52.283-12.307-53.678
		c-20.64-34.136-34.664-66.738-101.885-60.643c-1.221,0-2.9,0.557-3.521-0.871c-0.379-1.993,2.243-1.936,3.457-2.407
		c-14.77-3.732-33.271-0.847-36.464-1.129C514.005,95.061,515.141,93.625,516.548,93.854z"/>
	<path d="M439.613,108.504c13.957-6.307,29.071-10.664,44.457-10.929c-0.855,2.549-19.642,4.138-34.071,9.9
		c0.493,0.1,1.464,0.293,1.957,0.393c-1.464,0.671-2.993,1.271-4.557,1.607c0.671-0.786,1.529-1.364,2.379-1.964
		c-3.693,1.064-7.321,2.471-10.821,4.086C438.298,110.475,438.07,108.918,439.613,108.504z"/>
	<path d="M446.813,109.432C447.013,109.618,447.013,109.618,446.813,109.432z"/>
	<path d="M446.477,110.332c-49.214,22.798-62.205,68.026-64.457,70c-0.036,0.414-0.121,1.243-0.164,1.65
		c8.954-11.605,26.206-26.856,41.371-35.221c-5.81,6.265-25.542,14.444-59.971,66.6c-14.55,22.202-17.838,46.815-13.471,56.378
		c4.279-1.421,5.664-6.25,7.829-9.736c2.393-3.171,2.093-7.364,3.05-11.05c0.985,10.858-10.454,59.498,0.621,87.393
		c7.585-6.08,8.262-31.117,8.507-33.9c0.393,1.507,0.664,3.05,0.936,4.593c0.371,0.3,1.107,0.9,1.479,1.2
		c-1.225,8.114,5.652,58.501,46.614,69.871c1.3,0.264,2.629,0.979,2.5,2.529c-4.64,7.63-47.962-14.102-51.378-56.35
		c-0.964,4.193-2.45,8.614-4.921,12.3c-10.208,13.969-11.729-34.863-11.436-42.521c0.225-13.611,4.25-29.05,4.25-29.05
		c-5.875,10.797-11.283,9.58-12.578-1.621c-1.593-30.48,14.845-51.716,32.586-76.571c1.05-2.943,1.286-6.136,2.564-9.014
		C401.486,124.654,442.89,107.968,446.477,110.332z"/>
	<path d="M649.633,264.289l0.286-0.007c3.982,16.578,1.78,32.055-14.878,46.171c-2.421,2.057-5.821-1.571-3.729-3.864
		C642.491,296.071,652.229,279.543,649.633,264.289z"/>
	<path d="M551.462,267.203c0.093,0.014,0.271,0.036,0.364,0.043c0.436,6.764,1.893,13.4,3.157,20.043
		c1.614-0.657,3.693-0.929,4.8,0.75c9.05,10.157,20.5,17.964,32.914,23.421c2.679,1.443,5.971,1.9,8.107,4.214
		c-17.229,0.086-32.964-9.743-44.114-22.278c7.299,26.405,18.254,30.833,12.857,34.293c-6.298,5.454-17.097-22.917-18.336-38.564
		C550.384,281.824,551.305,274.503,551.462,267.203z"/>
	<path d="M600.498,276.36l0.35,0.1c-5.254,19.323,5.853,36.585,6.171,37.586c0.307,3-3.479,3.921-5.386,2.136
		C601.355,315.181,588.795,297.337,600.498,276.36z"/>
	<path d="M611.355,280.474c0.379-2.343,3.821-3.193,5.279-1.343c17.911,18.118,14.843,36.228,5.771,40.243
		c-0.821,0.514-2.05,0.243-2.7,0.886c4.221-0.136,8.471,0.186,12.564,1.343c5.893-2.807,10.136-8.114,12.743-13.979
		c1,6.593-3.621,12.271-9.021,15.379c1.179,0.25,2.4,0.55,2.443,2.029c-3.957,0.257-7.9-0.164-11.85-0.25
		c2.286,4.364,2.571,9.536,0.807,14.136c0.557,0.936,1.107,1.9,1.564,2.9c2.321-3.957,4.657-7.921,6.5-12.136
		c-2.079-0.579-2.307-3.1-0.436-4.1c0.493,0.129,1.464,0.379,1.957,0.507c0.707-0.629,1.564-0.843,2.579-0.636
		c3.529-2.85,5.886-6.793,9.193-9.864c0.293-6.021-0.35-12.043-0.093-18.043c1-0.264,1.979-0.236,2.95,0.079
		c1.032,1.66,0.983,12.643,0.979,13.643c2.8-2.779,3.814-6.7,5.357-10.207c-0.029,5.529-2.629,10.514-5.286,15.193
		c-0.779,11.464-3.6,22.957-9.436,32.943c2.507-9.114,4.257-18.436,5.314-27.828c-2.629,3.614-5.779,7.314-10.15,8.764
		c-1.364,5.214-3.6,10.307-7.079,14.464c7.84,0.434,8.899,2.664,8.121,7.414c-0.579-0.879-1.093-1.75-1.607-2.643
		c-7.542-2.613-4.86-0.186-8.014-2.879c-15.384,19.537-51.118-0.001-47.571-3.143c0.6-1.314,2.1-0.514,2.964,0.021
		c6.686,3.85,13.771,7.286,21.479,8.45c-4.914-1.786-9.229-6.05-9.857-11.4c-0.364-3.086,1.45-5.8,2.086-8.721
		c-4.457,2.329-8.093,5.864-11.807,9.193c-1.142,1.391-4.355-0.076-1.55-2.971c10.329-10.846,19.55-14.307,19.55-14.307
		c5.15-1.193,9.85-3.807,14.757-5.743c-1.543-0.421-2.643-1.593-1.971-3.279c1.829,0.043,3.65,0.3,5.45,0.65
		C633.121,300.942,610.336,284.414,611.355,280.474 M603.676,329.695c-0.471,0.093-1.407,0.286-1.879,0.379
		c-0.376,5.03-0.81,13.654,3.879,15.607c1.813,0.746,10.872,6.102,16.886-0.286c1.968-5.418,2.709-17.203-0.179-20.557
		C617.732,324.993,606.766,326.442,603.676,329.695z"/>
	<path d="M473.741,312.053c1.857-1.929,2.171-4.714,3.75-6.8c-0.243,2-0.693,3.971-0.921,5.979
		c16.043,16.357,35.836,30.157,58.557,34.978c-3.679-4.529-14.686-16.28-17.729-32.293c1.493,2.843,2.971,5.686,4.457,8.536
		c1.036-1.807,3.207-2.943,5.136-1.643c14.521,7.7,31.257,9.893,47.507,9.55c-10.968,5.226-29.274,6.639-50.393-4.05
		c10.157,14.458,21.092,22.597,13.221,24.1c-6.963,0.995-27.932-4.763-47.871-21.25c-5.007-3.943-9.314-8.65-13.914-13.029
		c-2.814,20.735-0.923,40.146-16.793,21.364c-2.614,10.686-4.007,21.693-3.964,32.7c3.764,1.043,7.686,1.221,11.55,0.636
		c-9.496-4.632-9.262-10.334-9.379-16.793c1.742,6.326,0.11,7.752,10.286,12.857c2.343,0.321,4.886,0.329,7.014-0.864
		c-7.921-3.868-11.388-17.15-11.521-21.914c4.04,13.162,9.118,16.685,14.55,19.286c1.657-1.107,3.3-2.229,4.986-3.293
		c-7.716-7.141-6.673-11.286-6.15-14.907c0.917,2.401,0.181,6.182,8.6,13.436c2.379-1.271,4.786-2.507,7.371-3.321
		c-3.421-4.979-2.4-11.421-1.543-17.029c0.664,5.25,0.529,10.907,3.357,15.586c4.267,0.24,19.185-2.573,27.321,3.557
		c-1.843,0.25-3.7,0.236-5.55,0.329c0.586,1.136,1.864,1.536,2.829,2.279c1.171,0.729,1.15,2.286,1.686,3.429
		c-0.6-0.143-1.793-0.421-2.386-0.557c0.157,3.457,0.286,7.079-1.086,10.336c0.236-0.236,0.707-0.7,0.943-0.936
		c1.036-3.543,2.707-6.85,4.014-10.3c0.336-1.243,1.814-1.393,2.779-0.743c1.6,5.479-9.754,35.655-37.95,28.457
		c-2.921,0.893-4.629,3.371-5.821,6.021c-2.45-2.293-0.3-5.786,2.05-7.171c-2.236-0.871-4.336-2.886-6.886-2.121
		c-8.299,1.615-6.145-0.667-9.957,4.086c1.022-5.247,3.742-5.58,9.05-6.186c-2.914-2.021-5.486-4.486-7.821-7.143
		c-0.843-0.679-0.421-1.764-0.314-2.636c-3.786,1.407-7.921,1.279-11.85,0.7c0.06,20.327,10.218,39.369,11.9,47.407
		c0.088,5.038-7.17-6.178-10.721-19.293c-0.047,4.036,1.279,0.294-1.35,10.221c-0.25-1.136-0.443-2.279-0.643-3.407
		c-1.221-0.4-2.336-1.043-2.957-2.2c-18.545-28.125-35.445-23.464-38.293-24.193c2.636-1.586,5.829-0.821,8.564-1.929
		c13.31-0.856,25.77,9.895,32.693,21.236c-0.486-1.407,0.071-2.564,1.129-3.514c-0.436-0.057-1.293-0.179-1.721-0.236
		c-3.279-11.386-6.421-23.028-12.607-33.257c-5.169-9.092-19.291-25.488-12.757-25.457c2.564,2.036,3.121,5.664,5.207,8.029
		c1.271,1.721,3.064,3.121,3.621,5.279c1.419-0.135,3.994,4.878,8.657,10.886c1.429,2.171,3.879,3.286,6.086,4.486
		c0-2.15,0.086-4.3,0.3-6.436c-5.066,0.713-13.252-8.149-15.9-11.121c-0.836-0.914-0.936-2.321-2.036-3.007
		c-4.371-5.936-7.543-13.1-8.036-20.493c4.066,9.786,16.16,22.272,24.143,26.743c-4.114-9.077-4.977-23.047-3.679-32.493
		c4.473-1.345,3.635,1.124,3.779,3.686c-0.563,11.319,0.909,27.095,2.179,30.7c2.661-22.928,5.589-20.241,3.293-24.243
		c-2.957-4.95-5.207-10.307-6.936-15.8c-0.579-1.343,1.893-2.65,2.743-1.329c3.836,9.164,8.114,18.914,16.243,25.1
		c1.929-5.6,2.021-11.607,3.386-17.343C471.891,319.496,473.698,315.953,473.741,312.053 M490.962,360.617
		c0.086,2.11-3.692,8.776,8.536,20.614c2.557,0.064,5.129-0.407,7.429-1.564c0.729-2.557,3.457-3.386,5.2-5.093
		c-0.714-3.036,2.257-5.379,1.971-8.371c-1.615-7.882-4.318-4.434-2.9-8.536C504.37,357.753,497.477,358.481,490.962,360.617
		 M470.555,373.331c-0.386,0.071-1.164,0.214-1.55,0.293c8.976,9.341,20.186,15.612,32.557,11.893
		c-4.495-1.009-8.032,2.535-15.707-12.171c-0.921-2.971-0.4-6.143-0.693-9.2c0.471-0.614,0.957-1.214,1.436-1.821
		C480.641,364.981,475.291,368.874,470.555,373.331z"/>
	<path d="M615.626,305.417c2.696,9.768-4.169,14.643-6.707,16.871c-2.286,0.05-4.457,0.979-6.336,2.214
		c-1.8-2.85,2.714-4.143,4.793-4.336C612.462,317.088,615.412,311.303,615.626,305.417z"/>
	<path d="M661.74,322.817c2.05-5.157,3.921-10.45,4.65-15.978c0.057,6.336-0.057,12.75-1.571,18.936
		c-0.579,1.386,0.579,2.586,0.571,3.957c-0.042,15.823-3.055,42.695-12.057,51.95c0.264,0.029,0.793,0.071,1.057,0.093
		c0.3-1.064,1.357-1.536,2.179-2.129c9.198-6.099,12.076-11.261,14.628-13.428c-3.672,16.949-18.135,23.374-20.543,25.021
		c-2.793,9.85-6.336,19.571-11.614,28.386c21.575,18.688,77.452,28.752,96.857,51.607c14.295,16.635,14.24,43.035,11.521,47.05
		c-8.687-75.396-66.941-57.639-110.128-95.721c-6.436,10.4-14.664,19.557-23.271,28.186c-29.25,27.694-33.487,27.095-62.143,22.064
		c24.902,27.678,23.826,76.552,21.221,113.471c9.216,45.971-14.82,228.821-45.864,264.277c-1.564,1.229-2.971-1.35-1.507-2.436
		c31.083-38.718,48.29-234.578,44.214-270.992c0.364,0.093,1.1,0.286,1.464,0.386c-1.598-23.155,6.002-66.22-20.85-102.335
		c-0.714-0.9-1.143-1.964-1.493-3.036c-11.186-2.471-21.957-6.421-32.457-10.95c-0.014-0.579-0.029-1.743-0.036-2.321
		c8.54-1.792,50.96,27.59,82.514,0.571c51.469-45.908,46.719-68.429,52.164-109.242c-1.586-0.057-2.986-0.636-3.993-1.864
		c-0.064-1.4,0.171-2.814,1.264-3.793C654.348,338.288,658.426,330.645,661.74,322.817 M652.455,349.138
		c2.657,8.093,2.35,16.771,1.414,25.128c-1,1.057-0.471,2.586-0.521,3.9c3.236-13.579,6.771-27.2,7.45-41.214
		C658.812,341.495,655.797,345.51,652.455,349.138z"/>
	<path d="M678.983,321.188c0.157-1.814,3.007-1.157,2.229,0.65c-1.457,9.857-2.679,20.271-8.15,28.857
		C676.033,341.088,677.533,331.124,678.983,321.188z"/>
	<path d="M609.548,328.367c6.936-2.535,17.424,5.807,9,13.321C605.526,352.492,598.538,333.316,609.548,328.367 M610.983,331.31
		c-2.093,3.271,2.7,7.029,5.607,4.857c1.679-1.271,1.143-3.557,1.214-5.371C615.698,329.51,612.455,328.703,610.983,331.31z"/>
	<path d="M624.455,352.603c-0.255-3.555,8.963-1.105,4.671,5.143c-0.443-1.143-0.736-2.35-1.4-3.386
		C626.948,353.245,625.19,353.753,624.455,352.603z"/>
	<path d="M498.105,361.224c18.796-5.069,15.022,18.47,2.8,16.436C488.945,375.592,494.019,362.579,498.105,361.224 M504.262,363.002
		c-0.357,0.25-1.079,0.757-1.436,1.014c-0.243,2.036-0.679,4.143-0.164,6.171c0.8,1.007,1.964,1.614,3.007,2.343
		c4.129-0.564,4.886-5.914,2.521-8.714C507.348,362.495,505.548,363.195,504.262,363.002z"/>
	<path d="M555.227,397.738c6.978-12.482,17.621-7.478,20.357-1.929c-5.532,0.76-9.188-7.546-17.664,3.929
		C556.591,400.795,554.548,399.324,555.227,397.738z"/>
	<path d="M431.256,434.245c7.814-6.607,17.764-11.779,28.278-10.9c1.614-0.436,2.336,2.45,0.593,2.707
		c-10.942-1.955-30.56,9.128-35.85,21.9c-2.221,5.214-0.229,10.786,1.471,15.821c0.421-0.114,1.257-0.35,1.679-0.464
		c15.188,16.3,18.844,33.512,41.886,41.664c17.316,6.408,38.266,8.95,49.121,30.443c1.764-0.486,3.564-0.793,5.4-0.85
		c-0.493,0.414-1.479,1.25-1.971,1.664c1.936,8.007,4.371,15.978,4.857,24.271c1.756,19.662-1.4,55.041-14.014,89.628
		c-29.761,83.249-51.388,84.998-49.571,151.799c0.214,1.221-0.321,1.879-1.607,1.964c-2.835-1.094-1.972-34.091,4.05-54.378
		c11.081-35.786,78.323-143.814,49.435-210.642c-18.949,5.762-29.437,8.063-37.657-21.886c-0.25-1.629,1.643-1.629,2.764-1.514
		c8.472,23.065,9.501,26.475,33.614,20.714c-12.576-22.732-37.75-20.964-55.557-32.157c-14.795-9.087-19.984-23.436-31.436-37.107
		C417.696,458.949,417.052,445.913,431.256,434.245 M519.048,537.13c1.871,4.171,2.807,8.643,2.979,13.186
		c0.071-4.707-0.464-9.414-0.6-14.121C520.834,536.43,519.641,536.895,519.048,537.13z"/>
	<path d="M448.698,428.038c3.221-0.771,6.55-2.557,9.9-1.571c3.4-0.086,6.407,1.85,9.35,3.321
		c1.914,1.237,11.202-0.169,20.757,7.786v0.757c-0.314,0.314-0.943,0.943-1.257,1.257c-3.146-0.8-11.537-7.942-21.5-5.114
		c-16.336,5.207-12.391,29.544-13.093,40.471c-8.252-24.265,0.56-40.183,12.078-43.8c-20.538-10.615-26.396,18.375-28.836,25.228
		C435.527,445.824,438.87,433.481,448.698,428.038z"/>
	<path d="M629.369,435.309c2.371-0.379,4.714,1.036,5.607,3.243c10.444,24.722,14.475,42.441,4.957,70.543
		c-15.984,43.719-34.778,20.906-51.9,20.8c-3.021-0.121-5.829,1.093-8.686,1.864c-1.693-0.407-1.221-2.543,0.279-2.779
		c21.986-10.756,38.207,20.52,53.171-16.228c7.264-17.964,7.214-37.828,5.179-56.8c-1.642-0.959-5.27-8.447-4.95-13.2
		c1.071,0.35,1.607,1.357,1.979,2.336c-0.25,2.164,0.729,4.2,1.429,6.2c0.214-4.486-2.15-8.414-4.071-12.264
		c-0.586-1.007-1.871-1.2-2.807-1.679C629.505,436.831,629.419,435.816,629.369,435.309z"/>
	<path d="M586.755,436.995l0.45,0.629c-0.107,0.343-0.321,1.029-0.429,1.371c-7.614,1.871-15.65,1.757-23.064,4.536
		c-2.3,1.171-4.136-2.5-1.993-3.643C569.751,436.535,578.694,434.139,586.755,436.995z"/>
	<path d="M644.255,447.359c2.821-3.771,2.693-9.293,6.914-12.057c0.657,0.757,1.329,1.521,2,2.293
		c-1.664,3.307-4.407,5.936-5.821,9.393c-1.314,2.393-1.664,6.643-5.25,6.414C641.498,451.159,643.176,449.166,644.255,447.359z"/>
	<path d="M512.712,455.488c2.636,8.086,1.4,16.664,0.764,24.95c1.671,1.157,3.55,1.993,5.357,2.943
		c-0.021,0.557-0.057,1.686-0.079,2.243c-5.328,0.701-24.095-11.734-19.978-15.85c2.331-2.47,2.494,2.537,12.043,9.25
		c0.521-7.721,1.164-15.85-1.857-23.171c-4.175-9.896-15.442-14.268-25.914-3.257c-9.607,10.564-12.947,26.782-16.493,30.978
		c-0.371-4.636,0.679-9.236,1.893-13.678C479.015,434.617,506.549,435.344,512.712,455.488z"/>
	<path d="M625.598,443.759c0.071,0.414,0.207,1.236,0.279,1.65c-7.486,7.671-11.114,18.1-18.393,25.921
		c-2.057,3.6-4.907,6.636-6.921,10.264c0,0-18.171,32.638-19.086,33.614c-5.113,5.517-3.651,11.053-7.971,12.493
		C571.485,524.051,618.637,446.363,625.598,443.759z"/>
	<path d="M681.683,450.524l0.8-0.5c0.329,0.271,1,0.821,1.336,1.1c-7.171,20.753-16.552,37.031-30.4,75.8
		c-4.836,14.371-8.564,29.086-13.214,43.514c-10.013,31.504-24.278,47.877-13.186,54.643c0.807-0.714,1.643-1.393,2.529-2.021
		c-0.036,0.986-1.686,2.721-0.007,3.143c9.231,3.411,32.199,5.767,53.45,17.2c9.265,5.166,22.428,16.262,17.936,25.557
		c-0.9,2.293-3.671,3.136-4.386,5.536c-17.979,49.117-57.452,92.799-70.428,153.028c-10.995,49.53-19.784,58.772-33.271,85.65
		c-6.286,12.229-11.9,24.836-19.057,36.6c-0.757,1.979-3.514,0.35-2.093-1.336c57.825-104.665,41.446-119.568,61.921-164.506
		c3.024-6.579,54.617-107.301,63.557-120.5c-8.598-21.913-59.021-30.666-70.028-34.864c-12.033,26.544-24.132,41.885-36.721,76.485
		c-19.771,53.405-24.273,85.127-52.057,146.956c-33.37,74.299-50.283,171.17-70.393,209.056c-0.414,0.107-1.229,0.321-1.643,0.436
		c-11.671,29.155-9.147,33.381-13.771,64.607c-0.336,1.743-0.064,3.529,0.214,5.271c-1.5,0.343-1.214,2.357-0.129,3.029
		c0,0-7.248,46.426-9.121,71.071c-0.22,9.011,3.279,18.651,2.686,23.007c1.864-1.114,1.286-3.979,1.893-5.814
		c-0.771-3.907-2.693-7.5-3.571-11.386c-0.629-1.586,1.807-3.021,2.864-1.614c1.193,2.207,1.679,4.707,2.514,7.057
		c0.207-1.2,0.314-2.379,0.521-3.536c0.539,1,5.989,29.9,19.843,39.214c7.867,5.336,16.843,1.251,15.221-6.064
		c-6.85-8.072-13.014-16.879-17.328-26.579c1.356-5.875,4.214,5.844,16.821,21.314c-4.764-15.093-13.85-28.957-15.357-44.971
		c7.9,17.445,19.102,37.234,20.2,48.036c0.221,1.129,0.071,2.564,1.157,3.329c13.241,12.135,21.358,3.443,22.264-2.586
		c-3.214-4.078-6.586-8.064-9.3-12.514c-10.261-16.808-10.274-16.758-6.693-17.014c4.486,9.078,10.136,17.564,16.343,25.564
		c-2.784-15.092-18.46-26.225-26.907-49.428l0.421-0.2c10.913,20.874,30.876,36.371,29.593,52.7
		c14.931,12.01,26.795,0.657,17.864-12.114c-9.776-13.861-21.621-15.837-29.078-44.971c3.886,8.85,8.407,17.543,14.793,24.914
		c0.464,0.029,1.4,0.093,1.871,0.129c19.446,24.109,43.626,25.262,35.271-6.557c8.047,8.43,6.073,22.621-1.786,26.493
		c-7.556,3.525-18.655-2.203-20.686-4.964l-0.279,1.443c0.207-0.078,0.621-0.25,0.829-0.328
		c15.159,19.277-5.939,31.465-19.393,19.093c-4.129,10.18-15.113,13.715-26.321,3.307c-6.645,16.025-27.617,12.819-39.171-21.843
		c-0.179,2.093-1.421,3.793-2.914,5.178c27.509,176.318,34.537,194.302,18.614,204.185c-19.812,12.58-77.706,5.335-115.171-8.264
		c-2.727,18.588-23.86,74.387-26.607,102.278c-3.076,28.186,1.392,64.929-11.864,91.678c-24.96,50.64-100.452,23.531-111.107-16.714
		c-9.377-34.952,7.847-72.031,11.964-82.3c10.874-26.839,8.867-59.566,13.314-92.607c3.449-25.58,11.893-39.2,29.828-80.542
		c0.607-1.764,1.921-3.579,1.036-5.464c-7.099-21.865,10.762-43.721,16.021-65.571c2.065-8.292,32.075-166.468,84.8-259.57
		c-17.612,3.774-17.302-15.521-41.671-29.393c-3.831-2.061-1.551-48.807,3.936-77.257c-0.55-0.079-1.657-0.243-2.207-0.321
		c1.107-0.6,2.686-0.993,2.657-2.543c5.009-28.445,22.033-63.405,39.807-66.907c1.807-0.043,1.257,2.193-0.179,2.25
		c-15.445,4.715-28.862,35.087-33.386,51.093c-6.312,23.21-10.474,67.893-10.143,90.335c27.718,15.775,24.983,32.287,42.121,29.793
		c1.064-0.093,1.314-1.329,1.857-2.029c6.607-11.943,14.157-23.321,21.828-34.593c1.1-1.686,2.471-3.286,2.907-5.3
		c-1.1,0.95-2.05,2.05-2.986,3.157c0.493-1.429,1-2.85,1.471-4.279c-21.913-25.087-15.847-74.719-11.786-82.228
		c0.043-0.679,0.079-1.343,0.107-1.993c-12.587,34.648-10.8,33.364-17.828,68.35c-0.543,0.043-1.621,0.128-2.164,0.164
		c-0.068-1.988,4.46-33.806,11.129-52.793c11.387-32.355,16.14-44.046,51.328-65.128c12.464-7.286,26.314-13.614,41.064-13.257
		c-0.386,1.557-2.271,1.657-3.479,2.279c-31.865,11.033-68.184,27.584-79.078,59.007c2.443,0.493,0.943,2.936,0.564,4.457
		c-2.448,8.401-8.938,46.405,11.2,78.921c7.821-15.371,17.093-29.928,25.528-44.95c0.893-1.207,2.136-0.3,2.7,0.679
		c-1.169,2.573-26.386,45.548-26.943,46.385c2.343-1.885,7.44-11.785,8.3-12.786c0.463-1.001,10.359-18.733,12.871-20.914
		c1.243-0.221,2.179,1.136,1.35,2.157c-7.793,10.793-12.771,23.264-19.786,34.536c0.186,0.457,0.55,1.378,0.729,1.836
		c-0.457-0.05-1.371-0.15-1.829-0.207c-55.563,84.821-58.854,113.483-66.593,135.642c-22.048,63.356-37.366,128.581-41.136,148.014
		c-9.902,50.726-24.145,51.789-20.286,77.9c0.871-0.05,1.729,0.043,2.571,0.271c1.279,1.786-1.279,3.793-0.464,5.65
		c5.293,11.293,14.043,20.378,22.236,29.6c18.016,18.906,31.839,31.639,66.978,45.257c30.724,11.646,66.892,16.443,94.892,14.221
		c32.66-4.54,28.409-0.299-8.393-227.549c-2.186-14.85-2.293-30.385,2.879-44.657c9.012-32.495-1.029,18.151,10.943-65.307
		c2.878-21.116,14.867-47.596,19.914-52.586c25.965-73.143,27.051-118.636,72.735-222.813c6.127-14.178,9.947-14.225,21.507-55.414
		c1.083-3.998,13.861-55.618,31.464-91.693c3.355-6.961,18.859-37.686,27.3-48.543c-14.278-7.838,4.759-30.552,14.007-63.371
		c3.773-12.271,11.641-44.36,30.857-86.407C674.033,468.659,677.919,459.609,681.683,450.524 M218.299,1528.94
		c-21.064,50.799-22.29,96.991,30.178,113.114c22.085,6.595,45.717,2.288,57.45-19.421c11.895-21.941,10.056-53.702,11.25-76.385
		c0.841-34.247,22.161-99.568,31.507-117.65c-17.971-7.178-35.114-16.878-49.564-29.828c-3.271,7.036-6.45,14.121-8.843,21.521
		c18.632,7.125,19.955,6.901,20.836,8.414c-7.529-0.357-15-1.686-22.179-3.971c-2.914,9.493-5.15,19.178-6.85,28.964
		c7.707,0.971,15.486,0.014,23.171-0.736c0.158,1.792-11.882,6.594-24.136,6.114c-1.514,10.886-2.757,21.807-4.479,32.664
		c11.029,1.986,22.293,3.693,33.521,2.643c-10.971,4.043-22.928,5.007-34.428,2.957c-0.75,3.921-1.243,7.879-1.736,11.843
		c-1.864-3.921-1.957-8.371-2.143-12.614c-6.593-1.607-13.143-3.507-19.393-6.157c-2.807-1.386-0.914-6.228,2.093-5.228
		c5.807,2.057,11.729,3.807,17.593,5.7c-0.079-11.086,1.907-22.043,3.057-33.021c-8.361-1.836-17.201-8.708-15.979-11.536
		c0.171-1.407,1.914-1.757,3.057-1.536c2.186,1.371,3.879,3.414,6.114,4.736c2.471,1.621,5.4,2.25,8.036,3.536
		c0.107-4.318,3.578-19.713,7.079-30.214c-22.364-9.956-26.81-21.654-19.793-19.607c5.607,6.786,13.314,11.35,21.257,14.907
		c2.786-7.936,6.129-15.686,10.229-23.028c-4.893-4.349-22.273-22.729-32.807-38.436
		C219.105,1430.422,237.465,1483.325,218.299,1528.94z"/>
	<path d="M421.291,466.631c0.821-1.014,2.493-0.471,2.121,1.007c-6.95,9.793-17.257,16.35-26.371,23.9
		c-29.163,23.709-30.006,35.513-25.936,64.021c0.914,4.907,0.5,10.043,2.229,14.793c5.693,17.264,7.186,35.578,12.821,52.857
		c3.764,9.443,8.486,18.471,12.079,27.993c2.457,5.971,4.286,12.614,9.121,17.193c9.711,8.651,31.889-2.962,49.971-6.914
		c19.982-4.777,40.546,3.234,38.007,5.664c-6.507-0.093-12.886-1.75-19.393-2.036c-24.627-2.029-43.698,12.636-62.621,10.193
		c1.193,7.043,3.164,13.914,4.693,20.893c10.995,46.61-4.035-0.19,21.679,77.857c5.037,15.297,19.723,53.845,36.443,68.4
		c11.81,10.661,33.932,20.123,47.75,12.514c-0.169,7.01-29.907,12.162-54.728-14.85c-27.364-29.462-52.562-124.874-58.985-165.806
		c-14.562-3.315-19.666-21.854-30.557-56.764c-0.493-1.093-0.336-2.243,0.143-3.286c-3.829-17.457-6.229-35.35-12.757-52.093
		c-0.343-1.314-1.657-3.286,0.036-4.164c1.036-0.757,1.686,0.929,2.293,1.536c0.049-1-8.938-22.038-1.043-41.021
		C377.916,494.686,407.853,482.008,421.291,466.631z"/>
	<path d="M748.219,517.438c1.157-3.779,1.85-7.679,3.2-11.393c3.186,23.741-5.386,40.082-18.407,99.192
		c-6.7,28.475-8.205,51.706-27.943,68.328c-1.25,1.314-3.414-1.164-2.029-2.236c16.698-16.825,17.91-31.603,23.243-57.207
		c7.077-38.491,19.428-81.707,21.307-96.007c0.321,0.071,0.971,0.207,1.3,0.279L748.219,517.438z"/>
	<path d="M587.398,531.638c-0.136,11.465-0.931,25.123-11.686,29.036c1.507-2.329,3.75-4.121,4.95-6.657
		C587.455,540.025,581.659,528.38,587.398,531.638z"/>
	<path d="M467.105,535.123c-0.993-0.857-0.386-2.557,0.879-2.643c1.913-0.575,20.718,24.64,19.343,45.1
		c0.586-0.743,0.971-2.007,2.114-1.993c10.25-1,20.478-2.407,30.793-2.664c-8.686,4.179-18.521,4.779-27.957,5.914
		c-1.65,0.171-3.686,0.8-4.65-1.043c-0.164,0.064-0.507,0.193-0.671,0.257C484.17,562.294,476.334,547.995,467.105,535.123z"/>
	<path d="M506.527,544.016c0.886-0.529,1.886-1.279,2.957-0.664c4.371,4.393,7.693,9.871,9.221,15.907
		c-4.664-3.764-8.093-8.75-12.021-13.214C506.648,545.537,506.57,544.523,506.527,544.016z"/>
	<path d="M453.727,558.995c-2.236-1.05-0.786-4.779,1.529-3.793c42.125,26.104,56.007,90.438,49.528,94.778
		c-3.828-19.742-11.119-44.596-21.407-61.964c-0.75-0.857-0.136-1.836,0.2-2.693C474.498,575.616,464.82,566.38,453.727,558.995z"/>
	<path d="M487.998,560.495c1.743-1.221,2.707,0.671,2.286,2.243C488.762,563.152,486.77,562.209,487.998,560.495z"/>
	<path d="M697.926,674.687c4.927-4.254,2.885,4.529,6.714,14.457c4.44,12.993,16.305,26.666,7.879,45.578
		c-11.544,26.685-47.76,45.922-68.928,45.628c7.455-8.045,29.48-11.532,48.45-28.686
		C726.207,721.104,701.346,709.078,697.926,674.687z"/>
	<path d="M717.347,736.844c4.299,15.773,5.455,13.108,8.664,19.286C714.664,749.355,713.049,732.341,717.347,736.844z"/>
	<path d="M723.919,759.551c-0.957-1.443,1.429-2.9,2.357-1.493c16.165,18.182,32.548,38.278,41.107,76.7
		c2.793,12.529,5.657,25.286,4.843,38.2C761.71,855.595,773.513,817.076,723.919,759.551z"/>
	<path d="M430.248,768.415c-0.55-1.407,0.807-3.436,2.343-2.193c3.168,11.029-7.513,21.177-6.8,30.628
		c0,2.721,1.871,4.829,3.307,6.964c-3.7-1.336-6.179-5.064-6.079-8.971C423.034,785.429,431.298,778.015,430.248,768.415z"/>
	<path d="M424.863,780.086c0.943-0.764,2.543,1,1.45,1.807c-3.314,5.293-7.65,9.836-11.079,15.036
		c-4.984,8.376,2.163,9.445,6.721,13.071c-3.486-0.114-7.014-1.457-9.543-3.879c-5.796-5.703,3.396-13.982,8.321-20.636
		C422.148,783.708,423.263,781.701,424.863,780.086z"/>
	<path d="M603.105,789.008c1.679-1.164,4.564-0.207,4.064,2.129c-5.5,13.943-11.321,27.821-15.329,42.293
		C594.412,818.365,596.891,803.093,603.105,789.008z"/>
	<path d="M389.52,822.429c3.921-4.293,8.586-7.85,13.579-10.786c1.764-0.857,3.3,1.571,2,2.957c-1.064,0.886-2.243,1.607-3.371,2.4
		c-0.729,5.345-14.939,11.029-28.828,27.664c-13.088,15.073-22.465,36.465-25.271,55.307c-2.385-20.927,7.091-49.495,43.371-77.178
		C390.627,822.701,389.891,822.515,389.52,822.429z"/>
	<path d="M578.548,817.008c0.243-1.121,1.2-2.429,2.557-1.614c-2.079,5.907-4.829,11.55-7.164,17.357
		C574.476,827.258,576.641,822.129,578.548,817.008z"/>
	<path d="M771.54,833.401c9.847,7.344,17.505,7.872,60.8,27.764c34.785,15.952,41.586,23.082,55.993,50.693
		c14.201,27.608,22.779,37.599,32.993,75.521c35.165,130.802,31.836,177.775,46.728,228.156
		c13.073,43.356,17.709,99.056,38.378,138.721c17.053,32.459,32.012,30.37,32.364,116.221c-0.359,19.954-6.729,34.619-26.664,36.907
		c13.267-13.685,23.672-6.65,19.043-66.221c-1.997-25.018-3.344-39.393-11.279-53.207c-10.025-17.521-26.618-34.389-38.314-84.535
		c-30.781-131.736-25.593-99.99-40.321-196.628c-8.378-52.26-26.807-121.382-33.707-140.557
		c-6.186-17.614-16.157-33.493-24.471-50.114c-19.73-38.876-20.856-34.588-96.528-69.635
		C761.264,833.733,770.54,832.675,771.54,833.401z"/>
	<path d="M626.49,839.036c17.067-3.977,45.723-0.133,66.707,14.657c27.936,19.717,54.357,71.661,56.628,85.307
		c-34.787-39.389-36.692-93.981-123.292-96.985C626.498,841.015,626.476,840.022,626.49,839.036z"/>
	<path d="M334.62,868.486c1.607-0.829,0.686,1.729-0.057,2.129c-9.364,10.814-23.386,15.364-35.986,21.164
		c-27.02,12.076-29.288,26.414-41.657,40.521c-12.727,15.369-19.666,14.824-58.778,53.257
		c-36.967,37.651-35.337,50.246-33.586,119.957c7.068,122.732,7.91,90.14-53.121,176.121c-12.156,17.005-8.688,15.493-43.743,71.493
		c-38.702,63.606,28.597,74.662-1.35,119.842c-9.966,14.954-27.354,28.876-28.171,43.964
		c-0.945,27.745,98.236,32.346,131.199,27.886c9.729-0.707,20.129-3.45,29.4,0.893c1.307,1.086-0.871,1.514-1.657,1.593
		c-23.007,3.238-34.013,8.976-84.064,5.679c-27.41-1.745-52.446-8.606-64.1-14.057c-41.589-19.888,5.703-55.278,15.214-74.171
		c11.64-23.199-7.108-38.886-12.807-59.271c-8.988-30.286,13.23-57.807,24.378-76.421c18.342-29.253,14.732-30.24,45.178-70.757
		c43.907-58.917,40.414-50.676,39.157-95c-8.007-140.21-6.161-144.948,51.393-198.706c20.524-19.126,33.136-24.908,45.293-40.928
		c20.88-27.247,16.212-26.792,59.278-44.55C322.649,876.386,329.085,873.065,334.62,868.486z"/>
	<path d="M775.147,885.407c2.713-3.456,7.726,13.561,21.364,42.521c3.551,8.67,15.798,31.871,2.079,38.571
		c-0.064-2.229,1.871-3.693,2.55-5.679c4.566-11.345-7.468-31.429-16.929-55.243C781.818,899.886,775.148,885.433,775.147,885.407z"
		/>
	<path d="M443.641,888.229c-4.643,8.371-10.629,15.986-17.3,22.836c-1.479,1.629-4.379,0.129-4.007-1.986
		C422.283,907.696,442.641,888.899,443.641,888.229z"/>
	<path d="M728.719,916.907c-0.364-1.293,1.029-1.871,2.007-1.2c2.131,5.495,0.778,63.095-24,85.693
		c6.771,5.35,13.271,11.043,19.871,16.6c0.072,0.536,0.15,1.093,0.236,1.657l1.171-0.307c-1.764-0.807-1.393-3.664,0.814-3.207
		c1.993,1.971,3.064,4.657,4.814,6.843c17.263,23.096,17.252,13.59,46.064,71.078c19.087,38.431,106.684,177.967,114.621,201.778
		c2.55,7.586,3.679,15.643,3.164,23.65c1.764,0.879,0.764,3.3,2.086,4.536c49.988,48.402,47.91,99.524,71.293,160.828
		c10.071,26.764,30.263,53.075,3.871,102.378c-16.922,31.697-45.548,41.871-78.064,35.543
		c-84.944-17.465-7.972-119.716-71.214-217.892c-20.285,10.828-48.37,21.162-70.864,17.55
		c-56.085-9.519-11.255-90.727-70.393-201.149c-20.366-38.3-23.698-53.039-37.185-75.764
		c-64.288-109.952-33.607-41.69-64.607-117.271c-4.114-10.293-9.993-19.878-13.157-30.543c-0.9-1.7,1.979-2.207,2.321-0.736
		c4.343,12.436,11.621,23.564,16.164,35.921c17.231,46.222,14.146,31.609,31.65,59.2c53.901,84.224,40.642,71.816,61.357,112.264
		c7.163,14.087,18.669,33.018,31.043,72.6c20.034,65.135,3.818,126.44,35.557,139.142c21.374,8.637,55.038-3.473,75.278-14.586
		c0.421-0.957,0.986-1.814,1.736-2.521c5.23,1.007,29.489-16.908,34.328-21.164c-0.486-1.964,1.179-2.986,2.921-2.5
		c10.378-9.646,23.835-26.591,26.857-32.964c9.762-33.98-2.589-52.914-14.1-72.542c-0.611-1.005-90.49-157.458-96.292-168.664
		c-18.045-35.19-18.356-40.237-42.05-69.564c-1-0.954-36.909-23.614-54.75-50.443c-0.871-1.55,1.029-2.507,2.386-2.186
		c6.457,8.05,14.171,15.078,22.228,21.493C729.786,967.615,728.368,934.492,728.719,916.907 M898.368,1328.57
		c0.215,13.681-24.435,41.027-34.486,50.421c0.836,1.229,1.657,2.486,2.464,3.764c4.843-4.329,9.2-9.172,14.157-13.379
		c0.286,0.136,0.857,0.414,1.143,0.55c-3.15,6.486-7.543,12.236-12.279,17.636c2.95,4.907,5.521,10.036,8.236,15.078
		c6.264-6.943,10.971-15.207,17.636-21.786c-3.1,9.886-8.079,19.307-15.086,26.986c4.521,10.093,9.028,20.243,12.157,30.878
		c8.614-2.564,16.193-7.621,23.014-13.343c-3.893,9.107-12.1,15.864-21.343,19.086c1.036,4.136,1.907,8.328,2.214,12.6
		c-1-0.73-1.004-0.677-5.757-11.6c-16.693,3.688-13.299-3.751-11.043-4.971c2.929,0.014,5.85-0.307,8.743-0.757
		c-3.214-9.643-7.143-19.05-11.236-28.35c-16.387,15.155-17.396,5.462-14.836,3.857c4.45-2.557,8.75-5.414,12.364-9.093
		c-2.479-5.293-5.086-10.529-7.871-15.664c-4.093,4.257-8.543,8.15-12.986,12.021c-2.679,1.557-5.686-2.107-3.614-4.371
		c4.6-4.214,9.257-8.379,13.764-12.693c-0.864-1.364-1.707-2.743-2.507-4.114c-9.914,8.479-21.243,15.057-32.436,21.664
		c69.27,91.21-18.093,209.931,80.693,215.306c34.824,1.358,53.214-15.226,65.814-46.771c14.405-36.495,1.561-56.028-7.857-79.2
		c-18.178-44.726-21.789-79.75-33.307-104.928C924.653,1366.384,910.304,1348.155,898.368,1328.57z"/>
	<path d="M416.334,938.036c5.1-3.936,9.928-8.257,15.343-11.764c-3.521,5.371-8.193,9.964-13.221,13.921
		C417.077,941.829,414.741,939.25,416.334,938.036z"/>
	<path d="M274.871,937.95c0.564-2.143,4.293-1.164,3.543,1.107c-2.877,27.084,31.483,39.62,38.536,69.657
		c-0.093,0-0.286,0.007-0.386,0.014C310.37,986.245,269.861,967.267,274.871,937.95z"/>
	<path d="M682.483,936.607c-4.701,24.491-1.873,24.607-4.814,26.1c0.214,0.743,0.629,2.221,0.843,2.957
		c-3.721-3.183-11.618-20.5-14.107-25.843c0.221-0.4,0.664-1.2,0.886-1.607c0.879,0.079,2.021,0.107,2.357,1.15
		c3.264,6.571,6.279,13.293,8.693,20.221C676.226,950.336,679.866,939.797,682.483,936.607z"/>
	<path d="M854.054,938.7c1.364-1.393,4.186,0.857,3.079,2.479c-7.891,12.007-24.816,29.572-43.143,39.3
		c0.143,4.243,0.071,8.657-1.929,12.529c-5.412,10.739-23.315,22.692-35.514,24.136c-10.949,1.799-16.514-3.061-39.95-4.55
		c-4.321-0.379-8.85-1.929-11.657-5.371c8.764,2.371,17.957,0.764,26.778,2.736c7.093,1.207,14.05,3.757,21.336,3.414
		c10.824-0.043,37.778-12.745,37.778-31.436c-3.736,1.471-7.564,2.757-11.55,3.343c2.95-3.079,7.479-4.243,10.8-6.971
		c-1.114-5.1-3.814-9.664-6.743-13.907c-1.293-1.386,1.386-3.586,2.357-1.8c3.279,4.164,5.793,8.936,7.414,13.993
		C843.438,956.244,850.512,941.968,854.054,938.7z"/>
	<path d="M576.319,946.114c1.186-1.764,2.007-3.921,3.879-5.1c-3.594,18.251-22.693,45.331-18.664,51.757
		c-0.136-1.35-1.836-3.536,0.114-4.257c4.713,3.612,10.81,14.623,7.136,14.471c-0.35-0.229-1.057-0.679-1.414-0.907
		c-0.086,0.336-0.264,0.993-0.35,1.329c0.414-2.471-2.907-4.693-1.379-6.943c-1.793,0.443-2.107-1.6-2.843-2.75
		c-0.393,0.764-0.629,2.086-1.807,1.814c-1.443,0.057-1.614-1.979-2.657-2.65c-1.595,8.295-19.111,42.834-26.428,61.064
		c1.236-1.843,2.893-3.314,4.521-4.793c-0.071,0.314-0.207,0.943-0.271,1.25c11.671,1.645,33.769,3.673,37.836,6.321
		c-10.351,2.482-35.311,4.218-41.121-1.086c-6.213,15.114-2.41,26.095,2.471,41.321c10.947,32.677,7.42,41.874,4.393,73.664
		c2.029,2.7,2.014,6.064,2.807,9.229c0.25,1.764,1.936,2.679,2.914,4.021c0.757,1.514,0.279,3.486,1.443,4.85
		c2.843,3.214,3.029,7.728,3.514,11.786c-0.607,3.264,5.729,1.55,4.786,4.993c-1.057,1.864-3.271,0.4-4.8,0.05
		c0,0.764-0.007,2.3-0.014,3.064c-2.179,0.036-1.436-2.321-1.679-3.65c-26.622-9.928-4.622-46.304-11.957-82.571
		c-2.83-15.956-11.647-31.635-11.814-40.95c-0.879,2.929-0.186,6.643-0.464,9.857c-0.764,1.286-2.964,0.843-2.771-0.779
		c-1.405-31.037,21.53-66.514,34.978-103.342C562.698,973.264,568.262,959.036,576.319,946.114 M539.241,1173.463
		c-0.354,8.256-2.794,22.085,9.586,27.836c-0.686-3.957-0.886-8.371-3.564-11.571c-1.443-1.621-0.5-4.286-2.257-5.671
		C539.898,1181.456,540.276,1177.028,539.241,1173.463z"/>
	<path d="M739.969,942.571c0.45,0,1.35,0,1.8,0c-0.017,26.913-20.018,55.137-31.036,59.685
		C715.406,994.211,734.967,982.348,739.969,942.571z"/>
	<path d="M754.947,942.407c0.971,1.5,1.271,3.3,1.779,5c3.026,0.11,21.847,4.242,28.814,7.564
		c12.093,5.783,7.625,14.913,6.414,20.564c-1.142,4.894-3.451,25.006-13.893,28.636c-0.95-1.564,1.079-2.829,1.771-4.079
		c6.857-8.036,7.029-19.079,9.857-28.764c3.487-12.112-2.831-14.476-32-21.307c2.645,22.327,11.352,46.471,12.179,58.3
		c-3.618-6.76-13.037-45.315-12.857-50.478c-1.196,32.136-39.177,53.712-37.55,44.843c0.414-1.486,2.093-1.9,3.25-2.636
		c10.907-5.493,19.479-15.136,24.257-26.314C751.261,963.814,754.011,953.186,754.947,942.407z"/>
	<path d="M357.434,955.307c-0.65-1.443,0.957-1.364,1.879-1.378c2.831,5.74,12.965,21.554,16.893,25.171
		c-0.336,0.321-0.664,0.65-0.993,0.993C368.192,972.7,362.206,964.321,357.434,955.307z"/>
	<path d="M421.056,956.379c-2.8,4.179-7.6,6.386-12.279,7.75C407.428,964.379,400.466,960.711,421.056,956.379z"/>
	<path d="M349.27,959.928c-4.693,10.993-13.736,20.343-24.914,24.786c-1.214,0.721-1.986-1.921-0.55-2.136
		C337.355,976.454,343.113,965.503,349.27,959.928z"/>
	<path d="M648.419,982.936c6.207-7.671,16.393-10.971,25.957-11.586c2.879,0.486,2.221,4.907-0.586,4.743
		C664.933,976.478,656.419,979.257,648.419,982.936z"/>
	<path d="M376.82,980.686C376.999,980.857,376.999,980.857,376.82,980.686z"/>
	<path d="M868.539,987.957c-4.266-3.743,8.013-15.071,14.5,24.643c8.674,67.717-12.358,113.571-22.636,140.114
		c2.669-25.655,29.56-91.627,15.171-149.471C874.275,997.743,872.239,992.307,868.539,987.957z"/>
	<path d="M680.055,995.878c-1.007,2.843-1.986,5.75-3.6,8.321C674.345,989.101,681.58,989.098,680.055,995.878z"/>
	<path d="M216.192,1095.342c0.921-2.907,5.8-1.179,4.643,1.65c-16.389,54.884-21.979,150.061-18,173.556
		C198.902,1252.472,198.401,1151.69,216.192,1095.342z"/>
	<path d="M736.54,1174.72c-0.2-2.357,3.957-2.3,3.757,0.043c0.423,35.879,0.304,100.093-10.579,135.807
		C735.23,1266.902,736.425,1272.197,736.54,1174.72z"/>
	<path d="M781.754,1211.149c-0.556-1.985,8.637-20.786,9.514,56.493c0.35,43.243-6.676,70.379-30.393,108.121
		C767.31,1357.097,797.11,1328.72,781.754,1211.149z"/>
	<path d="M369.499,1239.756c4.202-7.873,5.381,15.479,22.328,51.064C381.048,1278.138,371.785,1246.854,369.499,1239.756z"/>
	<path d="M332.913,1288.999c5.434-3.088,2.541,4.645,23.586,44.543c32.896,62.56,42.604,67.368,48.428,74.607
		C379.029,1391.236,331.752,1298.285,332.913,1288.999z"/>
	<path d="M139.228,1309.077c-0.207-2.45,2.271-4.236,4.557-3.586c6.546,1.503-1.31,16.367,2.143,59.828
		c3.902,56.744,18.023,80.021,21.371,88.135C137.81,1406.919,135.799,1364.054,139.228,1309.077z"/>
	<path d="M643.948,1323.291c18.321-5.339-46.748,166.763-80.814,182.121c20.185-12.086,60.001-103.304,70.935-140.471
		C638.083,1351.234,640.748,1337.191,643.948,1323.291z"/>
	<path d="M656.147,1417.141c1.071-2.914,6.014-1,4.75,1.936c-13.515,38.195-72.39,109.244-80.664,118.385
		C593.773,1521.134,644.209,1449.311,656.147,1417.141z"/>
	<path d="M880.289,1510.505c35.777-12.936,61.931-1.316,78.921,30.1c-1.478-1.647-11.111-17.957-34.028-25.757
		c-18.386-6.2-35.352,0.194-42.928,2.071C878.732,1517.533,877.061,1511.919,880.289,1510.505z"/>
	<path d="M327.349,1530.54c-1.921-2.064,0.136-5.764,2.9-5.307c0,0,40.675,18.013,40.678,18.014
		c47.272,21.993,32.546,32.938,122.892,50c36.257,6.811,69.208-2.613,120.928-11.936c24.921-4.75,50.157-7.993,74.714-14.514
		c21.936-5.657,43.536-12.95,66.014-16.243c8.755-1.307,93.81-5.213,95.064-1.507c-0.186,0.25-0.564,0.764-0.75,1.014
		c-43.13,14.093-61.813-2.167-129.585,16.871c-68.15,18.892-62.29,14.093-112.771,24.178c-47.997,8.875-79.846,17.082-115.15,10.1
		c-76.812-15.256-80.006-27.048-109.514-43.943c-15.879-9.264-33.314-15.328-49.736-23.471
		C331.135,1532.719,328.992,1531.983,327.349,1530.54z"/>
	<path d="M851.118,1548.712C851.404,1548.94,851.404,1548.94,851.118,1548.712z"/>
	<path d="M226.028,1561.662c37.031-13.663,60.779-2.029,71.507,19.886c-11.281-5.786-25.876-31.515-68.9-16.293
		c-1.236,0.322-2.8,1.164-3.864,0.014C223.549,1564.04,224.342,1561.876,226.028,1561.662z"/>
</g>
</svg>
