<?xml version="1.0" encoding="UTF-8" standalone="no"?>
<svg xmlns:rdf="http://www.w3.org/1999/02/22-rdf-syntax-ns#" xmlns="http://www.w3.org/2000/svg" height="1529pt" width="1204pt" version="1.1" xmlns:cc="http://creativecommons.org/ns#" xmlns:dc="http://purl.org/dc/elements/1.1/" viewBox="0 0 1204 1529">
<path d="m553 7.793c-6.16 0.0366-12.32 0.1586-18.49 0.3945-44.52 4.9745-89.73 0.0258-133.86 8.7385-87.97 20.162-188.4 8.837-262.95 68.224-16.73 20.78-20.32 48.96-21.26 75.05-8.74 30.45 12.3 57.1 26.68 81.69 22.58 14.1 41.01 37.79 68.93 40.76 16.19 27.05 26.77 58.84 33.4 88.94-23.41-1.23-56.9-3.29-72.77 19.85-30.54 23.21-21.02 65.54-25.96 98.9 2.02 41.41 17.04 80.41 31.69 118.73 24.48 68.6 59.94 133.52 72.91 205.79 13.82 37.4-0.01 81.23 14.89 116.75-7.22 67.7-10.6 135.79-13.24 203.79-2.97 22.1-10.39 43.6-10.09 66.1 7.52 28.3-34.14 35.4-33.87 62.4-9.14 27-8.61 61.5 13.31 81.9-1.98 14.5-4.73 29.2-9.85 42.9-13.7 4.6-28.43 5.6-42.19 10.2-48.25 27.5-88.405 66.2-128.34 104.3-27.328 49.3-41.765 107-32.09 163.3 1.662 57.6 43.05 106.2 91.34 133.6 30.06 23.8 68.98 29.3 103.63 43.9 72.03 16.5 143.84 35.8 217.9 40.8 90.72 15.9 183.13 13.4 274.83 17.7 73.25 3.1 145.62-9.6 218.42-15.3 80.99-4 161.23-16.6 242.13-22.9 90.6-17.6 181.2-45.8 261.5-93.5 41.2-26.2 65.5-71.3 77.5-117.6-0.4-47.6 9.4-98-9.7-143.2-13.1-23.3-19.8-51.1-40.3-69.6-18.4-25.6-50.7-33.3-75.8-50.4-15-12.6-38.7 5.4-50.4-12.6-3.9-22.3-5.9-45-10.6-67.2 13-12 22-27 27.3-43.9-0.7-46.5-13.8-101-61.2-120.3-13.8-36.6-11.5-76.6-17.7-114.7-5.2-53.01-17.5-105.77-12.9-159.31 1.8-38.56-1.2-77.31 1.3-115.8 8.3-19.7 13.4-40.72 23-59.84 38.8-56.24 52.6-124.28 73.1-188.31 7.5-33.69 1.2-67.89-3.4-101.54-7.1-27.6-28.8-56.85-60.1-55.91-20.2-0.13-5.8-25.01-7.9-36.28-3.3-22.17 19.4-35.72 17-57.66 27.8-11.41 58.4-25.03 69.9-55.49 14.8-26.59 24.9-57.54 15.4-87.77-1.4-37.916-41-58.39-74.7-61.427-11.6 1.787-15.5-16.263-26.8-9.613-56.5-14.088-114.4-19.862-172.4-21.262-139.28-3.913-278.31-13.4-417.69-11.088-43.2 1.477-86.36-2.4634-129.51-2.207zm170.66 12.861c42.6-0.122 85.23 4.883 127.85 6.571 79.14 4.837 158.59 1.487 237.59 7.349 39.3 8.975 80.3-0.674 119.5 9.326 41.1 2.638 78 21.988 117.7 31.038 32.1 10.112 33.3 47.972 35.8 75.622-8.2 18.74-11.1 40.57-26.7 55.03-13.1 31-52 33.25-79.3 45.57-128.5 25.49-258.41 49.35-389.8 48.79-193.11 8.71-386.55-3.18-578.84-21.19-40.72-3.11-84.26-7.92-117.76-33.46-40.98-26.86-47.5-83.44-32.64-127.04 0.04-19.548 21.2-25.297 31.66-38.272 48.79-23.975 103.78-30.113 157.16-37.863 124.1-18.787 249.74-18.488 374.97-18.338 5.15 1.05 9.62-1.587 14.29-3.037 2.84-0.056 5.68-0.088 8.52-0.096zm480.74 77.676c-1.9-0.063-4 0.124-6.4 0.596-6.1 9.284 13.4 15.474 5.1 25.184-16.3 13.22-39 13.03-58.8 16.45-67 8.29-132.2 27.48-199.54 33.06-71.07-2.94-140.82 16.38-211.88 12.84-78.96 9.75-158.13-1.25-237.16-3.42-46.42-0.37-91.67-11.42-137.46-17.6-29.06-2.12-56.57-15.64-78.23-34.72-5.15-7.82 3.57-13.4 9.08-17.08 4.8-8.24-6.22-13.55-12.21-9.5-11.25 7.82-12.22 24.62-7.31 36.11 48.17 33.5 107.47 37.81 163.46 49.2 82.74 8.84 165.99 9.4 249.17 9.37 63.62 5.64 126.59-7.25 189.96-10.35 115.13-6.5 230.52-21.25 341.92-51.65 7.2-13.97 8.8-37.88-9.7-38.49zm62.3 165.68c1.3-0.02 2.3 0.45 1.7 2.27-4.3 24.96-10.9 49.57-16.4 74.32-1.9 11.65-17.9 8.35-25.6 14.41-30.6 20.93-62.1 47.61-68.9 86.15-11.5 34.86-18.6 70.89-22.8 107.31-29.4 147.17-22.2 298.15-8.6 446.54 7.7 7.59 18 17.09 29.4 17.19 6.1-8.3 13.1-17.06 16.2-27.08-0.3-22.6 9-43.6 14.7-65.05 9.3-38.32 21.9-75.89 37.8-112.02 5.9 54.83 5.3 113.03 11.3 168.98 7.5 59.47 15.2 118.97 22.7 178.47 2.6 14.5 22.7 36 1.9 45.9-15.8 18.5-41.2 13.7-62.4 19.2-20.7 4.2-39.8-6.6-54.4-20.2-37.6-33.1-94.9-48.8-141.1-25.7-35.28 9.9-42.56 56-77.15 67.7-30.05 8.5-64.11 2.5-87.86-18.3-16.08-16.6-33.9-31.4-51.1-46.6-56.01-14.5-121.41-27-171.91 9.2-17.34 14.6-33.07 31.2-49.71 46.6-29.75 11.5-63.29 15.4-93.16 1.6-25.26-13.2-50.77-26-76.36-38.6-44.09-15.5-94.75-12.4-135.34 11.3 6.3-114.8 14.11-229.95 24.64-344.59-0.77-62.15 14.4-123.32 11.99-185.48-0.36-39 0.71-78.07-0.43-117.04-13.47-66.24-18.99-134.25-40.05-198.77-5.3-24.76-16.36-48.06-21.67-72.69 68.26 4.26 136.15 12.87 204.27 18.69 109.5 2.42 218.96 7.71 328.4 11.89 75.63 2.88 150.93-8.12 226.55-7.29 57.89-7.92 115.19-19.75 172.89-28.6 32.8-5.57 66.5-8.34 98.2-19.34 0.6-0.18 1.5-0.36 2.3-0.37zm-746.35 98.95c-32.78 4.4-64.35 17.63-87.96 40.73-22.09 27.25-26.73 62.66-35.98 95.53 0.66 65.33 11.59 129.77 22.94 193.96 7.41 61.5 30.04 119.54 45.87 179.08 15.27 52.94 21.29 107.86 31.74 161.84 0.25 9.2 13.94 9.3 18.86 4.2 12.1-33.3 19.87-68.26 34.13-100.85 17.02-41.8 37.89-82.36 46.76-126.95 16.65-31.76 17.31-68.95 34.61-100.45 8.88-34.32 10.97-70 17.71-104.77 7.47-26.44-1.91-53.73-1.28-80.57 1.13-42.15-7.14-87.71-36.53-119.67-19.25-30.33-58.92-35.34-90.87-42.08zm741.75 0.04c25.1-0.2 50.6 10.3 59.7 35.43 3.2 25.16 6.6 50.31 10.5 75.37-14.8 99.06-57.3 191.32-102.2 280.02-17.4 40.97-32.2 83.02-50.1 123.78-11.9 35.72-18.2 73.07-29.8 108.91-3.5 4.19-8.3-3.53-9.5-6.55-6-75.93-10-152.07-13.1-228.12 11.3-46.74 3.1-95.66 11.1-143.19-0.6-58.77 23.6-113.61 34.2-170.7 18.6-32.76 43.8-68.81 84.2-74.76 1.6-0.11 3.3-0.17 5-0.19zm-335.24 3.95c-16.28 3.95-32.14 9.99-48.48 13.87-27.74 17.83-53.68 42.47-60.38 76.15-3.65 29.44-8.66 58.72-11.5 88.24 3.14 52.7 3.92 105.55 6.22 158.29 11.33 105.29 24.9 210.33 36.82 315.6 2.42 12 13.46 35 28.27 23.7 41.77-65.57 64.78-140.96 99.81-210.16 23.38-51.72 39.28-106.14 57.98-159.59 6.4-22.37 3.8-46.67 14.4-68 8.8-17.94 7.3-38.39 8.6-57.76-1.6-28.88 7.5-60-6.5-86.97-5.2-26.2-18.9-49.49-33.3-71.58-26.63-18.01-61.34-16.75-91.94-21.79zm-409.33 12.45c41.49-0.43 86.81 18.82 101.21 60.57 17.17 51.09 17.52 106.05 17.02 159.44-9.74 43.28-11.12 88.27-24.36 130.71-18.99 49.09-34.26 99.52-52.33 148.94-17.06 44.88-37.61 88.55-50.53 134.84-13.4-51.34-13.88-108.66-36.26-158.69-30.09-105.43-53.08-213.52-63.62-322.74 3.98-46.73 8.59-103.61 52.74-131.03 13.7-14.54 33.39-17.9 52.13-21.94 1.32-0.05 2.66-0.09 4-0.1zm419.52 2.49c20.28-0.42 40.6 5.95 60.2 10.73 48.65 39.64 46.75 109.64 46.15 166.73-7.9 36-14.7 72.24-21.9 108.37-34.68 119.28-92.81 229.65-141.5 343.48-2.4 4.4-3.99 10.1-8.57 12.7-14.22-20.8-8.6-48.86-16.84-72.26-12.54-100.5-18.88-201.75-30.12-302.45-1.3-56.68 3.39-113.42 1.81-170.18 4.97-54.47 57.42-95.74 110.77-97.12zm-718.41 2.01c8.99-0.12 18.02 0.85 26.72 3.04 15.5 30.26 14.93 65.35 22.32 97.92 23.43 114.39 17.51 232.46 2.23 347.53-8.76-11.93-4.31-35.07-12.6-49.75-25.1-78.64-61.35-153.54-84.4-232.99-15.89-39.25-6.91-82.72-7.77-123.79 9.27-18.85 21.16-39.37 44.55-41.47 2.97-0.28 5.96-0.45 8.95-0.49zm1067.8 789.2c29.4 8.1 28 45.3 35.1 70.5 8.1 16.8-4 35.8-17.1 45.8-24.5 37.6-75.6 49.5-118 42.8-24.3 3.6-41.4-15-61.4-24.7-42.9-14.4-95.5-7.5-128.35 25.4-23.19 26.6-56.81 46-92.91 43.5-42.46 5-77.25-24.7-108.93-48.7-40.96-40.5-109.33-32.7-154.82-4-39.28 18.7-74.66 51.1-120.84 48.6-17.41-2.9-35.16-3-52.53-6.1-48.48-20.1-87.01-65.3-142.41-66.5-10.57-1.1-21.11-9.3-31.52-3.4-19.28 8.8-42.43 12.8-55.89 30.6-5.26 8.4-12.4-5.4-16.49-8.8-8.65-21.8-4.32-48.4 9.35-67.2 35.3-36.7 88.03-54.2 138.45-45.4 31.99 10.3 63.95 20.9 92.83 38.6 41.25 23.8 101.12 21.8 133.31-16.1 23.17-21.3 47.9-48.2 82.16-46.5 43.03-5.7 91.08-3 125.78 26.3 30.75 47.9 106.35 73.5 154.32 36.2 16.65-23.9 32.8-54.7 64.09-60.8 42.9-16.2 84.2 7.8 119 30.9 37.9 38.3 109 29.1 142.6-10.4 8.1-7.8 2-20.9 4.2-30.6zm-985.23 139.4c63.15 0 113.57 45.3 169.83 68.9 29.72 7.2 61.21 1.8 91.44-0.1 36.37-18.4 74.63-33.7 108.63-56.5 28.52-12.7 60.64-11.6 89.9-2.2 31 19.7 60.99 40.9 91.64 61.1 49.29 16 107.31 6.9 145.58-29.3 15.11-11.7 28.01-27.9 47.51-32.3 20.8-10.8 44.8-2.9 67-2.9 21.3 7 40 20.2 60.7 28.4 24.1 1.3 48.3-1.8 72.4-1.4 19.1-3.2 34.5-17 52.8-22.4 4.3 30.5 8.7 60.9 14.7 91-132.8 58.3-277.3 87.4-421.64 94.3-167.91 17.4-337.89 11.2-504.12-17.9-58.28-14-113.82-37.5-167.25-64.3 4.16-26.5 9.23-53.5 17.16-79.2 14.04-14.5 30.5-30.3 50.91-34.6 4.33-0.4 8.6-0.6 12.81-0.6zm1042.8 90.2c24.1-0.5 43.9 15 63.4 27.4 33.6 16.3 51.7 51.8 67.5 83.8 18.5 72.9 12.4 154.9-32.4 217.3-43 39.6-96.8 65.5-152.7 81-29.4 8.9-56.9 25.2-88 27-26.6 2.6-51.9 12.9-78.6 15.3-91.9 7.6-183.49 18.5-275.39 25.9-98.81 12.5-198.46 4-297.62 1.9-69.08 1.4-136.3-16.7-204.84-22.6-65.91-11.6-131.54-26-193.73-51.3-37.97-7.6-62.92-39.2-93.37-60.4-24.112-31.8-38.037-72.2-33.662-112.2-4.95-42.8 12.249-81.5 26.674-120.6 21.412-24.1 48.638-42.3 71.528-64.9 21.01-24.3 52.61-37.7 83.4-43.9 5.31 7.2-13.74 24 1.27 28.7 28.67 13.4 57.03 27.9 86.9 38.6-4.62 4.8 5.1 5.5 7.92 7.8 95.51 35.8 198.74 41 299.32 50.7 66.94 0.9 133.92-0.4 200.87 0.6 11.77-0.3 22.48-6.5 34.43-6 149.61-8.1 301.1-27.3 440.8-84.2 18.6-4.1 37.1-8.6 55.1-14.6 8.8-5.9 2.8-19 6.3-25 1.7-0.2 3.3-0.3 4.9-0.3z" transform="scale(.8)"/>
</svg>
