<?xml version="1.0" encoding="UTF-8" standalone="no"?>
<svg xmlns:rdf="http://www.w3.org/1999/02/22-rdf-syntax-ns#" xmlns="http://www.w3.org/2000/svg" height="1871pt" width="1028pt" version="1.1" xmlns:cc="http://creativecommons.org/ns#" xmlns:dc="http://purl.org/dc/elements/1.1/" viewBox="0 0 1028 1871">
<path opacity=".93" d="m200.48 9.49c2.22 0.41 5.29-1.2 7.37 0.45 24.29 17.46 36.95 46.52 61.35 63.86 20.82 18.19 49.98 24.73 76.82 19.26 120.89-30.68 238.83-82.53 365.67-81.34 71.99-5.77 148.74 36.18 174.33 105.31 5.1 23.85 3 48.54 0.81 72.61-7.47 25.41-24.07 48.92-47.7 61.52-21.69 5.49-43.75 12.7-66.42 9.29-14.66-3.34-28.61-11.03-44-10.27-11.58 2.36-19.22 12.24-22.47 23.05-37.72 73.23-52.75 155.52-63.54 236.49-33.18 194.62-43.76 392.37-39.16 589.58 21.98 35 56.62 60.1 89.69 83.7 101.71 14.9 210.4 42.5 282.72 121 16.53 26.4 41.15 49 46.05 81.1 5 39.7-10.6 77.6-22.17 114.8-5.56 23.5-23.63 40.8-36.73 60.2-31.08 46.5-76.07 80.6-113.08 121.9-54.55 54.8-109.27 109.6-167.52 160.5-16.12 6.5-32.2 15.5-50.38 12.6-80.77 3.5-162.37 10.8-242.74-1.3-31.79-16.5-64.76-31-95.35-49.8-72.67-43.8-136.78-100.8-192.69-164.4-40.94-49-77.69-103.9-93.81-166.5-0.83-45.7-10.36-96.9 15.54-138 18.87-21.8 34.48-46.5 56.19-65.9 33.81-31.5 76.37-52.5 119.81-67.1 48.37-20.9 104.47-19.8 149.87-48.2 24.3-13.7 44.49-33.8 61.5-55.8-25.67-248.74-34.68-502.71-110.39-743.15-4.02-15.32-11.88-29.23-18.46-43.54-1.64-5.14-8.18-4.54-12.35-3.24-47.45 11.91-102.43 9.48-142.8-20.6-42.91-46.65-41.79-117.1-26.92-175.06 18.55-45.14 48.12-95.88 100.96-103.02m-4.63 4.99c-31.74 7.68-57.65 32.79-71.72 61.64-22.33 40.16-32.49 89.61-17.2 133.94 16.94 36 54.54 56.1 91.64 65.36 62.84 8.72 121.54-28.38 165.07-68.22-25.74-5.82-55.89-0.92-77.33-19.39-8.11-5.1-8.86-19.93 0.35-24.28 44.58-29.4 101.84-24.01 152.63-26.15 50.3-41 108.53-81.65 176.17-81.83 32.25-3.32 62.57 17.2 76.48 45.5 22.73 35.32 41.24 74.59 73.15 102.85 9.66 9.66 22.95 13.33 35.52 17.55 31.15 8.94 66.19-11.03 76.88-41 10.32-37.79-5.67-76.76-25.45-108.48-35.97-39.15-90.74-57.12-143.01-56.01-55.33-2.34-110.08 10.4-162.65 26.47-76.24 16.52-148.89 49.66-227.18 56.33-51.42-1.28-88.98-44.18-113.97-84.84-2.35 0.14-7.03 0.42-9.38 0.56m410.38 48.2c-39.15 4.84-78.5 16.57-111.06 39.49-72.3 46.95-123.06 122.1-201.03 160.93-31.1 14.05-66.6 27.55-100.62 17.19-39.08-7.74-79.23-30.93-93.04-70.25-1.68 19.66 5.69 40.05 17.4 56.09 19.6 33.39 61.61 42.63 97.52 43.43 74.8-1.06 139.96-44.62 195.73-90.43 34.55-27.64 63.81-62.11 102.01-84.98 33.79-22.8 80.76-37.83 118.45-15.73 48.83 31.55 69.04 91.37 116.68 124.31 18.06 9.97 39.11 15.86 59.81 12.73 23.94-8.05 51.48-18.52 61.02-44.35-17.18 10.19-35.76 22.36-56.73 19.72-17.14-0.51-33.68-6.97-47.89-16.3-43.78-37.11-59.99-95.07-98.65-136.35-15.8-14.93-39-16.62-59.6-15.5m-31.31 50.82c-35.22 10.83-65.8 32.36-94.29 55.14-45.94 37.82-89.79 78.54-139.79 111.14 73.68-2.59 142.94-30.05 212.58-51.35 47.36-15.35 98.96-16.71 147.66-14.06-16.89-23.14-31.24-48.38-51.9-68.54-17.96-21.15-45.79-36.92-74.26-32.33m-184.71 31.15c-33.79 1.53-68.2 6.86-98.15 23.37-5.13 2.56-7.01 11.32-1.19 14.14 17.67 13.85 40.81 15.81 62.45 15.48 8.5-0.55 19.33 6.41 25.59-1.9 16.33-17.42 34.55-32.89 51.01-50.18-12.98-2.44-26.51-0.22-39.71-0.91m242.4 74.93c-85.09 7.44-161.95 48.19-245.09 63.91-30.53 5.55-74.35-8.47-94.14 21.29 58.02 9.49 119.65 11 175.43-9.94 77.09-48.18 173.43-51.47 259.99-53.5-20.01-31.98-64.83-18.93-96.19-21.76m26.82 33.89c-50.9-0.65-101.72 10.26-147.54 32.42-21.84 9.74-44.58 17.42-67.35 24.63-49.15 15.23-102.57 4.11-151.39 4.36 23.63 59.51 37.22 122.87 51.71 185.28 9.68 55.83 22.57 111.18 27.44 167.72 8.31 50.75 10.61 102.31 18.24 153.16 38.5-78.34 118.74-120.65 179.99-178.5 29.17-31.5 60.31-67.48 62.65-112.37 15.06-94.72 23.8-196.13 79.67-277.44-17.81 0.62-35.63-0.25-53.42 0.74m-34.86 330.91c-49.27 79.76-137.95 122.11-196.81 193.37-26.23 26-41.8 64.72-32.56 101.61 6.3-42.99 35.43-79.17 67.86-106.3 35.56-35.25 79.42-60.79 114.48-96.54 24.65-20.56 51.44-47.65 49.35-82.39-2.06-1.19 2.58-12.07-2.32-9.75m-6.04 61.12c-48.95 57.66-116.36 95.88-168.6 150.43-30.64 29.73-53.97 73-44.76 116.73 5.68 18.26 21.14 30.92 34.39 43.74 6.1 6.44 20.21 9.57 26.07 1.53-5.13-16.45-11.89-33.24-8.96-50.81 29.17-75.9 97.85-125.69 145.11-189.34 19.51-18.26 13.29-49.67 16.75-72.28m-7.68 72.47c-48.11 62.31-116.12 110.95-146.09 185.81-6.79 15.71 1.85 31.2 6.7 45.96 3.7 11.56-8.58 20.29-18.93 19.66-24.95-7.52-39.46-31.24-52.78-51.15-0.86 10.52-1 27.23 9.11 35.99 30.18 40.98 83.05 65.26 97.95 116.76-18.84 47.2-71.1 86.3-123.03 72.9-14.01 2.1-25.5 13.9-35.45 22.9 21.84 11.6 47.07 7.4 70.48 4.1 54.43-13.8 95.68-55.2 130.95-96.5 8.09-24.8-11.2-41.5-16.64-63.4-12.13-23.82-38.71-42.09-38.55-70.94 0.63-12.93-0.39-26.26 3.68-38.73 19.46-61.2 76.24-99.28 109.09-151.89-0.85-10.36 5.93-20.65 3.51-31.47m-6.24 48.67c-16.25 18.45-30.65 38.53-47.27 56.69-27.3 29.47-57.09 63.4-56.35 105.97-5.43 37.5 34.91 58.73 44.94 91.9 12.19-13.2 23.92-27 35.34-40.91 9.9-16.27 12.84-35.77 15.61-54.32 8.68-53 5.91-106.82 9.06-160.28-0.33 0.24-1 0.71-1.33 0.95m-200.71 195.43c6.51 46.93 6.35 94.53 11.91 141.63-9.34 9.6-13.84 24-25.74 31.5 3.82 4.2 10.87 5 16.5 5.2 39.03-0.6 70.3-30.2 89.31-61.8 0.48-20.4-10.46-38.9-24.72-52.8-21.63-22.1-47.48-39.82-67.26-63.73m192.62 10.78c-10.79 11.39-19.45 24.96-32.11 34.45-16.25 13.6-5.76 37.7-6.41 55.6 10.87-11.3 21.96-22.6 33.65-33.2 10.68-17 4.52-38.12 4.87-56.85m-3.15 64.15c-10.39 12.4-22.93 23-32.5 36.1-4.91 6.3 2.28 13 6.83 16.8 15.29-0.1 18.3-17.8 29.02-25.3-2.14-8.8-0.06-20.8-3.35-27.6m-0.06 39.9c-6.59 7.9-11.2 19-22.43 21.1-8.71-0.3-11.39-10-16.9-15.1-38.92 40.9-82.34 85.5-140.04 96.1-16.66 7-29.15 21.1-46 27.9-21.88 11.5-49 3.2-66.64-12.1-8.74-16.4-28.37-4.3-42.42-5.4 1.93 9.5 29.46 16.5 20.83 30.3-38.75-3.4-78.98-7.7-116.85 4.2-10.87 2.9-20.99 9.1-27.86 18.1 31.18-16.1 67.87-15.4 101.68-9.7 18.54 4 38.67 10.6 50.19 26.7 1.5 33.7-24.44 60.8-52.26 75.6-20.81 9.6-42.66 19.8-66.03 19.8-34.97-17.1-76.49-28-100.53-60.2-21.01 19.2-39.88 42.9-49.83 70 14.71-18.4 41.47-34.3 64.82-21.2 39.8 24.8 88.42 41.7 135.25 29.3 45.42-13.4 89.07-42.9 109.13-86.9 14.83-8.1 32.15-4.6 48.1-3 55.09 10.8 107.62 36.5 164.81 34 27.18-1.3 45.26-25.1 71.43-29.6 38.23-13.6 58.17-52.2 82.32-82 6.42-8.2-3.89-12.8-9.98-14.8-4.37-0.2-4.05-9.8-8.72-5.6-34.94 33-73.19 66.5-121.25 77.8-56.27 12-111.27-12.4-166.74-15.3-8.65-5.2 2.2-13.6 7.12-16.4 64.45-47 130.84-94.1 207.1-119.6-9.46-8.5-3.04-24.9-8.3-34m1.5 43.6c-72.41 26.2-136.07 71.3-197.9 116.3-1.35 0.4-2.87 3-0.76 3.2 45.65 4 90.26 18.2 136.38 15.8 55.98-3.8 99.79-43 139.27-78.6-21.71-14.9-38.39-35.6-57.76-53.2-4.97-5.2-12.87-4.1-19.23-3.5m-256.53 50.1c-12.81 3.2-23.93 10.8-36.28 15.4 6.25 10.4 19.04 11.7 28.21 18.3 25.13 6 45.62-11.2 65.89-22.7-19.46-1.6-40.42-1.3-57.82-11m369.89 20.5c-1.78 1.7 1.53 7.4 4.71 8.1 50.46 19.2 103.86 28.8 154.48 47.5 42.71 13.2 81.35 38.6 111.68 71.3-16.36-21.6-37.01-40.6-60.02-55-63.02-41.6-138.74-54.7-210.85-71.9m-469.96 3.5c-13.51 2.2-26.5 7.7-38.31 14.5 24.6-3.8 48.81 3.7 73.34 3.8-8.11-10-21.67-19.1-35.03-18.3m465.24 9.7c-24.27 24.6-36.07 64-70.39 78.7-16.62 11-39.02 11.3-53.18 26.1 54.55 32.1 122.74 37.7 182.08 15.8 42.79-13.5 80.99-38.2 115.19-66.8-54.46-27.8-117.39-32.3-173.7-53.8m-504.89 30.3c-43.75 3.6-90.94 17.4-121.27 51 2.78 17.2 19.79 29.4 34.84 36.3 24.82 14.1 54.22 32.6 83.58 20.7 37.61-10.3 85.59-30.6 86.09-76.3-17.69-26.4-53.63-32.6-83.24-31.7m686.8 27.7c-44.53 35.5-95.21 65.9-151.45 77.7-52.05 9.6-108.79 3.8-154.34-24.6-7.97-6.5-21.86-1-23.13 8.1 116.8 56.5 261 29.6 364.36-42.5-9.85-8.1-22.69-15.5-35.44-18.7m-545.61 25.1c-17.26 10.6-25.94 31.7-41.28 45.1-29.97 23.2-62.03 47.5-100.96 51.8-14.14 18.2-12.12 44.8-7.95 66.2 11.32 24.9 40.72 33.7 65.05 40.8 31.03 10.3 49.46 39.9 63.4 67.7 8.25 14.2 13.8 32.8 31.18 38.1 20.15 5.7 47.59-10.8 62.94 9.1 26.91 3.7 57.55-14.6 62.33-42.7 4.29-15.2 12.46-28.9 20.76-42.3 22.45-23.6 55.46-30.1 84.73-41.3 31.92-7.9 63.44-17.8 94.89-27 55.4-35 108.06-74.7 157.11-117.9-63.87 24.2-134.47 33.3-201.54 17.5-31.34-4.3-59.98-18.9-89.87-28.1-68.75-2-131.46-39.9-200.79-37m587.95 6.1c-14.48 0.3-27.1 7.6-39.98 13.2-74.66 42.8-135.16 105.2-207.28 151.7-51.61 20.1-110.36 20.7-158.38 50.6-23.85 15.5-41.68 40.8-45.58 69.2-11.64 23.5-38.49 32.5-61.89 38.5-0.55 13.3 12.25 24.6 23.63 30 20.41-6.5 42.17-11.4 59.21-25.3 20.57-18.1 29.17-45.2 45.07-66.9 14.79-13.9 35.27-18.7 53.48-26.5 64.95-17.9 129.34-43.3 182.7-85.3 28.72-15.8 52.61-38.7 78.74-58.3 33.73-25 61.28-61.2 102.22-74.6-6.35-10.4-18.8-20.2-31.94-16.3m24.93 24.9c-2.19 0.2-4.36 0.8-6.24 2-48.65 39.7-98.8 77.7-147.36 117.6-7.28 7.1-18.62 10.6-22.03 21-16.51 39-38.87 75.3-55.99 114 26.45-16.7 57.33-23.6 86.16-34.9 60.64-14.5 121.9-27.6 184.05-33.4 5.76-18.1 13.18-36.1 17.58-54.8 11-30.2 5.5-64.4-7.7-93-14.52-13.4-24.74-40.9-48.47-38.5m-897.7 30c-15.61 6.6-27.5 19.4-38.31 32-6.18 5.6-2.92 14.3-3.68 21.4 1.23 26.4-3.1 53.8 4.91 79.4 26.21 80.5 80.01 147.1 138.1 206.8 16.22 19.8 35.82 37.1 58.14 48.4 17.41-8.1 41.58-6.2 53.18-21.2 28.28-15.9 45.21-45 68.6-66.4-11.07-4.3-23.14-7.3-32.69-15-26.85-21.8-36.59-56.1-54.82-84.1-24.08-27.3-66.85-22.8-90.32-50.7-4.24-6.4-9.61-11.8-14.24-17.8-17.54-29.8-8.6-66.6 4-96.5 1.08-3.1-2.38-4.1-4.69-4.2-31.87-4.8-53.72-39-88.18-32.1m107.76 34c-18.61 18.8-21.91 50.9-20.31 76.7 11.28 40.1 53.28 58.4 90.23 68.2 42.66 22.3 38.42 83.5 82.27 104.8 10.86 7.5 32.59 3.2 32.63 21.5-20.49 9.2-34.43 28.1-46.5 46.4-23.02 19.5-51.87 29.6-78.79 42.3 4.58 7.9 14.72 17 24.24 18.5 15.23-17.7 37.6-26.7 59.1-34.2 29.22-19.6 46.02-60.7 83.94-65.4 13.45 17.3 5.41 42.6 19.57 59.8 21.33 38.6 73.58 62.2 113.74 37.8 80.41-55.6 152.3-125.5 201.67-210.4 11.56-28.7 31.74-53.9 39.47-84.3-22.04 9.3-41.57 23.8-63.71 33.1-8.51 15.1-4.18 34.3-12.33 49.7-35.98 78.2-96.67 150-178.44 181.6-21.95 9.1-45.61-3.4-58.5-21.5-13.03-18.2-39.16-36.2-29.41-61.7-13.63-10.4-9.69-31-20.86-42.1-21.76-4.5-47.77 8.6-67.36-6.6-15.72-14.4-21.89-35.5-28.96-55-20.23-42.3-73.44-42.2-106.17-69.8-22.16-22.6-20.41-56.6-15.34-85.6-6.12-2.3-13.33-4.6-20.18-3.8m523.88 122.1c-26.43 12.5-55.35 18.3-82.68 28.4-24.4 11.8-58.07 15.1-69.26 43.9-10.15 42.6-52.53 66.9-92.95 73.9-4.73 2.3-18.16 0.1-14.9 8.5 5.82 17.4 19.06 30.7 30.66 44.4 14.23 14.9 37.38 26.3 57.26 15 52.37-21.1 92.91-62 127.45-105.5 11.59-23.9 30.38-43.9 38.33-69.6 5.11-11.9 9.25-28.9 6.09-39m275.05 10c-71.69 5.7-141.02 26.4-208.85 49.3-13.42 7.2-32.97 6.2-40.47 21.5-9.01 14.7-21.03 27.6-29.19 42.8 81.09-42.7 173.69-62 265.07-58.5 10.39-19.5 27.61-35.1 35.64-55.7-7.41-0.3-14.83 0.1-22.2 0.6m-72.03 61.9c-78.68 8.3-155.53 31.6-225.03 69.1-53.53 46.6-103.71 98.6-167.35 131.7-48 20.7-98.24 40-149.84 46.8 32.02 16.9 70.34 35.8 109.11 29.4 45.02 1 90.29 0 134.92-6.9 16.88-4.7 29.6-17.7 45.49-24.6 32.93-26.3 69.53-47.6 103.43-72.6 73.99-47.1 142.57-103.5 198.8-170.9-16.37-1.7-33.03-2.5-49.53-2m-507.11 96.2c-30.7 8.8-45.57 40.9-69.75 59.2-20.5 11.4-47.89 14.1-60.84 36.2 9.08 5.3 19.6 7.8 28.31 13.8 51.68 19.3 113.62 9.6 157.42-22.6-30.98-17.1-47.31-52.7-50.96-86.7l-4.18 0.1m436.13 34c-26.45 13.5-49.31 32.8-74.24 48.8-45.1 33.7-93.07 64-139.4 95.5 20.02 0.5 44.74-0.1 65.53-7.2 51.75-42.1 102.78-91.7 148.11-137.1m-375.98 58.8c-43.21 26.2-96.34 37.6-146.22 27-4.87-4.8-5.22 1.3-2.87 2.1 13.17 8.9 26.88 18.4 42.86 21.1 49.15-2 99.98-10 141.67-37.9-11.9-3.7-22.96-11-35.44-12.3z"/>
</svg>
