<?xml version="1.0" encoding="UTF-8" standalone="no"?>
<svg xmlns:rdf="http://www.w3.org/1999/02/22-rdf-syntax-ns#" xmlns="http://www.w3.org/2000/svg" height="1398pt" width="1073pt" version="1.1" xmlns:cc="http://creativecommons.org/ns#" xmlns:dc="http://purl.org/dc/elements/1.1/" viewBox="0 0 1073 1398">
<path d="m662.03 9.625c-22.83 4.675-46.49-1.0367-69.46 2.988-83.87 13.138-170.71 13.774-250.77 44.149-15.79 12.675-30.04 27.801-27.59 49.598 5.44 27.07 6.48 57.57 28.3 77.54 14.18 3.75 30.31 2.84 42.74 11.79-0.63 19.5-2.69 39.04-5.75 58.3-20.66 48.34-86.07 47.95-111.82 92.44-41.18 43.77-56.51 103.91-90.58 152.36-1.41 7.06-0.73 14.7-4.5 21.18-28.5 59.73-47.23 123.38-69.63 185.5-33.87 89.28-52.233 183.33-80.683 274.28-6.225 19.5-2.762 40.45-7.199 60.15-9.0626 21.1-4.275 44.7-7.1251 66.8-8.6 116.2 23.561 232.7 80.799 333.3 18.608 45.8 54.298 80.8 88.018 115.7 43.46 31.2 80.71 72 130.76 93 19.58 9.9 36.64 25.9 58.99 29.7 64.13 22.3 128.02 46.6 195.4 57.3 88.05 1.4 176.86 8.2 263.66-11.4 49.81-7.1 96.36-26.6 144.5-40.5 32.31-8 56.41-33.1 84.91-48.8 42.4-23.4 75.7-59.2 112.7-89.8 15-10.4 23.2-27 33.5-41.5 16.6-27.4 41.4-49.9 51.6-80.9 14.6-41.7 32.1-82.5 45.4-124.7 10.2-47.5 22.4-94.7 32.9-142.1-0.5-40.7 1-81.3 2.4-121.9-13.9-89.64-24.2-180.36-51.7-267.17-19.8-48.32-36-98.02-56.4-146.05-25.1-43.42-46.9-88.58-71.7-132.1-31-44.79-61.4-90.02-93.4-134.06-26.5-25.91-50.2-54.53-77.4-79.79-15.94-12.48-7.38-34.46-10.01-51.86 29.31-3.46 52.11-35 47.61-64.06 0.5-18.5 3.1-36.95 1.9-55.48-7-19.83-27.59-31.904-47.44-35.979-41.32-7.838-79.51-26.6-120.97-34-63.76-9.175-127.24-22.663-191.96-23.926zm-48.52 13.955c20.48 0.093 40.96 1.319 61.44 1.482 64.22-3.574 126.79 14.238 190.02 22.538 24.2 0.9 42.84 19.412 67.25 20.187 23.72 0.763 43.99 12.764 64.73 22.701 20.25 12.292 10.25 40.482 11.75 59.552 1.3 19.88-4 46.45-24.06 55.14-19.75 8.31-8.74-16.26-13.59-26.02-15.74-14.36-34.35-29-56.54-29.75-67.52-18.32-139.37-24.86-209.47-31.92-53-7.93-106.74 1.6-160.13-1.24-40.84-4.13-78.92 13.48-118.09 21.84-16.92 2.95-33.18 10.17-47.86 18.42 0.98 6.55 8.23 11.6 6.11 19.2-14.92 1.7-35.93 3.98-42.53-13.36-16.49-15.38-10.99-38.84-15.23-58.63-4.95-17.158 11.75-31.132 26.39-36.232 18.46-11.925 40.65-13.138 61.31-18.713 55.7-14.9 113.48-18.612 170.58-24.412 9.31-0.633 18.62-0.825 27.92-0.783zm-80.08 103.3c72.47 2.07 145.65-3.41 217.85 5.59 57.87 10.89 118.38 10.44 173.62 32.69 13.05 2.55 26.24 9.63 32.15 21.93 2.86 30.74 0.13 62.58 10.75 92.2 30.1 32.47 68.3 59.37 91.7 97.07-76.78-3.42-155.59-25.71-234.06-27.96-71.89-8.49-144.19-2.13-216.35-3.05-68.16 3.51-135.64 14.86-203.77 18.7-50.28 4.86-99.76 15.57-150 20.77 23.57-49.05 74.73-75.43 121.87-98.82 25.99-37.21 20.61-84.51 24.53-127.51 24.67-8.1 49.38-17.05 74.63-23.46 19.15-1.77 38.49-2.93 57.08-8.15zm67.29 230.05c77.83 0.27 155.87 0.48 233.75 1.03 49.15 9.59 100.42 8.33 148.12 24.48 30.91 5.98 62.91 6.36 93.91 12.05 11.9 20.76 30.7 38.73 39.2 60.8-50.9-4.74-100.5-20.5-151.85-22.88-30.81-7.12-61.72-14.33-93.67-11.17-142.3-6.95-284.83-4.9-427.27-3.29-33.74 0.54-67.06 6.25-100.72 7.94-42.3 2.71-82.61 17.17-124.44 22.67 1.71-17.84 13.11-35.98 27.84-45.75 38.77-8.12 77.62-17.23 117.27-19.93 79.42-7.36 158.5-18 237.86-25.95zm66.13 69.79c86.78-0.08 173.51 1.61 259.8 11.72 63.96 9.05 128.35 17.1 191.15 33.8 15.7-0.35 19.9 16.59 28.6 26.25 3.4 2.95 3.8 11.77-4.1 7.89-21 1.9-39.9-9.25-60.1-12.54-106.5-12.06-212.82-27.63-320.05-30.91-89.21-6.87-178.44-13.87-268.01-8.88-100.43 2-199.39 21.98-298.59 35.63 0.65-7.35 4.84-15.37 9.44-21.04 69.05-16.93 138.77-38.09 210.62-35.07 15.62-6.03 32.27-6.43 48.79-6.6 67.41 0.95 134.95-0.18 202.45-0.25zm-81.97 35.18c89.83 5.26 179.83 9.49 269.63 16.04 70.31 10.97 142.38 10.56 211.39 28.68 31.8 7.17 64.5 10.67 95.6 20.49 5.9 11.19 15.9 21.41 18.2 34.09-57.9-9.31-114.3-28.44-173.2-32.71-17.84-2.18-36.05-2.2-52.78-9.74-140.4-12.84-281.34-21.07-422.44-18.7-77.5-6.6-153.7 11.81-230.59 18.15-41.87 2.49-82.29 13.7-122.9 22.81 3.03-16.61 10.61-35.82 29.47-38.7 84.06-23.75 172.49-25.04 258.79-36.27 39.11-5.44 80.8 5.19 118.83-4.14zm-47.93 47.42c44.92 2.02 90.14 2.84 135.12 4.99 0.84 12.6 0.4 25.58-2.78 37.85-24.94-0.84-50.62 3.53-75.13-1.97-4.09 2.49-9 5.66-9.75 10.8-2.26 51.92-1.1 104.12-6.29 155.87-18.84-1.2-41.92 12.08-57.46-0.51 2.7-53.88-7.67-107.65-13-161.13-17.82-11.2-40.26-1.93-59.84-5.77-0.56-12.18 0.43-24.37 1.43-36.49 28.95-3.51 59.61 4.49 87.7-3.64zm151.14 2.04c52.29 1.3 104.75 1.74 156.52 10.18 9.79 18.76-6.11 49.14 13.49 64.4 30.57 4.71 62.4 4.22 92.68 10.53 11.93 18.2 9.41 42.67 13.01 63.24 22.67 12.6 50.21 10.94 75.21 15.01 22.5-12.65 8.3-42.73 13.9-63.01 19.3-7.75 54.3 17.79 66.1-9.02 5.3-13.37-3.6-28.27 0.2-42.12 10.8-1.32 20.9 6.13 31.5 7.43 14.6 7.51 37.2 3.74 44.4 21.97 9.4 16.93 23.6 32.41 26.2 52.24-21.4-10.15-40.1-26.5-61.6-37.05-8.8 1.29-16 7.98-23.9 11.9-38.1 33.85-77.9 66.5-108.9 107.34-4 3.54-6.2 10.41-11.7 11.82-35.76-29.01-66.94-63.61-107.51-86.41-49.4-29.12-92.72-69.93-147.62-88.56-10.81-8.34-24.77-13.45-38.27-8.66-53.27 84.85-99.84 174.67-132.08 269.66-8.72 48.86-19.73 97.51-25.84 146.75 3.48 55-5.56 112 13.26 165.1 12.43 11.9 29.51 18.8 46.9 19.3 42.8 7.2 86.37 2.3 129.41 4.7 0.26 9.5 1.21 19.2-0.06 28.7-15.8 23-28.35 48.2-44.39 70.9-34.79 28.2-63.94 64.3-105.18 83.6-16.47 8.5-31.5 19.8-48.5 27.2-15.56 0.5-30.89-2.9-45.92-6.6-22.16-3.9-35.69-26.3-58.2-29.1-38.16-25.5-76.06-55.5-96.42-97.6-11.48-23.1-31.4-43.9-35.44-69.3 50.24-12.5 102.76-6.7 153.2-17.1 16.05-2.5 29.86-18.2 27.3-34.8-2.56-55.3-2.68-110.8-5.13-166.2-13.16-99.04-27.95-198.15-50.78-295.44-16.39-33.31-27.52-69.88-54-97.08-6.67-11.64-21.79-9.9-32.55-5.4-17.67 9.33-37.87 15.44-50.89 31.62-51.43 43-103.8 85.02-151.83 131.91-27.94 22.44-41.51 59.75-70.336 80.48 11.55-41.98 28.086-82.68 41.186-124.27 12.38-15.08 33.43-7.34 49.93-10.13 8.1-14.34 6.95-33.05 15.28-47.3 18.23-17.6 45.89-10.49 67.72-18.58 17.31-16.31 6.57-42.45 15.09-61.9 52.06-4.22 104.03-11.58 156.03-15.1 4.53 13.95 3.03 31.43 7.28 46.48 18.45 5.17 38.65-0.33 57.63 2.31 6.89 52.89 14.98 105.85 14.24 159.36-0.47 8.28 9.53 14.69 16.88 11.05 17.35-7.36 36.3-4.11 54.4-2.21 9.37 0.74 14.32-10.97 13.67-18.95 0.54-48.5-1.4-97.16 3.18-145.5 26.26-0.3 52.46-2.62 78.7-3.12 17.05-13.1 4-39.34 12.55-54.67zm178.26 12.71c58.07 2.67 115.33 13.77 173.05 20.32 21.7 1.38 42 9.3 63 14.18 7.4 11.42 2.5 25.88 2 38.46-21.8 2.57-42.6-4.98-63.8-8.07-6 22.07-2.7 45.45-4.9 68.05-19.5 0.16-40.3-1.67-58.71-7.7-8.26-21.21-3.15-47.54-13.6-68.11-32.75-3.95-66.11-3.5-98.28-11.77 0.93-14.35-2.56-32.97 1.24-45.36zm-617.88 14.32c13.4 0.36-0.44 29.33 2.31 39.58-22.25 6-45.53 8.94-67.84 14.82-12.86 13.38-12.52 33.45-17.43 50.27-10.59 1.99-22.51 7.26-33.01 4.08 10.71-28.38 22.25-57.24 37.12-83.75 24-12.53 51.23-18.45 77.47-24.94 0.49-0.05 0.95-0.07 1.38-0.06zm112.46 23.51c27.2 0.04 35.01 33.29 50.78 50.14 12.03 27.65 24.79 55.75 29.09 85.9 27.1 136.02 48.74 274.15 44.39 413.26 3.55 9.8-2.96 18.2-10.6 23.7-50.84 9.4-102.89 10.8-154.02 15.7-8.12-1.8-13.73 6.6-18.13 12.2 22.57 45.3 40.73 94.6 78.63 129.9 20.83 16.5 38.68 36.9 60.78 51.8 30.39 10.2 56.96 31.5 88.41 37.5 17.94 12.9 39.39-6.2 55.84-14.6 49.02-28.6 99.04-59.1 134.25-104.6 23.45-24.2 32.76-57.6 50.65-85.6 0.6-11 5.56-30.6-9.21-34.1-55.89-9.3-117.1 11.6-169.76-15.1-10.34-28.3-13.87-59.8-12.89-89.9 7.61-60.04-2.19-122.51 16.93-180.79 6.14-22.56 10.29-45.81 18.54-67.72 32.78-69.7 64.64-139.9 100.67-208 4.92-5.41 8.98-12.11 15.07-16.29 59.01 17.24 106.86 56.99 159.2 87.65 156.15 104.17 262.85 264.61 347.25 428.95 13.7 38 37.8 72.3 43.2 113 6 29.3 30.7 63 5.1 88.9-18.6-39.5-32.2-81.4-50.1-121.3-17.4-31-38.2-60.1-54.7-91.6-43.3-84.75-107.4-156.05-165.6-230.6-52.81-57.82-111.71-109.64-172.99-158.27-30.43-15.25-56.95-37.05-86.74-53.38-11.66-6.97-20.49 8.96-24.76 17.8-18.31 25.04-26.83 55-39.66 82.85-14.16 35.31-33.75 69.36-38.58 107.67-9.43 62.18-28.02 123.45-23.22 186.83 1.59 22.5-5.67 56.5 17.84 69.9 62.21 5.9 124.96 9.8 186.88 19.1 8.23 2.3 18.63 1.3 25.22 7.6-5.6 35.5-28.4 64.7-42.49 97-35.04 46.4-69.83 94.6-118.88 127.4-40.9 25.4-79.83 53.8-120.48 79.6-15.94 6-32.28 20.3-49.56 9.5-23.17-0.2-44.1-13.2-64.75-22.7-39.3-31-87.18-51.3-120.32-89.7-14.22-14.5-29.18-28.3-42.91-43.3-34.89-53.2-72.36-109.2-83.8-172.5 39.76-8.1 80.63-7.4 120.84-5.4 37.09-17.5 82.42-1.7 117.91-21.2 7.26-65.4-1.54-132.19-12.44-197.16-3.41-52.28-21.93-101.78-35.63-151.84-22.38-37.41-39.26-81.21-74.18-108.74-19.71 2.08-36.25 13.64-51.62 25.28-89.6 49.93-153.01 136.01-210.47 216.87-0.298-25.21 21.165-47.17 33.88-68.47 33.01-36.67 58.2-80.63 98.27-110.48 51.68-42.18 99.48-91.68 158.87-122.66zm793.67 61.1c38.5 12.68 89.1 39.75 89.3 85.54-23.7-11.78-44.1-29.4-67.9-40.98-12.5-4.68-19.7 9.19-27.6 15.88-28.4 30.85-64.9 54.11-87.3 90.22-5.3 11.78-13.8-1.52-17.9-6.85-4.1-8.26-21.3-17.85-10-27.26 36-43.07 71.8-88.69 121.4-116.55zm-833.1 15.12c26.34 8.47 32.5 40.83 49.72 59.39 17.67 19.11 23.28 44.26 32.37 67.71 23.44 98.48 43.21 198.74 40.36 300.48-25.98 18-58.81 5.8-87.44 15.8-49.67 16.6-103.97-5.2-153.6 13.3-3.57 22.8 6.85 43.8 15.8 64 16.95 48.7 43.53 90.9 72.55 133.6 47.66 45.5 95.56 91.6 153.63 123.9 22.23 19.9 51.56 26.2 79.23 34.7 15.88 8.8 32.67-2.2 47.5-8.1 56.53-39.2 119.92-69.4 168.57-119 33.71-22.8 55.49-57.2 79.67-89 27.37-29.3 34.63-70 52.83-104.7 2.33-7.2 8.02-15.2 5.02-22.7-19.8-12.5-45.09-4.5-66.51-12.7-54.36-1.1-107.84-13.1-161.75-19.3-11.68-45.1-1.9-91.98-4.4-137.84 13.4-100.5 46.65-197.85 96.65-285.95 2.36-2.82 5.19-6.72 9.36-6.47 57.6 27.84 106.94 69.14 158.44 106.51 44.36 42.71 90.5 84.11 127.3 133.94 57.6 62.8 99.2 137.61 144.5 209.31 39.1 68.6 75.5 140.2 98.7 214.8 2 3.6-0.5 11.5-5.2 8.1-69.1-199.7-203.3-368.88-348.2-519.51-53.5-43.59-99.66-97.5-162.59-127.89-14.26-3.72-18.57 14.43-25.17 23.34-28.5 57.97-46.78 120.37-69.2 180.84-9.09 49.06-13.35 99.01-14.9 148.92-0.93 13.1-4.56 33.2 12 38.5 18.01 4.3 37.07-0.8 55.22 3.5 57.19 11.2 116.29 15.2 172.45 30.4-0.44 35.9-9.84 70.7-23.37 103.8-9.94 36-41.49 60-57.13 92.5 47.73 59.1 106.57 110 148.87 173.6 3.21 2.8 6.37 9.1 11.51 7.5 28.91-29.3 64.51-50.6 96.21-76.6 8.7-6.3 7.1 12.9 0.3 14-30.1 21.9-56.1 49.8-89.61 66.6-6.33 2.5-14.28 13.1-20.7 5.9-45.73-53.8-88.88-109.9-137.45-161.3-5.85-7.6-13.89-13.7-22.83-17-29.88 22.6-54.9 52.1-89.02 68.7-53.59 30.5-105.15 64.7-160.44 92.2-55.6 9.4-105.19-24.7-147.29-56.9-54.65-36.5-100.59-85-147.14-130.1-19.28 25.2-35.39 54.6-53.52 81.4-24.45 40.9-40.44 86.2-63.45 127.8-3.76 7.8-15.19-0.6-11.46-7.7 11.43-43 38.53-79 60.68-116.9 8.5-30.1 31.91-53.2 47.73-79.7 3.1-7.9 14.14-15 9.55-24.5-11.43-25.7-31.56-46.4-43.32-71.9-9.43-33.1-26.69-64.8-20.71-100.4-5.32-18.3 23.63-12.9 33.09-14.6 64.21 5.1 127.47-8.2 191.3-9.5 4.85-5.8 9.67-11.8 13.88-18.1 9.19-91.94-9.68-184.11-38.87-271.01-21.25-34.89-35.5-75.14-65.21-103.85-28.36-13.22-45.72 18.72-66.42 32.15-48.4 31.17-78.7 81.21-117.38 122.62-33.922 44.32-61.985 93.68-90.235 141.34 0.025-12.1 1.75-29.89 7.062-43.3 20.338-32.4 41.726-64.19 62.173-96.54 17.8-32.96 49.19-55.13 72.22-84.03 41.67-39.78 85.01-80.07 138.07-104.06zm-17.35 43.64c12 0.64 15.25 17.68 23.01 26.06 24.59 30.93 37.65 68.21 53.94 103.64 15.62 70.97 30.99 142.84 27.49 215.94-1.78 9.3-4.85 23.2-17.85 20-29.13-3.8-56.15 7.9-84.17 13-44.86 2.8-90.48-2.1-134.92 4.8-15.86 9-4.2 25.1-3.72 38.1 2.97 29.7 9.81 58.4 24 84.8 7.42 18.8 13.05 38.7 27.43 53.8 4.15 6.9 16.55 13.3 11.2 22.3-37.44 65.6-78.55 130.7-113.18 196.9-10.99-9-15.44-27.1-25.142-38.8-3.325-29.7 21.692-52.3 31.292-78.8 16.7-25.8 26.66-54.6 46.63-78.7 7.5-27.7-21.98-49.2-26.88-75.7-7.93-52.1-26.88-105.2-16.75-157.6 29.21-11.7 62.19-3.2 92.97-3.2 46.02-5.5 93.74 1.6 138.78-10.9 4.27-0.7 12.67 0.9 12.57-5.9-0.33-44.3 2.54-89.62-12.86-131.97-15.65-50.35-19.63-107.93-53.46-150.49-38.89 19.93-72.32 52.96-107.43 80.56-25.76 32.84-53.55 64.09-79.26 96.99-35.265 54.26-66.04 111.51-95.965 168.71 0.275-13.1-3.875-29.9 8.375-39 23.162-94.33 86.89-171.51 146.26-246.04 39.14-39.37 73.7-89.21 127.64-108.5zm866.65 1.21c37.4 5.97 63.4 37.64 90.7 61.84 2.1 8.67 13.3 24.15 6.5 30.15-24.9-22.81-49.1-47.71-81.5-59.78-35.4 30.22-79.8 52.6-102.9 94.81-10.2 2.05-25.8-13.81-13.4-23.46 20.3-45.74 66.4-69.43 100.6-103.56zm-410.2 7.23c73.6 21.99 120.43 89.35 177.2 137 80 83.96 153.6 174.5 217.1 271.6 41.5 82.8 97.3 161.8 112.4 254.8-10.5 25.9-17.2 54-31.7 78.2-0.8 3.4-6.2 4.7-6.8 0.6-13.3-61.8-31.6-122.7-54.6-181.6-15-29.2-22.6-62.1-42.7-88.6-37.7-55.3-71.5-113.6-116.2-163.8-25.66-27.39-45.6-59.81-73.48-85.22-29.76-27.3-58.67-55.49-87.33-83.93-22.75-14.21-45.14-29.76-68.17-43.06-14.96 12.45-27.28 30.57-32.63 49.97-8.18 24.83-21.18 48.19-24.28 74.48-4.44 33.56-17.9 66.9-12.75 101.16 0.86 7 9.56 6.8 14.78 8.2 66.51 11 133.57 18.2 200.4 26.9 16.59 4.5 37.87 4.7 49.4 18.4-0.48 73.7-23.63 147.6-63.63 209.9-2.46 6.2-11.83 13.6-3.77 19.7 24.11 27.7 47.47 56.2 70.42 84.9 7.64-0.8 16.24 7.2 22.84 1 34.9-23.8 66.8-51.8 100.6-76.9 18.1 8.6 20.6 31.4 27.7 48.2 7.6 25.9 21.5 50.3 24.4 77.3-54.3 43.8-110.9 85-165.05 129.1-8.03 5.7-16.06 12.4-25.66 15.1-22.86-26.1-44.11-53.6-65.78-80.7-27.02-37.7-64.96-65.2-96.4-98.8-14.92 0.5-27.58 10.2-39.3 18.5-29.33 22-59.07 43.4-88.42 65.3-42.41 24.4-86.43 45.9-129.22 69.6-22.66 7.8-44.69-5.3-66.09-11.4-48.68-29.4-100.14-54.2-148.84-83.6-20.8-17.6-41.34-35.7-62.73-52.6-12.35-4.9-14.56 11.2-20.92 17.8-30.19 37.1-43.41 83.9-72.03 122-10.15-0.8-15.05-14.2-22.76-20-16.54-17 2.84-37.8 9.65-54.7 22.95-52.7 52.27-102.2 80.01-152.4 3.75-4.1 7.36-10.8 13.38-11.3 31 25.6 58.21 55.4 88.24 82.1 34.07 25 67.57 51.3 102.03 75.5 31.01 7.9 59.67 29 92.58 25.2 72.46-28.7 135.76-75.2 201.6-116.3 22.65-10.1 35.62-33.5 59.6-41.6 23.33 21.7 45.06 45 67.9 67.2 34 33.8 59.37 74.9 90.17 111.4 5.88 3.9 12.04-1.9 16.71-5.1 37.43-30.7 80.33-54.6 113.83-90 13.2-10.1-4.5-25.9-13.5-30.9-33.4 20.9-64.6 45.8-97.52 67.6-3.27 1.7-8.34 6.1-11.46 1.5-45.25-50.7-90.22-101.7-134.87-153-0.16-20 17.62-35.7 30.02-50 13.9-36.7 36.47-70.7 39.17-110.8 0.33-16.3 12.82-35 1.81-50.1-76.49-21.6-157.09-22.7-234.65-38.1-3.56-60.34-0.04-123.57 15.1-183.25 23.94-57.81 40.77-119.14 74.2-172.45zm425 44.04c12.6 1.19 24.8 9.39 35.2 16.16 25.5 23.94 62 44.16 65 82.59-1.6 2.5 5.6 14.42-1.5 11.56-29-17.55-53.9-41.43-84.2-56.91-27.4 22.13-58.7 40.48-79.6 69.4-12.6-1.95-17.2-20.7-25.6-29.58-0.6-13.75 10-26.66 17.3-37.78 25.5-17.28 43.9-44.35 73.4-55.44zm-887.6 15.92c20.56 18.39 25.74 51.03 34.53 77.34 19.52 55.59 28.8 115.25 23.71 173.5-17.39 6.4-36.38 11.8-55.25 9.4-41.96-2.8-83.67 3.7-125.55 4.3-20.88 0-44.25-5.8-63.24 5.5-0.64 41.4-5.98 84.5 8.27 124.3 10.13 31.9 13.04 66.5 30.84 95.4 2.4 6.2 9.43 13.8 3.99 20.3-29.47 41.5-47.51 89.9-75.488 132.2-9.037-8.6-18.375-22.6-12.275-35.9 1.45-12.2 14.888-16 19.551-25.9-3.088-21.5-12.812-42.2-15.537-63.8 12.2-16.8 28.299-30.7 40.389-47.6-1.18-16.9-11.19-31.8-15.452-48.1-3.212-15.1-20.762-25.2-34.562-16-13.8 14.2-24.088 35.2-39.588 46 2.412-29.9-9.887-66.2 5.713-95.5 24.775-70.5 57.637-139.18 105.91-196.65 38.78-60.14 91.96-109.09 149.45-150.69 6.94 1 11.43-1.47 14.59-8.1zm493.76 56.45c102.95 59.69 179.2 156.34 253.44 248.19 28.3 41.8 54.7 85 83.4 126.6 35.4 81.8 79.8 162.6 85.9 253.3-2.9 7.6 1.9 13.1 5.4 19.1-12.9 22.4-27.3 44.2-42.1 65.4-14.1 1.5-27.6-7.6-41.3-10.3-9.8 3.3-8.2 17.9-16.5 23.4-13.7 13.4-35.4 3.8-51.1 11.6-9.7 14.8-15.6 31.8-26 46.1-17 2-34.2 0.4-51.14 3.1-5.56 3.4-19.22-4-9.02-9.2 64.06-48.4 126.96-98.8 192.06-145.6 4.2-11.3-0.8-22.7-5.1-33-11.7-32.3-24-64.5-35.7-96.8-4.9-10.4-13.6-33.7-28-22.7-26.8 25.7-57 47.3-86.8 69.4-9.4 9.4-24.54 6.7-36.21 5-17.96-23.5-39.55-44.6-54.08-70.5 15.06-39.2 36.54-76.6 51.06-116.2 2.8-41.1 23.63-81.9 11.03-122.9-11.4-13.4-30.45-9.4-45.81-12-57.13-8.2-114.28-16.3-171.33-25-13.41-1.9-28.09-2.3-39.29-10.8-1.77-68.18 10.6-144.37 57.19-196.19zm406.34 0.03c25.5 8.86 53.6 20.89 70.3 43.76 15.3 8.89 27.3 24.78 29.9 42.6 6.4 40.01 13.5 79.95 19.9 120 12.9 45.8-3.4 92.7 0.4 139.2-4.5 23.1-3.8 50.8-16.2 70.1-11.3-30.2-18.2-65.7-30-97.2-44.2-85.1-88.7-170.3-143.2-249.35 9.3-33.04 44.3-48.06 68.9-69.11zm-923.63 13.94c-5.85-0.06-11.84 0.6-17.08 1.16-2.98 0.35-5.86 1.36-8.46 2.86-3.35 30.42 5.5 64.7-3.97 92.84-28.9 10.27-61.07 7.9-90.24 17.1-9.11 8.66-1.38 22.84-1.36 33.42 2.7 10.62-2.54 27.23 10.3 32.64 44.28-10.62 91.83-11.71 137.55-15.03 5.58-3.52 6.15-11.16 7.45-17.11-2.71-42.78-0.98-86.27-7.2-128.65-1.94-15.55-14.11-19.11-26.99-19.23zm-9.02 13.62c7.14 0.07 14.53 0.36 21.33 2.8 15.97 42 7.21 87.4 9.66 131.11-11.96 10.58-28.48 5.09-42.76 8.1-27.85 2.12-55.33 7.72-83.17 9.9-5.47-11.87-9.11-25.85-7.86-39.17 26.61-16.15 59.07-9.64 88.16-15.89 21.61-27.32 3.59-67.49 14.64-96.85zm931.15 6.36c-11.9 7.03-24.9 11.35-38.4 13.9 6.6 39.23 33 72.13 49.3 107.94 6.1 14.53 21.1-3.9 30.7 4.07 10.5 16.19 11.5 36.03 17.7 53.73 8.2 15.4 23.8-1.6 35.1-2.9 5.6-5.7 21.5-8.3 18.4-19.09-9.1-36.25-26.3-69.97-39.2-104.96-11.9-2.19-19.3 16.64-32.8 11-14.5-20.14-15.2-53.17-40.8-63.69zm-391.53 12.23c-3.28 1.23-7.73 2.27-8.89 6.06-11.3 38.15-19.91 77.02-29.08 115.72-3.71 10.19 9.16 13.59 16.62 15.48 45.49 9.21 90.67 27.45 137.32 26.05 1.02-16 16.54-42.07-0.92-53.01-25.28-1.05-48.47-11.22-72.17-18.93-3.36-24.65 7.38-48.56 6.35-73.11-9.51-17.39-32.66-14.31-49.23-18.26zm386.73 2.76c18.4 12.43 26.7 40.21 39.8 59.3 11.5 12.37 28.3-19.07 33.8 2.21 8.7 27.5 29.1 52.2 27.8 81.76-5.3 6.88-16.4 10.28-25 11.08-10.2-20.8-16.6-43.31-26.6-64.11-9.7-9.44-19 16.5-26.1 3.64-12.4-26.37-27.1-51.74-39.4-78.09-4.5-10.54 8.8-12.65 15.7-15.79zm-374.65 12.05c12.26 0.28 26.71 6.1 21.71 21.33 7.98 23.46-12.91 44.54-5.15 67.08 22.6 17.38 54.72 5.7 79.65 19.85 0.73 8.33 0.65 16.73 0.18 25.04-44.48 5-86.43-13.8-128.54-24.85-1.79-37.01 10.89-75.67 27.09-108.24 1.6-0.17 3.3-0.25 5.06-0.21zm225.85 254c-11.9 10.4-18 26.3-27 39.4-9.8 19.6-27.69 33.4-39.5 51.3 7.9 9.2 19.7 15 24.9 26.5 10.9 20.5-35.19 34.6-16.31 52.4 15.31 7.9 29.01 29.1 48.11 23.5 19.3-19.7 34.4-43.2 51.6-64.8 5.3-6.6 11.3-14.9 9.3-23.7-10-10.7-26.2-15.6-32.8-29.5 0.4-17.1 28.1-24.3 22.2-42.3-13.7-10.3-24.9-26.6-40.5-32.8zm-1.1 18.7c9.5 0.3 17.4 9.2 24.7 14.7 1.8 16.1-12.7 28.2-22.5 39.1 1.9 18.9 23.8 22.6 34 35.3-5.3 30.8-29.9 53-52 72.9-10.6-4.8-20.3-12.5-29.84-19.4 0.66-15.1 14.84-24 22.34-35.6-2.9-12.7-10.8-23.5-21.7-30.5-4.87-3.1-2.99-9.6 0.51-13 15.19-20.8 29.09-42.8 44.49-63.5zm-971.15 30c17.438 4.3 21.512 30.5 26.562 45.6-11.95 17.4-29.825 31-43.113 47.6 0.35 22.1 14.276 42 18.014 63.5-3.325 5.7-15.9 22.2-19.037 8.6-8.213-39.1-29.126-76.5-26.326-117 14.875-15.7 28.962-32.5 43.9-48.3zm480.69 2.2c-9.06 0-18.11 0.2-27.16 0.6-34.37 1.3-68.73 3.9-102.96 6.8-2.73 18.2-2.07 37.9 0.04 56.2 23.39 9.2 52.23-5.2 75.99 2.8 9.24 21.1 3.9 47 8.94 69.7 24.25 10.4 46.61-6.4 70.95-6.3 6.21-20.4 1.72-42.9 9.72-63 25.02-2.9 50.2-4.8 75.18-8 14.87-4.5 9.46-21.4 12.58-32.8 0.58-8.3 7.71-24.3-5.63-25.6-39.21 2-78.43-0.5-117.65-0.4zm-4.29 12.2c38.21 0.4 76.56-0.4 114.78 2 0.2 9.2-0.69 18.5-2.5 27.6-26.37 8.5-54.42 8.8-81.52 13.2-20.16 13-3.56 44.3-12.76 62.6-14.45 4.3-29.2 13-44.75 8.5-11.76-21.4 10.85-62.1-18.84-73.9-23.11-1.1-46.67 1.9-69.86-0.2 0.05-10.9-2.21-21.8-1.38-32.6 38.65-4.2 78.18-2.8 116.83-7.2zm251.11 225.7c7.07 0.2 13.17 6.3 18.88 10 32.62 33.6 64.75 67.7 97.48 101.2 17.44 21.1 29.44 46.3 49.45 65.3-29.12-1.2-58.56-0.7-87.52-4.6-6.79-15.2 5.49-33.8 3.21-49.5-17.21-6.5-36.92-7.3-54.64-13.2-5.07-14.4 12.82-34.6-0.01-47.6-25.25-3.2-50.46-8.3-75.61-11.8-19.04 15-8.94 44.3-24.31 61.8-22.18 2-44.74-1.2-66.83 1.2-19.8 10.4-11.84 34-16.55 51.5-33.85 0.4-67.72-1.4-101.59-2.2-0.26-2.5 0.89-4.5 3.64-5 45.13-24.3 89.98-49.1 134.98-73.7 40.66-25.8 78.56-55.9 118-83.4 0.48-0.1 0.95-0.1 1.42 0zm-531.25 8.6c33.46 15.2 59.08 46.6 91.75 64.8 51.95 25.8 103.25 53 155.56 78.1 5.1 1.5 15.21 2.3 11.21 10-33.64 3.9-67.64 0.3-101.33 3-4.4-12.1-7.86-24.5-12.56-36.5-22.38-9.5-47.34-3.9-70.69-6.6-21.78-13-10.89-44.9-26.88-62.2-20.05-6.6-43.48-5.6-63.23-0.1-5.35 22.4 6.93 46.4 8.82 68.8-10.82 3.7-24.97 2-36.57 5.7-10.68 7.6-4.02 20.4-2.43 30.8-12.25-2.6-20.38-15.7-30.42-22.8 9.57-26.5 28.03-49.4 41.86-73.7 4.3-23.6 22.29-40 34.91-59.3zm501.67 57.6c14.4-0.3 28.58 4.1 42.43 7.5 5.55 16.2-11.42 38.3 0.54 53.5 16.01 4.8 35.2-4.8 49.5 5.9-0.74 13.2-4.4 26.1-8.19 38.7-64.58-1.9-129.2-3.6-193.77-6.2 3.25-12.7-6.95-32.2 8.62-38.6 21.53-2.7 43.51-2.9 65.23-4 24.12-9.3 7.35-52.9 32.76-56.6 0.96-0.1 1.92-0.1 2.88-0.2zm-475.57 2.2c3.69 0 7.32 0.7 10.54 2.6 8 19.2 14.01 39.3 18.94 59.5 18.92 14.7 44.92 4.5 66.81 5.3 14.48 1.1 13.38 18.3 16.28 28.6-55.82 3.4-111.69 14.6-167.62 7.4-7.67-7.6-11.7-30.8 5.74-28.5 9.94-3.5 29.61 3 30.61-11.9-1.44-19.1-8-37.5-10.59-56.3 4.07-5.5 12.14-4.7 18.28-6.1 3.53-0.3 7.31-0.7 11.01-0.6zm848.79 47.8c7.4 1 22.3 0.3 20.5 11.4-21.6 20.4-46.1 38.1-69.9 55.8-9.1-1.3-20.4 1.2-28.7-2.6 2.3-9 6.4-17.5 9.8-26 4.1-12.4 21.1-11.3 30.3-5.4 16.4-6.4 28.4-19.4 38-33.2zm-617.34 58.8c81.8 0.3 163.58 6.3 245.39 7.1 98.46-2.8 198.37 10.3 294.85 18.8-6 11.2-22.6 26.1-36.1 14.5-70.79-6.5-142.26-4.9-212.9-14.3-112.36-0.7-224.75 0-337.12-0.3-67.34 0.5-134.7 20.9-201.65 9.4-5.18-4.8-36.84-19.1-13.56-21 75.15-8.3 150.57-7.5 226.03-13.9 11.69-0.2 23.37-0.3 35.06-0.3zm51.7 36.7c146.11 0 292.92 0.3 438.54 15.7 15.9 1.9-4.4 15.8-11 19-144.16 3.9-288.42-14.3-432.71-5.6-43.65 0.1-87.36-0.4-130.91 2.7-31.47 2.3-63.03 14.7-94.56 6.8-11.34-8.2-29.17-12.8-36.71-23.3 87.41-3.4 178.63-15.4 267.35-15.3zm129.53 38.8c81.82 0.1 163.72 2.4 245.14 10.7 1.07 1.8 8.76-1.1 7.83 3.2-48.47 22.5-102.52 27.5-153.72 41.5-83.33 11.9-167.79 8.1-251.74 7.1-19.3-11.9-43.53-7.5-64.41-14.8-28.9-10.4-57.94-20.4-86.88-30.7-4.25-0.1-0.83-9.2 3.77-4.6 87.67-13 176.73-8.3 264.94-12.3 11.69-0.1 23.38-0.1 35.07-0.1z" transform="scale(.8)"/>
</svg>
