<?xml version="1.0" encoding="UTF-8" standalone="no"?>
<svg xmlns:rdf="http://www.w3.org/1999/02/22-rdf-syntax-ns#" xmlns="http://www.w3.org/2000/svg" height="1602pt" width="1300pt" version="1.1" xmlns:cc="http://creativecommons.org/ns#" xmlns:dc="http://purl.org/dc/elements/1.1/" viewBox="0 0 1300 1602">
<path d="m1022.6 10.25c-2.7 0.003-5.4 0.128-8.2 0.412-66.02 1.988-132.62 0.164-198.29 5.701-65.51-0.85-130.03 15.137-195.65 12.537-81.91 11.875-168.15 21.213-240.03 65.276-17.54 7.814-29.79 23.634-33.38 42.564 2.61 81.82 3.3 164.01 11.86 245.4 10.58 10.2 25.73 13.21 38.89 18.82 54.94 23.37 100.74 63.88 141.92 105.42 0.15 1.56-0.54 2.23-2.11 2.03-39.97-20.57-80.03-46.46-126.68-48.07-59.8-12.98-122.31-17.6-182.21-4.09-34.97 18.56-74.18 31.15-102.58 59.9-20.87 15.66-42.977 30.26-57.089 52.89-27.275 27.47-35 66.44-52.938 99.61-18.037 79.88-1.363 162.41 20.1 240.14 20.925 42.2 44.074 83.45 66.257 125.01 40.97 50.3 79.58 107 141.04 133.9 31.15 25.4 68.81 40.1 104.19 58.4 35.35 12.1 72.61 19.7 105.16 38.6 13.72 27.3 36.15 48.8 65.84 57.9 49.51 3 99.53-1 149.23-1.6 14.72-3.6 32.04-5.4 41.36-19.1 14.77-6.7 2.71-25.3 15.57-33.5 8.5-15.8 16.17-32.3 23.63-48.6-3.59-13.7-2.74-31.2-16.94-39-44.16-15.8-88.02-32.4-131.81-49.2-15.65-7.2-33.14-5.1-49.7-8-23.92-5.3-46.09 11.4-69.92 5.2-53.2-15.9-98.78-48.9-146.61-76.1-52.52-26.6-83.08-79.11-119.3-123.16-24.07-33.09-29.31-75.05-43.75-112.53-2.75-42.4-10.91-88.23 8.24-128.33 10.71-39.99 38.41-80.89 80.84-90.37 28.27-9.91 59.44-12.47 88.64-5.34 20.41 13.84 43.35 22.93 65.47 33.38 21.7 15.07 42.7 31.41 63.45 47.8 33.86 41 70.64 80.15 103.61 121.56-8.96 32.23 4.83 63.9 25.25 88.35 32.43 26.04 65.23 51.04 102.01 70.43 5.75 3.65 18.88 8.45 12.82 17.42-21.85 30.89-20.42 70.99-11.28 105.99 18.25 39.6 57.9 61.3 85.49 93.4-18.54 13-38.41 32.4-37 56.9-2.2 32.9 22.14 56.3 36.88 82.9-11.5 7.9-27.86 12-33.69 26.4-8.88 21.7-28.13 40.8-23.87 66.3-3.17 20.9 10.74 37.7 17.78 56.1 1.64 4.3 8.55 12.4 1.5 15.5-29.13 9-51.78 32.8-60.46 61.9-15.88 19.4-2.36 44.9-8.68 66.5-53.46 5-81.98 64.8-67.97 112.9-29.14 12.9-64.39 12.9-92.59 30.2-37.11 14.2-69.67 49.6-60.47 91.7 12.45 39.6 52.36 58.5 86.67 75.8 19.21 16.2 44.4 19.1 67.01 28.1 101.59 29.5 207.29 43.2 312.86 45.8 51.62 0.4 103.53 8.1 154.93 0.7 98.6 3 197.3-11.8 292-39.1 30.2-4.5 52.9-26.2 79.6-39 33-29.2 31-83.5 7.6-118-27.2-29.3-68.1-35.6-103-52-13.5-7.4-45.8-6.2-40.4-28.4 4.8-28.8-15-54.3-31.9-75.5-7.4-16-33.5-14.2-38.9-30.2 22.5-18.7 37.3-52.4 23.2-80.4-6.1-30.9-40.3-43.1-59.7-64.2 2.7-11.5 16.3-17.3 15.7-30.1-0.8-16.3 14.4-30 8.5-46.4-3.8-16.7 2.5-37.8-12.6-50.1-10-20.4-36-23.7-50.4-38 26-26.5 54.6-64.9 39-104.3-0.1-19-18.1-30.3-23.8-46.7 50.9-12.5 67.4-76.7 47.1-120.3-8.1-23.5-32.3-34.95-47.1-53.42 0.2-18.26 0.9-36.76 9.2-53.38 12.3-40.38 26.2-80.21 39.8-120.19 17.3-51.73 45.6-98.75 70.5-147.01 26.4-52.66 63.4-99.75 105-141.21 52.2-56.11 122.9-89.05 188.9-125.89 6.5-3.84 2.7-12.93 3.9-18.79 11.7-86.59 0-174.49 4.6-261.6 1.2-14.698-15.8-19.91-25.7-26.285-42.8-11.912-86.8-21.1-130.9-29.275-39.3 4.35-75.3-15.988-114.4-13-51.4 1.562-101.6-15.387-152.9-11.824-36.5-10.3-74.6-5.676-112-8.238-18.9 0.065-37.4-5.956-56.2-5.938zm-26.98 10.273c130.28-0.017 259.88 18.036 389.58 27.915 55.2 7.374 109.7 19.649 164.8 27.787 17.6 3.025 33.9 10.949 49.7 19.099 4.7 7.536 2.9 17.636 0.1 25.526-101.5 42.76-213.8 61.11-322.2 84.22-158.7 38.54-323.16 26.22-484.78 34.79-94.43-12.62-191.76-12.87-282.78-43.66-43.9-11.69-88.04-23.3-129.84-41.31-6.95-4.67-11.44-12.1-17.86-17.44-3.8-15.33 6.18-32.99 21.78-37.06 31.62-11.016 59.69-31.941 93.32-36.691 88.78-20.475 179.7-29.974 270.56-34.412 73.11-14.2 147.76-3.887 221.55-8.512 8.69-0.169 17.38-0.25 26.07-0.252zm-101.13 11.368c-6.25 0.005-12.5 0.033-18.75 0.084-70.24 4.325-139.89 15.612-210.35 17.062-58.05 1.65-114.36 16.713-171.86 23.051-31.23 11.65-67.21 16.174-92.53 40.072-6.5 4.36-14.64 11.54-11.43 20.4 19.64 18.95 47.98 21.06 72.39 30.5 76.24 26.96 156.89 40.75 237.45 45.08 163.18 20.66 328.99 8.29 491.19-12.55 115.5-7.65 228.6-34.81 340.1-64.98 13.1-3.16 28.5-7.16 36.7-18.47-3.2-13.266-19.8-19.227-30.4-26.777-64.2-13.637-129.8-19.201-194.9-27.539-55.7-2.85-110.7-13.874-166.6-13.136-93.4-7.911-187.22-12.877-281.01-12.797zm-20.92 8.66c179.33 1.85 358.83 9.848 536.63 35.523 24.7 4.688 50.8 0.888 74.5 10.563 21.8-3.375 41.4 7.125 61.3 13.433 8.6 2.27 9.6 12.75 1.4 16.24-98.3 33.14-201.7 46.22-303.1 66.74-105.7 8.01-211.5 26.99-317.23 24.11-51.65 0.66-103.36 3.08-155 0.87-61.56-9.67-123.87-13.73-185.64-21.94-20.47-2.88-39.83-11.58-60.71-11.56-34.67-12.33-70.29-22.08-104.48-35.72-7.91-4.19-26.62-10.21-17.2-21.07 15.01-3.6 26.12-15.05 39.86-21.365 44.86-12.537 90.34-25.951 135.57-28.863 68.29-19.475 141.18-9.775 211.37-18 27.35-3.525 56.62 0.964 82.73-8.961zm723.63 93.669c11.8 0.27 14.3 20.5 6.3 28.09-176.2 67.5-362 106.39-551.4 109.8-120.84 10.89-243.14 10.98-363.4-4.56-42.73-3.41-84.47-14.71-127.3-17.69-50.94-11.33-101.96-22.75-153.12-33.1-18.04-9.31-38.37-16.55-53.33-30.37 0.24-12.45 0.99-24.89 1.61-37.33 8.84-0.97 12.38 11 19.89 14.51 141.12 60.12 295.75 75.65 447.34 85.24 103.17-0.15 206.31-3.14 309.31-9.34 72.6-11.75 146-19.63 217.4-37.72 44.2-11.96 89.5-19.23 133.6-31.4 36.6-12.98 73.6-24.45 110.6-35.91 0.9-0.17 1.7-0.24 2.5-0.22zm-1.9 43.25c3.6-0.42 0.5 5.63-0.7 8.42-25.4 40.16-38.6 87.46-53.4 132.05-7.3-35.48-9.2-76.73-36.7-103.79-1.6-1.49-0.1-3.79 1.7-4.19 28.7-11.47 58.2-20.76 87-31.89 0.9-0.35 1.5-0.54 2.1-0.6zm7.4 13.77c10.7 7.56 4.4 27.86 5.8 39.62-3.1 36.24-1.2 73.03-5.8 108.98-15.3 9.05-30.9 24.1-49.3 24.11-5.1-60.69 23.9-118.75 49.3-172.71zm-1241.1 15.02c7.1 3.1 20.67 4.05 23.16 12.31-6.47 9.35-11.31 24.39-22.26 28.82 1.25-13.08-7.98-29.94-0.9-41.13zm1107.1 13.92c5.2 0.28-2.4 9.65-3.6 12.47-16.9 24.35-22.7 53.81-30.4 81.84-2.8 3.2-4.4 10.55-9.4 10.19-5.6-14.63-9.5-29.89-15.6-44.36-5-14.53-20.5-23.27-25.6-37.43 26.2-11.63 56-11.13 82.6-22.49 0.8-0.18 1.5-0.25 2-0.22zm20.5 0.01c17.5 3.12 17.8 26.39 27 38.67 7.8 36.97 15.4 74.27 18.7 111.98-6 5.76-15.8 4.69-23.2 8.4-5.7 0.37-16.2 9.34-19.1 0.47-3.4-25.63-4.5-51.61-7.1-77.28-1-4.95-7.8-1.77-7.7 2.18 0.6 27.77 3.1 55.77 2.9 83.39-14.1 4.86-29.2 11.1-43.9 11.28-0.6-20.62-7.3-42.32 1.8-62.03 14.6-39.87 19.7-85.45 50.6-117.06zm-1093.8 5.16c47.2 34.95 67.86 97.67 70.3 154.35-12.4-1.03-23.77-8.36-35.66-12.21-6.45-3.75-17.49-3.25-19.14-12.21-6.38-24.5-11.36-49.47-12.16-74.84-0.16-6.03-8.13-4.93-8.35 0.41-0.95 24.06 5.61 47.57 6.83 71.5-11.37-2.9-25.22-9-31.5-19.71-0.54-21.35 1.21-42.91 0.63-64.36 8.39-14.89 15.4-32.27 29.05-42.93zm29.05 7.46c25.39 2.65 50.24 9.87 75.3 14.9 8.98 2.68 0.13 12.85-2.91 16.61-14.81 18.58-17.6 42.79-28.18 63.32-10.08-19.2-13.43-43.41-24.68-62.84-4.94-9.8-21.17-22.61-19.53-31.99zm943.59 17.55c28.1 14.08 35.6 50.87 46.7 78.75 5.3 23.58 5.7 48.07 10.3 71.82-15.1 7.87-33.6 9.41-50.3 13.69-4.8 2.37-7.8-5.19-6-8.84 0.4-25.24-2.7-50.37-2.5-75.6 0.9-6.52-8.9-4.46-9.4 0.73 0.4 28.49 1.9 57.6 0 85.79-17.8 3.75-38 6.81-56.5 7.41 2.2-35.8 19.6-69.31 26.7-104.52 12-23.73 19.3-52.56 41-69.23zm-25.6 1.98c1.9-0.03 3.2 0.91 2.3 3.48-13.5 37.67-36.4 71.93-45.1 111.25-0.5 1.67-1 3.7-3.2 2.78-7.7-36.89-23.7-72.49-46.1-102.26 29.5-4.59 59.3-6.48 88.1-14.33 1.4-0.55 2.8-0.91 4-0.92zm-820.62 1.46c7.89 0.23 14.94 5.18 18.41 12.41 27.9 41.49 53.91 90.61 48.49 142.08-0.19 2.2-2.37 5.2-4.83 3.97-14.89-4.11-29.95-7.59-44.92-11.22-3.45-30.54-9.69-61-10.58-91.78-2.28-0.5-7.74-1.82-6.88 2.09 2.38 28.9 5.19 57.91 3.15 86.94-16.53-2.55-33.26-10.53-48.91-16.64-3.78-45.72 14.09-92.1 42.64-127.65 1.15-0.17 2.3-0.23 3.43-0.2zm29.94 5.32c21.52 1.53 42.54 7.33 63.9 10.24 13.84-0.52 1.55 12.91-0.71 18.09-11.52 15.59-14.1 35.94-22.82 52.26-15-21.16-18.42-54.23-39.2-73.78-1.72-1.52-4.5-6.15-1.17-6.81zm663.38 10.4c4.7 0.13 4 7.44-0.2 10.37-31 35.86-38.6 87.86-59.6 127.33-6.9-44.33-26.7-88.47-56.5-122.25 35.3-7.87 75.8-5.45 112.2-14.25 1.7-0.87 3.1-1.23 4.1-1.2zm-574.6 3.32c53.46 32.77 59.98 103.46 75.4 159.32-17.17 1.76-38.54-2.15-56.37-5.44-12.49-29.41-5.39-63.22-11.85-94.23-0.9-4.64-8.53-2.35-8.57 1.7 1.14 28.69 6.59 57.78 5.19 86.16-13.07 5-30.16-0.44-43.11-5.57-7.39-49.2 0.86-106.72 39.31-141.94zm594.8 2.55c31.5 31.12 55 78.27 49.7 124.67-1.5 9.36 4.7 24.75-6.5 30.1-15.1 1.36-30.5 9.63-45.3 2.73-3.5-29.59-1.2-59.53-3.9-89.14-1-3.34-4.6-9.54-8.1-4.82-7.3 31.87 9.3 65.73-2.1 96.95-18.3 1.58-36.6 4.22-55 4.88 7.1-48.46 25.8-94.47 46.9-138.5 7.9-8.94 14.3-20.27 24.3-26.87zm-566.12 1.05c32.87-0.32 64.8 11.98 97.7 9.03 1.63 6.63-5 11.91-7.69 17.49-19.07 25.89-34.48 55.18-41.48 85.74-13.13-29.09-14.12-63.44-34.32-89.59-2.88-8.47-15.41-13.27-14.21-22.67zm392.32 7.72c5.3-0.17 9.7 0.67 11.8 4.19-29 33.46-36.2 80.95-53 118.75-15.3-36.29-20.95-82.6-55.39-108.22-2.21-0.98-4.05-5.7-0.32-5.54 23.16-3.11 47.11-1.34 69.81-7.66 7.2 1.83 18.4-1.25 27.1-1.52zm-249.9 3.37c33.46 1.82 66.94 7.28 100.46 2.77 12.08 4.11-1.45 15.67-4.6 22.17-22.72 27.57-30.15 63.08-37.93 97.02-0.35 1.92-5.24 3.51-4.41-0.61-16.97-40.62-29.03-85.82-53.52-121.35zm-29.74 3.93c18.95 1.27 29.18 19.85 39.43 34.79 15.48 36.99 30.8 74.44 38.45 113.99 2.77 4.99-3.14 11.3-8.28 8.19-18.5-3.03-37.66-2.64-55.71-7.9-11.86-29.52-4-61.89-8.64-92.52-2.97-1.85-5.35 0.82-5.51 3.73-0.04 28.16 4.22 56.8 2.84 84.67-16.55 9.83-39.46 0.67-57.04-4.1-6.75-52.55 24.04-100.46 54.46-140.85zm302.34 1.13c43.3 31.26 54.1 89.57 63.8 139.5 5.4 13.05-13.5 16.81-22.4 15.98-10.4-1.65-24.6 5.53-33.1-2.13 2.6-30.45 0.8-61.13 1.2-91.65-1.4-4.04-4.5-10.94-9.8-8.98-2.7 34.08-0.6 68.67-3.2 102.55-12.9 7.27-29.9 0.66-44.2 4.9-3.6 1.09-10.7 1.39-10.1-4 13.5-53.64 21.9-111.87 57.8-156.17zm-145.95 1.44c7.88 0.23 12.85 8.38 18.39 13.16 9.95 11.31 24.39 19.97 28.2 35.46 8.42 26.66 23.36 51.53 25.16 79.94-0.3 9.8 9.6 24.77-2.2 31.11-18.76 0.27-37.49-0.1-56.2 0.21-4.7 0.78-6.92-5.79-5.42-9.37-0.64-27.34-1.44-54.71-4.42-81.89-1.19-3.07-4.26-6.94-7.83-4.49-1.8 31.03 0.34 61.82 3.58 92.52-17.04 6.96-39.96-0.34-58.75-0.8-2.77-16.79 0.85-34.27 3.98-50.85 12.09-36.88 22.21-79.03 52.96-104.81 0.88-0.15 1.73-0.21 2.55-0.19zm-572.3 54.66c13.84 6.86 26.44 16.1 40.54 22.4 59.35 17.14 116.94 41.11 177.94 51.98 109.18 20.54 218.02 31.94 329.03 38.36 57.47 6.85 115.24-2.77 172.84-1.34 23.5 0.81 46-11.13 69.8-6.75 96.8-5.54 192.2-24.56 287.1-43.91 39.5-7.88 76.9-23.03 115.3-34.69 14.7-4.78 28-15.38 43.4-16.99 2.5 22.55-16.3 36.34-37.5 37.55-23.2 18.59-55.5 17.54-81.9 28.73-58.2 11.33-117 31.73-177 37.73-25.5 5.15-51.3 8.55-76.6 14.29-16-5.41-32.4 2.34-48.6 3.01-123.9 7.16-249.05 14.6-372.36-3.31-112.12-3.33-221.79-29.4-331.12-52.53-36.91-12.25-71.4-30.82-106.43-47.33-3.65-8.34-6.85-18.19-4.44-27.2zm1137.6 79.19c0.6 0.02 1.3 0.11 1.9 0.26-59.6 33.78-107.5 84.34-149.7 137.64-30.3 29.31-44.2 69.82-66.7 104.53-50.1 91.81-84.1 192.09-107.4 293.85-14.7-2.12-26.6-17.84-42.2-21.22-14.4-0.86-22-14.78-35.9-16.55-64.5-18.75-125.09-48.44-189.82-66.4-60.85-18.14-126.87-30.03-178.25-69.35-26.07-55.55-45.24-114.98-80.27-165.92-13.42-20.16-21.66-44.58-41.67-59.56-41.98-41.32-80.48-86.6-127.39-122.55-2.31-1.95-5.23-3.93-5.19-7.31 53.04 10.98 106.22 21.35 159.02 33.46 102.95 11.73 205.88 26.6 309.71 26.45 72.46 4.24 145.46 5.84 217.36-5.76 61-1 120.5-16.32 180.9-23.92 52.1-8.43 102.2-25.71 153.6-37.53 0.7-0.11 1.3-0.15 2-0.12zm-1217.6 29.22c77.49 2.56 158.34 11.95 227.62 49.25 49.23 33.74 104.88 66.46 131.34 122.43 13.78 21.16 25.79 43.45 35.79 66.62 1.94 4.25-5.9 4.32-7.65 5.29-21.39 5.01-37.3 21.51-52.29 36.57-4.07 4.19-8.36-1.63-11.17-4.33-62.42-69.17-135.85-134.98-227.09-161.71-10.46-2.83-21.3-8.2-32.31-4.72-20.34 4.22-42.61-0.44-61.44 9.86-34.92 13.94-77.56 22.56-95.65 59.28-34.72 45.52-34.05 104.25-36.4 158.77 11.31 51.83 25.55 104.89 55.94 149.16 33.26 35.15 57.18 80.03 100.1 104.93 41.91 38.4 99.16 52.3 144.01 86.1 18.51 3.9 37.59 6.7 56.55 5.2 17.25-2.3 34.63-13.9 51.83-4.9 49.87 8.9 95.53 31.6 143.11 48.1 11.77 4 27.92 10.3 27.03 25.6 3.43 23.9-10.04 46.8-28.23 61.2-49.01 11-95.2-11.6-143.84-12.8-3.53-14.1-2.01-31.6-16.89-40-21.96-7.2-48.33-13.4-68.83 1.2-13.83-32.9-56.69-34.1-87.17-42.3-46.37-11.1-88.75-34.5-131.61-54.6-52.74-38.2-97.64-85.8-139.05-135.99-34.513-34.72-53.362-80.99-82.962-119.56-21.887-51.94-16.975-109.86-17.375-164.93 12.713-48.81 34.362-95.32 61.924-137.01 57.923-50.61 125.21-101.16 204.71-106.71zm57.44 116.35c22.42 0.24 43.26 9.21 63.87 18.06 4.51 5.35-5.21 15.69-11.56 12.85-19.31-8.43-37.28-20.8-58.61-23.74-2.52-1.6-11.4-0.26-9.49-5.83 5.36-0.98 10.62-1.39 15.79-1.34zm79.22 25.75c24.49 8.45 48.44 20.34 66.98 38.83 0.51 7.3-10.16 10.34-14.39 15.32-24.37-0.38-37.96-25.64-58.93-34.67-13.11-6.59-2.37-17.12 6.34-19.48zm75.68 47.6c24.27 11.09 43.8 35.16 65.12 52.59-2.26 12.57-15.45 25.06-27.95 27.89-18.59-19.52-35.9-40.27-54.52-59.74-2.54-9.68 11.55-14.7 17.35-20.74zm185.73 60.98c13.44 7.86 13.48 31.26 21.4 45.34 15.04 10.66 8.67 33.23 19.6 47.97 46.53 32.77 103.63 46.35 157.43 63.92 92.94 24.78 182.6 60.38 271.2 97.54 26 15.15 53.6 29.83 73.9 52.55 9.6 28.9 19.4 64.6 2.1 92.3-5.6 4.7-22.9-8.2-22.5 1.8 26.8 15.7-23.2 43.4-30.9 22.3 14.8-4.7 13-25.1 27.1-29.6 1.7-9.9-12.8-11.7-17.7-17.6-14.7-7-25.3-22.9-42.4-23.7-20.6-9.8-39.4-23.4-60.7-32-39.1-10-78.3-19.8-117.28-30.32-52.05-5.5-104.66-7.64-155.87-18.93-59.59-0.43-106.01-42.56-156.89-68.16-25.31-21.11-55.16-42.57-63.9-76.13-5.42-39.56 24.94-68.17 46.09-97.82 15.6-10.96 30.81-23.68 49.32-29.46zm-113.42 1.4c11.01 0.95 15.88 15.56 24.15 22.23 4.96 6.74 20.04 14.29 10.3 23.59-7.83 8.96-10.06 27.16-22.03 30.47-12.21-15.28-24.81-31.06-38.79-45.01 2.41-13 17.4-21.45 26.37-31.28zm-527.22 190.06c22.7 21.97 35.562 53.21 55.886 77.72 6.308 5.8-0.737 18.25-7.599 19.1-17.488-31.6-40.675-60.81-48.287-96.82zm690.51 73.46c114.54 54.6 235.7 94 356.16 133.5 30.9 9.1 60.6 21.8 87.2 40.2 26.2 27.9 46.3 71.3 24.5 107.9-4.6 9.7-14.6-0.3-19.7-4-14-6.8-20.2-25.9-37.3-26.4-25.2-4.8-49.8-13.3-75.6-14.4-82.31-4.9-165.69-9.4-244.75-35-10.45-14.2-31.55-15.3-42.46-30.2-26.24-23.6-62.73-47.3-63.83-86.1-8.02-28.6-3.37-62.05 15.78-85.5zm72.7 16.02c36.33 4.34 72 13.48 108.57 16.18 2.69 10.5-9.26 30.3-22.65 22.6-28.31-12.4-63.24-20-85.92-38.78zm-700.07 4.09c23.67 14.39 40.8 42.69 62.28 62.19 1.02 11.4-3.99 25.6-8.64 35.2-18.66-20.9-34.71-44.7-52.3-66.8-7.81-8.5-1.81-20.6-1.34-30.59zm822.87 13.79c27.64 0.9 55.44 4.7 81.46 14.5 2.3 17.3-13.06 50.7-34.37 37.5-20.19-8.4-41.81-13.6-61.68-22.3-0.31-9.9 8.05-22.1 14.59-29.7zm97.16 17.2c22.7 7 45.8 13.4 68.4 20.9 25.9 7 3.8 38.5-10.3 46.2-24.9-5.4-49.3-13.2-73.6-20.6-3.3-1.1-9.5-3.7-6.4-8 8.8-12 15.9-25 21.9-38.5zm94 35.2c19.1 7 37.2 19.7 55.5 29.8 24.1 8.9-6.2 48.6-23.5 31.2-15.4-12.3-34.7-16.2-52.5-22.9 5.1-13.1 14.4-25.1 20.5-38.1zm-942.89 7.6c18.89 18.8 38.52 38.1 61.47 53 4.06 11.8 3.46 26 2.88 38.6-6.31 1.9-10.72-6.1-15.88-8.2-16.97-14.8-38.48-25.2-51.79-43.7 2.56-11.9-7.75-31.1 3.32-39.7zm76.17 65c21.81 13.9 48.73 18.6 69.93 34.4-1.43 12 1.16 27.2-4.17 37.5-23.84-9-48.45-21-66.94-39.4 3.02-10.3-2.46-23.5 1.18-32.5zm80.17 39.6c31.39 10.2 66.05 12.8 95.65 27 15.15-2.8 31.84 6.5 37.59 20.7-4.47 10-3.85 27.9-16.17 32-39.58-12.1-81.6-19.2-117.56-40.8-0.7-12.5-2.71-26.6 0.49-38.9zm469.89 5.3c1.95 0 3.8 0.4 5.55 1.4 59.32 31.3 120.42 60.1 185.08 78.8 59.43 18.2 123.63 22.3 179.13 52.1 25.5 9.8 58.2 26.9 56.3 58.8-1.2 17.5 4.5 37.2-6.5 52.6-19.8-8.4-38.7-19.6-58.6-27.2-70.2-16.3-145.1-27.2-218.5-28.1-32.67-2.3-63.74-14-95.14-22.3-28.84-20.1-57.62-43.5-72.37-76.4-22.35-28.3-10.75-75.9 23.07-89.4 0.67-0.2 1.33-0.2 1.98-0.3zm-207.95 3.5c-6.03-0.1-11.98 0.1-17.68 0.5-22.02-0.3-6.55 25.5 6.8 26.9 24.45 13.5 60.61 20.7 81.14-1.1-16.33-20.6-44.11-26.1-70.26-26.3zm-4.75 7c6.16 0 12.18 1.5 8.6 7.9-3.19 15.1-23.02-2.6-17.78-6.9 1.74-0.4 5.48-0.9 9.18-1zm27.01 5c7.61 0.2 7.65 14.4-0.47 16.1-9.42 4.3-12.77-14.3-3.25-15.2 1.39-0.6 2.63-0.9 3.72-0.9zm19.1 4.4c6.67 0.2 17.52 10.7 4.83 12.5-11.35 7-11.59-8.2-5.47-12.5h0.64zm232.08 1.3c26.2 1 51.92 7.8 77.52 13 1.04 7.5-7.34 21.1-15.81 14.5-19.83-9.9-45.29-16.7-61.71-27.5zm95.32 16.4c23.74 3.4 47.85-3.4 71.05 2.9-0.4 14-8.5 28.4-21 35.1-22.29-7.3-45.8-12.1-67.4-20.9 5.03-6.2 9.82-14 17.35-17.1zm86.95 2.3c30.3 3.9 61.1 8.9 89.4 20.1 2.6 13.5-7.4 29.7-18.2 38-17.5-0.7-34-8.4-51.5-9.7-12.2-1.5-26.6-2-36.2-10.3 2.4-13.5 9.1-27 16.5-38.1zm-553.35 2.9c19.06 3.7 59.56 0.8 52.15 30.7-26.25 7.4-9.65 44.1-21.74 61.8-25.01 1.6-47.52-18.6-60.15-39.1-18.41-21.1 9.26-47 29.74-53.4zm654.55 22.3c13.5 5 24 18.7 38.7 23.3 4.1 7.2-9.2 10.3-12.5 15.4-11.9 14.6-31.5 3.6-46.4 0.4 5.5-12.7 20.4-22.9 20.2-39.1zm-603.66 23.7c14.31 2.9 30.88 1 43.83 8.1 0.59 12.5-6.46 26.1-3.27 39.1-14.02 3.1-29.57 4.4-44.15 3.4-1.65-15.5-9.05-39.4 3.59-50.6zm57.52 7.3c10.26 1.1 21.04 1.6 30.77 5 2.25 9.4 0.17 20.2-1.06 29.8-10.27 3-21.49 4.8-32.03 5.7-12.19-10.1-3.67-29.6 2.32-40.5zm49.43 7.3c16.3-0.1 32.97 6.7 48.7 1.3 5.83 1.6 3.97 9.6 0.72 13.1-13.21 14.3-35.01 13.6-52.25 15-1.13-7.8-6.61-22.4-0.42-29.2 1.08-0.1 2.16-0.1 3.25-0.2zm145 42.8c7.12 0.1 12.87 6.4 18.45 10.2 35.51 29.5 73.52 59.1 118.91 71 54.99 22.1 116.35 16.1 172.65 33.6 27.4 10.3 58.2 11.3 82.7 28.6 21.8 9.8 42.1 22.9 61.3 36.3 20.5 24.9 23.5 61.1 2 86.2-36.6-17.9-69.8-44.4-110.1-54.4-77.9-32-163.51-27.4-245.88-30.4-31.68 3.3-60.75-11.5-91.37-16.1-43.38-11.8-64.73-58.9-62.78-100.9 12.63-24.6 20.03-57.6 50.98-63.7 1.08-0.3 2.12-0.4 3.14-0.4zm80.24 40.9c30.83 6.5 59.61 11.1 91.56 14.6 6.55 9-6.24 18.7-14.06 20.2-25.78-11.1-56.59-15.8-77.5-34.8zm107.72 12.8c29.15 4.3 60.75-2.4 88.05 9-1 12.1-8 25-19.2 30.5-27.3-1.8-54.1-8.6-81.03-12.9 0.1-9.1 7.68-18.6 12.18-26.6zm101.15 11.3c24.3 5.5 48.7 10.7 73.1 15.9 14.5 5.6-3.1 21.3-7.6 28.8-21.3 3-42.8-5.9-64.2-9-5.4-0.9-18.4-2.5-14.6-11.2 6-7.3 6.8-17.8 13.3-24.5zm91.3 25c13.5 3.4 24.9 13.1 38.8 15.6 0.6 11.7-10.2 37.2-25.4 25.6-9.7-5.1-22.1-7.2-30-14 5.4-8.9 9.9-19 16.6-27.2zm-419.63 72.3c10.9-0.3 15.87 14.4 24.18 20.1 18.66 10.8 32.64 29.7 54.63 34.1 27.6 7.4 52.87 22.2 81.44 26.1 56.33 7.2 112.88 13.1 168.88 22.6 61.7 0 124.7 12.2 179.7 41.3 12.4 11.4 22.3 25.1 33.9 37.3 15.7 23.6 13.8 59.5-7.4 78.4-42.3-20.2-80.6-51.4-128.5-58.7-50.3-17.4-103.5-19.4-156.1-21.1-75 8.7-152.01 9.7-225.66-8.4-23.43-11.3-48.98-11-68.82-29.9-18.97-24.6-30.77-62.1-13.04-90.4 10.13-22.6 28.52-44.3 53.21-50.8 1.26-0.4 2.45-0.6 3.58-0.6zm33.46 10.9c34.67 6 68.12 18.7 103.79 18.4 24.83-1.1 3.37 33.3-11.36 30.2-34.71-6.1-70.57-20.9-92.43-48.6zm183 21.3c10.25 0 20.4 0.5 30.27 1.8 2.5 21.7-23.83 51.6-47.41 40.1-17.18 5.1-33.4-5.5-50.19-7.9-8.54 1.7-3.76-6.9-1.16-8.8 7.08-7.2 10.06-17.8 17.15-24.8 16.9 0.4 34.26-0.5 51.34-0.4zm46.97 3c29 3.2 58.5 5.6 85.6 14.2-0.9 19.2-18.6 47.1-40.3 36.2-23.7-6.8-50.3 2.8-73.19-8.3 12.49-11.6 19.59-27.8 27.89-42.1zm97.7 19.2c23 4.1 45.4 13.7 66.7 23.5 4.6 11-10.9 23.6-21.8 21.7-19.1-4.1-38.8-5.5-57.9-9.7-3.6-0.3-7.1-4-3.5-7 7.7-8 11.6-19.8 16.5-28.5zm78.5 29.7c14.3 6.9 28.6 15.9 42.5 24.3 4.9 3.9 0.1 12.1-6.2 8.7-14.8-3.2-29.1-8.5-43.6-12.9-1.2-7 3.2-15.2 7.3-20.1zm-519.03 43.8c3.13 0 6.27 0.4 9.31 1.2 28.2 22.8 45.56 60.3 81.84 72.1 36.99 16.2 74.64 35.2 115.87 35.4 34.66 4.2 69.32 9 103.92 13.3 56.89-9.7 115.69-15.6 172.69-3.6 34.6 0.9 62.1 23.9 90.5 40.7 15.9 16.1 32.8 35 34.1 58.8-8.9 24.6-21.9 55.2-51.7 57.1-12.6 3.3-28.9-1.9-36.3-11.8 7.1-7.4 19.2 10.5 28.8 3 31.8-2.6 31.2-46.3 12.2-63-12.3-8.7-23.9-20.6-40-21.2-62.4-12.3-123.9 14.5-186.4 8.7-49.4-6.8-98.46-16.5-148.04-20.4-36.88-4.2-71.69-16.6-105.85-30.5-47.37-14.3-89.15-42.7-123.46-77.8-4.44-7.4-12.75-16.6-5.21-25 10-15 24.08-31.7 42.11-36.8 1.86-0.2 3.74-0.3 5.62-0.2zm62.75 39.3c32.39 7.9 62.4 25.6 96.43 27.1 1.16 19.1-25.54 17.6-36.89 9.4-19.52-12-48.31-14.6-59.54-36.5zm-117.51 23.2c13.9 17.3 33.88 34.4 52.31 49.4 0.32 11.2-11.38 20.4-13.92 31.4-10.26-6.4-17.79-16.5-26.52-24.8-2.13-18.2-22.82-36.2-11.87-56zm382.99 1.5c15-0.1 30.1 1 45.1 1.3 0.6 22.1-19.2 46.8-43.3 40.6-22.16-2.5-46.54 4.6-67.61-3.1 2.24-12.4 13.58-21.9 19.11-33 13.15-3.3 26.91-3.4 40.3-5.7 2.1-0.1 4.3-0.1 6.4-0.1zm59.7 0.7c25.2 5.3 52.6 4.1 76.3 14.7 1.5 9-6.5 19-14 23.7-26.8-0.3-55.9 2.1-81.3-1.2 4-12.6 12.3-25.6 19-37.2zm-154.35 2.2c11.55 0.1 23.09 0.3 34.6 0.7-1.2 14.6-14.35 27.1-26.59 34.1-27.19-2.1-56.15-2.9-81.47-13.8 1.89-7.9 8.7-16.4 15.75-20.4 19.2-0.3 38.47-0.6 57.71-0.6zm242.15 17c22 3.8 44.5 10.8 65.2 19.6 9.8 3.4 2.3 16.5-3.7 19.8-23.5-5.8-46.6-13.5-70.3-18.1-0.4-7 4.9-15.7 8.8-21.3zm81.1 28.4c15.5 5.4 33.8 14.2 44.3 27.1-13.6 20.9-41.6 0.7-53.4-12.4 1.5-5.6 5-10.7 9.1-14.7zm-622.72 2.4c6.92-0.1 15.19 4.4 8.39 10-40.27 11.7-82.3 23.1-112.62 53.7-9.88 20.7-5.2 47.8 15.95 59.1 20.06 8.8 38.5 20.8 57.99 30.8 37.21 9.5 72.51 25.8 110.64 31.8 64.22 9 128.14 23 193.32 22.9 56.17 1.2 111.95 11.6 168.25 9 44.7-4.2 89.7-5.5 134.5-9.3 71.2-13.6 145.2-20.5 211.8-50.7 34.2-19.4 37.7-77.9-1.2-93.6-27-21.9-60.7-32.8-94.3-39.7-1.6-8.4 8.8-22.6 17.9-15.2 46.1 24.6 107.8 25.7 137.9 73.3 17.1 29.8 16.4 72.9-13.8 94.2-19.6 10.4-35.4 28.7-57.7 33.5-42.7 9.7-83.8 27.6-127.6 31.1-89.3 14.3-180.1 9.6-270.01 15.2-11.79-7.4-25.8-4.3-38.77-3.7-77.82-2.9-156.58-2.7-232.67-21.1-46.46-8.6-92.29-21.6-137.83-34.4-35.47-20.9-80.37-32.6-101.54-71.1-17.72-21.7-12.48-52.9 5.18-72.9 35.22-26.3 77.56-41.5 120.36-51.1 1.4-1.2 3.56-1.8 5.86-1.8zm71.57 5.5c30.43 9.1 59.02 26.8 89.72 36.6 1.03 12.8-7.23 24.6-6.77 37.6 0.04 7.2-8.01 1.7-11.71 0.7-26.2-8.6-52.89-17-73.7-36.1-16.39-7.6-5.89-28.9 2.46-38.8zm-54.28 11.2c11.3 6.1 25.32 18.5 30.77 30.3-46.25 15-95.27 24.3-143.33 32.8-5.36-12 11.66-18.6 20.31-24.4 27.38-19.5 59.35-33 92.25-38.7zm662.23 15.9c18.8 0.9 37.6 7.2 55.1 13.8-18.2 3.6-42.6-3.2-63.1-3.2-3-5.5 4.7-7.8 8-10.6zm-504.67 15.2c28.3 12.5 59.82 8.2 88.52 20.2-1.76 10.5-3.89 23-9.43 31.8-30.08-3.5-61.21-5-90.06-14.5 0.93-12.1-0.86-30.3 10.97-37.5zm491.47 3.8c32.2 1.1 64.4 11.2 96.3 6.1 20 10.4 47.5 32.9 40.5 57.1-39.9-11.2-78.4-26.8-118.5-37.4-9.3-3-20.9-17.5-18.3-25.8zm-607.36 4.2c9.33 0.3 23.33 6.3 26.87 14.9-35.47 23.8-72.77 44.8-108.58 68.1-5.42 4.1-11.94 0-17.48-1.6-21.81-9.3-50.56-20.2-56.41-45.5 51.58-13.1 103.53-24.9 155.6-35.9zm218.66 13.1c33.69 4.5 68.31 5.6 100.95 16-30.83 9-67.33 9.6-100.18 16-20.07 3.5-8.13-25-0.77-32zm260 8.3c9.5-0.1 19 0.2 28.4 0.8 19.6 17.6 41 33.6 59.4 52.5-0.4 9.5-15.6 12.4-23.2 8.1-10-1.8-8.3-19.5-20.6-15.7-6.4 13.9-10.1 34.8 6.9 42.9 23 12.3 54.6 7.9 73.5-10.6 5.4 5.8 34.5 19 17.2 24.4-27.2 11.1-57 11.1-85.7 15.7-12.8 2.3-28.8 1.7-34.4-12.6-25.3-27.3-35.3-63.8-58-93-8.7-7.6 0.6-11 8.1-11.6 9.4-0.6 18.9-0.9 28.4-0.9zm-439.24 1.9c15.24 2.3 29.65 9.4 44.5 13.8 4.74 0.7 2.55 5.8 0.55 8.3-17.07 24.3-33.05 49.6-50.51 73.6-30.78 5.4-59.29-13.9-89-19.2-5.4-2.5-17.95-2.3-17.9-10.3 36.01-24.2 73.52-46.7 112.36-66.2zm498.14 2.9c11.4 0.1 18.9 10.9 27 17.8 4.8 2.7 6.9 16.7-1.1 11.2-7.9-10.4-26.1-16.7-29.5-28.7 1.2-0.2 2.5-0.3 3.6-0.3zm-118.7 0.4c2.2 0.1 4.3 0.6 5.7 2.2 23 36.2 46.5 72.1 69 108.6 3.5 4.6-5.6 6-8.1 5.4-26.3 2.2-53.8 11-79.7 3.7-19.2-34.6-28.5-74.3-42.6-110.9 13.4-7.1 33.4-5.2 49.4-8.5 1.8-0.1 4.1-0.5 6.3-0.5zm-75.1 7c7.7-0.4 9.1 10.7 12 16.7 10.8 30.8 27.1 59.7 34.3 91.7 4.4 10.2-9 8.7-14.5 8.4-27.5-2.1-57.09 5-83.24-6-2.1-31.2-2.9-62.4-6.76-93.4 15.35-12 36.58-10.9 54.5-16.5 1.4-0.5 2.6-0.8 3.7-0.9zm282.3 1c38 10.1 79.4 17.3 113.1 38.5-16.1 34.4-58.9 37.8-92 44.7-13.6-6.9-29-15.5-35.1-30.2 3.7-17.7 15.8-35.7 14-53zm-527.54 5.9c24.48 5 50.61 5.5 74.23 13.4-0.04 24.8-3.26 49.7-5.05 74.6 1.47 15.6-19.34 8.2-28.22 10.5-28.54-3.3-57.16-7.2-85.55-11.9-3.73-1.1-12.02-2.7-8.41-8.1 17.05-26.5 35.34-52.5 53-78.5zm169.69 8.1c4.46-0.4 7.55 4.5 6.41 9.2 1.83 28.6 5.38 57.1 5.49 85.7-32.41 2.8-67.55-0.8-98.31-6-0.75-26.9-3.77-58.5 7.66-83.9 25.14-0.9 50.3-3 75.47-3.8 1.15-0.7 2.25-1.1 3.28-1.2z" transform="scale(.8)"/>
</svg>
