<?xml version="1.0" encoding="utf-8"?>

<!DOCTYPE svg PUBLIC "-//W3C//DTD SVG 1.1//EN" "http://www.w3.org/Graphics/SVG/1.1/DTD/svg11.dtd">
<svg version="1.1" id="Layer_1" xmlns="http://www.w3.org/2000/svg" xmlns:xlink="http://www.w3.org/1999/xlink" x="0px" y="0px"
	 viewBox="0 0 1718.34 1721.12" enable-background="new 0 0 1718.34 1721.12" xml:space="preserve">
<g>
	<path d="M943.816,60.56c38.227,0,70.076,11.117,105.689,23.094c126.166,43.988,144.531,99.391,161.047,144.848
		c73.614,209.674-97.477,221.977,288.971,364.78c120.432,44.344,128.623,71.016,158.354,110.116
		c-10.446-11.347-18.492-24.736-29.63-35.483c-61.042-57.762-143.672-63.298-261.584-115.76
		c-131.761-59.404-134.642-83.125-150.026-147.708c-30.53-29.414-81.904-51.466-121.554-66.213
		c-226.26-85.412-475.958-70.401-486.776-58.351c-10.834,13.119-19.145,20.621-26.995,27.504
		c168.852-39.344,319.8,1.391,463.608,52.674c110.747,39.958,155.203,65.198,177.746,98.361
		c-9.379-8.896-19.325-17.308-30.497-23.886c-41.222-25.234-199.115-75.803-258.416-92.491
		c-208.922-59.844-353.375-34.013-358.052-30.505c-35.584,25.943-95.405,30.502-139.379,31.206
		c18.016,0.525,36.049,0.884,54.033,2.259C716.19,361.479,962.727,520.73,1045.27,618.935c21.436,24.683,56.059,58.711,81.887,85.68
		c42.411,45.034,91.044,100.822,136.561,133.593c103.638,75.786,290.871,132.505,333.291,134.535
		c26.645,1.408,42.954-2.545,56.817-4.952c-38.518,11.674-75.028,10.072-112.259-0.458
		c-296.94-83.386-299.793-123.049-472.653-297.917c-33.299-34.122-74.084-87.218-172.344-151.126
		c-1.826,0.584-3.668,1.1-5.502,1.626c37.391,34.553,61.746,89.437,78.468,137.295c133.899,389.501-75.783,436.588-18.125,908.24
		c0,0.001,8.57,80.927,8.57,80.928c-2.974-9.8-26.692-133.579-30.472-238.599c-7.672-288.66,80.496-328.953,66.096-563.669
		c-6.272-94.821-42.536-259.338-106.615-324.07c-16.284,1.553-84.114-12.785-152.735,42.211
		c-6.019-7.337-12.064-14.64-18.066-21.977c41.415-33.351,99.549-50.946,134.927-49.38
		C663.359,373.536,478.236,328.062,252.14,373.142c-25.837,5.161-51.315,12.439-75.576,22.769
		c-82.611,35.008-96.884,60.937-115.302,99.911c4.706-13.767,16.325-38.023,30.464-53.015
		c63.969-68.701,228.773-100.855,322.503-107.365c93.432-6.584,137.01-7.527,181.423-60.786
		C701.947,147.343,764.013,60.153,902.506,61.26C916.279,61.377,930.052,61.035,943.816,60.56 M927.174,78.455
		c-10.409-0.153-20.88-0.042-31.482,0.103c-28.052,0.384-55.707,4.484-81.986,14.616c-40.947,15.787-75.975,43.848-105.646,75.709
		c-1.001,0.906-79.443,80.281-87.881,97.035l-0.242-0.45c-2.251,3.26-4.944,6.186-7.32,9.354
		c37.032-13.124,81.405-12.823,111.592-15.007c211.627-12.126,424.352,63.642,492.429,142.264
		c-4.063-45.439,13.1-84.026-31.372-191.577c-10.858-26.259-28.214-47.812-50.931-64.878c-16.577-12.454-34.984-22.35-53.898-30.751
		c-28.21-12.529-58.285-23.476-88.888-30.028C969.953,80.222,948.696,78.773,927.174,78.455z"/>
	<path d="M599.22,393.993c-16.919,12.253-31.423,27.516-39.051,45.354c-9.996,28.553-17.256,68.039-10.613,98.161
		c32.202-15.385,67.066,1.924,93.809-0.158c11.261,30.337,7.821,23.103,12.814,27.987c12.997,11.739,21.618,27.379,28.388,43.319
		c22.174,50.14-39.911,164.247-11.038,189.46c15.2,13.511,40.806-17.317,60.744-15.624c-0.183,3.635-0.467,7.27-0.717,10.913
		c6.124-0.913,22.853-0.755,27.904-16.849c3.882-12.024,0.097-29.046-19.284-43.344c21.328,8.747,31.273,33.401,24.019,49.764
		c-6.591,16.135-21.756,18.658-38,20.292c-4.177,0.475-8.737,0.092-11.972-2.876c-15.822,8.6-27.555,16.35-41.427,12.139
		c-58.419-17.447,21.948-148.078,3.802-200.273c-5.469-17.041-12.481-34.099-24.403-47.713c-0.709-1.167-2.109-0.233-3.076-0.1
		c-14.019,4.366-53.306-3.48-60.51-4.46c-17.743-2.436-26.842,2.061-32.64,5.036c3.477,9.671,8.454,18.683,13.198,27.771
		c31.448,59.942-7.608,67.093,12.622,140.763c17.805,64.633,131.939,241.5,165.132,270.138
		c48.83,42.424,100.185-2.703,146.891-28.596c73.239-39.701,85.021-54.923,94.167-61.811
		c-33.363,37.322-84.18,62.566-114.635,82.228c-10.83,7.337-21.543,14.923-33.148,21.018
		c-79.858,42.754-115.738-17.63-142.722-53.391c-178.683,188.278-184.64,312.966-200.431,348.664
		c2.249-89.89,32.445-159.35,83.504-232.696c-70.715,9.33-214.705-41.085-318.518-123.28
		c-84.77-67.446-117.076-125.175-162.073-213.904c-12.274-25.21-24.057-39.886-39.484-108.232c-0.417-1.951-1.184-3.793-2.009-5.586
		v-1.517c19.111,24.641,85.208,314.22,426.474,429.851c14.309,4.891,87.8,31.31,97.552,20.034
		c47.036-65.543,76.562-86.043,113.801-114.91C513.282,711.912,568.418,675.242,567.473,629.131
		c-2.088-24.484-19.546-40.024-27.479-82.52C531.336,500.683,548.138,415.484,599.22,393.993z"/>
	<path d="M874.768,555.298c30.855,9.181,35.791,27.276,38.784,32.298c-19.114-15.741-32.085-17.375-42.978-19.384
		c8.914,10.067,5.671,20.769-0.025,25.645c-12.894,11.803-35.706-6.104-19.6-25.645c-46.544,6.277-43.457,29.544-70.415,40.31
		c16.309-14.089,18.442-24.564,34.524-37.95c-12.092,5.381-23.106,14.475-31.081,28.921
		C785.918,580.719,818.936,541.656,874.768,555.298z"/>
	<path d="M887.666,573.206c16.87,19.661-9.449,46.004-31.306,41.944c-30.481-5.518-31.382-30.731-23.185-41.102
		c-3.21,8.037-2.276,17.741,2.901,24.744C851.838,620.813,901.412,608.039,887.666,573.206z"/>
	<path d="M669.635,608.614c2.209,2.918,5.436,4.902,7.47,7.987c-3.151-1.342-6.194-2.918-9.338-4.252
		c-1.5,22.675-37.269,13.077-25.086-7.687c-30.22-6.628-44.843,0.95-56.083,19.951c1.932-23.608,24.915-34.07,47.746-30.564
		c5.361,0.767,10.396,2.876,15.615,4.235c-18.004-9.199-49.901-14.232-61.036,4.127c-2.034,3.201-3.401,6.745-4.944,10.188
		C580.801,576.745,636.223,565.827,669.635,608.614z"/>
	<path d="M905.991,599.535c-10.122,17.444-33.932,31.797-70.323,28.021c-12.664-1.476-24.569-6.345-36.25-11.205
		c-4.577-1.901-9.588-2.509-14.106-4.552C816.773,611.441,855.517,635.333,905.991,599.535z"/>
	<path d="M628.858,604.62c-0.163,9.621-2.875,20.239,10.83,28.471c10.129,5.511,24.253,4.427,32.189-4.41
		c0.8-0.934,1.584-1.876,2.409-2.785c-0.942,4.152-3.993,7.178-6.92,10.055c4.085-2.126,7.912-4.844,12.347-6.236
		c-42.984,44.811-90.008,24.852-89.173,0.233c12.527,23.245,40.532,19.624,65.404,11.063
		C633.185,643.62,618.584,626.046,628.858,604.62z"/>
	<path d="M721.208,627.272c5.865,55.247-2.774,76.274-7.795,99.853c-0.7-11.172,1.334-22.268,2.534-33.332
		C718.305,675.768,716.592,655.59,721.208,627.272z"/>
	<path d="M834.717,855.249c2.301,0.892,4.827,0.684,7.253,1.042c-10.054,4.85-76.549-16.56-82.47-18.308
		c-23.679-5.75-19.613,6.029-34.44,8.254c-6.911,1.626-13.89-1.351-20.809-0.125c-13.479,3.378-18.665,21.024-13.564,29.847
		c2.06,3.717,5.659,4.191,8.646,4.927c-16.855,2.427-18.482-23.111-8.604-34.157c13.499-15.069,24.597-5.172,35.274-9.763
		C754.419,823.379,730.072,818.739,834.717,855.249z"/>
	<path d="M825.313,861.444c-17.851,4.706-58.407-5.557-75.601-0.85c-6.895,1.709-12.364,7.52-19.767,7.42
		c-19.627-0.853-23.68-8.793-29.98,9.754c-0.951-26.129,23.476-14.599,32.114-17.958c3.051-1.242,5.636-3.343,8.52-4.894
		C758.413,844.842,778.916,852.305,825.313,861.444z"/>
	<path d="M838.419,862.486c-44.765,79.612-120.276,75.23-139.529,22.91c2.349,2.524,14.52,21.188,34.957,27.921
		c22.116,7.495,60.89-7.243,81.061-26.645C823.089,879.313,826.506,872.088,838.419,862.486z"/>
	<path d="M809.406,864.97c-3.28,3.762-23.052,20.367-38.901,27.329c-23.434,9.596-35.979,8.801-51.823,4.677
		c-8.08-2.36-13.613-5.105-18.267-14.965C737.335,909.027,779.464,876.543,809.406,864.97z"/>
	<path d="M1386.973,924.038c83.741,149.118,105.056,210.277,111.867,227.61c70.579,182.287,73.254,161.916,49.914,508.911
		c-7.349-104.688,17.229-286.843-32.49-414.594C1458.275,1092.858,1386.973,924.038,1386.973,924.038z"/>
	<path d="M803.903,942.23c-42.701,6.941-37.68-3.496-60.535,15.999C749.048,927.373,791.458,935.693,803.903,942.23z"/>
	<path d="M906.441,1074.114c-20.107,21.569-74.718,7.271-127.524,21.059c24.849-21.631,62.439-23.866,89.448-26.137
		c24.494-2.533,25.199-3.994,33.398-13.773c25.067-32.432-5.199-57.751-44.32-40.051
		C898.087,979.971,952.131,1025.826,906.441,1074.114z"/>
	<path d="M783.136,1122.185c88.247,16.346,119.157,80.093,135.902,169.009l-0.192,0.525
		c-18.533-60.375-39.609-154.094-157.796-159.838c-148.239-7.987-224.896,119.049-274.139,259.825
		c-35.767,103.053-37.792,230.425-40.018,251.504c-4.495-89.823,1.421-192.251,32.498-276.691
		C534.44,1214.701,622.088,1093.212,783.136,1122.185z"/>
</g>
</svg>
